<?xml version="1.0" standalone="no"?>
<!DOCTYPE svg PUBLIC "-//W3C//DTD SVG 1.1//EN" "http://www.w3.org/Graphics/SVG/1.1/DTD/svg11.dtd" >
<svg xmlns="http://www.w3.org/2000/svg" xmlns:xlink="http://www.w3.org/1999/xlink" version="1.1">
<metadata>
Created by FontForge 20170731 at Mon Mar 12 12:49:54 2018
 By Aleksey,,,
2018
</metadata>
<defs>
<font id="Boxout-ExtraBold" horiz-adv-x="497" >
  <font-face 
    font-family="Boxout ExtraBold"
    font-weight="800"
    font-stretch="normal"
    units-per-em="1000"
    panose-1="0 0 9 0 0 0 0 0 0 0"
    ascent="870"
    descent="-130"
    x-height="760"
    cap-height="857"
    bbox="-3.5 -183 775.5 1000"
    underline-thickness="50"
    underline-position="-250"
    unicode-range="U+0020-2212"
  />
<missing-glyph horiz-adv-x="500" 
d="M410 870v-1000h-317v1000h317zM333 803h-165v-33h65v-37h-66v-33h166v33h-66v37h66v33zM267 674h-100v-104h166v34h-66v70zM233 640v-36h-33v36h33zM333 543h-166v-33h66v-37h-66v-33h100v70h66v33zM333 483h-33v-66h-133v-34h166v100zM333 361h-100v-56h34v23h33v-47
h-100v80h-33v-113h166v113zM333 188h-166v-113h166v113zM300 155v-47h-100v47h100zM333 52h-166v-33h70l-70 -47v-33h166v33h-102l70 47h32v33z" />
    <glyph glyph-name=".notdef" horiz-adv-x="500" 
d="M410 870v-1000h-317v1000h317zM333 803h-165v-33h65v-37h-66v-33h166v33h-66v37h66v33zM267 674h-100v-104h166v34h-66v70zM233 640v-36h-33v36h33zM333 543h-166v-33h66v-37h-66v-33h100v70h66v33zM333 483h-33v-66h-133v-34h166v100zM333 361h-100v-56h34v23h33v-47
h-100v80h-33v-113h166v113zM333 188h-166v-113h166v113zM300 155v-47h-100v47h100zM333 52h-166v-33h70l-70 -47v-33h166v33h-102l70 47h32v33z" />
    <glyph glyph-name=".null" horiz-adv-x="0" 
 />
    <glyph glyph-name="nonmarkingreturn" horiz-adv-x="333" 
 />
    <glyph glyph-name="space" unicode=" " horiz-adv-x="150" 
 />
    <glyph glyph-name="exclam" unicode="!" horiz-adv-x="234" 
d="M65 245q-4 108 -15 313t-15 299h164q-2 -91 -7 -193t-12.5 -226.5t-10.5 -192.5h-104zM43 0q-12 82 0 164h146q15 -82 0 -164h-146z" />
    <glyph glyph-name="quotedbl" unicode="&#x22;" horiz-adv-x="362" 
d="M47 483h103q2 56 7 153t5.5 125t-1.5 109h-124q-3 -78 -2 -109.5t5.5 -125t6.5 -152.5zM211 483h103q2 56 7 153t5.5 125t-1.5 109h-124q-3 -78 -2 -109.5t5.5 -125t6.5 -152.5z" />
    <glyph glyph-name="numbersign" unicode="#" horiz-adv-x="599" 
d="M562 515h-71q-6 -62 -16 -186h67q6 -65 0 -129h-77q-10 -138 -14 -200h-149q9 74 22 200h-87q-10 -138 -14 -200h-149q9 74 22 200h-58q-6 64 0 129h71q3 31 8 93t8 93h-67q-6 65 0 129h77q10 142 14 213h149q-4 -36 -11.5 -107t-11.5 -106h88q10 142 14 213h149
q-4 -36 -11.5 -107t-11.5 -106h59q6 -64 0 -129zM337 329q2 31 7.5 93t8.5 93h-90q-6 -62 -16 -186h90z" />
    <glyph glyph-name="ampersand" unicode="&#x26;" 
d="M193 -8q-69 0 -114 49.5t-44 121.5v145q-1 63 44 89.5t128 32.5v7q-83 5 -128 32t-44 95v130q-1 72 43.5 121.5t114.5 49.5h110q70 0 114.5 -49.5t43.5 -121.5q0 -106 -1 -166h-162q0 122 -1 182h-98q-5 -98 -1 -241h262v-64h-150v-17q78 -3 115 -32.5t37 -102.5
q-1 -35 0 -90q0 -73 -44.5 -122t-114.5 -49h-110zM202 147h93q4 128 2 241h-96q-4 -132 1 -241z" />
    <glyph glyph-name="quotesingle" unicode="'" horiz-adv-x="198" 
d="M47 483h103q2 56 7 153t5.5 125t-1.5 109h-124q-3 -78 -2 -109.5t5.5 -125t6.5 -152.5z" />
    <glyph glyph-name="asterisk" unicode="*" horiz-adv-x="514" 
d="M479 662q-37 -18 -144 -50q63 -91 84 -134l-84 -50q-27 37 -78 143q-55 -111 -78 -143l-84 50q20 43 83 134q-107 32 -143 50l34 92q41 -11 144 -59q-10 128 -6 164h98q4 -36 -4 -164q99 47 144 59z" />
    <glyph glyph-name="plus" unicode="+" horiz-adv-x="542" 
d="M505 490q5 -70 0 -136h-166v-195q-71 -5 -137 0v195h-165q-5 66 0 136h165v198q66 5 137 0v-198h166z" />
    <glyph glyph-name="comma" unicode="," horiz-adv-x="231" 
d="M41 0q-14 82 0 164h146q16 -83 3.5 -142.5t-63.5 -106.5h-66q46 46 51 85h-71z" />
    <glyph glyph-name="hyphen" unicode="-" horiz-adv-x="331" 
d="M37 342h257q5 78 0 160h-257q-5 -82 0 -160z" />
    <glyph glyph-name="period" unicode="." horiz-adv-x="229" 
d="M41 0h146q14 82 0 164h-146q-14 -82 0 -164z" />
    <glyph glyph-name="slash" unicode="/" horiz-adv-x="297" 
d="M35 -130q15 126 30 287.5t23 267t22.5 307.5t19.5 268h132q-19 -163 -34.5 -338t-36 -455t-24.5 -337h-132z" />
    <glyph glyph-name="zero" unicode="0" horiz-adv-x="478" 
d="M188 -8q-70 0 -115 49.5t-43 121.5q5 262 0 530q-2 73 43 122.5t115 49.5h102q70 0 115 -49.5t43 -122.5q-5 -268 0 -530q2 -72 -43 -121.5t-115 -49.5h-102zM188 147h102q6 281 0 562h-102q-6 -281 0 -562z" />
    <glyph glyph-name="one" unicode="1" horiz-adv-x="276" 
d="M35 704v153h207q-11 -429 0 -857h-166q13 349 6 700z" />
    <glyph glyph-name="two" unicode="2" horiz-adv-x="498" 
d="M295 872q72 -2 120 -53.5t47 -124.5q0 -74 -2 -105q-3 -47 -17 -77.5t-46 -55.5l-198 -155v-88v-83h94q0 22 0.5 67t0.5 68h163q0 -168 1 -265h-423l1 213q2 40 6 74q11 83 64 126l194 157v157h-96q-1 -54 -1 -161h-162q0 85 -1 128q0 72 47.5 123t120.5 55h87z" />
    <glyph glyph-name="three" unicode="3" 
d="M462 567q0 -68 -44.5 -95t-128.5 -32v-13q83 -6 128 -32.5t45 -89.5q-2 -75 0 -149q0 -74 -46 -122.5t-117 -48.5h-101q-70 0 -116.5 48t-46.5 122q0 118 1 178h165q-1 -31 -1 -93t-1 -93l49 -1q36 0 50 1q8 113 0 225h-123v122h123q7 108 0 216h-49h-1h-48
q0 -30 -0.5 -90t-1.5 -90l-162 -2v174q-1 74 45.5 122t117.5 48h100q71 0 117 -48.5t46 -122.5q-2 -66 0 -134z" />
    <glyph glyph-name="four" unicode="4" horiz-adv-x="479" 
d="M278 0q3 150 5 338h-24q-2 -93 -27 -122t-91 -29h-119l27 670h167l-25 -489h92q0 76 -0.5 246t-0.5 243h162q-2 -430 0 -857h-166z" />
    <glyph glyph-name="five" unicode="5" 
d="M198 -15q-70 0 -116.5 48t-46.5 122q0 118 1 178h165q-1 -31 -1 -93t-1 -93q68 -1 96 0q2 127 0 257l-259 -1q0 53 -0.5 201t-0.5 253h402v-165h-236q-1 -51 -5 -258h24q2 92 29 121.5t94 29.5q118 0 118 -141q0 -199 1 -289q0 -74 -46.5 -122t-116.5 -48h-101z" />
    <glyph glyph-name="six" unicode="6" 
d="M198 -15q-73 0 -119 48t-44 122q3 183 0 531q0 74 46 122.5t117 48.5h219v-165h-216q-3 -73 -5 -233h24q2 91 29 120.5t94 29.5q118 0 118 -140q0 -220 1 -314q0 -74 -46.5 -122t-116.5 -48h-101zM198 147h97q2 139 0 282h-99q0 -192 2 -282z" />
    <glyph glyph-name="seven" unicode="7" horiz-adv-x="447" 
d="M105 0l152 620l13 107h-93q-1 -45 -1 -135h-163l-1 265h423l-3 -167l-164 -690h-163z" />
    <glyph glyph-name="eight" unicode="8" horiz-adv-x="496" 
d="M198 -15q-71 0 -117.5 48.5t-45.5 122.5v149q-1 58 45 87t123 35v13q-78 5 -123.5 34.5t-44.5 92.5v134q-1 74 45.5 122.5t117.5 48.5h100q70 0 116.5 -48t46.5 -122q-2 -68 0 -135q0 -116 -168 -127v-13q168 -13 168 -122v-149q0 -74 -46 -122.5t-117 -48.5h-100z
M198 491h99q5 114 0 218h-98q-5 -88 -1 -218zM199 148h98q5 104 0 218h-99q-4 -131 1 -218z" />
    <glyph glyph-name="nine" unicode="9" 
d="M299 872q73 0 119 -48t44 -122q-3 -183 0 -531q0 -74 -46 -122.5t-117 -48.5h-219v165h216q3 73 5 233h-24q-2 -91 -29 -120.5t-94 -29.5q-118 0 -118 140q0 220 -1 314q0 74 46.5 122t116.5 48h101zM299 710h-28h-39h-30q-2 -139 0 -282h99q0 192 -2 282z" />
    <glyph glyph-name="colon" unicode=":" horiz-adv-x="229" 
d="M41 416h146q14 82 0 164h-146q-14 -82 0 -164zM41 0h146q14 82 0 164h-146q-14 -82 0 -164z" />
    <glyph glyph-name="semicolon" unicode=";" horiz-adv-x="231" 
d="M41 416h146q14 82 0 164h-146q-14 -82 0 -164zM41 0q-14 82 0 164h146q16 -83 3.5 -142.5t-63.5 -106.5h-66q46 46 51 85h-71z" />
    <glyph glyph-name="less" unicode="&#x3c;" horiz-adv-x="430" 
d="M103 372q43 -7 91.5 -14t108 -15t91.5 -13q3 -81 0 -163l-360 84v54v68v132q48 12 170.5 40t189.5 45q3 -82 0 -164q-32 -5 -91.5 -13t-108 -15t-91.5 -14v-12z" />
    <glyph glyph-name="equal" unicode="=" horiz-adv-x="542" 
d="M37 453h468q5 66 0 136h-468q-5 -70 0 -136zM37 255h468q5 66 0 136h-468q-5 -70 0 -136z" />
    <glyph glyph-name="greater" unicode="&#x3e;" horiz-adv-x="431" 
d="M36 590q67 -17 189.5 -45t170.5 -40v-132v-68v-54q-40 -9 -113.5 -26t-133.5 -31t-113 -27q-3 81 0 163q32 5 91.5 13t108 15t91.5 14v12q-43 7 -91.5 14t-108 15t-91.5 13q-3 82 0 164z" />
    <glyph glyph-name="question" unicode="?" horiz-adv-x="484" 
d="M173 245q1 18 1 142q0 98 71 149l46 34v157h-96q-1 -54 -1 -161h-158q-1 42 -1 129q0 72 43.5 121t110.5 49h102q70 0 114.5 -49t44.5 -121q0 -15 -0.5 -46t-1.5 -42q0 -58 -34 -103t-112 -81q-1 -68 -1 -178h-128zM165 0q-12 82 0 164h146q15 -82 0 -164h-146z" />
    <glyph glyph-name="A" unicode="A" horiz-adv-x="471" 
d="M458 0h-164l-6 151h-103q-6 -98 -8 -151h-164q32 289 80 857h284q53 -608 81 -857zM193 295h87q-10 179 -29 410h-31q-15 -210 -27 -410z" />
    <glyph glyph-name="B" unicode="B" horiz-adv-x="492" 
d="M35 0q18 428 0 857h293q55 0 92.5 -38.5t36.5 -90.5v-161q1 -67 -40.5 -94t-117.5 -32v-14q75 -7 117 -33.5t41 -88.5v-176q1 -55 -36 -92t-92 -37h-294zM191 488q33 0 103 2q6 105 0 212h-102q-4 -100 -1 -214zM192 155h102q6 107 0 212q-70 2 -103 2q-3 -114 1 -214z
" />
    <glyph glyph-name="C" unicode="C" horiz-adv-x="487" 
d="M193 -8q-71 0 -115.5 49.5t-42.5 121.5q5 262 0 531q-2 73 42.5 122t115.5 49l100 -1q70 -1 114.5 -49.5t44.5 -120.5q-1 -56 -1 -168h-162q3 93 3 184h-101q-5 -281 0 -563h101q0 91 -3 184h162q0 -112 1 -168q0 -73 -44.5 -122t-114.5 -49h-100z" />
    <glyph glyph-name="D" unicode="D" horiz-adv-x="487" 
d="M35 0q18 428 0 857h259q70 0 115 -49t44 -121q-6 -262 0 -517q1 -72 -44 -121t-115 -49h-259zM192 155h102q8 273 0 547h-102q-5 -273 0 -547z" />
    <glyph glyph-name="E" unicode="E" horiz-adv-x="393" 
d="M364 679q-57 6 -161 2q-2 -122 -2 -184q71 0 140 4v-140h-47h-51.5h-41.5q0 -63 2 -185q104 -4 161 2v-178h-329q18 428 0 857h329v-178z" />
    <glyph glyph-name="F" unicode="F" horiz-adv-x="393" 
d="M364 686q-48 5 -161 3q-2 -122 -2 -181q52 -1 140 4v-162h-47h-51.5h-41.5q0 -155 5 -350h-171q18 428 0 857h329v-171z" />
    <glyph glyph-name="G" unicode="G" horiz-adv-x="490" 
d="M162 -8q-61 0 -94.5 37.5t-32.5 106.5q5 280 0 558q-2 72 43 121.5t115 49.5h100q70 0 114.5 -49t44.5 -122q-1 -58 -1 -173h-162q3 91 3 188h-99q-5 -318 1 -539h98l-1 220h163q-2 -172 1 -390h-160v141h-22q0 -88 -24 -118.5t-87 -30.5z" />
    <glyph glyph-name="H" unicode="H" horiz-adv-x="494" 
d="M460 857q-12 -429 0 -857h-165q6 152 8 367h-108q0 -164 5 -367h-165q18 428 0 857h165q-5 -210 -5 -377h108q0 175 -8 377h165z" />
    <glyph glyph-name="I" unicode="I" horiz-adv-x="235" 
d="M35 0q11 428 0 857h165q-11 -429 0 -857h-165z" />
    <glyph glyph-name="J" unicode="J" horiz-adv-x="336" 
d="M30 0v175h104q12 251 0 682h172q-8 -258 -5 -687q0 -72 -44.5 -121t-114.5 -49h-112z" />
    <glyph glyph-name="K" unicode="K" horiz-adv-x="489" 
d="M247 423q77 0 106 -14t40 -49q21 -63 90 -360h-172l-69 372l-47 -1q0 -156 5 -371h-165q16 428 0 857h165q-5 -222 -5 -377h47l69 377h172q-67 -278 -91 -350q-10 -34 -39 -48t-106 -15v-21z" />
    <glyph glyph-name="L" unicode="L" horiz-adv-x="378" 
d="M203 175q99 -2 145 3v-178h-313q18 428 0 857h171q-9 -340 -3 -682z" />
    <glyph glyph-name="M" unicode="M" horiz-adv-x="685" 
d="M499 0q-2 242 -15 610h-26q-9 -123 -21 -242q-18 -202 -38 -368h-52h-19h-25h-21q-6 61 -18 184t-18 184q-1 6 -21 242h-26q-11 -357 -13 -610h-164q28 421 22 857h238q7 -72 15.5 -209t14.5 -200q3 -35 8.5 -102.5t7.5 -99.5h25q11 102 18 202q4 68 12.5 204.5
t12.5 204.5h243q-7 -386 23 -857h-163z" />
    <glyph glyph-name="N" unicode="N" horiz-adv-x="552" 
d="M517 857q-11 -429 0 -857h-207l-60 375l-27 234h-27q-3 -319 4 -609h-165q18 428 0 857h203l72 -402l23 -208h26q5 314 -7 610h165z" />
    <glyph glyph-name="O" unicode="O" horiz-adv-x="478" 
d="M188 -8q-70 0 -115 49.5t-43 121.5q5 262 0 530q-2 73 43 122.5t115 49.5h102q70 0 115 -49.5t43 -122.5q-5 -268 0 -530q2 -72 -43 -121.5t-115 -49.5h-102zM188 147h102q6 281 0 562h-102q-6 -281 0 -562z" />
    <glyph glyph-name="P" unicode="P" horiz-adv-x="481" 
d="M35 0q10 445 0 857h259q69 0 113 -49t44 -121q-1 -202 0 -399q0 -143 -115 -143q-67 0 -91 28.5t-26 121.5h-23q0 -26 1.5 -130t2.5 -165h-165zM196 325h97q1 186 0 370q-46 2 -96 0q-3 -219 -1 -370z" />
    <glyph glyph-name="Q" unicode="Q" horiz-adv-x="488" 
d="M154 -8q-62 0 -93.5 38t-30.5 111q5 273 0 553q-2 72 42.5 121.5t115.5 49.5h100q70 0 115 -49.5t44 -121.5q-3 -194 0 -383q1 -62 -33.5 -90.5t-101.5 -28.5v-22l133 1l28 -182h-166l-20 152h-20q-1 -90 -23 -119.5t-90 -29.5zM189 170h95q7 305 3 547h-99
q-5 -323 1 -547z" />
    <glyph glyph-name="R" unicode="R" horiz-adv-x="496" 
d="M35 0q18 423 0 857h293q55 0 92.5 -38.5t36.5 -90.5v-210q1 -67 -41.5 -96t-116.5 -34v-15q94 -9 126 -27.5t32 -73.5q1 -55 6.5 -149.5t9.5 -122.5h-180q6 157 1 321q-72 2 -103 2q-2 -131 1 -323h-157zM191 442l103 1q7 129 0 259h-102q-5 -118 -1 -260z" />
    <glyph glyph-name="S" unicode="S" horiz-adv-x="482" 
d="M294 -7l-101 1q-70 1 -114.5 50t-44.5 120q1 37 1 140h155q0 -9 -1 -73.5t-2 -90.5q55 -2 108 0q2 82 2 149l-199 146q-66 49 -68 144v115q-1 71 45.5 121t112.5 50q17 0 50.5 -0.5t50.5 -0.5q66 0 112.5 -49.5t46.5 -121.5q-1 -36 -1 -138h-155q0 9 1 68.5t2 86.5h-108
q-2 -86 -2 -141l199 -145q67 -51 67 -145l1 -115q1 -73 -43.5 -122.5t-114.5 -48.5z" />
    <glyph glyph-name="T" unicode="T" horiz-adv-x="395" 
d="M384 685q-76 6 -104 7q-5 -386 3 -692h-170q13 336 7 692q-32 -1 -109 -7v172h373v-172z" />
    <glyph glyph-name="U" unicode="U" horiz-adv-x="493" 
d="M199 -8q-70 0 -114.5 49.5t-43.5 121.5q2 144 1.5 344t-7.5 350h165q-9 -360 -3 -713h102q9 346 -5 713h164q-9 -354 0 -694q0 -73 -44.5 -122t-114.5 -49h-100z" />
    <glyph glyph-name="V" unicode="V" horiz-adv-x="452" 
d="M281 857h164q-22 -184 -88 -857h-261q-40 501 -89 857h163q36 -562 48 -702h17q32 374 46 702z" />
    <glyph glyph-name="W" unicode="W" horiz-adv-x="685" 
d="M662 857q-30 -471 -23 -857h-243q-4 68 -12.5 204.5t-12.5 204.5q-7 100 -18 202h-25q-2 -32 -7.5 -99.5t-8.5 -102.5q-6 -63 -14.5 -200t-15.5 -209h-238q6 436 -22 857h164q2 -253 13 -610h26q20 236 21 242l36 368h21h25h19h52q20 -166 38 -368q12 -119 21 -242h26
q13 368 15 610h163z" />
    <glyph glyph-name="X" unicode="X" horiz-adv-x="494" 
d="M320 423q81 0 92 -63l76 -360h-172l-54 357h-1v-1h-28v1h-1l-55 -357h-171l75 360q7 33 29 48t64 15v21q-81 1 -92 63l-76 350h171l55 -361h30l54 361h172l-76 -350q-11 -62 -92 -63v-21z" />
    <glyph glyph-name="Y" unicode="Y" horiz-adv-x="502" 
d="M467 857q-9 -304 -6 -617q1 -79 -7.5 -124t-36 -72t-69 -35.5t-115.5 -8.5h-161v175h223q3 67 5 217h-23q-3 -93 -28 -122t-90 -29t-94 35.5t-29 107.5q0 265 -1 473h168q-2 -232 -2 -436h99q1 215 -5 436h172z" />
    <glyph glyph-name="Z" unicode="Z" horiz-adv-x="408" 
d="M378 682l-180 -488v-23q121 0 180 4v-175h-348v175l179 487v24q-122 0 -179 -4v175h348v-175z" />
    <glyph glyph-name="backslash" unicode="\" horiz-adv-x="297" 
d="M262 -130h-132q-7 89 -20.5 271.5t-22.5 299.5t-23 275t-29 284h132q5 -66 19.5 -268t22.5 -307.5t23 -267t30 -287.5z" />
    <glyph glyph-name="asciicircum" unicode="^" horiz-adv-x="393" 
d="M232 558q-28 169 -30 179h-11q-2 -10 -30 -179h-126q52 198 72 299h104h32h43q16 -87 72 -299h-126z" />
    <glyph glyph-name="underscore" unicode="_" horiz-adv-x="740" 
d="M-1 -183h742q5 66 0 136h-742q-5 -70 0 -136z" />
    <glyph glyph-name="a" unicode="a" horiz-adv-x="481" 
d="M446 0h-164l3 142h-22q-2 -93 -27 -122t-90 -29q-117 0 -115 144q-1 46 -1 122q0 144 116 144h142q0 44 -2 214h-101q0 -17 1 -49t1.5 -58t0.5 -49h-157q-1 44 -1 141q0 71 44.5 119.5t113.5 49.5l104 1q67 1 109 -49t41 -121q-1 -100 4 -600zM188 172q45 -2 98 0
q2 136 2 191h-99q-1 -42 -1 -191z" />
    <glyph glyph-name="b" unicode="b" horiz-adv-x="489" 
d="M454 626v-491q2 -144 -115 -144q-67 0 -92 29t-27 122h-22l3 -142h-166q11 434 0 870h166q-2 -85 -4 -251h22q3 93 28 122t92 29q117 0 115 -144zM296 172v417h-100q-1 -185 2 -417q52 -2 98 0z" />
    <glyph glyph-name="c" unicode="c" horiz-adv-x="487" 
d="M193 -8q-73 0 -116 48.5t-42 122.5q2 213 0 437q-1 72 42.5 121.5t115.5 48.5l96 -1q73 -1 118 -49.5t45 -119.5q-1 -60 -1 -185h-162l3 200h-101q-4 -186 0 -468h101q0 33 -1 95.5t-2 96.5h162q0 -118 1 -176q0 -76 -44.5 -123.5t-118.5 -47.5h-96z" />
    <glyph glyph-name="d" unicode="d" horiz-adv-x="489" 
d="M454 870q-11 -436 0 -870h-166l3 142h-22q-2 -93 -27 -122t-92 -29q-117 0 -115 144v491q-2 144 115 144q67 0 92 -29t28 -122h22q-2 166 -4 251h166zM193 172q46 -2 98 0q3 232 2 417h-100v-417z" />
    <glyph glyph-name="e" unicode="e" horiz-adv-x="487" 
d="M289 279h162q0 -58 1 -116q0 -76 -44.5 -123.5t-118.5 -47.5h-96q-73 0 -116 48.5t-42 122.5q2 213 0 437q-1 72 42.5 121.5t115.5 48.5l96 -1q73 -1 118 -49.5t45 -119.5q-1 -60 -1 -245h-262q0 -38 2 -208h101q-1 34 -2 66.5t-1 65.5zM191 615q-2 -80 -2 -222h101
q0 110 2 222h-101z" />
    <glyph glyph-name="f" unicode="f" horiz-adv-x="347" 
d="M312 715q-58 4 -121 4v-92q78 2 121 4v-148q-10 1 -29.5 2.5t-29.5 2.5q-6 -239 3 -488h-165q9 249 3 488q-10 -1 -29.5 -2.5t-29.5 -2.5v148q92 -4 126 -4v23q-68 2 -93.5 25.5t-25.5 79.5q0 115 142 115h128v-155z" />
    <glyph glyph-name="g" unicode="g" horiz-adv-x="501" 
d="M466 761q-6 -165 -6.5 -361t2.5 -250q5 -77 -4.5 -123.5t-39.5 -72.5t-72 -35t-113 -9h-154v150h216q3 62 5 214h-24q-2 -93 -28 -122t-94 -29q-121 0 -119 144v359q-2 144 119 144q68 0 94 -29t28 -122h23l-3 142h170zM200 304q46 -2 100 0q2 158 -1 285h-99v-285z" />
    <glyph glyph-name="h" unicode="h" horiz-adv-x="513" 
d="M479 0h-174q9 270 5 588q-48 2 -107 0q-2 -328 5 -588h-173q11 434 0 870h173q-2 -84 -4 -252h22q3 93 28 122t92 29q65 0 94 -36t29 -108q0 -425 10 -625z" />
    <glyph glyph-name="i" unicode="i" horiz-adv-x="242" 
d="M36 722q-12 74 0 149h168q15 -75 0 -149h-168zM38 0q10 337 0 676h166q-12 -339 0 -676h-166z" />
    <glyph glyph-name="j" unicode="j" horiz-adv-x="255" 
d="M49 721q-12 75 0 149h169q14 -74 0 -149h-169zM97 -101h-95v149l50 1q10 256 0 627h164q-7 -236 -3 -632q2 -81 -22.5 -113t-93.5 -32z" />
    <glyph glyph-name="k" unicode="k" horiz-adv-x="479" 
d="M253 375q70 0 98 -13t38 -45q10 -31 23 -79t33 -123.5t30 -114.5h-170l-59 330l-54 -1q2 -189 8 -329h-165q11 434 0 870h165q-9 -232 -9 -444h55l59 334h170q-80 -291 -86 -309q-10 -31 -38 -43.5t-98 -13.5v-19z" />
    <glyph glyph-name="l" unicode="l" horiz-adv-x="279" 
d="M177 -5q-86 0 -114 46t-24 177q7 284 -4 652h179q-11 -419 0 -722h47v-148q-30 -5 -84 -5z" />
    <glyph glyph-name="m" unicode="m" horiz-adv-x="742" 
d="M708 0h-166q8 218 5 588q-44 2 -100 0q2 -420 10 -588h-166q8 218 5 588q-45 2 -100 0q-6 -298 4 -588h-165q13 379 0 760h165q-2 -47 -4 -142h24q2 92 26 121.5t86 29.5q117 0 115 -144v-7h17q3 93 28 122t91 29q115 0 115 -144q0 -392 10 -625z" />
    <glyph glyph-name="n" unicode="n" horiz-adv-x="513" 
d="M479 0h-174q9 270 5 588q-48 2 -106 0q-6 -298 4 -588h-173q13 379 0 760h173q-2 -47 -4 -142h23q3 93 28 122t91 29q65 0 94 -36t29 -108q0 -425 10 -625z" />
    <glyph glyph-name="o" unicode="o" horiz-adv-x="478" 
d="M188 -8q-70 0 -114.5 49.5t-43.5 121.5q4 213 0 436q-1 72 43.5 121.5t114.5 49.5h102q70 0 114.5 -49t43.5 -122q-2 -223 0 -436q1 -73 -44 -122t-119 -49h-97zM188 147h102q6 233 0 467h-102q-6 -234 0 -467z" />
    <glyph glyph-name="p" unicode="p" horiz-adv-x="489" 
d="M454 627v-492q2 -144 -115 -144q-67 0 -92 29t-28 122h-22q2 -186 4 -272h-166q11 444 0 890h166l-3 -140h22q2 93 27 122t92 29q117 0 115 -144zM296 172v418h-99q-2 -260 -1 -418q55 -2 100 0z" />
    <glyph glyph-name="q" unicode="q" horiz-adv-x="489" 
d="M454 760q-11 -446 0 -890h-166q2 86 4 272h-22q-3 -93 -28 -122t-92 -29q-117 0 -115 144v492q-2 144 115 144q67 0 92 -29t27 -122h22l-3 140h166zM193 172q45 -2 100 0q1 158 -1 418h-99v-418z" />
    <glyph glyph-name="r" unicode="r" horiz-adv-x="482" 
d="M452 627q0 -11 -1 -88t-1 -156.5t2 -138.5h-167q3 255 1 346h-82q-6 -300 4 -590h-173q12 379 0 760h173q-2 -46 -4 -140h23q2 97 20.5 124t81.5 27q65 0 94 -36t29 -108z" />
    <glyph glyph-name="s" unicode="s" horiz-adv-x="458" 
d="M273 -10l-85 1q-68 1 -113.5 50t-44.5 119q0 72 1 106h150q-2 -84 -2 -136h100q2 78 2 130l-194 119q-59 36 -61 130v91q0 69 46.5 119.5t111.5 50.5q16 0 43 -0.5t42 -0.5q70 0 114.5 -49t44.5 -122q-1 -34 -1 -106h-151q1 25 2 78.5t1 59.5h-101q0 -20 -0.5 -67.5
t-0.5 -63.5l193 -119q61 -37 61 -131q0 -64 1 -89q0 -73 -44.5 -122t-114.5 -48z" />
    <glyph glyph-name="t" unicode="t" horiz-adv-x="345" 
d="M315 590l-63 10q-3 -198 6 -452h47v-148q-30 -5 -84 -5q-81 0 -107.5 46t-22.5 177q5 191 2 382l-63 -10v170l60 -8l-3 118h171l-3 -117l60 7v-170z" />
    <glyph glyph-name="u" unicode="u" horiz-adv-x="513" 
d="M478 760q-13 -379 0 -760h-173q2 47 4 142h-23q-3 -93 -28 -122t-91 -29q-65 0 -94 36t-29 108q0 425 -10 625h174q-9 -270 -5 -588q48 -2 106 0q6 298 -4 588h173z" />
    <glyph glyph-name="v" unicode="v" horiz-adv-x="462" 
d="M285 760h165q-34 -254 -88 -760h-261q-40 442 -89 760h163q28 -416 48 -623h16q33 327 46 623z" />
    <glyph glyph-name="w" unicode="w" horiz-adv-x="700" 
d="M670 760q-28 -379 -21 -760h-239q-16 144 -30 363q-6 87 -15 179h-26q-10 -89 -18 -179q-5 -98 -14.5 -219.5t-10.5 -143.5h-243q7 360 -23 760h164q1 -225 15 -586h22q14 174 24 260q15 150 39 326h96h20q24 -218 36 -326q6 -49 14.5 -141t11.5 -119h20q13 331 14 586
h164z" />
    <glyph glyph-name="x" unicode="x" horiz-adv-x="468" 
d="M314 375q72 0 83 -56l66 -319h-168l-48 317h-1v-1h-25v1l-49 -317h-167l66 319q11 56 83 56v19q-73 2 -83 56l-66 310h167l49 -321h26l48 321h168l-67 -310q-10 -54 -82 -56v-19z" />
    <glyph glyph-name="y" unicode="y" horiz-adv-x="502" 
d="M467 760q-15 -351 -6 -610q5 -78 -3 -124t-37 -72.5t-71.5 -35t-116.5 -8.5h-153v150h215q3 62 5 214h-23q-3 -93 -28 -122t-90 -29t-94 36t-29 108q0 285 -1 493h168q-2 -232 -2 -456q45 -2 99 0q2 232 -5 456h172z" />
    <glyph glyph-name="z" unicode="z" horiz-adv-x="425" 
d="M391 614l-184 -451v-20q121 0 184 3v-146h-356v146l182 451v20q-121 0 -182 -3v146h356v-146z" />
    <glyph glyph-name="exclamdown" unicode="&#xa1;" horiz-adv-x="234" 
d="M191 727q12 -82 0 -164h-146q-15 82 0 164h146zM169 482q4 -108 15 -313t15 -299h-164q2 91 7 193t12.5 226.5t10.5 192.5h104z" />
    <glyph glyph-name="periodcentered" unicode="&#xb7;" horiz-adv-x="229" 
d="M41 340h146q14 82 0 164h-146q-14 -82 0 -164z" />
    <glyph glyph-name="questiondown" unicode="&#xbf;" horiz-adv-x="484" 
d="M319 742q12 -82 0 -164h-146q-15 82 0 164h146zM311 497q-1 -18 -1 -142q0 -98 -71 -149l-46 -34v-47.5v-58.5v-51h96q1 54 1 161h158q1 -42 1 -129q0 -72 -43.5 -121t-110.5 -49h-102q-70 0 -114.5 49t-44.5 121q0 15 0.5 46t1.5 42q0 58 34 103t112 81q1 68 1 178h128z
" />
    <glyph glyph-name="multiply" unicode="&#xd7;" horiz-adv-x="540" 
d="M366 422l139 -139q-41 -48 -96 -96l-139 139l-139 -139q-48 41 -96 96l138 139l-138 138q46 52 97 96l138 -138l138 139q52 -46 96 -97z" />
    <glyph glyph-name="endash" unicode="&#x2013;" horiz-adv-x="602" 
d="M37 354h528q5 66 0 136h-528q-5 -70 0 -136z" />
    <glyph glyph-name="emdash" unicode="&#x2014;" horiz-adv-x="810" 
d="M37 354h736q5 66 0 136h-736q-5 -70 0 -136z" />
    <glyph glyph-name="bullet" unicode="&#x2022;" horiz-adv-x="315" 
d="M46 296h224q20 126 0 252h-224q-23 -126 0 -252z" />
    <glyph glyph-name="ellipsis" unicode="&#x2026;" horiz-adv-x="631" 
d="M41 0h139q14 82 0 164h-139q-14 -82 0 -164zM247 0h138q14 82 0 164h-138q-15 -82 0 -164zM452 0h138q14 82 0 164h-138q-14 -82 0 -164z" />
    <glyph glyph-name="minus" unicode="&#x2212;" horiz-adv-x="602" 
d="M37 354h528q5 66 0 136h-528q-5 -70 0 -136z" />
    <glyph glyph-name="E.001" horiz-adv-x="421" 
d="M386 701q-30 3 -97 3t-101 -3q-2 -142 -2 -215q62 0 155 3v-116h-155q0 -73 2 -217q34 -3 101 -3t97 3v-156h-351q18 428 0 857h351v-156z" />
    <glyph glyph-name="F.001" horiz-adv-x="421" 
d="M386 701q-30 3 -97 3t-101 -3q-2 -136 -2 -204q72 0 155 4v-140h-155q0 -159 5 -361h-156q18 428 0 857h351v-156z" />
    <glyph glyph-name="J.001" horiz-adv-x="488" 
d="M207 -15q-80 4 -128.5 53t-48.5 125q0 112 1 168h162q-4 -126 -3 -191q51 -2 101 0q8 384 -6 717h173q-8 -382 -4 -694q1 -75 -47.5 -124.5t-132.5 -53.5h-67z" />
    <glyph glyph-name="K.001" horiz-adv-x="559" 
d="M406 419q93 -8 104 -96q0 -46 8 -179.5t11 -143.5h-220q6 176 0 353h-82q0 -150 5 -353h-202q20 428 0 857h202q-5 -207 -5 -353h82q6 176 0 353h220q-3 -10 -11 -143.5t-8 -179.5q-11 -88 -104 -96l-58 -5v-9z" />
    <glyph glyph-name="L.001" horiz-adv-x="421" 
d="M197 154q118 -4 189 2v-156h-351q18 428 0 857h165q-9 -351 -3 -703z" />
    <glyph glyph-name="P.001" horiz-adv-x="492" 
d="M35 0q18 428 0 857h294q55 0 92 -38.5t36 -91.5v-250q1 -51 -32.5 -84.5t-85.5 -37.5l-144 -1q0 -157 5 -354h-165zM191 438h103q6 132 0 264h-102q-4 -123 -1 -264z" />
    <glyph glyph-name="Q.001" horiz-adv-x="504" 
d="M20 182q9 235 0 480q0 80 52 138.5t130 63.5h84q82 -5 135 -63t53 -139v-337q0 -64 -37.5 -96.5t-105.5 -32.5v-10q53 2 87.5 -6.5t49.5 -24t23.5 -36.5t10.5 -41.5t10 -42.5t22 -35q-65 -12 -111.5 -12.5t-75 8.5t-45.5 28.5t-23 43.5t-6 59h-12q-4 -77 -31 -107
t-78 -30q-59 0 -95.5 54t-36.5 138zM211 675q-3 -248 4 -493h58q14 257 8 493h-70z" />
    <glyph glyph-name="R.001" horiz-adv-x="507" 
d="M35 0q18 428 0 857h293q55 0 92.5 -38.5t36.5 -90.5v-164q1 -67 -41 -96t-117 -35v-15q94 -9 126 -27.5t32 -73.5q1 -58 6.5 -174.5t9.5 -142.5h-180q7 177 1 367q-36 1 -103 1q-3 -153 1 -368h-157zM191 487l103 1q6 107 0 214h-102q-4 -100 -1 -215z" />
    <glyph glyph-name="T.001" horiz-adv-x="473" 
d="M438 701h-121q-6 -339 2 -701h-164q14 348 6 701h-126v156h403v-156z" />
    <glyph glyph-name="X.001" 
d="M324 424q27 -5 84 -11q58 -303 84 -413h-201q-19 223 -37 341h-7q-6 -46 -19 -161.5t-21 -179.5h-202q28 113 85 413q49 5 95 12q2 3 0 7q-46 7 -95 12q-59 304 -85 413h202q7 -50 13.5 -106.5t14 -123.5t11.5 -105h9q17 117 36 335h201q-25 -104 -84 -413
q-57 -6 -84 -11v-9z" />
    <glyph glyph-name="Y.001" horiz-adv-x="504" 
d="M53 0v165h182l19 134h-19q-3 -19 -33.5 -28t-70.5 8q-53 23 -61 91l-48 487h165l39 -526h29l48 526h178l-101 -690q-9 -74 -49.5 -120.5t-104.5 -46.5h-173z" />
    <glyph glyph-name="E.002" horiz-adv-x="378" 
d="M348 679q-46 5 -145 3q-2 -124 -2 -185q27 0 125 4v-140h-43.5h-45.5h-36q0 -62 2 -186q99 -2 145 3v-178h-313q18 428 0 857h313v-178z" />
    <glyph glyph-name="F.002" horiz-adv-x="429" 
d="M394 679q-30 3 -97.5 3t-100.5 -3q-2 -120 -2 -182q72 0 155 4v-140h-155q0 -159 5 -361h-164q18 428 0 857h359v-178z" />
    <glyph glyph-name="G.002" horiz-adv-x="525" 
d="M318 0q8 141 2 302h-10q-7 -178 -38.5 -246.5t-110.5 -68.5q-60 0 -95.5 40t-35.5 116v6q3 75 3 160.5t-1.5 191t-1.5 164.5q0 81 52 139t130 63h84q82 -5 135 -63t53 -139v-146h-201q5 87 5 159h-64q-4 -317 1 -470h45l22 182h191q0 -167 12 -390h-177z" />
    <glyph glyph-name="K.002" horiz-adv-x="512" 
d="M232 423q77 0 106 -14t39 -49q10 -28 106 -360h-172l-84 372l-32 -1q0 -156 5 -371h-165q16 428 0 857h165q-5 -222 -5 -377h32l84 377h172q-94 -313 -106 -350q-10 -34 -39 -48t-106 -15v-21z" />
    <glyph glyph-name="L.002" horiz-adv-x="367" 
d="M201 175q99 0 136 3v-178h-302q18 428 0 857h169q-9 -341 -3 -682z" />
    <glyph glyph-name="Q.002" horiz-adv-x="524" 
d="M30 143v6q3 75 3 160.5t-1.5 194t-1.5 171.5q0 81 52 139t130 63h84q82 -5 135 -63t53 -139v-188q0 -54 -5.5 -95t-21 -81.5t-48.5 -62.5t-82 -22v-12h144l63 -214h-198l-40 168h-9q-1 -104 -25.5 -146t-100.5 -42q-60 0 -95.5 43t-35.5 120zM224 688q-4 -330 1 -480h60
q6 195 3 480h-64z" />
    <glyph glyph-name="R.002" horiz-adv-x="507" 
d="M35 0q18 428 0 857h293q55 0 92.5 -38.5t36.5 -90.5v-164q1 -67 -41 -96t-117 -35v-15q94 -9 126 -27.5t32 -73.5q1 -58 6.5 -174.5t9.5 -142.5h-180q7 177 1 367q-36 1 -103 1q-3 -153 1 -368h-157zM191 487l103 1q6 107 0 214h-102q-4 -100 -1 -215z" />
    <glyph glyph-name="T.002" horiz-adv-x="473" 
d="M438 679q-78 4 -118 5q-5 -343 3 -684h-172q14 389 6 684q-39 -1 -122 -5v178h403v-178z" />
    <glyph glyph-name="X.002" horiz-adv-x="569" 
d="M416 419q93 -8 104 -96q0 -46 8 -179.5t11 -143.5h-220q6 176 0 353h-69q-6 -177 0 -353h-220q3 10 11 143.5t8 179.5q11 88 104 96l58 5v9l-58 5q-93 8 -104 96q0 46 -8 179.5t-11 143.5h220q-6 -177 0 -353h69q6 176 0 353h220q-3 -10 -11 -143.5t-8 -179.5
q-11 -88 -104 -96l-58 -5v-9z" />
    <glyph glyph-name="Y.002" horiz-adv-x="439" 
d="M0 857h164q1 -9 47 -533h19q23 249 45 533h164q-31 -199 -88 -656h-51q2 -134 2 -201h-165q5 88 5 201h-55q-6 49 -23.5 199t-31.5 253.5t-32 203.5z" />
    <glyph glyph-name="E.003" horiz-adv-x="424" 
d="M394 686q-30 -2 -97.5 -2t-100.5 2q-2 -132 -2 -196q77 1 155 -1v-116q-80 -4 -155 -1q0 -67 2 -201q33 2 100.5 2t97.5 -2v-171h-359q18 428 0 857h359v-171z" />
    <glyph glyph-name="F.003" horiz-adv-x="378" 
d="M348 686q-44 5 -145 3q-2 -122 -2 -181q43 -1 125 4v-162h-43h-46h-36q0 -155 5 -350h-171q18 428 0 857h313v-171z" />
    <glyph glyph-name="K.003" horiz-adv-x="512" 
d="M232 423q77 0 106 -14t39 -49q10 -28 106 -360h-172l-84 372l-32 -1q0 -156 5 -371h-165q16 428 0 857h165q-5 -222 -5 -377h32l84 377h172q-94 -313 -106 -350q-10 -34 -39 -48t-106 -15v-21z" />
    <glyph glyph-name="R.003" horiz-adv-x="502" 
d="M35 0q18 428 0 857h293q55 0 92.5 -38.5t36.5 -90.5v-164q1 -67 -41 -96t-117 -35v-15q94 -9 126 -27.5t32 -73.5q1 -58 6.5 -174.5t9.5 -142.5h-180q7 177 1 367q-36 1 -103 1q-3 -153 1 -368h-157zM191 487l103 1q6 107 0 214h-102q-4 -100 -1 -215z" />
    <glyph glyph-name="X.003" horiz-adv-x="507" 
d="M497 857q-34 -161 -77 -428q43 -266 77 -429h-202q-7 172 -36 372h-11q-17 -124 -37 -372h-201q49 202 78 429q-29 227 -78 428h201q20 -248 37 -372h11q29 200 36 372h202z" />
    <glyph glyph-name="F.004" horiz-adv-x="424" 
d="M394 686q-30 4 -97.5 4t-100.5 -4q-2 -132 -2 -198q77 -1 155 1v-116h-155q0 -166 5 -373h-164q18 428 0 857h359v-171z" />
    <glyph glyph-name="X.004" horiz-adv-x="505" 
d="M30 0q10 41 18.5 82t17 93.5t12.5 78t14 93.5t12 82q-3 17 -12 82t-13.5 92.5t-13 78.5t-17 92.5t-18.5 82.5h163q10 -72 25 -204t21 -176h27q14 99 45 380h164q-14 -64 -26 -135t-25.5 -159.5t-21.5 -133.5q8 -45 21.5 -134.5t25.5 -160t26 -134.5h-164q-31 281 -45 380
h-27q-5 -41 -20.5 -174.5t-25.5 -205.5h-163z" />
    <glyph glyph-name="a.001" horiz-adv-x="860" 
 />
    <glyph glyph-name="f.001" horiz-adv-x="347" 
d="M312 715q-58 4 -121 4v-92q78 2 121 4v-148q-10 1 -29.5 2.5t-29.5 2.5q-6 -239 3 -488h-165q9 249 3 488q-10 -1 -29.5 -2.5t-29.5 -2.5v148q92 -4 126 -4v23q-68 2 -93.5 25.5t-25.5 79.5q0 115 142 115h128v-155z" />
    <glyph glyph-name="i.001" horiz-adv-x="252" 
d="M41 721q-12 75 0 149h168q15 -75 0 -149h-168zM43 0q10 337 0 676h166q-12 -339 0 -676h-166z" />
    <glyph glyph-name="k.001" horiz-adv-x="501" 
d="M478 760l-120 -380l120 -380h-171l-85 337l-27 -1q2 -222 5 -336h-165q17 434 0 870h165q-5 -195 -5 -447h27l85 337h171z" />
    <glyph glyph-name="l.001" horiz-adv-x="670" 
 />
    <glyph glyph-name="r.001" horiz-adv-x="861" 
 />
    <glyph glyph-name="s.001" horiz-adv-x="458" 
d="M273 -10l-85 1q-68 1 -113.5 50t-44.5 119q0 50 1 83h150q-2 -84 -2 -113h100q2 78 2 107l-194 142q-59 42 -61 130v91q0 69 46.5 119.5t111.5 50.5q16 0 43 -0.5t42 -0.5q70 0 114.5 -49t44.5 -122q-1 -34 -1 -83h-151q1 11 3 115h-101q0 -20 -0.5 -56t-0.5 -52
l193 -142q61 -42 61 -131q0 -64 1 -89q0 -73 -44.5 -122t-114.5 -48z" />
    <glyph glyph-name="t.001" horiz-adv-x="561" 
 />
    <glyph glyph-name="x.001" horiz-adv-x="515" 
d="M35 0l82 380l-82 380h163q10 -64 25.5 -181.5t20.5 -155.5h27q13 80 45 337h164l-81 -380l81 -380h-164q-32 257 -45 337h-27q-5 -38 -20.5 -155.5t-25.5 -181.5h-163z" />
    <glyph glyph-name="y.001" horiz-adv-x="860" 
 />
    <glyph glyph-name="a.002" horiz-adv-x="860" 
 />
    <glyph glyph-name="g.002" horiz-adv-x="860" 
 />
    <glyph glyph-name="k.002" horiz-adv-x="478" 
d="M234 375q75 0 104 -13t40 -45q8 -20 105 -317h-172l-84 330l-32 -1q2 -218 5 -329h-165q17 434 0 870h165q-5 -194 -5 -444h32l84 334h172q-102 -302 -105 -309q-11 -31 -40 -43.5t-104 -13.5v-19z" />
    <glyph glyph-name="r.002" horiz-adv-x="484" 
d="M449 627q0 -13 -1 -71t-1 -121t2 -122h-159q1 156 1 277h-95q-6 -300 4 -590h-165q13 379 0 760h165q-2 -46 -4 -140h23q3 94 26 122.5t89 28.5q115 0 115 -144z" />
    <glyph glyph-name="s.002" horiz-adv-x="458" 
d="M273 -10l-85 1q-68 1 -113.5 50t-44.5 119q0 57 1 91h150q-2 -84 -2 -121h100q2 78 2 153l-148 42q-65 14 -85.5 48t-21.5 98v129q0 69 46.5 119.5t111.5 50.5q16 0 43 -0.5t42 -0.5q70 0 114.5 -49t44.5 -122q-1 -34 -1 -91h-151q0 3 3 123h-101q0 -20 -0.5 -79
t-0.5 -75l147 -43q65 -14 86 -48t21 -98q0 -102 1 -127q0 -73 -44.5 -122t-114.5 -48z" />
    <glyph glyph-name="t.002" horiz-adv-x="386" 
 />
    <glyph glyph-name="k.003" horiz-adv-x="501" 
d="M304 373q92 -7 121.5 -23t30.5 -66q0 -40 6 -144.5t9 -139.5h-179q7 167 0 323q-54 2 -97 0q2 -214 5 -323h-165q18 434 0 870h165q-5 -248 -5 -433q42 -2 97 0q7 145 0 323h179q-15 -161 -15 -284q-1 -50 -31 -66t-121 -23v-14z" />
    <glyph glyph-name="r.003" horiz-adv-x="378" 
d="M378 590h-182q-6 -300 4 -590h-165q13 379 0 760h165q-2 -46 -4 -140h23q3 96 32.5 123.5t126.5 27.5v-181z" />
    <glyph glyph-name="t.003" horiz-adv-x="386" 
 />
    <glyph glyph-name="k.004" horiz-adv-x="483" 
d="M234 375q75 0 104 -13t40 -45q8 -20 105 -317h-172l-84 330l-32 -1q2 -218 5 -329h-165q17 434 0 870h165q-5 -194 -5 -444h32l84 334h172q-102 -302 -105 -309q-11 -31 -40 -43.5t-104 -13.5v-19z" />
    <glyph glyph-name="r.004" horiz-adv-x="378" 
d="M378 590h-182q-6 -300 4 -590h-165q13 379 0 760h165q-2 -46 -4 -140h23q3 96 32.5 123.5t126.5 27.5v-181z" />
    <glyph glyph-name="t.004" horiz-adv-x="347" 
d="M312 483q-43 4 -62 5q0 -237 5 -348h54q0 -81 -19.5 -115t-79.5 -34q-73 0 -98.5 45.5t-16.5 181.5q3 144 3 270q-21 -1 -63 -5v148l62 -3q-2 132 -6 242h164q-2 -74 -4 -241q17 0 61 2v-148z" />
    <glyph glyph-name="r.005" horiz-adv-x="370" 
d="M370 590h-158q-6 -300 4 -590h-181q13 379 0 760h181q-2 -46 -4 -140h23q2 95 28 123t107 28v-181z" />
    <glyph glyph-name="t.005" horiz-adv-x="347" 
d="M312 483q-43 4 -62 5q0 -229 5 -338l54 -1v-149h-99q-73 0 -98.5 45.5t-16.5 182.5q3 144 3 260q-21 -1 -63 -5v148l62 -3q-2 130 -6 242h164q-4 -144 -4 -241q17 0 61 2v-148z" />
    <glyph glyph-name="r.006" horiz-adv-x="487" 
d="M452 627q0 -13 -1 -71t-1 -121t2 -122h-167q3 210 1 277h-82q-6 -300 4 -590h-173q13 379 0 760h173q-2 -46 -4 -140h23q2 97 20.5 124t81.5 27q65 0 94 -36t29 -108z" />
    <glyph glyph-name="r.007" horiz-adv-x="375" 
d="M35 0q13 379 0 760h140l-3 -140h22q2 94 32.5 122.5t118.5 28.5v-181h-149q-5 -330 4 -590h-165z" />
    <glyph glyph-name="one.001" horiz-adv-x="330" 
d="M295 857q-11 -429 0 -857h-166q15 356 5 700l-99 -37v154l94 40h166z" />
    <glyph glyph-name="two.001" horiz-adv-x="498" 
d="M295 872q72 -2 120 -53.5t47 -124.5q0 -74 -2 -105q-3 -47 -17 -77.5t-46 -55.5l-198 -155v-88v-83h94q0 22 0.5 67t0.5 68h163q0 -168 1 -265h-423l1 213q2 40 6 74q11 83 64 126l194 157v157h-96q-1 -54 -1 -161h-162q0 85 -1 128q0 72 47.5 123t120.5 55h87z" />
    <glyph glyph-name="four.001" horiz-adv-x="493" 
d="M458 857q-11 -429 0 -857h-164q8 221 8 415h-18q0 -89 -27 -122.5t-83 -33.5q-57 0 -94 38t-37 105q0 247 -8 455h165q-5 -139 -5 -413q2 0 53 -0.5t54 0.5q0 192 -8 413h164z" />
    <glyph glyph-name="five.001" 
 />
    <glyph glyph-name="six.001" horiz-adv-x="496" 
d="M198 -15q-71 0 -117 48.5t-46 122.5q1 263 0 545q0 74 46 122.5t117 48.5h100q71 0 117.5 -48.5t45.5 -122.5q0 -107 -1 -160h-162v84t-1 84h-99q-3 -69 0 -222q16 0 47.5 -0.5t47.5 -0.5q72 1 119.5 -33.5t47.5 -98.5q1 -71 1 -198q0 -74 -46 -122.5t-117 -48.5h-100z
M199 148h98q5 93 0 221h-99q-4 -113 1 -221z" />
    <glyph glyph-name="seven.001" horiz-adv-x="492" 
d="M128 0l151 620l14 107h-94v-135h-163l-1 265h423l-3 -167l-164 -690h-163z" />
    <glyph glyph-name="four.002" horiz-adv-x="493" 
d="M458 857q-11 -429 0 -857h-164q7 182 8 328l-259 -1q3 248 -8 530h165q-5 -159 -5 -415h33.5h39.5h34q0 193 -8 415h164z" />
    <glyph glyph-name="five.002" 
d="M462 695h-262q-1 -63 -1 -186h95q75 0 121 -30t46 -93q1 -83 1 -231q0 -74 -46.5 -122t-116.5 -48h-101q-70 0 -116.5 48t-46.5 122q1 57 1 171h166q0 -1 -3 -179q7 0 23.5 -0.5t25.5 -0.5q36 0 50 1q6 115 1 245h-262v115v2q0 210 -1 348h426v-162z" />
    <glyph glyph-name="seven.002" horiz-adv-x="489" 
 />
    <glyph glyph-name="four.003" horiz-adv-x="493" 
d="M458 857q-11 -429 0 -857h-164q6 178 7 267h-258q3 314 -8 590h165q-5 -159 -5 -476h107q1 226 -8 476h164z" />
    <glyph glyph-name="_t_t" horiz-adv-x="616" 
d="M586 483l-61 3q0 -227 5 -336l53 -1q0 -81 -19.5 -115t-79.5 -34q-73 0 -98 45.5t-16 182.5q2 96 2 261q-64 1 -127 0q0 -230 5 -339l54 -1q0 -81 -19.5 -115t-79.5 -34q-73 0 -98.5 45.5t-16.5 182.5q3 141 3 258l-63 -3v148q21 -1 62 -1q-2 130 -6 240h164
q-4 -146 -4 -243h125q-2 167 -5 243h164q-2 -73 -4 -240q39 0 60 1v-148z" />
    <glyph glyph-name="_t_t.001" horiz-adv-x="614" 
 />
    <glyph glyph-name="_f_t" horiz-adv-x="624" 
 />
    <glyph glyph-name="_f_f" horiz-adv-x="630" 
d="M595 491q-40 2 -59 2q-6 -242 3 -493h-165q9 253 3 497h-124q-6 -244 3 -497h-165q9 251 3 493q-19 0 -59 -2v140l126 -3v22q-68 2 -93.5 25.5t-25.5 79.5q0 115 142 115h410v-155q-10 0 -28.5 0.5t-45 1t-46.5 0.5v-88q35 0 121 2v-140zM191 628q123 -1 248 0v89l-248 2
v-91z" />
    </font>
</defs>
</svg>
