<?xml version="1.0" standalone="no"?>
<!DOCTYPE svg PUBLIC "-//W3C//DTD SVG 1.1//EN" "http://www.w3.org/Graphics/SVG/1.1/DTD/svg11.dtd" >
<svg xmlns="http://www.w3.org/2000/svg" xmlns:xlink="http://www.w3.org/1999/xlink" version="1.1">
<metadata>
Created by FontForge 20170731 at Tue May  3 04:51:33 2016
 By Aleksey,,,
Copyright (c) 2004 - 2007, 2015, 2016 Monotype GmbH. All rights reserved. This typeface is original artwork of Adrian Frutiger and Akira Kobayashi. The design may be protected in certain jurisdictions.
</metadata>
<defs>
<font id="AvenirNextforINTUITW05-DmIt" horiz-adv-x="260" >
  <font-face 
    font-family="AvenirNextforINTUITW05-DmIt"
    font-weight="600"
    font-style="italic"
    font-stretch="normal"
    units-per-em="1000"
    panose-1="2 11 7 3 2 2 2 9 2 4"
    ascent="800"
    descent="-200"
    x-height="480"
    cap-height="708"
    bbox="-266 -250 1183 956"
    underline-thickness="50"
    underline-position="-175"
    slope="-12"
    unicode-range="U+000D-FB02"
  />
<missing-glyph horiz-adv-x="512" 
d="M222 117h56v67h-56v-67zM225 234h46q0 53 6 72t43 52q27 25 45 52t18 68q0 27 -12 58t-42.5 52t-69.5 21q-54 0 -91 -33.5t-44 -103.5l50 -8q6 48 28 71.5t54 23.5q31 0 53.5 -25t22.5 -60q0 -20 -10 -37t-40 -46q-31 -31 -46 -59q-13 -25 -13 -81zM462 50h-412v617h412
v-617zM512 718h-512v-718h512v718z" />
    <glyph glyph-name="IJ" unicode="IJ" horiz-adv-x="782" 
d="M148 0h-123l125 708h123zM693 228q-16 -91 -48 -144t-80 -77.5t-109 -24.5q-83 0 -136 42.5t-62 112.5l115 33q4 -34 26 -56.5t54 -22.5q35 0 57.5 15.5t36.5 46t23 79.5l84 476h124z" />
    <glyph glyph-name="ij" unicode="ij" horiz-adv-x="539" 
d="M138 0h-117l84 480h118zM262 645q0 -29 -21 -51t-50 -22t-49.5 19t-20.5 50q0 30 22 51.5t51 21.5t48.5 -19.5t19.5 -49.5zM405 -32q-20 -112 -68 -160t-134 -48q-29 0 -53 6l23 100q13 -4 32 -4q29 0 49.5 19.5t31.5 82.5l91 516h118zM534 645q0 -29 -21 -51t-50 -22
t-49.5 19t-20.5 50q0 30 22 51.5t51 21.5t48.5 -19.5t19.5 -49.5z" />
    <glyph glyph-name="napostrophe" unicode="&#x22;n" horiz-adv-x="619" 
d="M238 405h2q19 29 46 50.5t56.5 29.5t53.5 8q38 0 75 -14.5t59.5 -51t22.5 -83.5q0 -25 -4 -45l-53 -299h-117l46 264q5 27 5 48q0 35 -19 58t-60 23q-53 0 -87.5 -38.5t-43.5 -90.5l-47 -264h-117l66 377q10 50 15 103h110zM249 708l-123 -195h-98l107 195h114z" />
    <glyph glyph-name="uniFB01" unicode="fi" horiz-adv-x="601" 
d="M472 0h-117l84 480h118zM596 645q0 -29 -21 -51t-50 -22t-49.5 19t-20.5 50q0 30 22 51.5t51 21.5t48.5 -19.5t19.5 -49.5zM410 761l-25 -100q-21 7 -41 7q-75 0 -95 -109l-14 -79h113l-17 -94h-111l-68 -386h-114l68 386h-91l16 94h89l14 73q41 215 217 215q35 0 59 -7z
" />
    <glyph glyph-name="uniFB02" unicode="fl" horiz-adv-x="600" 
d="M472 0h-117l133 756h117zM410 761l-25 -100q-21 7 -41 7q-75 0 -95 -109l-14 -79h113l-17 -94h-111l-68 -386h-114l68 386h-91l16 94h89l14 73q41 215 217 215q35 0 59 -7z" />
    <glyph glyph-name=".notdef" horiz-adv-x="512" 
d="M222 117h56v67h-56v-67zM225 234h46q0 53 6 72t43 52q27 25 45 52t18 68q0 27 -12 58t-42.5 52t-69.5 21q-54 0 -91 -33.5t-44 -103.5l50 -8q6 48 28 71.5t54 23.5q31 0 53.5 -25t22.5 -60q0 -20 -10 -37t-40 -46q-31 -31 -46 -59q-13 -25 -13 -81zM462 50h-412v617h412
v-617zM512 718h-512v-718h512v718z" />
    <glyph glyph-name="glyph1" horiz-adv-x="500" 
 />
    <glyph glyph-name="glyph1" horiz-adv-x="500" 
 />
    <glyph glyph-name="uni000D" unicode="&#xd;" horiz-adv-x="0" 
 />
    <glyph glyph-name="space" unicode=" " horiz-adv-x="250" 
 />
    <glyph glyph-name="exclam" unicode="!" horiz-adv-x="295" 
d="M191 221h-117l86 487h117zM186 72q0 -30 -22 -53t-52 -23q-31 0 -52 19.5t-21 52.5q0 32 23 54t53 22t50.5 -20t20.5 -52z" />
    <glyph glyph-name="quotedbl" unicode="&#x22;" horiz-adv-x="450" 
d="M377 445h-100l46 263h100zM201 445h-100l47 263h100z" />
    <glyph glyph-name="numbersign" unicode="#" horiz-adv-x="590" 
d="M563 416h-102l-39 -124h90l-14 -83h-100l-68 -209h-86l67 209h-105l-67 -209h-86l67 209h-91l15 83h101l40 124h-90l14 83h102l67 209h86l-66 -209h104l67 209h86l-67 -209h90zM376 416h-105l-39 -124h104z" />
    <glyph glyph-name="dollar" unicode="$" horiz-adv-x="610" 
d="M340 618q-34 -2 -60 -17.5t-36 -39.5t-10 -46q0 -62 73 -87zM335 298l-38 -207q23 1 50 12t44.5 37t17.5 61q0 37 -19 59.5t-55 37.5zM358 720l13 72h50l-13 -73q58 -5 103 -26.5t70 -55.5l-89 -71q-18 23 -43.5 37.5t-57.5 15.5l-37 -207q67 -26 107 -56.5t54 -67
t14 -74.5q0 -92 -67.5 -154t-181.5 -70l-13 -74h-50l13 74q-65 3 -122 31t-87 78l96 68q19 -32 56 -54t75 -22l39 225q-169 53 -169 184q0 33 11 69.5t39 69t75 55.5t115 26z" />
    <glyph glyph-name="percent" unicode="%" horiz-adv-x="903" 
d="M233 354q-70 0 -116 44.5t-46 111.5q0 54 26.5 104.5t76.5 78t104 27.5q26 0 53.5 -7.5t51 -26.5t39.5 -49t16 -71q0 -43 -15 -82.5t-43 -68.5t-66 -45t-81 -16zM342 552q0 32 -20.5 55.5t-53.5 23.5q-32 0 -57 -18t-34.5 -43.5t-9.5 -47.5q0 -32 20.5 -55.5t52.5 -23.5
q21 0 45.5 10.5t40.5 37.5t16 61zM642 -11q-70 0 -116 44.5t-46 111.5q0 54 26.5 104.5t76.5 78t104 27.5q26 0 53.5 -7.5t51 -26.5t39.5 -49t16 -71q0 -43 -15 -82.5t-43 -68.5t-66 -45t-81 -16zM751 187q0 32 -20.5 55.5t-53.5 23.5q-32 0 -57 -18t-34.5 -43.5t-9.5 -47.5
q0 -32 20.5 -55.5t52.5 -23.5q21 0 45.5 10.5t40.5 37.5t16 61zM764 701l-547 -734l-62 39l547 734z" />
    <glyph glyph-name="ampersand" unicode="&#x26;" horiz-adv-x="739" 
d="M399 170l-124 151q-127 -44 -127 -135q0 -30 18.5 -54t43.5 -33t45 -9q78 0 144 80zM442 558q0 33 -19.5 53t-52.5 20q-18 0 -39 -8.5t-35.5 -31.5t-14.5 -51q0 -26 12.5 -55t27.5 -46q38 14 68 35t41.5 43.5t11.5 40.5zM375 366l94 -114l86 122h142l-158 -201l147 -173
h-146l-70 89q-103 -103 -225 -103q-98 0 -158.5 49.5t-60.5 140.5q0 50 22.5 92.5t65.5 75.5t102 55q-45 63 -45 135q0 31 10 64.5t34.5 61.5t63 47t89.5 19q28 0 59.5 -7.5t62.5 -28.5t47 -55.5t16 -71.5q0 -64 -46 -111.5t-132 -85.5z" />
    <glyph glyph-name="quotesingle" unicode="'" horiz-adv-x="274" 
d="M201 445h-100l46 263h100z" />
    <glyph glyph-name="parenleft" unicode="(" horiz-adv-x="320" 
d="M191 -112l-90 -43q-37 69 -58 155t-21 175q0 144 58.5 285.5t176.5 271.5l73 -54q-101 -113 -153.5 -245.5t-52.5 -256.5q0 -74 17.5 -151t49.5 -137z" />
    <glyph glyph-name="parenright" unicode=")" horiz-adv-x="320" 
d="M122 690l90 43q37 -69 58 -155t21 -175q0 -144 -58.5 -285.5t-176.5 -271.5l-73 54q101 113 153.5 245.5t52.5 256.5q0 74 -17.5 151t-49.5 137z" />
    <glyph glyph-name="asterisk" unicode="*" horiz-adv-x="462" 
d="M312 708v-145l137 45l25 -75l-139 -45l87 -119l-65 -47l-87 120l-85 -117l-63 47l87 116l-140 48l25 75l139 -48v145h79z" />
    <glyph glyph-name="plus" unicode="+" horiz-adv-x="666" 
d="M62 354h220v220h102v-220h220v-102h-220v-220h-102v220h-220v102z" />
    <glyph glyph-name="comma" unicode="," 
d="M179 136l-131 -263h-99l116 263h114z" />
    <glyph glyph-name="hyphen" unicode="-" horiz-adv-x="320" 
d="M260 196h-239l18 100h239z" />
    <glyph glyph-name="period" unicode="." 
d="M159 72q0 -30 -22 -53t-52 -23q-31 0 -52 19.5t-21 52.5q0 32 23 54t53 22t50.5 -20t20.5 -52z" />
    <glyph glyph-name="slash" unicode="/" horiz-adv-x="388" 
d="M459 725l-448 -772l-76 30l448 773z" />
    <glyph glyph-name="zero" unicode="0" horiz-adv-x="610" 
d="M367 726q67 0 112 -29t70 -83t25 -132q0 -59 -9 -124t-28.5 -126.5t-54.5 -119t-90.5 -94t-128.5 -36.5q-40 0 -79 12.5t-68 41.5t-46.5 75t-17.5 110q0 59 11.5 137t39 147.5t64.5 117.5t87 75.5t113 27.5zM357 627q-19 0 -43 -11t-48 -40t-45 -77t-34.5 -117.5
t-13.5 -138.5q0 -32 7 -70t29.5 -64t61.5 -26q28 0 59 22t57.5 72.5t45 126t18.5 163.5q0 52 -10.5 87.5t-31 54t-52.5 18.5z" />
    <glyph glyph-name="one" unicode="1" horiz-adv-x="610" 
d="M343 0h-118l100 565l-160 -115l-56 90l245 168h114z" />
    <glyph glyph-name="two" unicode="2" horiz-adv-x="610" 
d="M191 108h312l-19 -108h-470l19 108l316 265q56 47 80 84t24 74q0 44 -27.5 69.5t-77.5 25.5q-47 0 -83 -30t-52 -83l-108 31q32 88 99 135t152 47q101 0 160 -52t59 -134q0 -57 -27.5 -109t-137.5 -143z" />
    <glyph glyph-name="three" unicode="3" horiz-adv-x="610" 
d="M265 416q83 0 123 33t40 92q0 37 -26.5 62t-69.5 25q-83 0 -127 -80l-88 53q35 61 94 93t131 32q41 0 78 -12.5t65 -36t44 -57.5t16 -75q0 -47 -17.5 -82t-50.5 -59.5t-75 -34.5v-2q51 -12 83.5 -54t32.5 -95q0 -54 -19.5 -98.5t-55 -75t-84.5 -46.5t-105 -16
q-86 0 -146 41t-83 115l111 35q11 -43 44 -66t81 -23t80 19t43.5 48t11.5 55q0 38 -19 64t-54 39t-78 13h-30l16 94h34z" />
    <glyph glyph-name="four" unicode="4" horiz-adv-x="610" 
d="M536 148h-97l-25 -148h-114l25 148h-330l19 109l371 451h150l-81 -459h100zM341 249l60 334h-4l-263 -334h207z" />
    <glyph glyph-name="five" unicode="5" horiz-adv-x="610" 
d="M262 603l-34 -155q34 9 75 9q39 0 77 -12t70 -37t51 -65.5t19 -94.5q0 -64 -22 -115t-59.5 -84.5t-85.5 -50t-98 -16.5q-86 0 -149.5 40.5t-85.5 101.5l107 44q13 -38 46.5 -61t77.5 -23q69 0 108.5 42.5t39.5 108.5q0 31 -14 60.5t-49.5 47.5t-76.5 18
q-39 0 -82.5 -12.5t-76.5 -30.5l77 390h378l-21 -105h-272z" />
    <glyph glyph-name="six" unicode="6" horiz-adv-x="610" 
d="M140 197q0 -52 36 -84t86 -32q69 0 110 43t41 114q0 53 -35 85t-81 32q-71 0 -114 -45t-43 -113zM270 438q21 7 48 7q37 0 75 -10.5t69 -35.5t50.5 -64t19.5 -89q0 -53 -18.5 -101t-54 -84.5t-87.5 -57.5t-115 -21q-50 0 -93.5 15t-75.5 43t-49.5 68.5t-17.5 88.5
q0 103 101 227l232 284h143l-228 -268z" />
    <glyph glyph-name="seven" unicode="7" horiz-adv-x="610" 
d="M582 600l-405 -600h-147l423 602h-340l18 106h470z" />
    <glyph glyph-name="eight" unicode="8" horiz-adv-x="610" 
d="M165 189q0 -34 13.5 -57t39 -36.5t58.5 -13.5q25 0 50 7t48.5 25.5t33.5 47t10 54.5q0 23 -10 48t-37 41.5t-62 16.5q-63 0 -103.5 -37.5t-40.5 -95.5zM425 367l2 -3q45 -15 75 -56t30 -92t-19.5 -94.5t-55.5 -75t-84.5 -48t-104.5 -16.5q-38 0 -76.5 10.5t-70 33t-51 61
t-19.5 90.5q0 48 22.5 93.5t63 73.5t82.5 36v3q-37 18 -60.5 53.5t-23.5 79.5q0 38 13 76t46.5 71t81 48t92.5 15q59 0 104 -22t70 -60t25 -92q0 -38 -14.5 -76t-50 -67t-77.5 -42zM245 513q0 -39 26 -63.5t67 -24.5q48 0 82.5 30.5t34.5 81.5q0 40 -27.5 64t-69.5 24
q-24 0 -50.5 -10.5t-44.5 -38.5t-18 -63z" />
    <glyph glyph-name="nine" unicode="9" horiz-adv-x="610" 
d="M476 511q0 52 -36 84t-86 32q-69 0 -110 -43t-41 -114q0 -53 35 -85t81 -32q71 0 114 45t43 113zM346 270q-21 -7 -48 -7q-37 0 -75 10.5t-69 35.5t-50.5 64t-19.5 89q0 53 18.5 101t54 84.5t87.5 57.5t115 21q50 0 93.5 -15t75.5 -43t49.5 -68.5t17.5 -88.5
q0 -103 -101 -227l-232 -284h-143l228 268z" />
    <glyph glyph-name="colon" unicode=":" horiz-adv-x="300" 
d="M182 72q0 -30 -22 -53t-52 -23q-31 0 -52 19.5t-21 52.5q0 32 23 54t53 22t50.5 -20t20.5 -52zM239 413q0 -30 -22 -53t-52 -23q-31 0 -52 19.5t-21 52.5q0 32 23 54t53 22t50.5 -20t20.5 -52z" />
    <glyph glyph-name="semicolon" unicode=";" horiz-adv-x="300" 
d="M198 136l-131 -263h-104l116 263h119zM239 413q0 -30 -22 -53t-52 -23q-31 0 -52 19.5t-21 52.5q0 32 23 54t53 22t50.5 -20t20.5 -52z" />
    <glyph glyph-name="less" unicode="&#x3c;" horiz-adv-x="666" 
d="M586 42l-506 225v72l506 225v-110l-338 -151l338 -151v-110z" />
    <glyph glyph-name="equal" unicode="=" horiz-adv-x="666" 
d="M80 444h506v-102h-506v102zM80 264h506v-102h-506v102z" />
    <glyph glyph-name="greater" unicode="&#x3e;" horiz-adv-x="666" 
d="M80 564l506 -225v-72l-506 -225v110l338 151l-338 151v110z" />
    <glyph glyph-name="question" unicode="?" horiz-adv-x="517" 
d="M402 355q-58 -41 -72 -65t-19 -56l-4 -26h-115l6 39q7 47 28 79.5t65 67.5l52 41q39 30 53 54t14 50q0 39 -22.5 59.5t-66.5 20.5q-22 0 -47 -10.5t-44 -36.5t-26 -58l-113 19q9 40 30 75t52.5 61.5t73 41.5t88.5 15q52 0 99 -17.5t73 -59.5t26 -101q0 -58 -32 -102
t-99 -91zM309 72q0 -30 -22 -53t-52 -23q-31 0 -52 19.5t-21 52.5q0 32 23 54t53 22t50.5 -20t20.5 -52z" />
    <glyph glyph-name="at" unicode="@" horiz-adv-x="800" 
d="M545 160q-39 0 -60 19t-17 48h-4q-14 -20 -35.5 -36.5t-45.5 -23.5t-44 -7q-58 0 -91.5 31.5t-33.5 86.5q0 45 17.5 93t49 88.5t74 65t90.5 24.5q37 0 64.5 -16t31.5 -39h1l15 40h88l-73 -189q-21 -54 -21 -74q0 -13 4 -21.5t23 -8.5q31 0 60.5 27.5t46 77.5t16.5 100
q0 93 -65 146.5t-169 53.5q-75 0 -138.5 -28.5t-107.5 -77.5t-67 -112.5t-23 -129.5q0 -110 71.5 -173t192.5 -63q134 0 242 92l43 -59q-54 -53 -133 -83t-165 -30q-60 0 -122 15t-112 52t-75 83.5t-32.5 87t-7.5 72.5q0 119 60 221.5t159.5 157.5t213.5 55q73 0 134 -19
t104 -55t65.5 -88t22.5 -115q0 -62 -19.5 -115.5t-54 -92.5t-80 -60t-93.5 -21zM494 405q0 63 -57 63q-27 0 -57 -25t-48.5 -66t-18.5 -77q0 -24 13 -41t42 -17q26 0 54.5 19.5t50 62t21.5 81.5z" />
    <glyph glyph-name="A" unicode="A" horiz-adv-x="668" 
d="M623 0h-131l-29 163h-303l-101 -163h-146l462 708h107zM446 269l-47 297l-179 -297h226z" />
    <glyph glyph-name="B" unicode="B" horiz-adv-x="646" 
d="M396 708q35 0 72.5 -8t68 -27t48 -49t17.5 -71q0 -69 -42.5 -116t-113.5 -65v-2q42 -7 74 -31t45 -56.5t13 -63.5q0 -52 -22 -93.5t-62.5 -69.5t-96 -42t-121.5 -14h-251l125 708h246zM365 606h-112l-34 -189h128q35 0 66 13t48.5 37t17.5 59q0 31 -18.5 49.5t-45 24.5
t-50.5 6zM334 314h-134l-36 -210h123q50 0 88 14t58.5 40.5t20.5 66.5q0 41 -32 65t-88 24z" />
    <glyph glyph-name="C" unicode="C" horiz-adv-x="681" 
d="M566 181l79 -70q-45 -57 -117 -93t-164 -36q-69 0 -128 22t-101 62.5t-64.5 97t-22.5 122.5t21.5 140t72.5 140t114 102t115.5 47t93.5 11q77 0 143 -30t98 -78l-97 -73q-13 20 -37.5 39t-54.5 27.5t-56 8.5q-60 0 -113 -26.5t-91.5 -72t-59.5 -103t-21 -116.5
q0 -43 13.5 -82t39.5 -68t64.5 -45.5t85.5 -16.5q53 0 102 23t85 68z" />
    <glyph glyph-name="D" unicode="D" horiz-adv-x="757" 
d="M25 0l125 708h242q88 0 165 -33.5t121 -101t44 -161.5q0 -90 -32.5 -167t-83.5 -125t-106.5 -74.5t-111 -36t-98.5 -9.5h-265zM253 603l-87 -495h129q70 0 127 23.5t95 64t57.5 93t19.5 107.5q0 43 -14 80.5t-43 66t-73.5 44.5t-101.5 16h-109z" />
    <glyph glyph-name="E" unicode="E" horiz-adv-x="584" 
d="M500 0h-475l125 708h446l-19 -108h-326l-32 -183h311l-19 -104h-310l-36 -203h354z" />
    <glyph glyph-name="F" unicode="F" horiz-adv-x="556" 
d="M569 600h-315l-35 -196h296l-18 -104h-296l-53 -300h-123l125 708h438z" />
    <glyph glyph-name="G" unicode="G" horiz-adv-x="740" 
d="M393 90q78 2 129 27l31 180h-152l20 107h271l-63 -366q-52 -26 -120 -41t-134 -15q-72 0 -133 22t-104 62.5t-66.5 97t-23.5 122.5t21.5 140t72.5 140t114 102t115.5 47t93.5 11q58 0 111 -15.5t87.5 -41.5t52.5 -51l-97 -73q-25 34 -64.5 54.5t-93.5 20.5
q-60 0 -113 -26.5t-91.5 -72t-59.5 -103t-21 -116.5q0 -94 58.5 -153t158.5 -59z" />
    <glyph glyph-name="H" unicode="H" horiz-adv-x="729" 
d="M596 0h-123l55 315h-324l-56 -315h-123l125 708h123l-51 -287h325l51 287h123z" />
    <glyph glyph-name="I" unicode="I" horiz-adv-x="291" 
d="M148 0h-123l125 708h123z" />
    <glyph glyph-name="J" unicode="J" horiz-adv-x="500" 
d="M411 228q-16 -91 -48 -144t-80 -77.5t-109 -24.5q-83 0 -136 42.5t-62 112.5l115 33q4 -34 26 -56.5t54 -22.5q35 0 57.5 15.5t36.5 46t23 79.5l84 476h124z" />
    <glyph glyph-name="K" unicode="K" horiz-adv-x="646" 
d="M612 0h-161l-239 356h-3l-62 -356h-122l125 708h122l-56 -314h3l319 314h166l-367 -334z" />
    <glyph glyph-name="L" unicode="L" horiz-adv-x="511" 
d="M451 0h-426l125 708h123l-106 -598h303z" />
    <glyph glyph-name="M" unicode="M" horiz-adv-x="920" 
d="M788 0h-122l102 571h-3l-319 -571h-86l-115 571h-2l-101 -571h-117l125 708h192l96 -507h2l277 507h195z" />
    <glyph glyph-name="N" unicode="N" horiz-adv-x="788" 
d="M632 0h-153l-232 550h-2l-97 -550h-123l125 708h160l228 -533h2l94 533h123z" />
    <glyph glyph-name="O" unicode="O" horiz-adv-x="829" 
d="M459 726q74 0 136.5 -21.5t106.5 -61.5t68 -97.5t24 -126.5q0 -123 -56 -225.5t-149 -157t-200 -54.5q-76 0 -139.5 21t-108.5 61.5t-69 98t-24 126.5q0 111 50 211.5t146.5 163t214.5 62.5zM389 90q64 0 116.5 26.5t88.5 71.5t54.5 102.5t18.5 117.5q0 43 -14 82
t-41.5 68t-68 45.5t-90.5 16.5q-61 0 -113 -26.5t-89 -72t-56.5 -103t-19.5 -116.5q0 -43 14 -82t41.5 -68t68 -45.5t90.5 -16.5z" />
    <glyph glyph-name="P" unicode="P" horiz-adv-x="609" 
d="M363 708q115 0 178 -49.5t63 -136.5q0 -72 -33 -122t-98 -78t-167 -28h-107l-52 -294h-122l125 708h213zM311 398q49 0 89 10.5t60 36.5t20 64q0 27 -12 49.5t-44.5 34t-79.5 11.5h-90l-37 -206h94z" />
    <glyph glyph-name="Q" unicode="Q" horiz-adv-x="819" 
d="M776 429q0 -218 -167 -327v-2h172l-18 -100h-390q-71 0 -131 21t-103.5 60t-67 95.5t-23.5 123.5q0 86 31 164.5t86 137t129.5 91.5t156.5 33q71 0 131.5 -20.5t103.5 -59.5t66.5 -94.5t23.5 -122.5zM650 416q0 42 -13.5 79.5t-39 65.5t-63 43.5t-84.5 15.5
q-60 0 -111.5 -25.5t-88 -69t-56.5 -99t-20 -113.5q0 -42 13.5 -79.5t39.5 -65.5t64.5 -44t84.5 -16q43 0 90 17t92.5 62t68.5 108t23 121z" />
    <glyph glyph-name="R" unicode="R" horiz-adv-x="624" 
d="M418 316l147 -316h-139l-134 302h-94l-52 -302h-121l125 708h210q115 0 179.5 -48.5t64.5 -134.5q0 -82 -49.5 -136t-136.5 -73zM308 403q82 0 125.5 27t43.5 82q0 51 -36 71.5t-100 20.5h-89l-36 -201h92z" />
    <glyph glyph-name="S" unicode="S" horiz-adv-x="574" 
d="M561 634l-90 -72q-19 30 -52 46t-71 16q-32 0 -66 -15t-49 -40.5t-15 -53.5q0 -26 18.5 -50.5t79.5 -46.5q110 -40 151.5 -91t41.5 -119q0 -43 -15.5 -84.5t-51.5 -73t-89 -50t-118 -18.5q-74 0 -141 29.5t-103 85.5l100 69q19 -35 61 -57.5t89 -22.5q24 0 56.5 8.5
t57 35t24.5 70.5q0 24 -13 46.5t-42 40t-73 33.5q-85 31 -121.5 75t-36.5 111q0 38 14.5 77t49 70.5t86.5 52t118 20.5q40 0 83.5 -13.5t72.5 -35.5t44 -43z" />
    <glyph glyph-name="T" unicode="T" horiz-adv-x="533" 
d="M588 600h-208l-106 -600h-123l105 600h-210l19 108h542z" />
    <glyph glyph-name="U" unicode="U" horiz-adv-x="714" 
d="M633 260q-11 -63 -36 -114.5t-63 -88t-91.5 -56t-119.5 -19.5q-121 0 -192 60t-71 161q0 32 5 57l79 448h123l-78 -443q-4 -19 -4 -46q0 -25 10.5 -55.5t43 -52t86.5 -21.5q78 0 123.5 44t61.5 131l78 443h124z" />
    <glyph glyph-name="V" unicode="V" horiz-adv-x="641" 
d="M727 708l-430 -708h-114l-115 708h130l71 -548h4l315 548h139z" />
    <glyph glyph-name="W" unicode="W" horiz-adv-x="985" 
d="M1055 708l-343 -708h-120l-65 535h-2l-268 -535h-120l-66 708h130l35 -524h2l256 524h128l55 -524h2l245 524h131z" />
    <glyph glyph-name="X" unicode="X" horiz-adv-x="631" 
d="M568 0h-140l-115 281l-232 -281h-154l332 378l-144 330h136l98 -248l202 248h148l-296 -340z" />
    <glyph glyph-name="Y" unicode="Y" horiz-adv-x="575" 
d="M685 708l-342 -401l-55 -307h-123l54 307l-177 401h138l118 -300l237 300h150z" />
    <glyph glyph-name="Z" unicode="Z" horiz-adv-x="588" 
d="M510 0h-550l19 111l466 489h-336l19 108h497l-20 -111l-463 -487h388z" />
    <glyph glyph-name="bracketleft" unicode="[" horiz-adv-x="320" 
d="M159 -156h-190l156 888h191l-14 -77h-90l-129 -734h90z" />
    <glyph glyph-name="backslash" unicode="\" horiz-adv-x="389" 
d="M3 726l83 32l312 -776l-83 -30z" />
    <glyph glyph-name="bracketright" unicode="]" horiz-adv-x="320" 
d="M187 -156h-190l13 77h90l130 734h-90l13 77h191z" />
    <glyph glyph-name="asciicircum" unicode="^" horiz-adv-x="666" 
d="M187 343h-118l223 365h82l223 -365h-118l-147 239z" />
    <glyph glyph-name="underscore" unicode="_" horiz-adv-x="500" 
d="M500 -75v-75h-500v75h500z" />
    <glyph glyph-name="grave" unicode="`" 
d="M147 708l99 -144h-90l-141 144h132z" />
    <glyph glyph-name="a" unicode="a" horiz-adv-x="539" 
d="M357 304q3 16 3 31q0 65 -89 65q-25 0 -63 -10.5t-76 -37.5l-45 79q40 29 93.5 45.5t107.5 16.5q33 0 67 -7.5t61 -25t42.5 -45.5t15.5 -67q0 -19 -4 -45l-35 -195q-12 -74 -12 -108h-108q0 27 6 57h-2q-56 -67 -156 -67q-40 0 -75 13.5t-55.5 42t-20.5 71.5
q0 56 33.5 97.5t110 65.5t201.5 24zM346 220h-14q-207 0 -207 -84q0 -16 8 -30.5t27.5 -22t42.5 -7.5q25 0 54.5 11t52.5 39.5t30 63.5z" />
    <glyph glyph-name="b" unicode="b" horiz-adv-x="638" 
d="M206 403h2q13 20 37.5 41t60.5 35t75 14q91 0 147 -57.5t56 -149.5q0 -60 -19.5 -115t-55 -96t-84.5 -64t-105 -23q-54 0 -101.5 25t-70.5 68h-2l-14 -81h-111l133 756h118zM464 272q0 54 -32 89.5t-86 35.5q-43 0 -83.5 -25.5t-62.5 -71t-22 -92.5q0 -55 33.5 -90
t88.5 -35q27 0 55 9.5t52 33t40.5 60.5t16.5 86z" />
    <glyph glyph-name="c" unicode="c" horiz-adv-x="492" 
d="M497 412l-84 -68q-13 22 -41 37.5t-58 15.5q-45 0 -86 -25t-63 -70.5t-22 -91.5q0 -38 15.5 -67t42 -44t64.5 -15q31 0 61 10.5t62 43.5l67 -68q-85 -83 -197 -83q-51 0 -94 15t-73.5 42.5t-47 66.5t-16.5 84q0 57 21 111.5t60 96.5t93.5 66t118.5 24q41 0 79 -11.5
t62 -31t36 -38.5z" />
    <glyph glyph-name="d" unicode="d" horiz-adv-x="634" 
d="M461 403l60 353h118l-134 -756h-111l12 76h-3q-28 -41 -74 -64.5t-99 -23.5q-91 0 -147 57.5t-56 149.5q0 60 19.5 115t55 96t84.5 64t105 23q62 0 104 -24t64 -66h2zM147 209q0 -54 32 -89.5t86 -35.5q43 0 83.5 25.5t62.5 71t22 92.5q0 55 -33.5 90t-88.5 35
q-27 0 -55 -9.5t-52 -33t-40.5 -60.5t-16.5 -86z" />
    <glyph glyph-name="e" unicode="e" horiz-adv-x="564" 
d="M496 203h-356l-1 -11q0 -47 36.5 -78.5t89.5 -31.5q81 0 137 63l67 -63q-88 -96 -217 -96q-48 0 -89.5 14.5t-72 42t-47 67.5t-16.5 89q0 60 21 114.5t59 94.5t90 62.5t111 22.5q54 0 102 -21.5t73 -67.5t25 -103q0 -19 -3.5 -48t-8.5 -50zM400 287l2 25q0 40 -29 66.5
t-76 26.5q-29 0 -57.5 -12t-54.5 -40.5t-34 -65.5h249z" />
    <glyph glyph-name="f" unicode="f" horiz-adv-x="323" 
d="M410 761l-25 -100q-21 7 -41 7q-75 0 -95 -109l-14 -79h113l-17 -94h-111l-68 -386h-114l68 386h-91l16 94h89l14 73q41 215 217 215q35 0 59 -7z" />
    <glyph glyph-name="g" unicode="g" horiz-adv-x="632" 
d="M463 407h3l12 73h112l-76 -439q-11 -65 -32.5 -116.5t-56.5 -88t-88 -56.5t-123 -20q-44 0 -94 13t-84.5 33.5t-52.5 39.5l78 85q27 -32 69 -50.5t87 -18.5q72 0 116 38t63 128l8 38h-2q-26 -34 -70 -54.5t-95 -20.5q-45 0 -83 15t-64.5 42t-41 65.5t-14.5 83.5
q0 60 19.5 114.5t55 95t84.5 63.5t105 23q30 0 63.5 -8t60.5 -28.5t41 -49.5zM154 211q0 -54 32 -89.5t86 -35.5q51 0 93 32.5t58.5 75.5t16.5 80q0 55 -33.5 90t-88.5 35q-36 0 -63 -13t-47.5 -33t-37 -57t-16.5 -85z" />
    <glyph glyph-name="h" unicode="h" horiz-adv-x="584" 
d="M461 0h-117l46 264q5 27 5 48q0 35 -19 58t-60 23q-53 0 -87.5 -39t-44.5 -93l-46 -261h-117l133 756h118l-61 -344h2q21 34 60 57.5t88 23.5q38 0 75 -14.5t59.5 -51t22.5 -83.5q0 -25 -4 -45z" />
    <glyph glyph-name="i" unicode="i" horiz-adv-x="267" 
d="M138 0h-117l84 480h118zM262 645q0 -29 -21 -51t-50 -22t-49.5 19t-20.5 50q0 30 22 51.5t51 21.5t48.5 -19.5t19.5 -49.5z" />
    <glyph glyph-name="j" unicode="j" horiz-adv-x="267" 
d="M133 -32q-20 -112 -68 -160t-134 -48q-29 0 -53 6l23 100q13 -4 32 -4q29 0 49.5 19.5t31.5 82.5l91 516h118zM262 645q0 -29 -21 -51t-50 -22t-49.5 19t-20.5 50q0 30 22 51.5t51 21.5t48.5 -19.5t19.5 -49.5z" />
    <glyph glyph-name="k" unicode="k" horiz-adv-x="521" 
d="M481 0h-145l-151 246h-3l-44 -246h-117l133 756h118l-85 -479h3l217 203h154l-255 -223z" />
    <glyph glyph-name="l" unicode="l" horiz-adv-x="267" 
d="M138 0h-117l133 756h118z" />
    <glyph glyph-name="m" unicode="m" horiz-adv-x="894" 
d="M87 377q10 50 15 103h110l-9 -75h2q57 88 148 88q56 0 94 -26t50 -68q31 44 74.5 69t95.5 25q50 0 85 -17.5t55.5 -51t20.5 -80.5q0 -25 -4 -45l-53 -299h-117l46 264q5 27 5 48q0 36 -16 55t-34.5 23t-29.5 4q-51 0 -85.5 -40t-43.5 -92l-46 -262h-118l51 290l3 27
q0 35 -19 56t-55 21q-26 0 -50.5 -12t-46.5 -42.5t-30 -75.5l-47 -264h-117z" />
    <glyph glyph-name="n" unicode="n" horiz-adv-x="584" 
d="M203 405h2q19 29 46 50.5t56.5 29.5t53.5 8q38 0 75 -14.5t59.5 -51t22.5 -83.5q0 -25 -4 -45l-53 -299h-117l46 264q5 27 5 48q0 35 -19 58t-60 23q-53 0 -87.5 -38.5t-43.5 -90.5l-47 -264h-117l66 377q10 50 15 103h110z" />
    <glyph glyph-name="o" unicode="o" horiz-adv-x="604" 
d="M259 -13q-36 0 -75.5 10t-78.5 38.5t-58.5 72t-19.5 88.5q0 58 20.5 112t59 95.5t93 65.5t117.5 24q37 0 76.5 -10t78.5 -38t58.5 -71.5t19.5 -88.5q0 -59 -20.5 -113.5t-59 -96t-93 -65t-118.5 -23.5zM432 273q0 25 -11 54t-41 49.5t-71 20.5q-27 0 -55.5 -10t-53 -34
t-41 -61t-16.5 -84q0 -40 18.5 -70t46.5 -42t57 -12q27 0 56 10t53.5 33.5t41 61t16.5 84.5z" />
    <glyph glyph-name="p" unicode="p" horiz-adv-x="635" 
d="M147 76l-53 -316h-118l127 720h111l-12 -77h3q28 41 74 64.5t99 23.5q91 0 147 -57.5t56 -149.5q0 -60 -19.5 -115t-55 -96t-84.5 -64t-105 -23q-62 0 -104 24t-64 66h-2zM461 270q0 54 -32 89.5t-86 35.5q-43 0 -83.5 -25.5t-62.5 -71t-22 -92.5q0 -55 33.5 -90
t88.5 -35q27 0 55 9.5t52 33t40.5 60.5t16.5 86z" />
    <glyph glyph-name="q" unicode="q" horiz-adv-x="632" 
d="M405 76h-2q-28 -41 -74 -64.5t-99 -23.5q-91 0 -147 57.5t-56 149.5q0 60 19.5 115t55 96t84.5 64t105 23q39 0 76.5 -14.5t61 -37t34.5 -43.5h2l14 82h111l-126 -720h-118zM147 209q0 -54 32 -89.5t86 -35.5q43 0 83.5 25.5t62.5 71t22 92.5q0 55 -33.5 90t-88.5 35
q-27 0 -55 -9.5t-52 -33t-40.5 -60.5t-16.5 -86z" />
    <glyph glyph-name="r" unicode="r" horiz-adv-x="339" 
d="M201 400h2q56 93 141 93q17 0 29 -3l-16 -109q-19 5 -36 5q-28 0 -57.5 -11t-53 -43.5t-30.5 -74.5l-45 -257h-117l67 377q10 50 15 103h110z" />
    <glyph glyph-name="s" unicode="s" horiz-adv-x="444" 
d="M-24 78l91 60q15 -28 44.5 -44t65.5 -16q40 0 65 16.5t25 43.5q0 18 -13 32.5t-69 32.5q-71 23 -97.5 46.5t-32.5 44.5t-6 41q0 25 10.5 52t36 50.5t66.5 39.5t96 16q41 0 78 -12t60 -32t35 -39l-91 -54q-30 47 -91 47q-25 0 -46 -7.5t-30 -21t-9 -28.5q0 -16 13.5 -29
t63.5 -27q51 -14 81.5 -34.5t45 -47t14.5 -62.5q0 -48 -25 -83.5t-72 -58t-111 -22.5q-35 0 -74.5 9t-72 32.5t-51.5 54.5z" />
    <glyph glyph-name="t" unicode="t" horiz-adv-x="340" 
d="M104 385h-85l17 95h83l24 140h116l-24 -140h108l-17 -95h-106l-42 -226l-3 -28q0 -46 57 -46q22 0 45 7l-7 -89q-6 -2 -26 -7.5t-47 -5.5q-72 0 -106 29.5t-34 81.5q0 33 6 61z" />
    <glyph glyph-name="u" unicode="u" horiz-adv-x="584" 
d="M350 75h-2q-19 -29 -46 -50.5t-56.5 -29.5t-53.5 -8q-38 0 -75 14.5t-59.5 51t-22.5 83.5q0 25 4 45l53 299h117l-46 -264q-5 -27 -5 -48q0 -35 19 -58t60 -23q53 0 87.5 38.5t43.5 90.5l47 264h117l-66 -377q-10 -50 -15 -103h-110z" />
    <glyph glyph-name="v" unicode="v" horiz-adv-x="502" 
d="M534 480l-285 -480h-126l-94 480h123l56 -352h2l200 352h124z" />
    <glyph glyph-name="w" unicode="w" horiz-adv-x="785" 
d="M820 480l-261 -480h-120l-43 339h-2l-179 -339h-120l-66 480h123l33 -345h2l172 345h123l39 -345h2l174 345h123z" />
    <glyph glyph-name="x" unicode="x" horiz-adv-x="513" 
d="M451 0h-133l-89 172l-153 -172h-149l247 255l-129 225h129l78 -150l133 150h144l-220 -231z" />
    <glyph glyph-name="y" unicode="y" horiz-adv-x="506" 
d="M543 480l-340 -584q-40 -71 -80 -103.5t-104 -32.5q-33 0 -61 7l15 102q21 -7 44 -7t43 12.5t49 62.5l36 62l-108 481h126l62 -352h2l192 352h124z" />
    <glyph glyph-name="z" unicode="z" horiz-adv-x="480" 
d="M392 0h-412l18 103l313 283h-244l16 94h387l-18 -103l-311 -281h268z" />
    <glyph glyph-name="braceleft" unicode="{" horiz-adv-x="320" 
d="M187 -156h-72q-33 0 -59.5 14.5t-37 38.5t-10.5 48q0 15 3 31l34 190q4 23 -1 41.5t-20.5 28t-34.5 9.5l15 86q19 0 38 8.5t30 26.5t15 37l34 197q11 64 54.5 98t96.5 34h72l-14 -83h-55q-20 0 -34.5 -12.5t-21.5 -48.5l-33 -187q-5 -29 -22.5 -54t-45 -40t-49.5 -18v-2
q30 -3 49 -18.5t25 -34t6 -36.5q0 -14 -3 -29l-32 -181q-7 -35 3 -48t30 -13h55z" />
    <glyph glyph-name="bar" unicode="|" horiz-adv-x="222" 
d="M60 750h102v-1000h-102v1000z" />
    <glyph glyph-name="braceright" unicode="}" horiz-adv-x="320" 
d="M308 245q-19 0 -38 -9.5t-30 -29t-15 -40.5l-34 -190q-7 -41 -27.5 -69.5t-52.5 -45.5t-70 -17h-73l15 83h55q45 0 55 61l32 181q6 33 23 60t44.5 41.5t50.5 16.5l1 2q-21 3 -42 17t-31.5 37.5t-4.5 57.5l33 187q6 36 -4 48.5t-30 12.5h-54l14 83h73q33 0 59 -14.5
t36.5 -38.5t10.5 -48q0 -14 -3 -31l-34 -197q-4 -19 1 -36.5t20.5 -26.5t34.5 -9z" />
    <glyph glyph-name="asciitilde" unicode="~" horiz-adv-x="666" 
d="M345 354q30 -19 48.5 -28t45.5 -9q45 0 78 63l77 -65q-62 -102 -153 -102q-29 0 -58 9t-63 31q-27 17 -48.5 26.5t-44.5 9.5q-44 0 -78 -63l-77 65q62 103 153 103q26 0 53 -7t67 -33z" />
    <glyph glyph-name="uni00A0" unicode="&#xa0;" horiz-adv-x="250" 
 />
    <glyph glyph-name="exclamdown" unicode="&#xa1;" horiz-adv-x="295" 
d="M78 273h117l-86 -487h-117zM83 422q0 30 22 53t52 23q31 0 52 -19.5t21 -52.5q0 -32 -23 -54t-53 -22t-50.5 20t-20.5 52z" />
    <glyph glyph-name="cent" unicode="&#xa2;" horiz-adv-x="610" 
d="M391 491q47 -5 86 -25t60 -54l-84 -68q-11 19 -33.5 33t-45.5 18l-55 -311q26 2 52.5 13t56.5 41l67 -68q-83 -82 -193 -83l-12 -70h-54l14 74q-84 13 -133.5 68t-49.5 136q0 55 19 107t55 93t87 67t110 30l11 66h54zM321 394q-60 -10 -99 -63t-39 -121q0 -32 11 -60.5
t31 -43t41 -18.5z" />
    <glyph glyph-name="sterling" unicode="&#xa3;" horiz-adv-x="610" 
d="M624 666l-72 -81q-16 20 -42.5 31.5t-57.5 11.5q-57 0 -92.5 -40t-47.5 -111l-14 -78h166l-15 -83h-164l-37 -211h265l-19 -105h-482l18 105h98l38 211h-98l14 83h96l15 83q20 112 89 178t177 66q52 0 94.5 -16t70.5 -44z" />
    <glyph glyph-name="currency" unicode="&#xa4;" horiz-adv-x="610" 
d="M589 501l-81 -81q39 -59 39 -136q0 -28 -8.5 -65.5t-32.5 -74.5l83 -84l-63 -64l-86 85q-55 -39 -134 -39q-37 0 -72.5 11.5t-61.5 28.5l-87 -86l-64 64l86 87q-16 26 -28 62.5t-12 74.5q0 35 10 70.5t27 63.5l-83 83l64 63l83 -81q27 17 63.5 29t74.5 12q28 0 65 -8.5
t72 -32.5l82 81zM306 428q-46 0 -79.5 -24t-46 -58t-12.5 -62t12.5 -62.5t46 -58.5t79.5 -24q47 0 80.5 24t46 58.5t12.5 62.5t-12.5 62t-46 58t-80.5 24z" />
    <glyph glyph-name="yen" unicode="&#xa5;" horiz-adv-x="610" 
d="M657 708l-244 -320h140l-14 -77h-177l-14 -78h177l-13 -77h-175l-27 -156h-115l27 156h-178l13 77h176l13 78h-175l13 77h148l-142 320h130l106 -289l199 289h132z" />
    <glyph glyph-name="brokenbar" unicode="&#xa6;" horiz-adv-x="222" 
d="M60 675h102v-350h-102v350zM60 175h102v-350h-102v350z" />
    <glyph glyph-name="section" unicode="&#xa7;" horiz-adv-x="610" 
d="M589 642l-89 -69q-19 28 -49.5 42.5t-65.5 14.5q-15 0 -38 -5.5t-39 -20t-19.5 -28t-3.5 -23.5q0 -16 8 -31t31.5 -28.5t73.5 -35.5q47 -21 76 -43t44.5 -51.5t15.5 -70.5q0 -31 -12 -60t-38.5 -52t-61.5 -36q20 -17 33 -43t13 -52q0 -37 -13.5 -73t-43 -62.5t-73 -42.5
t-95.5 -16q-48 0 -102 16.5t-85.5 43t-43.5 53.5l100 57q7 -15 24.5 -31t47 -26.5t57.5 -10.5q18 0 41.5 4.5t38.5 18t18.5 26t3.5 22.5q0 19 -10 38t-37.5 35t-86.5 41q-42 18 -68.5 39t-40.5 48t-14 65q0 41 21.5 75.5t49.5 52.5t49 24q-17 13 -30 38t-13 56q0 23 7 49.5
t25.5 50.5t44 41t64.5 30.5t88 13.5q45 0 87 -12.5t69 -32.5t41 -39zM262 234l97 -43q32 10 49.5 31t17.5 51q0 24 -14.5 46t-55.5 42l-84 41q-35 -8 -56 -32.5t-21 -54.5q0 -24 13 -43.5t54 -37.5z" />
    <glyph glyph-name="dieresis" unicode="&#xa8;" 
d="M158 646q0 -29 -20 -50t-49 -21t-48.5 18t-19.5 49q0 30 21 50.5t50 20.5t47.5 -18.5t18.5 -48.5zM356 646q0 -29 -20 -50t-49 -21t-48.5 18t-19.5 49q0 30 21 50.5t50 20.5t47.5 -18.5t18.5 -48.5z" />
    <glyph glyph-name="copyright" unicode="&#xa9;" horiz-adv-x="800" 
d="M577 506l-63 -63q-14 18 -41 30t-55 12q-29 0 -57.5 -13.5t-47.5 -47t-19 -71.5q0 -33 15 -65.5t46.5 -51t69.5 -18.5q24 0 50.5 10t42.5 28l58 -68q-26 -28 -68 -44t-90 -16q-35 0 -68 8.5t-60.5 24.5t-52.5 44t-37 67.5t-12 78.5q0 50 18 92.5t49.5 71.5t73.5 44.5
t89 15.5t90.5 -18.5t68.5 -50.5zM20 353q0 76 29.5 145.5t82.5 121.5t123 81t146 29t145.5 -29t122 -81t82 -121.5t29.5 -145.5t-29.5 -145t-82 -120.5t-122 -80.5t-145.5 -29t-146 29t-123 80.5t-82.5 120.5t-29.5 145zM80 353q0 -64 25 -122.5t69.5 -102.5t103.5 -69
t123 -25t122.5 25t102.5 69t69 102.5t25 122.5t-25 123t-69 103.5t-102.5 69.5t-122.5 25t-123 -25t-103.5 -69.5t-69.5 -103.5t-25 -123z" />
    <glyph glyph-name="ordfeminine" unicode="&#xaa;" horiz-adv-x="380" 
d="M280 559h-7q-112 0 -112 -44q0 -33 42 -33q28 0 48 17.5t25 43.5zM268 461h-2q-29 -37 -84 -37q-43 0 -68 22t-25 56q0 59 49 85.5t147 26.5l2 12q0 18 -11 26t-36 8q-16 0 -38 -7.5t-39 -19.5l-30 51q55 39 117 39q40 0 66.5 -15t35 -35.5t8.5 -38.5q0 -10 -4 -32
l-18 -106q-5 -26 -5 -65h-68z" />
    <glyph glyph-name="guillemotleft" unicode="&#xab;" horiz-adv-x="518" 
d="M21 247l191 224l67 -54l-149 -177l85 -175l-80 -46zM240 247l191 224l67 -54l-149 -177l85 -175l-80 -46z" />
    <glyph glyph-name="logicalnot" unicode="&#xac;" horiz-adv-x="666" 
d="M502 147v195h-440v102h542v-297h-102z" />
    <glyph glyph-name="uni00AD" unicode="&#xad;" horiz-adv-x="320" 
d="M260 196h-239l18 100h239z" />
    <glyph glyph-name="registered" unicode="&#xae;" horiz-adv-x="600" 
d="M568 493q0 -57 -30 -111t-85 -83.5t-112 -29.5q-46 0 -88 17.5t-73.5 48t-49.5 72t-18 86.5q0 34 12 72t44.5 76.5t79.5 58.5t93 20q57 0 112 -30t85 -85t30 -112zM532 493q0 29 -10 61.5t-33.5 61.5t-61.5 49.5t-86 20.5q-49 0 -95.5 -25.5t-72 -72t-25.5 -95.5
q0 -28 10 -60t37 -64.5t67 -49.5t79 -17q38 0 69 13t56 34t45.5 58.5t20.5 85.5zM472 368h-83l-50 96h-29v-96h-71v260h112q30 0 56.5 -10.5t38.5 -29.5t12 -42q0 -25 -14.5 -44t-37.5 -27zM383 545q0 12 -11.5 18.5t-23.5 6.5h-38v-54h38q12 0 23.5 8t11.5 21z" />
    <glyph glyph-name="macron" unicode="&#xaf;" 
d="M339 595h-317l13 77h318z" />
    <glyph glyph-name="degree" unicode="&#xb0;" horiz-adv-x="400" 
d="M74 560q0 24 8.5 50.5t28.5 51t51.5 41.5t71.5 17q24 0 50.5 -8.5t51 -28.5t41.5 -51.5t17 -71.5q0 -24 -8.5 -50.5t-28.5 -51t-51.5 -41.5t-71.5 -17q-24 0 -50.5 8.5t-51 28.5t-41.5 51.5t-17 71.5zM152 560q0 -33 24.5 -57.5t57.5 -24.5t57.5 24.5t24.5 57.5
t-24.5 57.5t-57.5 24.5t-57.5 -24.5t-24.5 -57.5z" />
    <glyph glyph-name="plusminus" unicode="&#xb1;" horiz-adv-x="666" 
d="M286 431v143h96v-143h204v-102h-204v-143h-96v143h-206v102h206zM80 32v102h506v-102h-506z" />
    <glyph glyph-name="uni00B2" unicode="&#xb2;" horiz-adv-x="400" 
d="M108 607q9 25 29 51.5t53 42.5t70 16q59 0 96.5 -31.5t37.5 -83.5q0 -35 -15.5 -67t-82.5 -84l-114 -89h167l-15 -79h-279l14 77l184 151q58 48 58 86q0 24 -15 35.5t-40 11.5q-51 0 -70 -59z" />
    <glyph glyph-name="uni00B3" unicode="&#xb3;" horiz-adv-x="400" 
d="M198 540q86 0 86 67q0 21 -13 31.5t-34 10.5q-18 0 -34.5 -7t-33.5 -38l-65 38q24 40 60 59.5t79 19.5q57 0 91 -34t34 -78q0 -39 -23 -66.5t-57 -35.5q29 -10 46.5 -33.5t17.5 -52.5q0 -43 -20.5 -77.5t-58.5 -50.5t-78 -16q-54 0 -91.5 26.5t-52.5 71.5l80 24
q7 -24 24.5 -35.5t40.5 -11.5q34 0 52 17t18 45t-21.5 43.5t-57.5 15.5h-23l11 67h23z" />
    <glyph glyph-name="acute" unicode="&#xb4;" 
d="M385 708l-165 -144h-93l125 144h133z" />
    <glyph glyph-name="mu" unicode="&#xb5;" horiz-adv-x="574" 
d="M120 480h120l-52 -243q-9 -43 -9 -67q0 -74 67 -74q41 0 71.5 21t45 49.5t19.5 51.5l56 262h120l-102 -480h-114l16 77h-2q-59 -89 -156 -89q-18 0 -35.5 6.5t-24.5 17.5l-51 -240h-120z" />
    <glyph glyph-name="paragraph" unicode="&#xb6;" horiz-adv-x="600" 
d="M456 -126h-89l135 763h-108l-135 -763h-89l82 463q-86 0 -136 41.5t-50 109.5q0 35 10 67t28.5 58.5t49 48t76.5 34t105 12.5h268z" />
    <glyph glyph-name="periodcentered" unicode="&#xb7;" 
d="M201 297q0 -30 -22 -53t-52 -23q-31 0 -52 19.5t-21 52.5q0 32 23 54t53 22t50.5 -20t20.5 -52z" />
    <glyph glyph-name="cedilla" unicode="&#xb8;" 
d="M176 -138q0 -34 -19.5 -56t-53 -34t-71.5 -12q-27 0 -58.5 7.5t-50.5 18.5l27 48q35 -20 78 -20q33 0 49 11.5t16 29.5q0 36 -47 36q-20 0 -40 -6l-18 25l78 90h57l-57 -65l20 2q23 0 45.5 -9.5t33.5 -27t11 -38.5z" />
    <glyph glyph-name="uni00B9" unicode="&#xb9;" horiz-adv-x="400" 
d="M256 279h-93l57 319l-84 -61l-41 61l155 110h81z" />
    <glyph glyph-name="ordmasculine" unicode="&#xba;" horiz-adv-x="380" 
d="M302 591q0 26 -16.5 43t-44.5 17q-16 0 -35 -9.5t-32 -32.5t-13 -51q0 -26 16 -43t43 -17q17 0 36.5 9.5t32.5 33t13 50.5zM215 426q-31 0 -62 12t-52.5 43t-21.5 68q0 28 9 58t30 55.5t54 42.5t76 17q59 0 97 -34t38 -89q0 -29 -9 -59.5t-30.5 -55.5t-54 -41.5
t-74.5 -16.5z" />
    <glyph glyph-name="guillemotright" unicode="&#xbb;" horiz-adv-x="518" 
d="M478 243l-191 -224l-67 54l149 177l-85 175l80 46zM257 243l-191 -224l-67 54l149 177l-85 175l80 46z" />
    <glyph glyph-name="onequarter" unicode="&#xbc;" horiz-adv-x="900" 
d="M785 89h-55l-15 -89h-85l15 89h-192l12 70l221 270h101l-46 -266h58zM656 163l29 156h-5l-122 -156h98zM256 279h-93l57 319l-84 -61l-41 61l155 110h81zM743 701l-547 -734l-62 39l547 734z" />
    <glyph glyph-name="onehalf" unicode="&#xbd;" horiz-adv-x="900" 
d="M256 279h-93l57 319l-84 -61l-41 61l155 110h81zM548 324q9 25 29 51.5t53 42.5t70 16q59 0 96.5 -31.5t37.5 -83.5q0 -35 -15.5 -67t-82.5 -84l-114 -89h167l-15 -79h-279l14 77l184 151q58 48 58 86q0 24 -15 35.5t-40 11.5q-51 0 -70 -59zM743 701l-547 -734l-62 39
l547 734z" />
    <glyph glyph-name="threequarters" unicode="&#xbe;" horiz-adv-x="900" 
d="M785 89h-55l-15 -89h-85l15 89h-192l12 70l221 270h101l-46 -266h58zM656 163l29 156h-5l-122 -156h98zM743 701l-547 -734l-62 39l547 734zM198 540q86 0 86 67q0 21 -13 31.5t-34 10.5q-18 0 -34.5 -7t-33.5 -38l-65 38q24 40 60 59.5t79 19.5q57 0 91 -34t34 -78
q0 -39 -23 -66.5t-57 -35.5q29 -10 46.5 -33.5t17.5 -52.5q0 -43 -20.5 -77.5t-58.5 -50.5t-78 -16q-54 0 -91.5 26.5t-52.5 71.5l80 24q7 -24 24.5 -35.5t40.5 -11.5q34 0 52 17t18 45t-21.5 43.5t-57.5 15.5h-23l11 67h23z" />
    <glyph glyph-name="questiondown" unicode="&#xbf;" horiz-adv-x="517" 
d="M107 140q58 41 72 65t19 56l4 26h115l-6 -39q-7 -47 -28 -79.5t-65 -67.5l-52 -41q-39 -30 -53 -54t-14 -50q0 -39 22.5 -59.5t66.5 -20.5q22 0 47 10.5t44 36.5t26 58l113 -19q-9 -40 -30 -75t-52.5 -61.5t-73 -41.5t-88.5 -15q-52 0 -99 17.5t-73 59.5t-26 101
q0 58 32 102t99 91zM200 423q0 30 22 53t52 23q31 0 52 -19.5t21 -52.5q0 -32 -23 -54t-53 -22t-50.5 20t-20.5 52z" />
    <glyph glyph-name="Agrave" unicode="&#xc0;" horiz-adv-x="668" 
d="M623 0h-131l-29 163h-303l-101 -163h-146l462 708h107zM446 269l-47 297l-179 -297h226zM375 908l99 -144h-90l-141 144h132z" />
    <glyph glyph-name="Aacute" unicode="&#xc1;" horiz-adv-x="668" 
d="M623 0h-131l-29 163h-303l-101 -163h-146l462 708h107zM446 269l-47 297l-179 -297h226zM650 908l-165 -144h-93l125 144h133z" />
    <glyph glyph-name="Acircumflex" unicode="&#xc2;" horiz-adv-x="668" 
d="M623 0h-131l-29 163h-303l-101 -163h-146l462 708h107zM446 269l-47 297l-179 -297h226zM615 764h-108l-54 91l-86 -91h-112l140 144h132z" />
    <glyph glyph-name="Atilde" unicode="&#xc3;" horiz-adv-x="668" 
d="M623 0h-131l-29 163h-303l-101 -163h-146l462 708h107zM446 269l-47 297l-179 -297h226zM317 768h-66q43 125 135 125q39 0 75 -18q40 -19 62 -19q33 0 53 44h66q-43 -125 -134 -125q-33 0 -69 17q-44 21 -68 21q-31 0 -54 -45z" />
    <glyph glyph-name="Adieresis" unicode="&#xc4;" horiz-adv-x="668" 
d="M623 0h-131l-29 163h-303l-101 -163h-146l462 708h107zM446 269l-47 297l-179 -297h226zM416 846q0 -29 -20 -50t-49 -21t-48.5 18t-19.5 49q0 30 21 50.5t50 20.5t47.5 -18.5t18.5 -48.5zM614 846q0 -29 -20 -50t-49 -21t-48.5 18t-19.5 49q0 30 21 50.5t50 20.5
t47.5 -18.5t18.5 -48.5z" />
    <glyph glyph-name="Aring" unicode="&#xc5;" horiz-adv-x="668" 
d="M623 0h-131l-29 163h-303l-101 -163h-146l462 708h107zM446 269l-47 297l-179 -297h226zM437 753q-39 0 -64.5 25t-25.5 61q0 35 19 64.5t46 41t50 11.5q39 0 64 -24.5t25 -60.5t-18.5 -65.5t-45.5 -41t-50 -11.5zM502 862q0 20 -12.5 35t-32.5 15q-26 0 -43.5 -19.5
t-17.5 -47.5q0 -20 12 -34t32 -14q27 0 44.5 18.5t17.5 46.5z" />
    <glyph glyph-name="AE" unicode="&#xc6;" horiz-adv-x="1033" 
d="M1045 708l-19 -108h-326l-32 -183h311l-19 -104h-310l-36 -203h354l-19 -110h-474l32 187h-255l-142 -187h-142l553 708h524zM525 289l55 311h-15l-235 -311h195z" />
    <glyph glyph-name="Ccedilla" unicode="&#xc7;" horiz-adv-x="681" 
d="M448 -138q0 -34 -19.5 -56t-53 -34t-71.5 -12q-27 0 -58.5 7.5t-50.5 18.5l27 48q35 -20 78 -20q33 0 49 11.5t16 29.5q0 36 -47 36q-20 0 -40 -6l-18 25l64 74q-125 12 -200.5 94.5t-75.5 207.5q0 66 21.5 140t72.5 140t114 102t115.5 47t93.5 11q77 0 143 -30t98 -78
l-97 -73q-13 20 -37.5 39t-54.5 27.5t-56 8.5q-60 0 -113 -26.5t-91.5 -72t-59.5 -103t-21 -116.5q0 -43 13.5 -82t39.5 -68t64.5 -45.5t85.5 -16.5q53 0 102 23t85 68l79 -70q-43 -55 -111 -90t-155 -38l-41 -48l20 2q23 0 45.5 -9.5t33.5 -27t11 -38.5z" />
    <glyph glyph-name="Egrave" unicode="&#xc8;" horiz-adv-x="584" 
d="M500 0h-475l125 708h446l-19 -108h-326l-32 -183h311l-19 -104h-310l-36 -203h354zM361 908l99 -144h-90l-141 144h132z" />
    <glyph glyph-name="Eacute" unicode="&#xc9;" horiz-adv-x="584" 
d="M500 0h-475l125 708h446l-19 -108h-326l-32 -183h311l-19 -104h-310l-36 -203h354zM574 908l-165 -144h-93l125 144h133z" />
    <glyph glyph-name="Ecircumflex" unicode="&#xca;" horiz-adv-x="584" 
d="M500 0h-475l125 708h446l-19 -108h-326l-32 -183h311l-19 -104h-310l-36 -203h354zM564 764h-108l-54 91l-86 -91h-112l140 144h132z" />
    <glyph glyph-name="Edieresis" unicode="&#xcb;" horiz-adv-x="584" 
d="M500 0h-475l125 708h446l-19 -108h-326l-32 -183h311l-19 -104h-310l-36 -203h354zM360 846q0 -29 -20 -50t-49 -21t-48.5 18t-19.5 49q0 30 21 50.5t50 20.5t47.5 -18.5t18.5 -48.5zM558 846q0 -29 -20 -50t-49 -21t-48.5 18t-19.5 49q0 30 21 50.5t50 20.5t47.5 -18.5
t18.5 -48.5z" />
    <glyph glyph-name="Igrave" unicode="&#xcc;" horiz-adv-x="291" 
d="M148 0h-123l125 708h123zM178 908l99 -144h-90l-141 144h132z" />
    <glyph glyph-name="Iacute" unicode="&#xcd;" horiz-adv-x="291" 
d="M148 0h-123l125 708h123zM415 908l-165 -144h-93l125 144h133z" />
    <glyph glyph-name="Icircumflex" unicode="&#xce;" horiz-adv-x="291" 
d="M148 0h-123l125 708h123zM400 764h-108l-54 91l-86 -91h-112l140 144h132z" />
    <glyph glyph-name="Idieresis" unicode="&#xcf;" horiz-adv-x="291" 
d="M148 0h-123l125 708h123zM201 846q0 -29 -20 -50t-49 -21t-48.5 18t-19.5 49q0 30 21 50.5t50 20.5t47.5 -18.5t18.5 -48.5zM399 846q0 -29 -20 -50t-49 -21t-48.5 18t-19.5 49q0 30 21 50.5t50 20.5t47.5 -18.5t18.5 -48.5z" />
    <glyph glyph-name="Eth" unicode="&#xd0;" horiz-adv-x="757" 
d="M82 325h-64l15 83h64l53 300h242q88 0 165 -33.5t121 -101t44 -161.5q0 -90 -32.5 -167t-83.5 -125t-106.5 -74.5t-111 -36t-98.5 -9.5h-265zM219 408h210l-15 -83h-210l-38 -217h129q70 0 127 23.5t95 64t57.5 93t19.5 107.5q0 43 -14 80.5t-43 66t-73.5 44.5t-101.5 16
h-109z" />
    <glyph glyph-name="Ntilde" unicode="&#xd1;" horiz-adv-x="788" 
d="M632 0h-153l-232 550h-2l-97 -550h-123l125 708h160l228 -533h2l94 533h123zM345 768h-66q43 125 135 125q39 0 75 -18q40 -19 62 -19q33 0 53 44h66q-43 -125 -134 -125q-33 0 -69 17q-44 21 -68 21q-31 0 -54 -45z" />
    <glyph glyph-name="Ograve" unicode="&#xd2;" horiz-adv-x="829" 
d="M459 726q74 0 136.5 -21.5t106.5 -61.5t68 -97.5t24 -126.5q0 -123 -56 -225.5t-149 -157t-200 -54.5q-76 0 -139.5 21t-108.5 61.5t-69 98t-24 126.5q0 111 50 211.5t146.5 163t214.5 62.5zM389 90q64 0 116.5 26.5t88.5 71.5t54.5 102.5t18.5 117.5q0 43 -14 82
t-41.5 68t-68 45.5t-90.5 16.5q-61 0 -113 -26.5t-89 -72t-56.5 -103t-19.5 -116.5q0 -43 14 -82t41.5 -68t68 -45.5t90.5 -16.5zM478 908l99 -144h-90l-141 144h132z" />
    <glyph glyph-name="Oacute" unicode="&#xd3;" horiz-adv-x="829" 
d="M459 726q74 0 136.5 -21.5t106.5 -61.5t68 -97.5t24 -126.5q0 -123 -56 -225.5t-149 -157t-200 -54.5q-76 0 -139.5 21t-108.5 61.5t-69 98t-24 126.5q0 111 50 211.5t146.5 163t214.5 62.5zM389 90q64 0 116.5 26.5t88.5 71.5t54.5 102.5t18.5 117.5q0 43 -14 82
t-41.5 68t-68 45.5t-90.5 16.5q-61 0 -113 -26.5t-89 -72t-56.5 -103t-19.5 -116.5q0 -43 14 -82t41.5 -68t68 -45.5t90.5 -16.5zM654 908l-165 -144h-93l125 144h133z" />
    <glyph glyph-name="Ocircumflex" unicode="&#xd4;" horiz-adv-x="829" 
d="M459 726q74 0 136.5 -21.5t106.5 -61.5t68 -97.5t24 -126.5q0 -123 -56 -225.5t-149 -157t-200 -54.5q-76 0 -139.5 21t-108.5 61.5t-69 98t-24 126.5q0 111 50 211.5t146.5 163t214.5 62.5zM389 90q64 0 116.5 26.5t88.5 71.5t54.5 102.5t18.5 117.5q0 43 -14 82
t-41.5 68t-68 45.5t-90.5 16.5q-61 0 -113 -26.5t-89 -72t-56.5 -103t-19.5 -116.5q0 -43 14 -82t41.5 -68t68 -45.5t90.5 -16.5zM681 764h-108l-54 91l-86 -91h-112l140 144h132z" />
    <glyph glyph-name="Otilde" unicode="&#xd5;" horiz-adv-x="829" 
d="M459 726q74 0 136.5 -21.5t106.5 -61.5t68 -97.5t24 -126.5q0 -123 -56 -225.5t-149 -157t-200 -54.5q-76 0 -139.5 21t-108.5 61.5t-69 98t-24 126.5q0 111 50 211.5t146.5 163t214.5 62.5zM389 90q64 0 116.5 26.5t88.5 71.5t54.5 102.5t18.5 117.5q0 43 -14 82
t-41.5 68t-68 45.5t-90.5 16.5q-61 0 -113 -26.5t-89 -72t-56.5 -103t-19.5 -116.5q0 -43 14 -82t41.5 -68t68 -45.5t90.5 -16.5zM369 768h-66q43 125 135 125q39 0 75 -18q40 -19 62 -19q33 0 53 44h66q-43 -125 -134 -125q-33 0 -69 17q-44 21 -68 21q-31 0 -54 -45z" />
    <glyph glyph-name="Odieresis" unicode="&#xd6;" horiz-adv-x="829" 
d="M459 726q74 0 136.5 -21.5t106.5 -61.5t68 -97.5t24 -126.5q0 -123 -56 -225.5t-149 -157t-200 -54.5q-76 0 -139.5 21t-108.5 61.5t-69 98t-24 126.5q0 111 50 211.5t146.5 163t214.5 62.5zM389 90q64 0 116.5 26.5t88.5 71.5t54.5 102.5t18.5 117.5q0 43 -14 82
t-41.5 68t-68 45.5t-90.5 16.5q-61 0 -113 -26.5t-89 -72t-56.5 -103t-19.5 -116.5q0 -43 14 -82t41.5 -68t68 -45.5t90.5 -16.5zM470 846q0 -29 -20 -50t-49 -21t-48.5 18t-19.5 49q0 30 21 50.5t50 20.5t47.5 -18.5t18.5 -48.5zM668 846q0 -29 -20 -50t-49 -21t-48.5 18
t-19.5 49q0 30 21 50.5t50 20.5t47.5 -18.5t18.5 -48.5z" />
    <glyph glyph-name="multiply" unicode="&#xd7;" horiz-adv-x="666" 
d="M150 557l183 -183l182 182l70 -70l-181 -181l185 -186l-74 -74l-183 181l-181 -181l-74 73l185 182l-184 186z" />
    <glyph glyph-name="Oslash" unicode="&#xd8;" horiz-adv-x="829" 
d="M688 656l95 88l42 -43l-95 -87q64 -78 64 -195q0 -123 -56 -225.5t-149 -157t-200 -54.5q-77 0 -142 22.5t-110 63.5l-95 -86l-42 43l97 89q-49 72 -49 175q0 111 50 211.5t146.5 163t214.5 62.5q137 0 229 -70zM640 528l-413 -378q58 -64 161 -64q65 0 118 27t89.5 73
t55.5 104t19 119q0 31 -8 62.5t-22 56.5zM602 575q-60 50 -148 50q-63 0 -116 -27t-90.5 -73.5t-57.5 -105.5t-20 -119q0 -56 21 -100z" />
    <glyph glyph-name="Ugrave" unicode="&#xd9;" horiz-adv-x="714" 
d="M633 260q-11 -63 -36 -114.5t-63 -88t-91.5 -56t-119.5 -19.5q-121 0 -192 60t-71 161q0 32 5 57l79 448h123l-78 -443q-4 -19 -4 -46q0 -25 10.5 -55.5t43 -52t86.5 -21.5q78 0 123.5 44t61.5 131l78 443h124zM397 908l99 -144h-90l-141 144h132z" />
    <glyph glyph-name="Uacute" unicode="&#xda;" horiz-adv-x="714" 
d="M633 260q-11 -63 -36 -114.5t-63 -88t-91.5 -56t-119.5 -19.5q-121 0 -192 60t-71 161q0 32 5 57l79 448h123l-78 -443q-4 -19 -4 -46q0 -25 10.5 -55.5t43 -52t86.5 -21.5q78 0 123.5 44t61.5 131l78 443h124zM620 908l-165 -144h-93l125 144h133z" />
    <glyph glyph-name="Ucircumflex" unicode="&#xdb;" horiz-adv-x="714" 
d="M633 260q-11 -63 -36 -114.5t-63 -88t-91.5 -56t-119.5 -19.5q-121 0 -192 60t-71 161q0 32 5 57l79 448h123l-78 -443q-4 -19 -4 -46q0 -25 10.5 -55.5t43 -52t86.5 -21.5q78 0 123.5 44t61.5 131l78 443h124zM614 764h-108l-54 91l-86 -91h-112l140 144h132z" />
    <glyph glyph-name="Udieresis" unicode="&#xdc;" horiz-adv-x="714" 
d="M633 260q-11 -63 -36 -114.5t-63 -88t-91.5 -56t-119.5 -19.5q-121 0 -192 60t-71 161q0 32 5 57l79 448h123l-78 -443q-4 -19 -4 -46q0 -25 10.5 -55.5t43 -52t86.5 -21.5q78 0 123.5 44t61.5 131l78 443h124zM411 846q0 -29 -20 -50t-49 -21t-48.5 18t-19.5 49
q0 30 21 50.5t50 20.5t47.5 -18.5t18.5 -48.5zM609 846q0 -29 -20 -50t-49 -21t-48.5 18t-19.5 49q0 30 21 50.5t50 20.5t47.5 -18.5t18.5 -48.5z" />
    <glyph glyph-name="Yacute" unicode="&#xdd;" horiz-adv-x="575" 
d="M685 708l-342 -401l-55 -307h-123l54 307l-177 401h138l118 -300l237 300h150zM566 908l-165 -144h-93l125 144h133z" />
    <glyph glyph-name="Thorn" unicode="&#xde;" horiz-adv-x="609" 
d="M339 570q115 0 178 -49.5t63 -136.5q0 -55 -21.5 -98t-61 -71.5t-94.5 -43t-121 -14.5h-107l-28 -157h-122l125 708h122l-24 -138h91zM287 261q82 0 125.5 27.5t43.5 83.5q0 52 -36.5 73t-99.5 21h-90l-37 -205h94z" />
    <glyph glyph-name="germandbls" unicode="&#xdf;" horiz-adv-x="627" 
d="M292 -12q-52 0 -92 11l18 99q11 -4 32.5 -7t36.5 -3q26 0 55 7t57 28t42 54t14 69q0 33 -16 59t-47.5 43.5t-70.5 17.5h-13l18 100h14q47 0 83 29t36 83q0 25 -14 47t-36.5 31t-42.5 9q-17 0 -39.5 -6t-42 -25t-34 -51t-23.5 -80l-89 -503h-118l90 509q46 259 263 259
q63 0 109 -25t70 -64t24 -89q0 -64 -38 -107.5t-95 -58.5v-2q60 -16 96.5 -63.5t36.5 -110.5q0 -54 -20.5 -102.5t-58.5 -83.5t-91 -54.5t-114 -19.5z" />
    <glyph glyph-name="agrave" unicode="&#xe0;" horiz-adv-x="539" 
d="M357 304q3 16 3 31q0 65 -89 65q-25 0 -63 -10.5t-76 -37.5l-45 79q40 29 93.5 45.5t107.5 16.5q33 0 67 -7.5t61 -25t42.5 -45.5t15.5 -67q0 -19 -4 -45l-35 -195q-12 -74 -12 -108h-108q0 27 6 57h-2q-56 -67 -156 -67q-40 0 -75 13.5t-55.5 42t-20.5 71.5
q0 56 33.5 97.5t110 65.5t201.5 24zM346 220h-14q-207 0 -207 -84q0 -16 8 -30.5t27.5 -22t42.5 -7.5q25 0 54.5 11t52.5 39.5t30 63.5zM256 708l99 -144h-90l-141 144h132z" />
    <glyph glyph-name="aacute" unicode="&#xe1;" horiz-adv-x="539" 
d="M357 304q3 16 3 31q0 65 -89 65q-25 0 -63 -10.5t-76 -37.5l-45 79q40 29 93.5 45.5t107.5 16.5q33 0 67 -7.5t61 -25t42.5 -45.5t15.5 -67q0 -19 -4 -45l-35 -195q-12 -74 -12 -108h-108q0 27 6 57h-2q-56 -67 -156 -67q-40 0 -75 13.5t-55.5 42t-20.5 71.5
q0 56 33.5 97.5t110 65.5t201.5 24zM346 220h-14q-207 0 -207 -84q0 -16 8 -30.5t27.5 -22t42.5 -7.5q25 0 54.5 11t52.5 39.5t30 63.5zM504 708l-165 -144h-93l125 144h133z" />
    <glyph glyph-name="acircumflex" unicode="&#xe2;" horiz-adv-x="539" 
d="M357 304q3 16 3 31q0 65 -89 65q-25 0 -63 -10.5t-76 -37.5l-45 79q40 29 93.5 45.5t107.5 16.5q33 0 67 -7.5t61 -25t42.5 -45.5t15.5 -67q0 -19 -4 -45l-35 -195q-12 -74 -12 -108h-108q0 27 6 57h-2q-56 -67 -156 -67q-40 0 -75 13.5t-55.5 42t-20.5 71.5
q0 56 33.5 97.5t110 65.5t201.5 24zM346 220h-14q-207 0 -207 -84q0 -16 8 -30.5t27.5 -22t42.5 -7.5q25 0 54.5 11t52.5 39.5t30 63.5zM489 564h-108l-54 91l-86 -91h-112l140 144h132z" />
    <glyph glyph-name="atilde" unicode="&#xe3;" horiz-adv-x="539" 
d="M357 304q3 16 3 31q0 65 -89 65q-25 0 -63 -10.5t-76 -37.5l-45 79q40 29 93.5 45.5t107.5 16.5q33 0 67 -7.5t61 -25t42.5 -45.5t15.5 -67q0 -19 -4 -45l-35 -195q-12 -74 -12 -108h-108q0 27 6 57h-2q-56 -67 -156 -67q-40 0 -75 13.5t-55.5 42t-20.5 71.5
q0 56 33.5 97.5t110 65.5t201.5 24zM346 220h-14q-207 0 -207 -84q0 -16 8 -30.5t27.5 -22t42.5 -7.5q25 0 54.5 11t52.5 39.5t30 63.5zM184 568h-66q43 125 135 125q39 0 75 -18q40 -19 62 -19q33 0 53 44h66q-43 -125 -134 -125q-33 0 -69 17q-44 21 -68 21q-31 0 -54 -45
z" />
    <glyph glyph-name="adieresis" unicode="&#xe4;" horiz-adv-x="539" 
d="M357 304q3 16 3 31q0 65 -89 65q-25 0 -63 -10.5t-76 -37.5l-45 79q40 29 93.5 45.5t107.5 16.5q33 0 67 -7.5t61 -25t42.5 -45.5t15.5 -67q0 -19 -4 -45l-35 -195q-12 -74 -12 -108h-108q0 27 6 57h-2q-56 -67 -156 -67q-40 0 -75 13.5t-55.5 42t-20.5 71.5
q0 56 33.5 97.5t110 65.5t201.5 24zM346 220h-14q-207 0 -207 -84q0 -16 8 -30.5t27.5 -22t42.5 -7.5q25 0 54.5 11t52.5 39.5t30 63.5zM284 646q0 -29 -20 -50t-49 -21t-48.5 18t-19.5 49q0 30 21 50.5t50 20.5t47.5 -18.5t18.5 -48.5zM482 646q0 -29 -20 -50t-49 -21
t-48.5 18t-19.5 49q0 30 21 50.5t50 20.5t47.5 -18.5t18.5 -48.5z" />
    <glyph glyph-name="aring" unicode="&#xe5;" horiz-adv-x="539" 
d="M357 304q3 16 3 31q0 65 -89 65q-25 0 -63 -10.5t-76 -37.5l-45 79q40 29 93.5 45.5t107.5 16.5q33 0 67 -7.5t61 -25t42.5 -45.5t15.5 -67q0 -19 -4 -45l-35 -195q-12 -74 -12 -108h-108q0 27 6 57h-2q-56 -67 -156 -67q-40 0 -75 13.5t-55.5 42t-20.5 71.5
q0 56 33.5 97.5t110 65.5t201.5 24zM346 220h-14q-207 0 -207 -84q0 -16 8 -30.5t27.5 -22t42.5 -7.5q25 0 54.5 11t52.5 39.5t30 63.5zM304 553q-39 0 -64.5 25t-25.5 61q0 35 19 64.5t46 41t50 11.5q39 0 64 -24.5t25 -60.5t-18.5 -65.5t-45.5 -41t-50 -11.5zM369 662
q0 20 -12.5 35t-32.5 15q-26 0 -43.5 -19.5t-17.5 -47.5q0 -20 12 -34t32 -14q27 0 44.5 18.5t17.5 46.5z" />
    <glyph glyph-name="ae" unicode="&#xe6;" horiz-adv-x="885" 
d="M629 493q54 0 102 -21.5t73 -67.5t25 -103q0 -19 -3.5 -48t-8.5 -50h-356l-1 -11q0 -47 36.5 -78.5t89.5 -31.5q81 0 137 63l67 -63q-88 -96 -217 -96q-48 0 -89 14.5t-64.5 38t-33.5 46.5q-26 -40 -76 -67.5t-127 -27.5q-43 0 -83 13.5t-64 42.5t-24 74q0 54 33 92.5
t106 56.5t213 18q6 24 6 46q0 35 -24.5 51t-64.5 16q-25 0 -63 -10.5t-76 -37.5l-45 79q40 29 93.5 45.5t107.5 16.5q125 0 152 -82q20 26 51 46t65 28t63 8zM348 186l3 17h-33q-107 0 -149.5 -16.5t-42.5 -51.5q0 -15 8 -29t27.5 -21.5t44.5 -7.5q60 0 96.5 29t45.5 80z
M721 287l2 25q0 40 -29 66.5t-76 26.5q-29 0 -57.5 -12t-54.5 -40.5t-34 -65.5h249z" />
    <glyph glyph-name="ccedilla" unicode="&#xe7;" horiz-adv-x="492" 
d="M354 -138q0 -34 -19.5 -56t-53 -34t-71.5 -12q-27 0 -58.5 7.5t-50.5 18.5l27 48q35 -20 78 -20q33 0 49 11.5t16 29.5q0 36 -47 36q-20 0 -40 -6l-18 25l67 78q-34 3 -69.5 14.5t-69.5 39.5t-50.5 69t-16.5 84q0 57 21 111.5t60 96.5t93.5 66t118.5 24q41 0 79 -11.5
t62 -31t36 -38.5l-84 -68q-13 22 -41 37.5t-58 15.5q-45 0 -86 -25t-63 -70.5t-22 -91.5q0 -38 15.5 -67t42 -44t64.5 -15q31 0 61 10.5t62 43.5l67 -68q-72 -70 -164 -81l-47 -54l20 2q23 0 45.5 -9.5t33.5 -27t11 -38.5z" />
    <glyph glyph-name="egrave" unicode="&#xe8;" horiz-adv-x="564" 
d="M496 203h-356l-1 -11q0 -47 36.5 -78.5t89.5 -31.5q81 0 137 63l67 -63q-88 -96 -217 -96q-48 0 -89.5 14.5t-72 42t-47 67.5t-16.5 89q0 60 21 114.5t59 94.5t90 62.5t111 22.5q54 0 102 -21.5t73 -67.5t25 -103q0 -19 -3.5 -48t-8.5 -50zM400 287l2 25q0 40 -29 66.5
t-76 26.5q-29 0 -57.5 -12t-54.5 -40.5t-34 -65.5h249zM266 708l99 -144h-90l-141 144h132z" />
    <glyph glyph-name="eacute" unicode="&#xe9;" horiz-adv-x="564" 
d="M496 203h-356l-1 -11q0 -47 36.5 -78.5t89.5 -31.5q81 0 137 63l67 -63q-88 -96 -217 -96q-48 0 -89.5 14.5t-72 42t-47 67.5t-16.5 89q0 60 21 114.5t59 94.5t90 62.5t111 22.5q54 0 102 -21.5t73 -67.5t25 -103q0 -19 -3.5 -48t-8.5 -50zM400 287l2 25q0 40 -29 66.5
t-76 26.5q-29 0 -57.5 -12t-54.5 -40.5t-34 -65.5h249zM504 708l-165 -144h-93l125 144h133z" />
    <glyph glyph-name="ecircumflex" unicode="&#xea;" horiz-adv-x="564" 
d="M496 203h-356l-1 -11q0 -47 36.5 -78.5t89.5 -31.5q81 0 137 63l67 -63q-88 -96 -217 -96q-48 0 -89.5 14.5t-72 42t-47 67.5t-16.5 89q0 60 21 114.5t59 94.5t90 62.5t111 22.5q54 0 102 -21.5t73 -67.5t25 -103q0 -19 -3.5 -48t-8.5 -50zM400 287l2 25q0 40 -29 66.5
t-76 26.5q-29 0 -57.5 -12t-54.5 -40.5t-34 -65.5h249zM520 564h-108l-54 91l-86 -91h-112l140 144h132z" />
    <glyph glyph-name="edieresis" unicode="&#xeb;" horiz-adv-x="564" 
d="M496 203h-356l-1 -11q0 -47 36.5 -78.5t89.5 -31.5q81 0 137 63l67 -63q-88 -96 -217 -96q-48 0 -89.5 14.5t-72 42t-47 67.5t-16.5 89q0 60 21 114.5t59 94.5t90 62.5t111 22.5q54 0 102 -21.5t73 -67.5t25 -103q0 -19 -3.5 -48t-8.5 -50zM400 287l2 25q0 40 -29 66.5
t-76 26.5q-29 0 -57.5 -12t-54.5 -40.5t-34 -65.5h249zM313 646q0 -29 -20 -50t-49 -21t-48.5 18t-19.5 49q0 30 21 50.5t50 20.5t47.5 -18.5t18.5 -48.5zM511 646q0 -29 -20 -50t-49 -21t-48.5 18t-19.5 49q0 30 21 50.5t50 20.5t47.5 -18.5t18.5 -48.5z" />
    <glyph glyph-name="igrave" unicode="&#xec;" horiz-adv-x="267" 
d="M138 0h-117l84 480h118zM129 708l99 -144h-90l-141 144h132z" />
    <glyph glyph-name="iacute" unicode="&#xed;" horiz-adv-x="267" 
d="M138 0h-117l84 480h118zM373 708l-165 -144h-93l125 144h133z" />
    <glyph glyph-name="icircumflex" unicode="&#xee;" horiz-adv-x="267" 
d="M138 0h-117l84 480h118zM355 564h-108l-54 91l-86 -91h-112l140 144h132z" />
    <glyph glyph-name="idieresis" unicode="&#xef;" horiz-adv-x="267" 
d="M138 0h-117l84 480h118zM158 646q0 -29 -20 -50t-49 -21t-48.5 18t-19.5 49q0 30 21 50.5t50 20.5t47.5 -18.5t18.5 -48.5zM356 646q0 -29 -20 -50t-49 -21t-48.5 18t-19.5 49q0 30 21 50.5t50 20.5t47.5 -18.5t18.5 -48.5z" />
    <glyph glyph-name="eth" unicode="&#xf0;" horiz-adv-x="604" 
d="M553 312q0 -61 -17.5 -119.5t-54 -104.5t-93 -73.5t-129.5 -27.5q-36 0 -75.5 10t-78.5 38.5t-58.5 72t-19.5 88.5q0 56 19.5 109.5t56.5 96t90 67t116 24.5q35 0 66.5 -9t47.5 -24l2 2q-42 96 -98 151l-117 -51l-49 56l119 51q-17 21 -67 65l96 52q40 -35 74 -74l122 53
l53 -55l-126 -54q40 -49 69.5 -111t40.5 -123.5t11 -109.5zM432 273q0 25 -11 54t-41 49.5t-71 20.5q-27 0 -55.5 -10t-53 -34t-41 -61t-16.5 -84q0 -40 18.5 -70t46.5 -42t57 -12q27 0 56 10t53.5 33.5t41 61t16.5 84.5z" />
    <glyph glyph-name="ntilde" unicode="&#xf1;" horiz-adv-x="584" 
d="M203 405h2q19 29 46 50.5t56.5 29.5t53.5 8q38 0 75 -14.5t59.5 -51t22.5 -83.5q0 -25 -4 -45l-53 -299h-117l46 264q5 27 5 48q0 35 -19 58t-60 23q-53 0 -87.5 -38.5t-43.5 -90.5l-47 -264h-117l66 377q10 50 15 103h110zM220 568h-66q43 125 135 125q39 0 75 -18
q40 -19 62 -19q33 0 53 44h66q-43 -125 -134 -125q-33 0 -69 17q-44 21 -68 21q-31 0 -54 -45z" />
    <glyph glyph-name="ograve" unicode="&#xf2;" horiz-adv-x="604" 
d="M259 -13q-36 0 -75.5 10t-78.5 38.5t-58.5 72t-19.5 88.5q0 58 20.5 112t59 95.5t93 65.5t117.5 24q37 0 76.5 -10t78.5 -38t58.5 -71.5t19.5 -88.5q0 -59 -20.5 -113.5t-59 -96t-93 -65t-118.5 -23.5zM432 273q0 25 -11 54t-41 49.5t-71 20.5q-27 0 -55.5 -10t-53 -34
t-41 -61t-16.5 -84q0 -40 18.5 -70t46.5 -42t57 -12q27 0 56 10t53.5 33.5t41 61t16.5 84.5zM276 708l99 -144h-90l-141 144h132z" />
    <glyph glyph-name="oacute" unicode="&#xf3;" horiz-adv-x="604" 
d="M259 -13q-36 0 -75.5 10t-78.5 38.5t-58.5 72t-19.5 88.5q0 58 20.5 112t59 95.5t93 65.5t117.5 24q37 0 76.5 -10t78.5 -38t58.5 -71.5t19.5 -88.5q0 -59 -20.5 -113.5t-59 -96t-93 -65t-118.5 -23.5zM432 273q0 25 -11 54t-41 49.5t-71 20.5q-27 0 -55.5 -10t-53 -34
t-41 -61t-16.5 -84q0 -40 18.5 -70t46.5 -42t57 -12q27 0 56 10t53.5 33.5t41 61t16.5 84.5zM528 708l-165 -144h-93l125 144h133z" />
    <glyph glyph-name="ocircumflex" unicode="&#xf4;" horiz-adv-x="604" 
d="M259 -13q-36 0 -75.5 10t-78.5 38.5t-58.5 72t-19.5 88.5q0 58 20.5 112t59 95.5t93 65.5t117.5 24q37 0 76.5 -10t78.5 -38t58.5 -71.5t19.5 -88.5q0 -59 -20.5 -113.5t-59 -96t-93 -65t-118.5 -23.5zM432 273q0 25 -11 54t-41 49.5t-71 20.5q-27 0 -55.5 -10t-53 -34
t-41 -61t-16.5 -84q0 -40 18.5 -70t46.5 -42t57 -12q27 0 56 10t53.5 33.5t41 61t16.5 84.5zM527 564h-108l-54 91l-86 -91h-112l140 144h132z" />
    <glyph glyph-name="otilde" unicode="&#xf5;" horiz-adv-x="604" 
d="M259 -13q-36 0 -75.5 10t-78.5 38.5t-58.5 72t-19.5 88.5q0 58 20.5 112t59 95.5t93 65.5t117.5 24q37 0 76.5 -10t78.5 -38t58.5 -71.5t19.5 -88.5q0 -59 -20.5 -113.5t-59 -96t-93 -65t-118.5 -23.5zM432 273q0 25 -11 54t-41 49.5t-71 20.5q-27 0 -55.5 -10t-53 -34
t-41 -61t-16.5 -84q0 -40 18.5 -70t46.5 -42t57 -12q27 0 56 10t53.5 33.5t41 61t16.5 84.5zM224 568h-66q43 125 135 125q39 0 75 -18q40 -19 62 -19q33 0 53 44h66q-43 -125 -134 -125q-33 0 -69 17q-44 21 -68 21q-31 0 -54 -45z" />
    <glyph glyph-name="odieresis" unicode="&#xf6;" horiz-adv-x="604" 
d="M259 -13q-36 0 -75.5 10t-78.5 38.5t-58.5 72t-19.5 88.5q0 58 20.5 112t59 95.5t93 65.5t117.5 24q37 0 76.5 -10t78.5 -38t58.5 -71.5t19.5 -88.5q0 -59 -20.5 -113.5t-59 -96t-93 -65t-118.5 -23.5zM432 273q0 25 -11 54t-41 49.5t-71 20.5q-27 0 -55.5 -10t-53 -34
t-41 -61t-16.5 -84q0 -40 18.5 -70t46.5 -42t57 -12q27 0 56 10t53.5 33.5t41 61t16.5 84.5zM324 646q0 -29 -20 -50t-49 -21t-48.5 18t-19.5 49q0 30 21 50.5t50 20.5t47.5 -18.5t18.5 -48.5zM522 646q0 -29 -20 -50t-49 -21t-48.5 18t-19.5 49q0 30 21 50.5t50 20.5
t47.5 -18.5t18.5 -48.5z" />
    <glyph glyph-name="divide" unicode="&#xf7;" horiz-adv-x="666" 
d="M258 483q0 30 22.5 52.5t52.5 22.5t52.5 -22.5t22.5 -52.5t-22.5 -52.5t-52.5 -22.5t-52.5 22.5t-22.5 52.5zM258 123q0 30 22.5 52.5t52.5 22.5t52.5 -22.5t22.5 -52.5t-22.5 -52.5t-52.5 -22.5t-52.5 22.5t-22.5 52.5zM586 250h-506v107h506v-107z" />
    <glyph glyph-name="oslash" unicode="&#xf8;" horiz-adv-x="604" 
d="M98 40l-79 -67l-33 41l76 66q-16 23 -25.5 54t-9.5 62q0 58 20.5 112t59 95.5t93 65.5t117.5 24q93 0 160 -51l79 68l35 -40l-77 -67q17 -24 26.5 -55t9.5 -63q0 -59 -20.5 -113.5t-59 -96t-93 -65t-118.5 -23.5q-47 0 -89 14t-72 39zM152 157l241 210q-15 14 -37.5 22
t-46.5 8q-27 0 -55.5 -10t-53 -34t-41 -61t-16.5 -84q0 -28 9 -51zM179 115q15 -14 38 -22.5t48 -8.5q27 0 56 10t53.5 33.5t41 61t16.5 84.5q0 31 -10 52z" />
    <glyph glyph-name="ugrave" unicode="&#xf9;" horiz-adv-x="584" 
d="M350 75h-2q-19 -29 -46 -50.5t-56.5 -29.5t-53.5 -8q-38 0 -75 14.5t-59.5 51t-22.5 83.5q0 25 4 45l53 299h117l-46 -264q-5 -27 -5 -48q0 -35 19 -58t60 -23q53 0 87.5 38.5t43.5 90.5l47 264h117l-66 -377q-10 -50 -15 -103h-110zM258 708l99 -144h-90l-141 144h132z
" />
    <glyph glyph-name="uacute" unicode="&#xfa;" horiz-adv-x="584" 
d="M350 75h-2q-19 -29 -46 -50.5t-56.5 -29.5t-53.5 -8q-38 0 -75 14.5t-59.5 51t-22.5 83.5q0 25 4 45l53 299h117l-46 -264q-5 -27 -5 -48q0 -35 19 -58t60 -23q53 0 87.5 38.5t43.5 90.5l47 264h117l-66 -377q-10 -50 -15 -103h-110zM524 708l-165 -144h-93l125 144h133z
" />
    <glyph glyph-name="ucircumflex" unicode="&#xfb;" horiz-adv-x="584" 
d="M350 75h-2q-19 -29 -46 -50.5t-56.5 -29.5t-53.5 -8q-38 0 -75 14.5t-59.5 51t-22.5 83.5q0 25 4 45l53 299h117l-46 -264q-5 -27 -5 -48q0 -35 19 -58t60 -23q53 0 87.5 38.5t43.5 90.5l47 264h117l-66 -377q-10 -50 -15 -103h-110zM507 564h-108l-54 91l-86 -91h-112
l140 144h132z" />
    <glyph glyph-name="udieresis" unicode="&#xfc;" horiz-adv-x="584" 
d="M350 75h-2q-19 -29 -46 -50.5t-56.5 -29.5t-53.5 -8q-38 0 -75 14.5t-59.5 51t-22.5 83.5q0 25 4 45l53 299h117l-46 -264q-5 -27 -5 -48q0 -35 19 -58t60 -23q53 0 87.5 38.5t43.5 90.5l47 264h117l-66 -377q-10 -50 -15 -103h-110zM307 646q0 -29 -20 -50t-49 -21
t-48.5 18t-19.5 49q0 30 21 50.5t50 20.5t47.5 -18.5t18.5 -48.5zM505 646q0 -29 -20 -50t-49 -21t-48.5 18t-19.5 49q0 30 21 50.5t50 20.5t47.5 -18.5t18.5 -48.5z" />
    <glyph glyph-name="yacute" unicode="&#xfd;" horiz-adv-x="506" 
d="M543 480l-340 -584q-40 -71 -80 -103.5t-104 -32.5q-33 0 -61 7l15 102q21 -7 44 -7t43 12.5t49 62.5l36 62l-108 481h126l62 -352h2l192 352h124zM504 708l-165 -144h-93l125 144h133z" />
    <glyph glyph-name="thorn" unicode="&#xfe;" horiz-adv-x="629" 
d="M147 76l-53 -316h-118l176 996h117l-65 -353h3q26 41 72 64.5t99 23.5q91 0 147 -57.5t56 -149.5q0 -60 -19.5 -115t-55 -96t-84.5 -64t-105 -23q-62 0 -104 24t-64 66h-2zM461 270q0 54 -32 89.5t-86 35.5q-43 0 -83.5 -25.5t-62.5 -71t-22 -92.5q0 -55 33.5 -90
t88.5 -35q27 0 55 9.5t52 33t40.5 60.5t16.5 86z" />
    <glyph glyph-name="ydieresis" unicode="&#xff;" horiz-adv-x="506" 
d="M543 480l-340 -584q-40 -71 -80 -103.5t-104 -32.5q-33 0 -61 7l15 102q21 -7 44 -7t43 12.5t49 62.5l36 62l-108 481h126l62 -352h2l192 352h124zM286 646q0 -29 -20 -50t-49 -21t-48.5 18t-19.5 49q0 30 21 50.5t50 20.5t47.5 -18.5t18.5 -48.5zM484 646q0 -29 -20 -50
t-49 -21t-48.5 18t-19.5 49q0 30 21 50.5t50 20.5t47.5 -18.5t18.5 -48.5z" />
    <glyph glyph-name="Amacron" unicode="&#x100;" horiz-adv-x="668" 
d="M623 0h-131l-29 163h-303l-101 -163h-146l462 708h107zM446 269l-47 297l-179 -297h226zM600 795h-317l13 77h318z" />
    <glyph glyph-name="amacron" unicode="&#x101;" horiz-adv-x="539" 
d="M357 304q3 16 3 31q0 65 -89 65q-25 0 -63 -10.5t-76 -37.5l-45 79q40 29 93.5 45.5t107.5 16.5q33 0 67 -7.5t61 -25t42.5 -45.5t15.5 -67q0 -19 -4 -45l-35 -195q-12 -74 -12 -108h-108q0 27 6 57h-2q-56 -67 -156 -67q-40 0 -75 13.5t-55.5 42t-20.5 71.5
q0 56 33.5 97.5t110 65.5t201.5 24zM346 220h-14q-207 0 -207 -84q0 -16 8 -30.5t27.5 -22t42.5 -7.5q25 0 54.5 11t52.5 39.5t30 63.5zM467 595h-317l13 77h318z" />
    <glyph glyph-name="Abreve" unicode="&#x102;" horiz-adv-x="668" 
d="M623 0h-131l-29 163h-303l-101 -163h-146l462 708h107zM446 269l-47 297l-179 -297h226zM615 908q-11 -44 -37 -78t-66 -49.5t-84 -15.5q-72 0 -111.5 35.5t-39.5 107.5h66q0 -17 9 -33.5t31 -25t52 -8.5q58 0 81.5 19t33.5 48h65z" />
    <glyph glyph-name="abreve" unicode="&#x103;" horiz-adv-x="539" 
d="M357 304q3 16 3 31q0 65 -89 65q-25 0 -63 -10.5t-76 -37.5l-45 79q40 29 93.5 45.5t107.5 16.5q33 0 67 -7.5t61 -25t42.5 -45.5t15.5 -67q0 -19 -4 -45l-35 -195q-12 -74 -12 -108h-108q0 27 6 57h-2q-56 -67 -156 -67q-40 0 -75 13.5t-55.5 42t-20.5 71.5
q0 56 33.5 97.5t110 65.5t201.5 24zM346 220h-14q-207 0 -207 -84q0 -16 8 -30.5t27.5 -22t42.5 -7.5q25 0 54.5 11t52.5 39.5t30 63.5zM485 708q-11 -44 -37 -78t-66 -49.5t-84 -15.5q-72 0 -111.5 35.5t-39.5 107.5h66q0 -17 9 -33.5t31 -25t52 -8.5q58 0 81.5 19t33.5 48
h65z" />
    <glyph glyph-name="Aogonek" unicode="&#x104;" horiz-adv-x="668" 
d="M567 -195q-55 -38 -106 -38q-40 0 -63.5 20.5t-23.5 59.5q0 30 26.5 69t91.5 84l-29 163h-303l-101 -163h-146l462 708h107l141 -708h-70q-98 -79 -98 -133q0 -35 40 -35q28 0 56 21zM446 269l-47 297l-179 -297h226z" />
    <glyph glyph-name="aogonek" unicode="&#x105;" horiz-adv-x="539" 
d="M387 -195q-55 -38 -106 -38q-40 0 -63.5 20.5t-23.5 59.5q0 30 27.5 69.5t93.5 85.5q0 27 6 55h-2q-56 -67 -156 -67q-40 0 -75 13.5t-55.5 42t-20.5 71.5q0 56 33.5 97.5t110 65.5t201.5 24q3 16 3 31q0 65 -89 65q-25 0 -63 -10.5t-76 -37.5l-45 79q40 29 93.5 45.5
t107.5 16.5q33 0 67 -7.5t61 -25t42.5 -45.5t15.5 -67q0 -19 -4 -45l-35 -195q-12 -74 -12 -108h-50q-98 -79 -98 -133q0 -35 40 -35q28 0 56 21zM346 220h-14q-207 0 -207 -84q0 -16 8 -30.5t27.5 -22t42.5 -7.5q25 0 54.5 11t52.5 39.5t30 63.5z" />
    <glyph glyph-name="Cacute" unicode="&#x106;" horiz-adv-x="681" 
d="M566 181l79 -70q-45 -57 -117 -93t-164 -36q-69 0 -128 22t-101 62.5t-64.5 97t-22.5 122.5t21.5 140t72.5 140t114 102t115.5 47t93.5 11q77 0 143 -30t98 -78l-97 -73q-13 20 -37.5 39t-54.5 27.5t-56 8.5q-60 0 -113 -26.5t-91.5 -72t-59.5 -103t-21 -116.5
q0 -43 13.5 -82t39.5 -68t64.5 -45.5t85.5 -16.5q53 0 102 23t85 68zM648 908l-165 -144h-93l125 144h133z" />
    <glyph glyph-name="cacute" unicode="&#x107;" horiz-adv-x="492" 
d="M497 412l-84 -68q-13 22 -41 37.5t-58 15.5q-45 0 -86 -25t-63 -70.5t-22 -91.5q0 -38 15.5 -67t42 -44t64.5 -15q31 0 61 10.5t62 43.5l67 -68q-85 -83 -197 -83q-51 0 -94 15t-73.5 42.5t-47 66.5t-16.5 84q0 57 21 111.5t60 96.5t93.5 66t118.5 24q41 0 79 -11.5
t62 -31t36 -38.5zM518 708l-165 -144h-93l125 144h133z" />
    <glyph glyph-name="Ccircumflex" unicode="&#x108;" horiz-adv-x="681" 
d="M566 181l79 -70q-45 -57 -117 -93t-164 -36q-69 0 -128 22t-101 62.5t-64.5 97t-22.5 122.5t21.5 140t72.5 140t114 102t115.5 47t93.5 11q77 0 143 -30t98 -78l-97 -73q-13 20 -37.5 39t-54.5 27.5t-56 8.5q-60 0 -113 -26.5t-91.5 -72t-59.5 -103t-21 -116.5
q0 -43 13.5 -82t39.5 -68t64.5 -45.5t85.5 -16.5q53 0 102 23t85 68zM663 764h-108l-54 91l-86 -91h-112l140 144h132z" />
    <glyph glyph-name="ccircumflex" unicode="&#x109;" horiz-adv-x="492" 
d="M497 412l-84 -68q-13 22 -41 37.5t-58 15.5q-45 0 -86 -25t-63 -70.5t-22 -91.5q0 -38 15.5 -67t42 -44t64.5 -15q31 0 61 10.5t62 43.5l67 -68q-85 -83 -197 -83q-51 0 -94 15t-73.5 42.5t-47 66.5t-16.5 84q0 57 21 111.5t60 96.5t93.5 66t118.5 24q41 0 79 -11.5
t62 -31t36 -38.5zM514 564h-108l-54 91l-86 -91h-112l140 144h132z" />
    <glyph glyph-name="Cdotaccent" unicode="&#x10a;" horiz-adv-x="681" 
d="M566 181l79 -70q-45 -57 -117 -93t-164 -36q-69 0 -128 22t-101 62.5t-64.5 97t-22.5 122.5t21.5 140t72.5 140t114 102t115.5 47t93.5 11q77 0 143 -30t98 -78l-97 -73q-13 20 -37.5 39t-54.5 27.5t-56 8.5q-60 0 -113 -26.5t-91.5 -72t-59.5 -103t-21 -116.5
q0 -43 13.5 -82t39.5 -68t64.5 -45.5t85.5 -16.5q53 0 102 23t85 68zM568 845q0 -29 -21 -51t-50 -22t-49.5 19t-20.5 50q0 30 22 51.5t51 21.5t48.5 -19.5t19.5 -49.5z" />
    <glyph glyph-name="cdotaccent" unicode="&#x10b;" horiz-adv-x="492" 
d="M497 412l-84 -68q-13 22 -41 37.5t-58 15.5q-45 0 -86 -25t-63 -70.5t-22 -91.5q0 -38 15.5 -67t42 -44t64.5 -15q31 0 61 10.5t62 43.5l67 -68q-85 -83 -197 -83q-51 0 -94 15t-73.5 42.5t-47 66.5t-16.5 84q0 57 21 111.5t60 96.5t93.5 66t118.5 24q41 0 79 -11.5
t62 -31t36 -38.5zM425 645q0 -29 -21 -51t-50 -22t-49.5 19t-20.5 50q0 30 22 51.5t51 21.5t48.5 -19.5t19.5 -49.5z" />
    <glyph glyph-name="Ccaron" unicode="&#x10c;" horiz-adv-x="681" 
d="M566 181l79 -70q-45 -57 -117 -93t-164 -36q-69 0 -128 22t-101 62.5t-64.5 97t-22.5 122.5t21.5 140t72.5 140t114 102t115.5 47t93.5 11q77 0 143 -30t98 -78l-97 -73q-13 20 -37.5 39t-54.5 27.5t-56 8.5q-60 0 -113 -26.5t-91.5 -72t-59.5 -103t-21 -116.5
q0 -43 13.5 -82t39.5 -68t64.5 -45.5t85.5 -16.5q53 0 102 23t85 68zM689 908l-140 -144h-131l-88 144h109l53 -91l86 91h111z" />
    <glyph glyph-name="ccaron" unicode="&#x10d;" horiz-adv-x="492" 
d="M497 412l-84 -68q-13 22 -41 37.5t-58 15.5q-45 0 -86 -25t-63 -70.5t-22 -91.5q0 -38 15.5 -67t42 -44t64.5 -15q31 0 61 10.5t62 43.5l67 -68q-85 -83 -197 -83q-51 0 -94 15t-73.5 42.5t-47 66.5t-16.5 84q0 57 21 111.5t60 96.5t93.5 66t118.5 24q41 0 79 -11.5
t62 -31t36 -38.5zM532 708l-140 -144h-131l-88 144h109l53 -91l86 91h111z" />
    <glyph glyph-name="Dcaron" unicode="&#x10e;" horiz-adv-x="757" 
d="M25 0l125 708h242q88 0 165 -33.5t121 -101t44 -161.5q0 -90 -32.5 -167t-83.5 -125t-106.5 -74.5t-111 -36t-98.5 -9.5h-265zM253 603l-87 -495h129q70 0 127 23.5t95 64t57.5 93t19.5 107.5q0 43 -14 80.5t-43 66t-73.5 44.5t-101.5 16h-109zM617 908l-140 -144h-131
l-88 144h109l53 -91l86 91h111z" />
    <glyph glyph-name="dcaron" unicode="&#x10f;" horiz-adv-x="634" 
d="M461 403l60 353h118l-134 -756h-111l12 76h-3q-28 -41 -74 -64.5t-99 -23.5q-91 0 -147 57.5t-56 149.5q0 60 19.5 115t55 96t84.5 64t105 23q62 0 104 -24t64 -66h2zM147 209q0 -54 32 -89.5t86 -35.5q43 0 83.5 25.5t62.5 71t22 92.5q0 55 -33.5 90t-88.5 35
q-27 0 -55 -9.5t-52 -33t-40.5 -60.5t-16.5 -86zM845 708l-123 -195h-98l107 195h114z" />
    <glyph glyph-name="Dcroat" unicode="&#x110;" horiz-adv-x="757" 
d="M82 325h-64l15 83h64l53 300h242q88 0 165 -33.5t121 -101t44 -161.5q0 -90 -32.5 -167t-83.5 -125t-106.5 -74.5t-111 -36t-98.5 -9.5h-265zM219 408h210l-15 -83h-210l-38 -217h129q70 0 127 23.5t95 64t57.5 93t19.5 107.5q0 43 -14 80.5t-43 66t-73.5 44.5t-101.5 16
h-109z" />
    <glyph glyph-name="dcroat" unicode="&#x111;" horiz-adv-x="634" 
d="M685 645l-14 -75h-65l-101 -570h-111l12 76h-3q-28 -41 -74 -64.5t-99 -23.5q-91 0 -147 57.5t-56 149.5q0 60 19.5 115t55 96t84.5 64t105 23q62 0 104 -24t64 -66h2l28 167h-162l14 75h161l19 111h118l-20 -111h66zM147 209q0 -54 32 -89.5t86 -35.5q43 0 83.5 25.5
t62.5 71t22 92.5q0 55 -33.5 90t-88.5 35q-27 0 -55 -9.5t-52 -33t-40.5 -60.5t-16.5 -86z" />
    <glyph glyph-name="Emacron" unicode="&#x112;" horiz-adv-x="584" 
d="M500 0h-475l125 708h446l-19 -108h-326l-32 -183h311l-19 -104h-310l-36 -203h354zM539 795h-317l13 77h318z" />
    <glyph glyph-name="emacron" unicode="&#x113;" horiz-adv-x="564" 
d="M496 203h-356l-1 -11q0 -47 36.5 -78.5t89.5 -31.5q81 0 137 63l67 -63q-88 -96 -217 -96q-48 0 -89.5 14.5t-72 42t-47 67.5t-16.5 89q0 60 21 114.5t59 94.5t90 62.5t111 22.5q54 0 102 -21.5t73 -67.5t25 -103q0 -19 -3.5 -48t-8.5 -50zM400 287l2 25q0 40 -29 66.5
t-76 26.5q-29 0 -57.5 -12t-54.5 -40.5t-34 -65.5h249zM493 595h-317l13 77h318z" />
    <glyph glyph-name="Ebreve" unicode="&#x114;" horiz-adv-x="584" 
d="M500 0h-475l125 708h446l-19 -108h-326l-32 -183h311l-19 -104h-310l-36 -203h354zM563 908q-11 -44 -37 -78t-66 -49.5t-84 -15.5q-72 0 -111.5 35.5t-39.5 107.5h66q0 -17 9 -33.5t31 -25t52 -8.5q58 0 81.5 19t33.5 48h65z" />
    <glyph glyph-name="ebreve" unicode="&#x115;" horiz-adv-x="564" 
d="M496 203h-356l-1 -11q0 -47 36.5 -78.5t89.5 -31.5q81 0 137 63l67 -63q-88 -96 -217 -96q-48 0 -89.5 14.5t-72 42t-47 67.5t-16.5 89q0 60 21 114.5t59 94.5t90 62.5t111 22.5q54 0 102 -21.5t73 -67.5t25 -103q0 -19 -3.5 -48t-8.5 -50zM400 287l2 25q0 40 -29 66.5
t-76 26.5q-29 0 -57.5 -12t-54.5 -40.5t-34 -65.5h249zM520 708q-11 -44 -37 -78t-66 -49.5t-84 -15.5q-72 0 -111.5 35.5t-39.5 107.5h66q0 -17 9 -33.5t31 -25t52 -8.5q58 0 81.5 19t33.5 48h65z" />
    <glyph glyph-name="Edotaccent" unicode="&#x116;" horiz-adv-x="584" 
d="M500 0h-475l125 708h446l-19 -108h-326l-32 -183h311l-19 -104h-310l-36 -203h354zM468 845q0 -29 -21 -51t-50 -22t-49.5 19t-20.5 50q0 30 22 51.5t51 21.5t48.5 -19.5t19.5 -49.5z" />
    <glyph glyph-name="edotaccent" unicode="&#x117;" horiz-adv-x="564" 
d="M496 203h-356l-1 -11q0 -47 36.5 -78.5t89.5 -31.5q81 0 137 63l67 -63q-88 -96 -217 -96q-48 0 -89.5 14.5t-72 42t-47 67.5t-16.5 89q0 60 21 114.5t59 94.5t90 62.5t111 22.5q54 0 102 -21.5t73 -67.5t25 -103q0 -19 -3.5 -48t-8.5 -50zM400 287l2 25q0 40 -29 66.5
t-76 26.5q-29 0 -57.5 -12t-54.5 -40.5t-34 -65.5h249zM412 645q0 -29 -21 -51t-50 -22t-49.5 19t-20.5 50q0 30 22 51.5t51 21.5t48.5 -19.5t19.5 -49.5z" />
    <glyph glyph-name="Eogonek" unicode="&#x118;" horiz-adv-x="584" 
d="M483 -195q-55 -38 -106 -38q-40 0 -63.5 20.5t-23.5 59.5q0 69 117 153h-382l125 708h446l-19 -108h-326l-32 -183h311l-19 -104h-310l-36 -203h354l-19 -110h-31q-98 -79 -98 -133q0 -35 40 -35q28 0 56 21z" />
    <glyph glyph-name="eogonek" unicode="&#x119;" horiz-adv-x="564" 
d="M336 -195q-55 -38 -106 -38q-40 0 -63.5 20.5t-23.5 59.5q0 18 10 41.5t34 49t54 48.5q-95 3 -154.5 60t-59.5 153q0 60 21 114.5t59 94.5t90 62.5t111 22.5q54 0 102 -21.5t73 -67.5t25 -103q0 -19 -3.5 -48t-8.5 -50h-356l-1 -11q0 -47 36.5 -78.5t89.5 -31.5
q81 0 137 63l67 -63q-68 -74 -158 -90q-87 -73 -87 -125q0 -35 40 -35q28 0 56 21zM400 287l2 25q0 40 -29 66.5t-76 26.5q-29 0 -57.5 -12t-54.5 -40.5t-34 -65.5h249z" />
    <glyph glyph-name="Ecaron" unicode="&#x11a;" horiz-adv-x="584" 
d="M500 0h-475l125 708h446l-19 -108h-326l-32 -183h311l-19 -104h-310l-36 -203h354zM583 908l-140 -144h-131l-88 144h109l53 -91l86 91h111z" />
    <glyph glyph-name="ecaron" unicode="&#x11b;" horiz-adv-x="564" 
d="M496 203h-356l-1 -11q0 -47 36.5 -78.5t89.5 -31.5q81 0 137 63l67 -63q-88 -96 -217 -96q-48 0 -89.5 14.5t-72 42t-47 67.5t-16.5 89q0 60 21 114.5t59 94.5t90 62.5t111 22.5q54 0 102 -21.5t73 -67.5t25 -103q0 -19 -3.5 -48t-8.5 -50zM400 287l2 25q0 40 -29 66.5
t-76 26.5q-29 0 -57.5 -12t-54.5 -40.5t-34 -65.5h249zM531 708l-140 -144h-131l-88 144h109l53 -91l86 91h111z" />
    <glyph glyph-name="Gcircumflex" unicode="&#x11c;" horiz-adv-x="740" 
d="M393 90q78 2 129 27l31 180h-152l20 107h271l-63 -366q-52 -26 -120 -41t-134 -15q-72 0 -133 22t-104 62.5t-66.5 97t-23.5 122.5t21.5 140t72.5 140t114 102t115.5 47t93.5 11q58 0 111 -15.5t87.5 -41.5t52.5 -51l-97 -73q-25 34 -64.5 54.5t-93.5 20.5
q-60 0 -113 -26.5t-91.5 -72t-59.5 -103t-21 -116.5q0 -94 58.5 -153t158.5 -59zM658 764h-108l-54 91l-86 -91h-112l140 144h132z" />
    <glyph glyph-name="gcircumflex" unicode="&#x11d;" horiz-adv-x="632" 
d="M463 407h3l12 73h112l-76 -439q-11 -65 -32.5 -116.5t-56.5 -88t-88 -56.5t-123 -20q-44 0 -94 13t-84.5 33.5t-52.5 39.5l78 85q27 -32 69 -50.5t87 -18.5q72 0 116 38t63 128l8 38h-2q-26 -34 -70 -54.5t-95 -20.5q-45 0 -83 15t-64.5 42t-41 65.5t-14.5 83.5
q0 60 19.5 114.5t55 95t84.5 63.5t105 23q30 0 63.5 -8t60.5 -28.5t41 -49.5zM154 211q0 -54 32 -89.5t86 -35.5q51 0 93 32.5t58.5 75.5t16.5 80q0 55 -33.5 90t-88.5 35q-36 0 -63 -13t-47.5 -33t-37 -57t-16.5 -85zM547 564h-108l-54 91l-86 -91h-112l140 144h132z" />
    <glyph glyph-name="Gbreve" unicode="&#x11e;" horiz-adv-x="740" 
d="M393 90q78 2 129 27l31 180h-152l20 107h271l-63 -366q-52 -26 -120 -41t-134 -15q-72 0 -133 22t-104 62.5t-66.5 97t-23.5 122.5t21.5 140t72.5 140t114 102t115.5 47t93.5 11q58 0 111 -15.5t87.5 -41.5t52.5 -51l-97 -73q-25 34 -64.5 54.5t-93.5 20.5
q-60 0 -113 -26.5t-91.5 -72t-59.5 -103t-21 -116.5q0 -94 58.5 -153t158.5 -59zM671 908q-11 -44 -37 -78t-66 -49.5t-84 -15.5q-72 0 -111.5 35.5t-39.5 107.5h66q0 -17 9 -33.5t31 -25t52 -8.5q58 0 81.5 19t33.5 48h65z" />
    <glyph glyph-name="gbreve" unicode="&#x11f;" horiz-adv-x="632" 
d="M463 407h3l12 73h112l-76 -439q-11 -65 -32.5 -116.5t-56.5 -88t-88 -56.5t-123 -20q-44 0 -94 13t-84.5 33.5t-52.5 39.5l78 85q27 -32 69 -50.5t87 -18.5q72 0 116 38t63 128l8 38h-2q-26 -34 -70 -54.5t-95 -20.5q-45 0 -83 15t-64.5 42t-41 65.5t-14.5 83.5
q0 60 19.5 114.5t55 95t84.5 63.5t105 23q30 0 63.5 -8t60.5 -28.5t41 -49.5zM154 211q0 -54 32 -89.5t86 -35.5q51 0 93 32.5t58.5 75.5t16.5 80q0 55 -33.5 90t-88.5 35q-36 0 -63 -13t-47.5 -33t-37 -57t-16.5 -85zM547 708q-11 -44 -37 -78t-66 -49.5t-84 -15.5
q-72 0 -111.5 35.5t-39.5 107.5h66q0 -17 9 -33.5t31 -25t52 -8.5q58 0 81.5 19t33.5 48h65z" />
    <glyph glyph-name="Gdotaccent" unicode="&#x120;" horiz-adv-x="740" 
d="M393 90q78 2 129 27l31 180h-152l20 107h271l-63 -366q-52 -26 -120 -41t-134 -15q-72 0 -133 22t-104 62.5t-66.5 97t-23.5 122.5t21.5 140t72.5 140t114 102t115.5 47t93.5 11q58 0 111 -15.5t87.5 -41.5t52.5 -51l-97 -73q-25 34 -64.5 54.5t-93.5 20.5
q-60 0 -113 -26.5t-91.5 -72t-59.5 -103t-21 -116.5q0 -94 58.5 -153t158.5 -59zM557 845q0 -29 -21 -51t-50 -22t-49.5 19t-20.5 50q0 30 22 51.5t51 21.5t48.5 -19.5t19.5 -49.5z" />
    <glyph glyph-name="gdotaccent" unicode="&#x121;" horiz-adv-x="632" 
d="M463 407h3l12 73h112l-76 -439q-11 -65 -32.5 -116.5t-56.5 -88t-88 -56.5t-123 -20q-44 0 -94 13t-84.5 33.5t-52.5 39.5l78 85q27 -32 69 -50.5t87 -18.5q72 0 116 38t63 128l8 38h-2q-26 -34 -70 -54.5t-95 -20.5q-45 0 -83 15t-64.5 42t-41 65.5t-14.5 83.5
q0 60 19.5 114.5t55 95t84.5 63.5t105 23q30 0 63.5 -8t60.5 -28.5t41 -49.5zM154 211q0 -54 32 -89.5t86 -35.5q51 0 93 32.5t58.5 75.5t16.5 80q0 55 -33.5 90t-88.5 35q-36 0 -63 -13t-47.5 -33t-37 -57t-16.5 -85zM447 645q0 -29 -21 -51t-50 -22t-49.5 19t-20.5 50
q0 30 22 51.5t51 21.5t48.5 -19.5t19.5 -49.5z" />
    <glyph glyph-name="uni0122" unicode="&#x122;" horiz-adv-x="740" 
d="M393 90q78 2 129 27l31 180h-152l20 107h271l-63 -366q-52 -26 -120 -41t-134 -15q-72 0 -133 22t-104 62.5t-66.5 97t-23.5 122.5t21.5 140t72.5 140t114 102t115.5 47t93.5 11q58 0 111 -15.5t87.5 -41.5t52.5 -51l-97 -73q-25 34 -64.5 54.5t-93.5 20.5
q-60 0 -113 -26.5t-91.5 -72t-59.5 -103t-21 -116.5q0 -94 58.5 -153t158.5 -59zM405 -45l-123 -195h-98l107 195h114z" />
    <glyph glyph-name="uni0123" unicode="&#x123;" horiz-adv-x="632" 
d="M463 407h3l12 73h112l-76 -439q-11 -65 -32.5 -116.5t-56.5 -88t-88 -56.5t-123 -20q-44 0 -94 13t-84.5 33.5t-52.5 39.5l78 85q27 -32 69 -50.5t87 -18.5q72 0 116 38t63 128l8 38h-2q-26 -34 -70 -54.5t-95 -20.5q-45 0 -83 15t-64.5 42t-41 65.5t-14.5 83.5
q0 60 19.5 114.5t55 95t84.5 63.5t105 23q30 0 63.5 -8t60.5 -28.5t41 -49.5zM154 211q0 -54 32 -89.5t86 -35.5q51 0 93 32.5t58.5 75.5t16.5 80q0 55 -33.5 90t-88.5 35q-36 0 -63 -13t-47.5 -33t-37 -57t-16.5 -85zM271 564l123 195h98l-107 -195h-114z" />
    <glyph glyph-name="Hcircumflex" unicode="&#x124;" horiz-adv-x="729" 
d="M596 0h-123l55 315h-324l-56 -315h-123l125 708h123l-51 -287h325l51 287h123zM619 764h-108l-54 91l-86 -91h-112l140 144h132z" />
    <glyph glyph-name="hcircumflex" unicode="&#x125;" horiz-adv-x="584" 
d="M461 0h-117l46 264q5 27 5 48q0 35 -19 58t-60 23q-53 0 -87.5 -39t-44.5 -93l-46 -261h-117l133 756h118l-61 -344h2q21 34 60 57.5t88 23.5q38 0 75 -14.5t59.5 -51t22.5 -83.5q0 -25 -4 -45zM564 796h-108l-54 91l-86 -91h-112l140 144h132z" />
    <glyph glyph-name="Hbar" unicode="&#x126;" horiz-adv-x="729" 
d="M596 0h-123l55 315h-324l-56 -315h-123l125 708h123l-24 -133h325l24 133h123zM222 421h325l14 79h-325z" />
    <glyph glyph-name="hbar" unicode="&#x127;" horiz-adv-x="584" 
d="M405 645l-14 -75h-152l-28 -158h2q21 34 60 57.5t88 23.5q38 0 75 -14.5t59.5 -51t22.5 -83.5q0 -25 -4 -45l-53 -299h-117l46 264q5 27 5 48q0 35 -19 58t-60 23q-53 0 -87.5 -39t-44.5 -93l-46 -261h-117l100 570h-74l14 75h73l20 111h118l-20 -111h153z" />
    <glyph glyph-name="Itilde" unicode="&#x128;" horiz-adv-x="291" 
d="M148 0h-123l125 708h123zM100 768h-66q43 125 135 125q39 0 75 -18q40 -19 62 -19q33 0 53 44h66q-43 -125 -134 -125q-33 0 -69 17q-44 21 -68 21q-31 0 -54 -45z" />
    <glyph glyph-name="itilde" unicode="&#x129;" horiz-adv-x="267" 
d="M138 0h-117l84 480h118zM55 568h-66q43 125 135 125q39 0 75 -18q40 -19 62 -19q33 0 53 44h66q-43 -125 -134 -125q-33 0 -69 17q-44 21 -68 21q-31 0 -54 -45z" />
    <glyph glyph-name="Imacron" unicode="&#x12a;" horiz-adv-x="291" 
d="M148 0h-123l125 708h123zM381 795h-317l13 77h318z" />
    <glyph glyph-name="imacron" unicode="&#x12b;" horiz-adv-x="267" 
d="M138 0h-117l84 480h118zM337 595h-317l13 77h318z" />
    <glyph glyph-name="Iogonek" unicode="&#x12e;" horiz-adv-x="281" 
d="M153 -195q-55 -38 -106 -38q-40 0 -63.5 20.5t-23.5 59.5q0 69 117 153h-52l125 708h123l-125 -708h-9q-98 -79 -98 -133q0 -35 40 -35q28 0 56 21z" />
    <glyph glyph-name="iogonek" unicode="&#x12f;" horiz-adv-x="267" 
d="M144 -195q-55 -38 -106 -38q-40 0 -63.5 20.5t-23.5 59.5q0 69 117 153h-47l84 480h118l-85 -480h-8q-98 -79 -98 -133q0 -35 40 -35q28 0 56 21zM262 645q0 -29 -21 -51t-50 -22t-49.5 19t-20.5 50q0 30 22 51.5t51 21.5t48.5 -19.5t19.5 -49.5z" />
    <glyph glyph-name="Idotaccent" unicode="&#x130;" horiz-adv-x="291" 
d="M148 0h-123l125 708h123zM300 845q0 -29 -21 -51t-50 -22t-49.5 19t-20.5 50q0 30 22 51.5t51 21.5t48.5 -19.5t19.5 -49.5z" />
    <glyph glyph-name="dotlessi" unicode="&#x131;" horiz-adv-x="267" 
d="M138 0h-117l84 480h118z" />
    <glyph glyph-name="Jcircumflex" unicode="&#x134;" horiz-adv-x="500" 
d="M411 228q-16 -91 -48 -144t-80 -77.5t-109 -24.5q-83 0 -136 42.5t-62 112.5l115 33q4 -34 26 -56.5t54 -22.5q35 0 57.5 15.5t36.5 46t23 79.5l84 476h124zM620 764h-108l-54 91l-86 -91h-112l140 144h132z" />
    <glyph glyph-name="jcircumflex" unicode="&#x135;" horiz-adv-x="267" 
d="M133 -32q-20 -112 -68 -160t-134 -48q-29 0 -53 6l23 100q13 -4 32 -4q29 0 49.5 19.5t31.5 82.5l91 516h118zM355 564h-108l-54 91l-86 -91h-112l140 144h132z" />
    <glyph glyph-name="uni0136" unicode="&#x136;" horiz-adv-x="646" 
d="M612 0h-161l-239 356h-3l-62 -356h-122l125 708h122l-56 -314h3l319 314h166l-367 -334zM346 -45l-123 -195h-98l107 195h114z" />
    <glyph glyph-name="uni0137" unicode="&#x137;" horiz-adv-x="521" 
d="M481 0h-145l-151 246h-3l-44 -246h-117l133 756h118l-85 -479h3l217 203h154l-255 -223zM279 -45l-123 -195h-98l107 195h114z" />
    <glyph glyph-name="Lacute" unicode="&#x139;" horiz-adv-x="511" 
d="M451 0h-426l125 708h123l-106 -598h303zM426 908l-165 -144h-93l125 144h133z" />
    <glyph glyph-name="lacute" unicode="&#x13a;" horiz-adv-x="267" 
d="M138 0h-117l133 756h118zM417 936l-165 -144h-93l125 144h133z" />
    <glyph glyph-name="uni013B" unicode="&#x13b;" horiz-adv-x="511" 
d="M451 0h-426l125 708h123l-106 -598h303zM289 -45l-123 -195h-98l107 195h114z" />
    <glyph glyph-name="uni013C" unicode="&#x13c;" horiz-adv-x="267" 
d="M138 0h-117l133 756h118zM137 -45l-123 -195h-98l107 195h114z" />
    <glyph glyph-name="Lcaron" unicode="&#x13d;" horiz-adv-x="511" 
d="M451 0h-426l125 708h123l-106 -598h303zM524 708l-123 -195h-98l107 195h114z" />
    <glyph glyph-name="lcaron" unicode="&#x13e;" horiz-adv-x="267" 
d="M138 0h-117l133 756h118zM483 708l-123 -195h-98l107 195h114z" />
    <glyph glyph-name="Ldot" unicode="&#x13f;" horiz-adv-x="511" 
d="M451 0h-426l125 708h123l-106 -598h303zM471 347q0 -29 -21 -51t-50 -22t-49.5 19t-20.5 50q0 30 22 51.5t51 21.5t48.5 -19.5t19.5 -49.5z" />
    <glyph glyph-name="ldot" unicode="&#x140;" horiz-adv-x="391" 
d="M138 0h-117l133 756h118zM405 345q0 -29 -21 -51t-50 -22t-49.5 19t-20.5 50q0 30 22 51.5t51 21.5t48.5 -19.5t19.5 -49.5z" />
    <glyph glyph-name="Lslash" unicode="&#x141;" horiz-adv-x="518" 
d="M451 0h-426l36 203l-82 -62l19 108l82 62l70 397h123l-53 -302l238 181l-19 -107l-238 -182l-34 -188h303z" />
    <glyph glyph-name="lslash" unicode="&#x142;" horiz-adv-x="267" 
d="M289 463l-81 -68l-70 -395h-117l53 300l-82 -70l19 107l82 70l61 349h118l-46 -257l82 70z" />
    <glyph glyph-name="Nacute" unicode="&#x143;" horiz-adv-x="788" 
d="M632 0h-153l-232 550h-2l-97 -550h-123l125 708h160l228 -533h2l94 533h123zM643 908l-165 -144h-93l125 144h133z" />
    <glyph glyph-name="nacute" unicode="&#x144;" horiz-adv-x="584" 
d="M203 405h2q19 29 46 50.5t56.5 29.5t53.5 8q38 0 75 -14.5t59.5 -51t22.5 -83.5q0 -25 -4 -45l-53 -299h-117l46 264q5 27 5 48q0 35 -19 58t-60 23q-53 0 -87.5 -38.5t-43.5 -90.5l-47 -264h-117l66 377q10 50 15 103h110zM511 708l-165 -144h-93l125 144h133z" />
    <glyph glyph-name="uni0145" unicode="&#x145;" horiz-adv-x="788" 
d="M632 0h-153l-232 550h-2l-97 -550h-123l125 708h160l228 -533h2l94 533h123zM380 -45l-123 -195h-98l107 195h114z" />
    <glyph glyph-name="uni0146" unicode="&#x146;" horiz-adv-x="584" 
d="M203 405h2q19 29 46 50.5t56.5 29.5t53.5 8q38 0 75 -14.5t59.5 -51t22.5 -83.5q0 -25 -4 -45l-53 -299h-117l46 264q5 27 5 48q0 35 -19 58t-60 23q-53 0 -87.5 -38.5t-43.5 -90.5l-47 -264h-117l66 377q10 50 15 103h110zM296 -45l-123 -195h-98l107 195h114z" />
    <glyph glyph-name="Ncaron" unicode="&#x147;" horiz-adv-x="788" 
d="M632 0h-153l-232 550h-2l-97 -550h-123l125 708h160l228 -533h2l94 533h123zM660 908l-140 -144h-131l-88 144h109l53 -91l86 91h111z" />
    <glyph glyph-name="ncaron" unicode="&#x148;" horiz-adv-x="584" 
d="M203 405h2q19 29 46 50.5t56.5 29.5t53.5 8q38 0 75 -14.5t59.5 -51t22.5 -83.5q0 -25 -4 -45l-53 -299h-117l46 264q5 27 5 48q0 35 -19 58t-60 23q-53 0 -87.5 -38.5t-43.5 -90.5l-47 -264h-117l66 377q10 50 15 103h110zM535 708l-140 -144h-131l-88 144h109l53 -91
l86 91h111z" />
    <glyph glyph-name="Omacron" unicode="&#x14c;" horiz-adv-x="829" 
d="M459 726q74 0 136.5 -21.5t106.5 -61.5t68 -97.5t24 -126.5q0 -123 -56 -225.5t-149 -157t-200 -54.5q-76 0 -139.5 21t-108.5 61.5t-69 98t-24 126.5q0 111 50 211.5t146.5 163t214.5 62.5zM389 90q64 0 116.5 26.5t88.5 71.5t54.5 102.5t18.5 117.5q0 43 -14 82
t-41.5 68t-68 45.5t-90.5 16.5q-61 0 -113 -26.5t-89 -72t-56.5 -103t-19.5 -116.5q0 -43 14 -82t41.5 -68t68 -45.5t90.5 -16.5zM652 795h-317l13 77h318z" />
    <glyph glyph-name="omacron" unicode="&#x14d;" horiz-adv-x="604" 
d="M259 -13q-36 0 -75.5 10t-78.5 38.5t-58.5 72t-19.5 88.5q0 58 20.5 112t59 95.5t93 65.5t117.5 24q37 0 76.5 -10t78.5 -38t58.5 -71.5t19.5 -88.5q0 -59 -20.5 -113.5t-59 -96t-93 -65t-118.5 -23.5zM432 273q0 25 -11 54t-41 49.5t-71 20.5q-27 0 -55.5 -10t-53 -34
t-41 -61t-16.5 -84q0 -40 18.5 -70t46.5 -42t57 -12q27 0 56 10t53.5 33.5t41 61t16.5 84.5zM508 595h-317l13 77h318z" />
    <glyph glyph-name="Obreve" unicode="&#x14e;" horiz-adv-x="829" 
d="M459 726q74 0 136.5 -21.5t106.5 -61.5t68 -97.5t24 -126.5q0 -123 -56 -225.5t-149 -157t-200 -54.5q-76 0 -139.5 21t-108.5 61.5t-69 98t-24 126.5q0 111 50 211.5t146.5 163t214.5 62.5zM389 90q64 0 116.5 26.5t88.5 71.5t54.5 102.5t18.5 117.5q0 43 -14 82
t-41.5 68t-68 45.5t-90.5 16.5q-61 0 -113 -26.5t-89 -72t-56.5 -103t-19.5 -116.5q0 -43 14 -82t41.5 -68t68 -45.5t90.5 -16.5zM670 908q-11 -44 -37 -78t-66 -49.5t-84 -15.5q-72 0 -111.5 35.5t-39.5 107.5h66q0 -17 9 -33.5t31 -25t52 -8.5q58 0 81.5 19t33.5 48h65z
" />
    <glyph glyph-name="obreve" unicode="&#x14f;" horiz-adv-x="604" 
d="M259 -13q-36 0 -75.5 10t-78.5 38.5t-58.5 72t-19.5 88.5q0 58 20.5 112t59 95.5t93 65.5t117.5 24q37 0 76.5 -10t78.5 -38t58.5 -71.5t19.5 -88.5q0 -59 -20.5 -113.5t-59 -96t-93 -65t-118.5 -23.5zM432 273q0 25 -11 54t-41 49.5t-71 20.5q-27 0 -55.5 -10t-53 -34
t-41 -61t-16.5 -84q0 -40 18.5 -70t46.5 -42t57 -12q27 0 56 10t53.5 33.5t41 61t16.5 84.5zM530 708q-11 -44 -37 -78t-66 -49.5t-84 -15.5q-72 0 -111.5 35.5t-39.5 107.5h66q0 -17 9 -33.5t31 -25t52 -8.5q58 0 81.5 19t33.5 48h65z" />
    <glyph glyph-name="Ohungarumlaut" unicode="&#x150;" horiz-adv-x="829" 
d="M459 726q74 0 136.5 -21.5t106.5 -61.5t68 -97.5t24 -126.5q0 -123 -56 -225.5t-149 -157t-200 -54.5q-76 0 -139.5 21t-108.5 61.5t-69 98t-24 126.5q0 111 50 211.5t146.5 163t214.5 62.5zM389 90q64 0 116.5 26.5t88.5 71.5t54.5 102.5t18.5 117.5q0 43 -14 82
t-41.5 68t-68 45.5t-90.5 16.5q-61 0 -113 -26.5t-89 -72t-56.5 -103t-19.5 -116.5q0 -43 14 -82t41.5 -68t68 -45.5t90.5 -16.5zM798 908l-166 -144h-93l125 144h134zM593 908l-166 -144h-92l124 144h134z" />
    <glyph glyph-name="ohungarumlaut" unicode="&#x151;" horiz-adv-x="604" 
d="M259 -13q-36 0 -75.5 10t-78.5 38.5t-58.5 72t-19.5 88.5q0 58 20.5 112t59 95.5t93 65.5t117.5 24q37 0 76.5 -10t78.5 -38t58.5 -71.5t19.5 -88.5q0 -59 -20.5 -113.5t-59 -96t-93 -65t-118.5 -23.5zM432 273q0 25 -11 54t-41 49.5t-71 20.5q-27 0 -55.5 -10t-53 -34
t-41 -61t-16.5 -84q0 -40 18.5 -70t46.5 -42t57 -12q27 0 56 10t53.5 33.5t41 61t16.5 84.5zM652 708l-166 -144h-93l125 144h134zM447 708l-166 -144h-92l124 144h134z" />
    <glyph glyph-name="OE" unicode="&#x152;" horiz-adv-x="1006" 
d="M467 108l87 495h-79q-70 0 -127 -23.5t-95 -64t-57.5 -93t-19.5 -107.5q0 -43 14 -80.5t43 -66t73.5 -44.5t101.5 -16h59zM480 708h538l-19 -108h-326l-32 -183h311l-19 -104h-310l-36 -203h354l-19 -110h-544q-88 0 -165 33.5t-121 101t-44 161.5q0 90 32.5 167
t83.5 125t106.5 74.5t111 36t98.5 9.5z" />
    <glyph glyph-name="oe" unicode="&#x153;" horiz-adv-x="959" 
d="M457 78q-31 -43 -83 -67t-119 -24q-100 0 -164 58.5t-64 150.5q0 59 21.5 113.5t61.5 95.5t94.5 64.5t116.5 23.5q133 0 181 -95q35 45 88 70t113 25q54 0 102 -21.5t73 -67.5t25 -103q0 -19 -3.5 -48t-8.5 -50h-356l-1 -11q0 -47 36.5 -78.5t89.5 -31.5q81 0 137 63
l67 -63q-88 -96 -217 -96q-64 0 -114 24t-76 68zM795 287l2 25q0 40 -29 66.5t-76 26.5q-29 0 -57.5 -12t-54.5 -40.5t-34 -65.5h249zM432 273q0 25 -11 54t-41 49.5t-71 20.5q-35 0 -73 -19t-65.5 -66.5t-27.5 -103.5q0 -40 18.5 -70t46.5 -42t57 -12q26 0 54.5 10t53.5 34
t42 61t17 84z" />
    <glyph glyph-name="Racute" unicode="&#x154;" horiz-adv-x="624" 
d="M418 316l147 -316h-139l-134 302h-94l-52 -302h-121l125 708h210q115 0 179.5 -48.5t64.5 -134.5q0 -82 -49.5 -136t-136.5 -73zM308 403q82 0 125.5 27t43.5 82q0 51 -36 71.5t-100 20.5h-89l-36 -201h92zM552 908l-165 -144h-93l125 144h133z" />
    <glyph glyph-name="racute" unicode="&#x155;" horiz-adv-x="339" 
d="M201 400h2q56 93 141 93q17 0 29 -3l-16 -109q-19 5 -36 5q-28 0 -57.5 -11t-53 -43.5t-30.5 -74.5l-45 -257h-117l67 377q10 50 15 103h110zM406 708l-165 -144h-93l125 144h133z" />
    <glyph glyph-name="uni0156" unicode="&#x156;" horiz-adv-x="624" 
d="M418 316l147 -316h-139l-134 302h-94l-52 -302h-121l125 708h210q115 0 179.5 -48.5t64.5 -134.5q0 -82 -49.5 -136t-136.5 -73zM308 403q82 0 125.5 27t43.5 82q0 51 -36 71.5t-100 20.5h-89l-36 -201h92zM324 -45l-123 -195h-98l107 195h114z" />
    <glyph glyph-name="uni0157" unicode="&#x157;" horiz-adv-x="339" 
d="M201 400h2q56 93 141 93q17 0 29 -3l-16 -109q-19 5 -36 5q-28 0 -57.5 -11t-53 -43.5t-30.5 -74.5l-45 -257h-117l67 377q10 50 15 103h110zM133 -45l-123 -195h-98l107 195h114z" />
    <glyph glyph-name="Rcaron" unicode="&#x158;" horiz-adv-x="624" 
d="M418 316l147 -316h-139l-134 302h-94l-52 -302h-121l125 708h210q115 0 179.5 -48.5t64.5 -134.5q0 -82 -49.5 -136t-136.5 -73zM308 403q82 0 125.5 27t43.5 82q0 51 -36 71.5t-100 20.5h-89l-36 -201h92zM568 908l-140 -144h-131l-88 144h109l53 -91l86 91h111z" />
    <glyph glyph-name="rcaron" unicode="&#x159;" horiz-adv-x="339" 
d="M201 400h2q56 93 141 93q17 0 29 -3l-16 -109q-19 5 -36 5q-28 0 -57.5 -11t-53 -43.5t-30.5 -74.5l-45 -257h-117l67 377q10 50 15 103h110zM445 708l-140 -144h-131l-88 144h109l53 -91l86 91h111z" />
    <glyph glyph-name="Sacute" unicode="&#x15a;" horiz-adv-x="574" 
d="M561 634l-90 -72q-19 30 -52 46t-71 16q-32 0 -66 -15t-49 -40.5t-15 -53.5q0 -26 18.5 -50.5t79.5 -46.5q110 -40 151.5 -91t41.5 -119q0 -43 -15.5 -84.5t-51.5 -73t-89 -50t-118 -18.5q-74 0 -141 29.5t-103 85.5l100 69q19 -35 61 -57.5t89 -22.5q24 0 56.5 8.5
t57 35t24.5 70.5q0 24 -13 46.5t-42 40t-73 33.5q-85 31 -121.5 75t-36.5 111q0 38 14.5 77t49 70.5t86.5 52t118 20.5q40 0 83.5 -13.5t72.5 -35.5t44 -43zM554 908l-165 -144h-93l125 144h133z" />
    <glyph glyph-name="sacute" unicode="&#x15b;" horiz-adv-x="444" 
d="M-24 78l91 60q15 -28 44.5 -44t65.5 -16q40 0 65 16.5t25 43.5q0 18 -13 32.5t-69 32.5q-71 23 -97.5 46.5t-32.5 44.5t-6 41q0 25 10.5 52t36 50.5t66.5 39.5t96 16q41 0 78 -12t60 -32t35 -39l-91 -54q-30 47 -91 47q-25 0 -46 -7.5t-30 -21t-9 -28.5q0 -16 13.5 -29
t63.5 -27q51 -14 81.5 -34.5t45 -47t14.5 -62.5q0 -48 -25 -83.5t-72 -58t-111 -22.5q-35 0 -74.5 9t-72 32.5t-51.5 54.5zM463 708l-165 -144h-93l125 144h133z" />
    <glyph glyph-name="Scircumflex" unicode="&#x15c;" horiz-adv-x="574" 
d="M561 634l-90 -72q-19 30 -52 46t-71 16q-32 0 -66 -15t-49 -40.5t-15 -53.5q0 -26 18.5 -50.5t79.5 -46.5q110 -40 151.5 -91t41.5 -119q0 -43 -15.5 -84.5t-51.5 -73t-89 -50t-118 -18.5q-74 0 -141 29.5t-103 85.5l100 69q19 -35 61 -57.5t89 -22.5q24 0 56.5 8.5
t57 35t24.5 70.5q0 24 -13 46.5t-42 40t-73 33.5q-85 31 -121.5 75t-36.5 111q0 38 14.5 77t49 70.5t86.5 52t118 20.5q40 0 83.5 -13.5t72.5 -35.5t44 -43zM562 785h-108l-54 91l-86 -91h-112l140 144h132z" />
    <glyph glyph-name="scircumflex" unicode="&#x15d;" horiz-adv-x="444" 
d="M-24 78l91 60q15 -28 44.5 -44t65.5 -16q40 0 65 16.5t25 43.5q0 18 -13 32.5t-69 32.5q-71 23 -97.5 46.5t-32.5 44.5t-6 41q0 25 10.5 52t36 50.5t66.5 39.5t96 16q41 0 78 -12t60 -32t35 -39l-91 -54q-30 47 -91 47q-25 0 -46 -7.5t-30 -21t-9 -28.5q0 -16 13.5 -29
t63.5 -27q51 -14 81.5 -34.5t45 -47t14.5 -62.5q0 -48 -25 -83.5t-72 -58t-111 -22.5q-35 0 -74.5 9t-72 32.5t-51.5 54.5zM457 564h-108l-54 91l-86 -91h-112l140 144h132z" />
    <glyph glyph-name="Scedilla" unicode="&#x15e;" horiz-adv-x="574" 
d="M337 -138q0 -34 -19.5 -56t-53 -34t-71.5 -12q-27 0 -58.5 7.5t-50.5 18.5l27 48q35 -20 78 -20q33 0 49 11.5t16 29.5q0 36 -47 36q-20 0 -40 -6l-18 25l63 73q-49 3 -96.5 20t-78 43t-46.5 51l100 69q19 -35 61 -57.5t89 -22.5q24 0 56.5 8.5t57 35t24.5 70.5
q0 24 -13 46.5t-42 40t-73 33.5q-85 31 -121.5 75t-36.5 111q0 38 14.5 77t49 70.5t86.5 52t118 20.5q40 0 83.5 -13.5t72.5 -35.5t44 -43l-90 -72q-19 30 -52 46t-71 16q-32 0 -66 -15t-49 -40.5t-15 -53.5q0 -26 18.5 -50.5t79.5 -46.5q110 -40 151.5 -91t41.5 -119
q0 -39 -13.5 -78t-44 -70t-76.5 -51t-106 -25l-42 -49l20 2q23 0 45.5 -9.5t33.5 -27t11 -38.5z" />
    <glyph glyph-name="scedilla" unicode="&#x15f;" horiz-adv-x="444" 
d="M266 -138q0 -34 -19.5 -56t-53 -34t-71.5 -12q-27 0 -58.5 7.5t-50.5 18.5l27 48q35 -20 78 -20q33 0 49 11.5t16 29.5q0 36 -47 36q-20 0 -40 -6l-18 25l63 74q-58 6 -100 31t-65 63l91 60q15 -28 44.5 -44t65.5 -16q40 0 65 16.5t25 43.5q0 18 -13 32.5t-69 32.5
q-71 23 -97.5 46.5t-32.5 44.5t-6 41q0 25 10.5 52t36 50.5t66.5 39.5t96 16q41 0 78 -12t60 -32t35 -39l-91 -54q-30 47 -91 47q-25 0 -46 -7.5t-30 -21t-9 -28.5q0 -16 13.5 -29t63.5 -27q51 -14 81.5 -34.5t45 -47t14.5 -62.5t-18 -72t-63 -61t-103 -30l-42 -48l20 2
q23 0 45.5 -9.5t33.5 -27t11 -38.5z" />
    <glyph glyph-name="Scaron" unicode="&#x160;" horiz-adv-x="574" 
d="M561 634l-90 -72q-19 30 -52 46t-71 16q-32 0 -66 -15t-49 -40.5t-15 -53.5q0 -26 18.5 -50.5t79.5 -46.5q110 -40 151.5 -91t41.5 -119q0 -43 -15.5 -84.5t-51.5 -73t-89 -50t-118 -18.5q-74 0 -141 29.5t-103 85.5l100 69q19 -35 61 -57.5t89 -22.5q24 0 56.5 8.5
t57 35t24.5 70.5q0 24 -13 46.5t-42 40t-73 33.5q-85 31 -121.5 75t-36.5 111q0 38 14.5 77t49 70.5t86.5 52t118 20.5q40 0 83.5 -13.5t72.5 -35.5t44 -43zM567 908l-140 -144h-131l-88 144h109l53 -91l86 91h111z" />
    <glyph glyph-name="scaron" unicode="&#x161;" horiz-adv-x="444" 
d="M-24 78l91 60q15 -28 44.5 -44t65.5 -16q40 0 65 16.5t25 43.5q0 18 -13 32.5t-69 32.5q-71 23 -97.5 46.5t-32.5 44.5t-6 41q0 25 10.5 52t36 50.5t66.5 39.5t96 16q41 0 78 -12t60 -32t35 -39l-91 -54q-30 47 -91 47q-25 0 -46 -7.5t-30 -21t-9 -28.5q0 -16 13.5 -29
t63.5 -27q51 -14 81.5 -34.5t45 -47t14.5 -62.5q0 -48 -25 -83.5t-72 -58t-111 -22.5q-35 0 -74.5 9t-72 32.5t-51.5 54.5zM472 708l-140 -144h-131l-88 144h109l53 -91l86 91h111z" />
    <glyph glyph-name="uni0162" unicode="&#x162;" horiz-adv-x="533" 
d="M588 600h-208l-106 -600h-123l105 600h-210l19 108h542zM270 -45l-123 -195h-98l107 195h114z" />
    <glyph glyph-name="uni0163" unicode="&#x163;" horiz-adv-x="340" 
d="M104 385h-85l17 95h83l24 140h116l-24 -140h108l-17 -95h-106l-42 -226l-3 -28q0 -46 57 -46q22 0 45 7l-7 -89q-6 -2 -26 -7.5t-47 -5.5q-72 0 -106 29.5t-34 81.5q0 33 6 61zM196 -45l-123 -195h-98l107 195h114z" />
    <glyph glyph-name="Tcaron" unicode="&#x164;" horiz-adv-x="533" 
d="M588 600h-208l-106 -600h-123l105 600h-210l19 108h542zM546 908l-140 -144h-131l-88 144h109l53 -91l86 91h111z" />
    <glyph glyph-name="tcaron" unicode="&#x165;" horiz-adv-x="340" 
d="M104 385h-85l17 95h83l24 140h116l-24 -140h108l-17 -95h-106l-42 -226l-3 -28q0 -46 57 -46q22 0 45 7l-7 -89q-6 -2 -26 -7.5t-47 -5.5q-72 0 -106 29.5t-34 81.5q0 33 6 61zM499 731l-123 -195h-98l107 195h114z" />
    <glyph glyph-name="Tbar" unicode="&#x166;" horiz-adv-x="533" 
d="M520 507l-14 -75h-156l-76 -432h-123l75 432h-154l14 75h153l17 93h-210l19 108h542l-19 -108h-208l-17 -93h157z" />
    <glyph glyph-name="tbar" unicode="&#x167;" horiz-adv-x="340" 
d="M298 294l-14 -75h-95l-11 -60l-3 -28q0 -46 57 -46q22 0 45 7l-7 -89q-6 -2 -26 -7.5t-47 -5.5q-72 0 -106 29.5t-34 81.5q0 33 6 61l10 57h-68l14 75h68l17 91h-85l17 95h83l24 140h116l-24 -140h108l-17 -95h-106l-17 -91h95z" />
    <glyph glyph-name="Utilde" unicode="&#x168;" horiz-adv-x="714" 
d="M633 260q-11 -63 -36 -114.5t-63 -88t-91.5 -56t-119.5 -19.5q-121 0 -192 60t-71 161q0 32 5 57l79 448h123l-78 -443q-4 -19 -4 -46q0 -25 10.5 -55.5t43 -52t86.5 -21.5q78 0 123.5 44t61.5 131l78 443h124zM319 768h-66q43 125 135 125q39 0 75 -18q40 -19 62 -19
q33 0 53 44h66q-43 -125 -134 -125q-33 0 -69 17q-44 21 -68 21q-31 0 -54 -45z" />
    <glyph glyph-name="utilde" unicode="&#x169;" horiz-adv-x="584" 
d="M350 75h-2q-19 -29 -46 -50.5t-56.5 -29.5t-53.5 -8q-38 0 -75 14.5t-59.5 51t-22.5 83.5q0 25 4 45l53 299h117l-46 -264q-5 -27 -5 -48q0 -35 19 -58t60 -23q53 0 87.5 38.5t43.5 90.5l47 264h117l-66 -377q-10 -50 -15 -103h-110zM206 568h-66q43 125 135 125
q39 0 75 -18q40 -19 62 -19q33 0 53 44h66q-43 -125 -134 -125q-33 0 -69 17q-44 21 -68 21q-31 0 -54 -45z" />
    <glyph glyph-name="Umacron" unicode="&#x16a;" horiz-adv-x="714" 
d="M633 260q-11 -63 -36 -114.5t-63 -88t-91.5 -56t-119.5 -19.5q-121 0 -192 60t-71 161q0 32 5 57l79 448h123l-78 -443q-4 -19 -4 -46q0 -25 10.5 -55.5t43 -52t86.5 -21.5q78 0 123.5 44t61.5 131l78 443h124zM597 795h-317l13 77h318z" />
    <glyph glyph-name="umacron" unicode="&#x16b;" horiz-adv-x="584" 
d="M350 75h-2q-19 -29 -46 -50.5t-56.5 -29.5t-53.5 -8q-38 0 -75 14.5t-59.5 51t-22.5 83.5q0 25 4 45l53 299h117l-46 -264q-5 -27 -5 -48q0 -35 19 -58t60 -23q53 0 87.5 38.5t43.5 90.5l47 264h117l-66 -377q-10 -50 -15 -103h-110zM488 595h-317l13 77h318z" />
    <glyph glyph-name="Ubreve" unicode="&#x16c;" horiz-adv-x="714" 
d="M633 260q-11 -63 -36 -114.5t-63 -88t-91.5 -56t-119.5 -19.5q-121 0 -192 60t-71 161q0 32 5 57l79 448h123l-78 -443q-4 -19 -4 -46q0 -25 10.5 -55.5t43 -52t86.5 -21.5q78 0 123.5 44t61.5 131l78 443h124zM619 908q-11 -44 -37 -78t-66 -49.5t-84 -15.5
q-72 0 -111.5 35.5t-39.5 107.5h66q0 -17 9 -33.5t31 -25t52 -8.5q58 0 81.5 19t33.5 48h65z" />
    <glyph glyph-name="ubreve" unicode="&#x16d;" horiz-adv-x="584" 
d="M350 75h-2q-19 -29 -46 -50.5t-56.5 -29.5t-53.5 -8q-38 0 -75 14.5t-59.5 51t-22.5 83.5q0 25 4 45l53 299h117l-46 -264q-5 -27 -5 -48q0 -35 19 -58t60 -23q53 0 87.5 38.5t43.5 90.5l47 264h117l-66 -377q-10 -50 -15 -103h-110zM508 708q-11 -44 -37 -78t-66 -49.5
t-84 -15.5q-72 0 -111.5 35.5t-39.5 107.5h66q0 -17 9 -33.5t31 -25t52 -8.5q58 0 81.5 19t33.5 48h65z" />
    <glyph glyph-name="Uring" unicode="&#x16e;" horiz-adv-x="714" 
d="M633 260q-11 -63 -36 -114.5t-63 -88t-91.5 -56t-119.5 -19.5q-121 0 -192 60t-71 161q0 32 5 57l79 448h123l-78 -443q-4 -19 -4 -46q0 -25 10.5 -55.5t43 -52t86.5 -21.5q78 0 123.5 44t61.5 131l78 443h124zM437 753q-39 0 -64.5 25t-25.5 61q0 35 19 64.5t46 41
t50 11.5q39 0 64 -24.5t25 -60.5t-18.5 -65.5t-45.5 -41t-50 -11.5zM502 862q0 20 -12.5 35t-32.5 15q-26 0 -43.5 -19.5t-17.5 -47.5q0 -20 12 -34t32 -14q27 0 44.5 18.5t17.5 46.5z" />
    <glyph glyph-name="uring" unicode="&#x16f;" horiz-adv-x="584" 
d="M350 75h-2q-19 -29 -46 -50.5t-56.5 -29.5t-53.5 -8q-38 0 -75 14.5t-59.5 51t-22.5 83.5q0 25 4 45l53 299h117l-46 -264q-5 -27 -5 -48q0 -35 19 -58t60 -23q53 0 87.5 38.5t43.5 90.5l47 264h117l-66 -377q-10 -50 -15 -103h-110zM327 553q-39 0 -64.5 25t-25.5 61
q0 35 19 64.5t46 41t50 11.5q39 0 64 -24.5t25 -60.5t-18.5 -65.5t-45.5 -41t-50 -11.5zM392 662q0 20 -12.5 35t-32.5 15q-26 0 -43.5 -19.5t-17.5 -47.5q0 -20 12 -34t32 -14q27 0 44.5 18.5t17.5 46.5z" />
    <glyph glyph-name="Uhungarumlaut" unicode="&#x170;" horiz-adv-x="714" 
d="M633 260q-11 -63 -36 -114.5t-63 -88t-91.5 -56t-119.5 -19.5q-121 0 -192 60t-71 161q0 32 5 57l79 448h123l-78 -443q-4 -19 -4 -46q0 -25 10.5 -55.5t43 -52t86.5 -21.5q78 0 123.5 44t61.5 131l78 443h124zM745 908l-166 -144h-93l125 144h134zM540 908l-166 -144
h-92l124 144h134z" />
    <glyph glyph-name="uhungarumlaut" unicode="&#x171;" horiz-adv-x="584" 
d="M350 75h-2q-19 -29 -46 -50.5t-56.5 -29.5t-53.5 -8q-38 0 -75 14.5t-59.5 51t-22.5 83.5q0 25 4 45l53 299h117l-46 -264q-5 -27 -5 -48q0 -35 19 -58t60 -23q53 0 87.5 38.5t43.5 90.5l47 264h117l-66 -377q-10 -50 -15 -103h-110zM632 708l-166 -144h-93l125 144h134z
M427 708l-166 -144h-92l124 144h134z" />
    <glyph glyph-name="Uogonek" unicode="&#x172;" horiz-adv-x="714" 
d="M403 -195q-55 -38 -106 -38q-40 0 -63.5 20.5t-23.5 59.5q0 64 94 136q-56 2 -101.5 18.5t-77 45t-48.5 68.5t-17 88q0 32 5 57l79 448h123l-78 -443q-4 -19 -4 -46q0 -25 10.5 -55.5t43 -52t86.5 -21.5q78 0 123.5 44t61.5 131l78 443h124l-79 -448q-16 -88 -53 -145.5
t-89 -89.5t-121 -40q-79 -69 -79 -118q0 -35 40 -35q28 0 56 21z" />
    <glyph glyph-name="uogonek" unicode="&#x173;" horiz-adv-x="584" 
d="M414 -195q-55 -38 -106 -38q-40 0 -63.5 20.5t-23.5 59.5q0 70 120 155l9 73h-2q-19 -29 -46 -50.5t-56.5 -29.5t-53.5 -8q-38 0 -75 14.5t-59.5 51t-22.5 83.5q0 25 4 45l53 299h117l-46 -264q-5 -27 -5 -48q0 -35 19 -58t60 -23q53 0 87.5 38.5t43.5 90.5l47 264h117
l-66 -377q-10 -50 -15 -103h-51q-98 -79 -98 -133q0 -35 40 -35q28 0 56 21z" />
    <glyph glyph-name="Wcircumflex" unicode="&#x174;" horiz-adv-x="985" 
d="M1055 708l-343 -708h-120l-65 535h-2l-268 -535h-120l-66 708h130l35 -524h2l256 524h128l55 -524h2l245 524h131zM744 764h-108l-54 91l-86 -91h-112l140 144h132z" />
    <glyph glyph-name="wcircumflex" unicode="&#x175;" horiz-adv-x="785" 
d="M820 480l-261 -480h-120l-43 339h-2l-179 -339h-120l-66 480h123l33 -345h2l172 345h123l39 -345h2l174 345h123zM612 564h-108l-54 91l-86 -91h-112l140 144h132z" />
    <glyph glyph-name="Ycircumflex" unicode="&#x176;" horiz-adv-x="575" 
d="M685 708l-342 -401l-55 -307h-123l54 307l-177 401h138l118 -300l237 300h150zM539 764h-108l-54 91l-86 -91h-112l140 144h132z" />
    <glyph glyph-name="ycircumflex" unicode="&#x177;" horiz-adv-x="506" 
d="M543 480l-340 -584q-40 -71 -80 -103.5t-104 -32.5q-33 0 -61 7l15 102q21 -7 44 -7t43 12.5t49 62.5l36 62l-108 481h126l62 -352h2l192 352h124zM480 564h-108l-54 91l-86 -91h-112l140 144h132z" />
    <glyph glyph-name="Ydieresis" unicode="&#x178;" horiz-adv-x="575" 
d="M685 708l-342 -401l-55 -307h-123l54 307l-177 401h138l118 -300l237 300h150zM338 846q0 -29 -20 -50t-49 -21t-48.5 18t-19.5 49q0 30 21 50.5t50 20.5t47.5 -18.5t18.5 -48.5zM536 846q0 -29 -20 -50t-49 -21t-48.5 18t-19.5 49q0 30 21 50.5t50 20.5t47.5 -18.5
t18.5 -48.5z" />
    <glyph glyph-name="Zacute" unicode="&#x179;" horiz-adv-x="588" 
d="M510 0h-550l19 111l466 489h-336l19 108h497l-20 -111l-463 -487h388zM569 908l-165 -144h-93l125 144h133z" />
    <glyph glyph-name="zacute" unicode="&#x17a;" horiz-adv-x="480" 
d="M392 0h-412l18 103l313 283h-244l16 94h387l-18 -103l-311 -281h268zM480 708l-165 -144h-93l125 144h133z" />
    <glyph glyph-name="Zdotaccent" unicode="&#x17b;" horiz-adv-x="588" 
d="M510 0h-550l19 111l466 489h-336l19 108h497l-20 -111l-463 -487h388zM469 845q0 -29 -21 -51t-50 -22t-49.5 19t-20.5 50q0 30 22 51.5t51 21.5t48.5 -19.5t19.5 -49.5z" />
    <glyph glyph-name="zdotaccent" unicode="&#x17c;" horiz-adv-x="480" 
d="M392 0h-412l18 103l313 283h-244l16 94h387l-18 -103l-311 -281h268zM375 645q0 -29 -21 -51t-50 -22t-49.5 19t-20.5 50q0 30 22 51.5t51 21.5t48.5 -19.5t19.5 -49.5z" />
    <glyph glyph-name="Zcaron" unicode="&#x17d;" horiz-adv-x="588" 
d="M510 0h-550l19 111l466 489h-336l19 108h497l-20 -111l-463 -487h388zM583 908l-140 -144h-131l-88 144h109l53 -91l86 91h111z" />
    <glyph glyph-name="zcaron" unicode="&#x17e;" horiz-adv-x="480" 
d="M392 0h-412l18 103l313 283h-244l16 94h387l-18 -103l-311 -281h268zM493 708l-140 -144h-131l-88 144h109l53 -91l86 91h111z" />
    <glyph glyph-name="florin" unicode="&#x192;" horiz-adv-x="610" 
d="M624 689l-62 -91q-24 16 -52 16q-22 0 -41 -11.5t-32.5 -34t-26.5 -56.5l-33 -86h121l-15 -89h-137l-109 -291q-36 -94 -88.5 -139.5t-129.5 -45.5q-25 0 -51.5 6.5t-45.5 17.5l60 90q19 -14 45 -14q27 0 50.5 19.5t48.5 84.5l101 272h-113l16 89h130l42 112
q36 96 88 139t123 43q58 0 111 -31z" />
    <glyph glyph-name="uni0218" unicode="&#x218;" horiz-adv-x="574" 
d="M561 634l-90 -72q-19 30 -52 46t-71 16q-32 0 -66 -15t-49 -40.5t-15 -53.5q0 -26 18.5 -50.5t79.5 -46.5q110 -40 151.5 -91t41.5 -119q0 -43 -15.5 -84.5t-51.5 -73t-89 -50t-118 -18.5q-74 0 -141 29.5t-103 85.5l100 69q19 -35 61 -57.5t89 -22.5q24 0 56.5 8.5
t57 35t24.5 70.5q0 24 -13 46.5t-42 40t-73 33.5q-85 31 -121.5 75t-36.5 111q0 38 14.5 77t49 70.5t86.5 52t118 20.5q40 0 83.5 -13.5t72.5 -35.5t44 -43zM289 -45l-123 -195h-98l107 195h114z" />
    <glyph glyph-name="uni0219" unicode="&#x219;" horiz-adv-x="444" 
d="M-24 78l91 60q15 -28 44.5 -44t65.5 -16q40 0 65 16.5t25 43.5q0 18 -13 32.5t-69 32.5q-71 23 -97.5 46.5t-32.5 44.5t-6 41q0 25 10.5 52t36 50.5t66.5 39.5t96 16q41 0 78 -12t60 -32t35 -39l-91 -54q-30 47 -91 47q-25 0 -46 -7.5t-30 -21t-9 -28.5q0 -16 13.5 -29
t63.5 -27q51 -14 81.5 -34.5t45 -47t14.5 -62.5q0 -48 -25 -83.5t-72 -58t-111 -22.5q-35 0 -74.5 9t-72 32.5t-51.5 54.5zM213 -45l-123 -195h-98l107 195h114z" />
    <glyph glyph-name="uni021A" unicode="&#x21a;" horiz-adv-x="533" 
d="M588 600h-208l-106 -600h-123l105 600h-210l19 108h542zM270 -45l-123 -195h-98l107 195h114z" />
    <glyph glyph-name="uni021B" unicode="&#x21b;" horiz-adv-x="340" 
d="M104 385h-85l17 95h83l24 140h116l-24 -140h108l-17 -95h-106l-42 -226l-3 -28q0 -46 57 -46q22 0 45 7l-7 -89q-6 -2 -26 -7.5t-47 -5.5q-72 0 -106 29.5t-34 81.5q0 33 6 61zM196 -45l-123 -195h-98l107 195h114z" />
    <glyph glyph-name="circumflex" unicode="&#x2c6;" 
d="M355 564h-108l-54 91l-86 -91h-112l140 144h132z" />
    <glyph glyph-name="caron" unicode="&#x2c7;" 
d="M380 708l-140 -144h-131l-88 144h109l53 -91l86 91h111z" />
    <glyph glyph-name="uni02C9" unicode="&#x2c9;" 
d="M339 795h-317l13 77h318z" />
    <glyph glyph-name="breve" unicode="&#x2d8;" 
d="M369 708q-11 -44 -37 -78t-66 -49.5t-84 -15.5q-72 0 -111.5 35.5t-39.5 107.5h66q0 -17 9 -33.5t31 -25t52 -8.5q58 0 81.5 19t33.5 48h65z" />
    <glyph glyph-name="dotaccent" unicode="&#x2d9;" 
d="M262 645q0 -29 -21 -51t-50 -22t-49.5 19t-20.5 50q0 30 22 51.5t51 21.5t48.5 -19.5t19.5 -49.5z" />
    <glyph glyph-name="ring" unicode="&#x2da;" 
d="M180 553q-39 0 -64.5 25t-25.5 61q0 35 19 64.5t46 41t50 11.5q39 0 64 -24.5t25 -60.5t-18.5 -65.5t-45.5 -41t-50 -11.5zM245 662q0 20 -12.5 35t-32.5 15q-26 0 -43.5 -19.5t-17.5 -47.5q0 -20 12 -34t32 -14q27 0 44.5 18.5t17.5 46.5z" />
    <glyph glyph-name="ogonek" unicode="&#x2db;" 
d="M114 -195q-55 -38 -106 -38q-40 0 -63.5 20.5t-23.5 59.5q0 71 126 159h60q-105 -85 -105 -139q0 -35 40 -35q28 0 56 21z" />
    <glyph glyph-name="tilde" unicode="&#x2dc;" 
d="M59 568h-66q43 125 135 125q39 0 75 -18q40 -19 62 -19q33 0 53 44h66q-43 -125 -134 -125q-33 0 -69 17q-44 21 -68 21q-31 0 -54 -45z" />
    <glyph glyph-name="hungarumlaut" unicode="&#x2dd;" 
d="M486 708l-166 -144h-93l125 144h134zM281 708l-166 -144h-92l124 144h134z" />
    <glyph glyph-name="uni0394" unicode="&#x394;" horiz-adv-x="685" 
d="M627 0h-669l421 712h115zM491 104l-84 477l-274 -477h358z" />
    <glyph glyph-name="uni03A9" unicode="&#x3a9;" horiz-adv-x="759" 
d="M651 0h-276l40 189q58 11 103 47t68 81t30 80q5 21 5 50q0 45 -19.5 85.5t-59 62t-87.5 21.5q-34 0 -72 -11.5t-75 -39t-66.5 -70.5t-41.5 -99q-6 -30 -6 -57q0 -41 16.5 -74t44.5 -51t55 -25l-40 -189h-274l22 106h172l7 32q-63 21 -94 70t-31 117q0 39 9 79q7 32 24 73
t48.5 82t79 78t112.5 60.5t131 23.5q58 0 108 -17.5t86 -49.5t55.5 -77.5t19.5 -99.5q0 -32 -8 -70q-16 -73 -48 -127t-77.5 -89.5t-104.5 -52.5l-7 -32h173z" />
    <glyph glyph-name="uni03BC" unicode="&#x3bc;" horiz-adv-x="574" 
d="M120 480h120l-52 -243q-9 -43 -9 -67q0 -74 67 -74q41 0 71.5 21t45 49.5t19.5 51.5l56 262h120l-102 -480h-114l16 77h-2q-59 -89 -156 -89q-18 0 -35.5 6.5t-24.5 17.5l-51 -240h-120z" />
    <glyph glyph-name="pi" unicode="&#x3c0;" horiz-adv-x="593" 
d="M532 13q-21 -9 -49 -14.5t-50 -5.5q-84 0 -84 73q0 24 8 58l54 254h-183l-80 -378h-117l80 378h-70l22 102h566l-22 -102h-79l-51 -237q-4 -20 -4 -30q0 -28 30 -28q21 0 46 10z" />
    <glyph glyph-name="endash" unicode="&#x2013;" horiz-adv-x="400" 
d="M378 292l-16 -92h-340l16 92h340z" />
    <glyph glyph-name="emdash" unicode="&#x2014;" horiz-adv-x="600" 
d="M578 292l-16 -92h-540l16 92h540z" />
    <glyph glyph-name="quoteleft" unicode="&#x2018;" horiz-adv-x="268" 
d="M296 708l-116 -263h-113l131 263h98z" />
    <glyph glyph-name="quoteright" unicode="&#x2019;" horiz-adv-x="268" 
d="M296 708l-131 -263h-98l116 263h113z" />
    <glyph glyph-name="quotesinglbase" unicode="&#x201a;" horiz-adv-x="268" 
d="M196 136l-132 -263h-98l116 263h114z" />
    <glyph glyph-name="quotedblleft" unicode="&#x201c;" horiz-adv-x="461" 
d="M490 708l-116 -263h-114l131 263h99zM296 708l-116 -263h-113l131 263h98z" />
    <glyph glyph-name="quotedblright" unicode="&#x201d;" horiz-adv-x="461" 
d="M490 708l-131 -263h-99l116 263h114zM296 708l-131 -263h-98l116 263h113z" />
    <glyph glyph-name="quotedblbase" unicode="&#x201e;" horiz-adv-x="461" 
d="M389 136l-131 -263h-99l116 263h114zM196 136l-132 -263h-98l116 263h114z" />
    <glyph glyph-name="dagger" unicode="&#x2020;" horiz-adv-x="591" 
d="M569 411h-200l-94 -537h-112l95 537h-199l17 94h198l36 203h112l-36 -203h199z" />
    <glyph glyph-name="daggerdbl" unicode="&#x2021;" horiz-adv-x="591" 
d="M501 60h-193l-33 -186h-112l33 186h-192l16 95h193l48 273h-192l16 95h192l33 185h112l-33 -185h193l-16 -95h-194l-48 -273h193z" />
    <glyph glyph-name="bullet" unicode="&#x2022;" horiz-adv-x="500" 
d="M73 354q0 73 52 125t125 52t125 -52t52 -125t-52 -125t-125 -52t-125 52t-52 125z" />
    <glyph glyph-name="ellipsis" unicode="&#x2026;" horiz-adv-x="1000" 
d="M201 72q0 -30 -22 -53t-52 -23q-31 0 -52 19.5t-21 52.5q0 32 23 54t53 22t50.5 -20t20.5 -52zM535 72q0 -30 -22 -53t-52 -23q-31 0 -52 19.5t-21 52.5q0 32 23 54t53 22t50.5 -20t20.5 -52zM869 72q0 -30 -22 -53t-52 -23q-31 0 -52 19.5t-21 52.5q0 32 23 54t53 22
t50.5 -20t20.5 -52z" />
    <glyph glyph-name="perthousand" unicode="&#x2030;" horiz-adv-x="1200" 
d="M208 368q-33 0 -58.5 10t-45.5 26t-36 45.5t-16 68.5q0 31 10 65t34 64t63.5 51.5t91.5 21.5q42 0 75.5 -17t56 -50.5t22.5 -80.5q0 -53 -25 -102t-72.5 -75.5t-99.5 -26.5zM313 558q0 31 -20 53.5t-52 22.5q-31 0 -55 -17.5t-33 -41.5t-9 -45q0 -31 19.5 -54t50.5 -23
q32 0 56.5 17.5t33.5 42t9 45.5zM595 -13q-33 0 -58.5 10t-45.5 26t-36 45.5t-16 68.5q0 31 10 65t34 64t63.5 51.5t91.5 21.5q42 0 75.5 -17t56 -50.5t22.5 -80.5q0 -53 -25 -102t-72.5 -75.5t-99.5 -26.5zM700 177q0 31 -20 53.5t-52 22.5q-31 0 -55 -17.5t-33 -41.5
t-9 -45q0 -31 19.5 -54t50.5 -23q32 0 56.5 17.5t33.5 42t9 45.5zM986 -13q-33 0 -58.5 10t-45.5 26t-36 45.5t-16 68.5q0 31 10 65t34 64t63.5 51.5t91.5 21.5q42 0 75.5 -17t56 -50.5t22.5 -80.5q0 -53 -25 -102t-72.5 -75.5t-99.5 -26.5zM1091 177q0 31 -20 53.5
t-52 22.5q-31 0 -55 -17.5t-33 -41.5t-9 -45q0 -31 19.5 -54t50.5 -23q32 0 56.5 17.5t33.5 42t9 45.5zM677 701l-461 -734l-62 39l461 734z" />
    <glyph glyph-name="guilsinglleft" unicode="&#x2039;" horiz-adv-x="297" 
d="M216 73l-83 -51l-112 226l191 223l65 -50l-146 -173z" />
    <glyph glyph-name="guilsinglright" unicode="&#x203a;" horiz-adv-x="297" 
d="M257 243l-191 -224l-67 54l149 177l-85 175l80 46z" />
    <glyph glyph-name="fraction" unicode="&#x2044;" horiz-adv-x="100" 
d="M343 701l-547 -734l-62 39l547 734z" />
    <glyph glyph-name="Euro" unicode="&#x20ac;" horiz-adv-x="610" 
d="M524 118l24 -93q-69 -43 -163 -43q-81 0 -141 28.5t-90.5 72.5t-39 80t-10.5 59h-90l43 86h45q2 38 17 92h-72l45 86h52q20 49 52 93t74.5 77t95.5 51.5t112 18.5q46 0 88 -9.5t66 -23.5l-44 -97q-21 14 -54 21t-67 7q-30 0 -68 -12t-74.5 -45.5t-59.5 -80.5h277l-43 -86
h-265q-6 -16 -11 -46t-5 -46h250l-42 -86h-208q5 -59 53.5 -99.5t124.5 -40.5q27 0 56.5 6.5t71.5 29.5z" />
    <glyph glyph-name="uni2113" unicode="&#x2113;" horiz-adv-x="500" 
d="M489 601q0 -82 -65 -164.5t-189 -168.5q-29 -121 -29 -148q0 -18 10.5 -33t35.5 -15q36 0 98 40h2l29 -68q-42 -30 -82 -44t-82 -14q-61 0 -95 30.5t-34 82.5q0 19 16 92l-63 -49h-2l-33 67l118 82l52 244q14 66 44.5 107t68 60t81.5 19q38 0 67.5 -20t40.5 -48.5
t11 -51.5zM392 596q0 19 -10 33t-25 14q-42 0 -59 -80l-41 -191q38 33 71.5 76.5t48.5 81.5t15 66z" />
    <glyph glyph-name="trademark" unicode="&#x2122;" horiz-adv-x="999" 
d="M247 296v322h-122v90h346v-90h-122v-322h-102zM550 296v412h142l98 -268l98 268h142v-412h-102v268h-2l-101 -268h-70l-101 268h-2v-268h-102z" />
    <glyph glyph-name="Omega" unicode="&#x2126;" horiz-adv-x="759" 
d="M651 0h-276l40 189q58 11 103 47t68 81t30 80q5 21 5 50q0 45 -19.5 85.5t-59 62t-87.5 21.5q-34 0 -72 -11.5t-75 -39t-66.5 -70.5t-41.5 -99q-6 -30 -6 -57q0 -41 16.5 -74t44.5 -51t55 -25l-40 -189h-274l22 106h172l7 32q-63 21 -94 70t-31 117q0 39 9 79q7 32 24 73
t48.5 82t79 78t112.5 60.5t131 23.5q58 0 108 -17.5t86 -49.5t55.5 -77.5t19.5 -99.5q0 -32 -8 -70q-16 -73 -48 -127t-77.5 -89.5t-104.5 -52.5l-7 -32h173z" />
    <glyph glyph-name="estimated" unicode="&#x212e;" horiz-adv-x="800" 
d="M210 402h385v193q-82 79 -194 79t-191 -79v-193zM745 355h-535v-240q77 -78 192 -78q83 0 144 38t112 121l46 -28q-61 -96 -130 -138t-172 -42q-75 0 -139 28t-109.5 78.5t-69.5 118t-24 142.5t24 142.5t69.5 117t109.5 77.5t139 28q74 0 138 -27t109.5 -75.5
t70.5 -116.5t25 -146z" />
    <glyph glyph-name="partialdiff" unicode="&#x2202;" horiz-adv-x="556" 
d="M514 358q0 -133 -34 -216t-90.5 -119t-130.5 -36q-48 0 -89 17t-70 48t-44.5 73t-15.5 90q0 35 10.5 72.5t39.5 74.5t74 55.5t92 18.5q77 0 143 -55v28q1 61 -15.5 112t-50.5 82t-85 31q-61 0 -122 -49l-59 70q43 33 84 49.5t91 16.5q73 0 126.5 -31t85.5 -82.5t46 -116
t14 -133.5zM398 264l-1 25q-57 64 -126 64q-37 0 -63.5 -17t-42.5 -50.5t-16 -76.5q0 -26 9 -58.5t35.5 -56t69.5 -23.5q42 0 72.5 27.5t47 73.5t15.5 92z" />
    <glyph glyph-name="Delta" unicode="&#x2206;" horiz-adv-x="685" 
d="M627 0h-669l421 712h115zM491 104l-84 477l-274 -477h358z" />
    <glyph glyph-name="product" unicode="&#x220f;" horiz-adv-x="741" 
d="M679 -214h-114v897h-389v-897h-114v1000h617v-1000z" />
    <glyph glyph-name="summation" unicode="&#x2211;" horiz-adv-x="648" 
d="M624 -214h-599v89l303 417l-290 405v89h573v-103h-422l275 -390l-293 -404h453v-103z" />
    <glyph glyph-name="minus" unicode="&#x2212;" horiz-adv-x="666" 
d="M62 354h542v-102h-542v102z" />
    <glyph glyph-name="uni2215" unicode="&#x2215;" horiz-adv-x="100" 
d="M343 701l-547 -734l-62 39l547 734z" />
    <glyph glyph-name="uni2219" unicode="&#x2219;" 
d="M201 297q0 -30 -22 -53t-52 -23q-31 0 -52 19.5t-21 52.5q0 32 23 54t53 22t50.5 -20t20.5 -52z" />
    <glyph glyph-name="radical" unicode="&#x221a;" horiz-adv-x="537" 
d="M549 786l-211 -1000h-106l-152 317l-51 -25l-41 90l148 68l129 -273l168 823h116z" />
    <glyph glyph-name="infinity" unicode="&#x221e;" horiz-adv-x="815" 
d="M770 263q0 -57 -23.5 -98t-60.5 -62.5t-85 -21.5q-42 0 -87.5 22.5t-105.5 89.5q-40 -42 -66 -63.5t-57 -34.5t-69 -13q-28 0 -58 9t-55 31t-41.5 57.5t-16.5 82.5t20 90t60 66t87 23q44 0 90 -24t106 -95q60 72 105 96t89 24q38 0 65.5 -12t48.5 -31t37.5 -54.5
t16.5 -81.5zM680 260q0 27 -12 48t-31 29.5t-37 8.5q-26 0 -58.5 -19.5t-76.5 -67.5q74 -82 138 -82q35 0 56 24t21 59zM350 259q-81 86 -138 86q-25 0 -44 -14.5t-26 -34.5t-7 -36q0 -36 22 -59t58 -23q26 0 61.5 19t73.5 62z" />
    <glyph glyph-name="integral" unicode="&#x222b;" horiz-adv-x="611" 
d="M486 709q0 -22 -15 -37t-37 -15q-11 0 -21.5 3.5t-18 13t-16 33t-20.5 23.5q-16 0 -16 -26l4 -122v-589q0 -106 -34.5 -157t-109.5 -51q-29 0 -57 10t-41 27.5t-13 38.5q0 22 15.5 37.5t37.5 15.5q11 0 21.5 -3.5t18 -13t15.5 -33t19 -23.5q3 0 8.5 3t7 12.5t1.5 30.5
l-4 102v506q0 7 -0.5 55.5t3.5 90t18.5 73t43.5 52t80 20.5q3 0 13 -0.5t32.5 -6t43.5 -23.5t21 -47z" />
    <glyph glyph-name="approxequal" unicode="&#x2248;" horiz-adv-x="666" 
d="M602 451q-5 -50 -23.5 -89.5t-49.5 -61t-76 -21.5q-47 0 -136 35q-63 23 -83 28.5t-34 5.5q-25 0 -42 -21t-22 -48h-71q3 31 13.5 63.5t26.5 54.5q18 25 45 40t61 15q45 0 130 -33q43 -16 73 -24.5t55 -8.5t41 19t21 46h71zM600 243q-5 -51 -23 -90t-49 -60.5t-76 -21.5
t-136 35q-44 16 -71.5 25t-46.5 9q-25 0 -42 -20.5t-22 -47.5h-71q5 49 23 88.5t49 61.5t74 22q45 0 130 -33q43 -16 73 -24.5t55 -8.5t41 19t21 46h71z" />
    <glyph glyph-name="notequal" unicode="&#x2260;" horiz-adv-x="666" 
d="M586 162h-264l-74 -144l-88 45l50 99h-130v102h181l38 78h-219v102h270l72 143l90 -44l-51 -99h125v-102h-176l-38 -78h214v-102z" />
    <glyph glyph-name="lessequal" unicode="&#x2264;" horiz-adv-x="666" 
d="M586 144l-506 170v108l506 177v-113l-359 -118l359 -112v-112zM586 4h-506v107h506v-107z" />
    <glyph glyph-name="greaterequal" unicode="&#x2265;" horiz-adv-x="666" 
d="M80 144v112l359 112l-359 118v113l506 -177v-108zM80 4v107h506v-107h-506z" />
    <glyph glyph-name="lozenge" unicode="&#x25ca;" horiz-adv-x="593" 
d="M524 356l-178 -391h-100l-177 391l177 391h100zM415 356l-119 285l-118 -285l118 -286z" />
    <glyph glyph-name="uniF6BE" unicode="&#xf6be;" horiz-adv-x="267" 
d="M133 -32q-20 -112 -68 -160t-134 -48q-29 0 -53 6l23 100q13 -4 32 -4q29 0 49.5 19.5t31.5 82.5l91 516h118z" />
    <glyph glyph-name="uniF6C3" unicode="&#xf6c3;" 
d="M216 -45l-123 -195h-98l107 195h114z" />
    <glyph glyph-name="uniF8FF" unicode="&#xf8ff;" horiz-adv-x="512" 
d="M222 117h56v67h-56v-67zM225 234h46q0 53 6 72t43 52q27 25 45 52t18 68q0 27 -12 58t-42.5 52t-69.5 21q-54 0 -91 -33.5t-44 -103.5l50 -8q6 48 28 71.5t54 23.5q31 0 53.5 -25t22.5 -60q0 -20 -10 -37t-40 -46q-31 -31 -46 -59q-13 -25 -13 -81zM462 50h-412v617h412
v-617zM512 718h-512v-718h512v718z" />
    <glyph glyph-name="Ccedilla.aalt" horiz-adv-x="580" 
d="M364 -138q0 -34 -19.5 -56t-53 -34t-71.5 -12q-27 0 -58.5 7.5t-50.5 18.5l27 48q35 -20 78 -20q33 0 49 11.5t16 29.5q0 36 -47 36q-20 0 -40 -6l-18 25l68 79q-94 13 -149.5 76t-55.5 158q0 68 24.5 129.5t69 107t105 71t128.5 25.5q65 0 117.5 -22.5t84.5 -63.5
l-94 -77q-17 27 -45.5 42.5t-65.5 15.5q-32 0 -66 -11.5t-66.5 -42.5t-48.5 -75t-16 -86q0 -28 12 -62.5t44.5 -58t79.5 -23.5q81 0 140 66l73 -76q-84 -93 -216 -96l-45 -51l20 2q23 0 45.5 -9.5t33.5 -27t11 -38.5z" />
    <glyph glyph-name="four.oldstyle" horiz-adv-x="593" 
d="M544 99l-18 -99h-105l-30 -170h-113l30 170h-315l18 105l344 456h133l-353 -462h188l40 231h112l-40 -231h109z" />
    <glyph glyph-name="Rcaron.aalt" horiz-adv-x="532" 
d="M487 397q0 -64 -35 -105.5t-98 -56.5l113 -235h-133l-94 214h-59l-37 -214h-120l96 542h177q93 0 141.5 -37.5t48.5 -107.5zM365 385q0 30 -21 46t-64 16h-58l-25 -139h55q53 0 83 19.5t30 57.5zM285 -45l-123 -195h-98l107 195h114z" />
    <glyph glyph-name="glyph378" 
d="M369 908q-11 -44 -37 -78t-66 -49.5t-84 -15.5q-72 0 -111.5 35.5t-39.5 107.5h66q0 -17 9 -33.5t31 -25t52 -8.5q58 0 81.5 19t33.5 48h65z" />
    <glyph glyph-name="five.oldstyle" horiz-adv-x="550" 
d="M524 546l-19 -105h-266l-43 -150q23 4 48 4q55 0 105 -21.5t76.5 -67t26.5 -101.5q0 -57 -20 -107.5t-60 -88.5t-101.5 -59t-140.5 -21q-69 0 -119 10l20 104q39 -10 91 -10q42 0 79 8t65.5 27t45 50.5t16.5 75.5q0 29 -13 55t-47 41t-79 15q-11 0 -47 -3t-81 -15l92 359
h371z" />
    <glyph glyph-name="D.aalt" horiz-adv-x="620" 
d="M573 313q0 -51 -16.5 -105t-51.5 -94.5t-75 -64.5t-89 -36.5t-102 -12.5h-215l96 542h193q51 0 97.5 -13t83 -41t58 -72.5t21.5 -102.5zM448 301q0 38 -16.5 72t-53.5 52.5t-85 18.5h-71l-61 -345h78q49 0 89 16t66.5 44t40 65t13.5 77z" />
    <glyph glyph-name="E.aalt" horiz-adv-x="502" 
d="M479 542l-17 -96h-240l-22 -122h228l-16 -92h-228l-24 -134h260l-17 -98h-379l97 542h358z" />
    <glyph glyph-name="G.aalt" horiz-adv-x="618" 
d="M568 470l-93 -78q-40 58 -113 58q-31 0 -65 -11.5t-63 -38.5t-49 -69.5t-20 -96.5q0 -37 16.5 -71t50.5 -52.5t74 -18.5q58 0 95 19l19 108h-107l15 90h224l-48 -272q-46 -24 -100.5 -37.5t-108.5 -13.5q-57 0 -104.5 17t-81.5 48.5t-52 75t-18 95.5q0 69 24.5 130.5
t69 107t104.5 71t128 25.5q48 0 90.5 -12.5t70 -33t42.5 -40.5z" />
    <glyph glyph-name="six.oldstyle" horiz-adv-x="613" 
d="M551 247q0 -54 -19.5 -103t-56.5 -85t-89.5 -56.5t-114.5 -20.5q-48 0 -90.5 14t-74 42t-49.5 70t-18 95q0 52 23 115.5t74.5 131t124 134t169.5 136.5l101 -59q-82 -52 -157.5 -117t-120.5 -123l3 -2q18 10 44.5 16.5t46.5 6.5q91 0 147.5 -54.5t56.5 -140.5zM431 238
q0 24 -11 52t-39.5 47t-63.5 19q-70 0 -115 -45.5t-45 -112.5q0 -51 34.5 -84.5t85.5 -33.5q69 0 111.5 44t42.5 114z" />
    <glyph glyph-name="H.aalt" horiz-adv-x="607" 
d="M571 542l-95 -542h-121l41 231h-210l-41 -231h-121l95 542h121l-38 -214h211l38 214h120z" />
    <glyph glyph-name="I.aalt" horiz-adv-x="279" 
d="M243 542l-97 -542h-122l97 542h122z" />
    <glyph glyph-name="glyph386" 
d="M180 753q-39 0 -64.5 25t-25.5 61q0 35 19 64.5t46 41t50 11.5q39 0 64 -24.5t25 -60.5t-18.5 -65.5t-45.5 -41t-50 -11.5zM245 862q0 20 -12.5 35t-32.5 15q-26 0 -43.5 -19.5t-17.5 -47.5q0 -20 12 -34t32 -14q27 0 44.5 18.5t17.5 46.5z" />
    <glyph glyph-name="seven.oldstyle" horiz-adv-x="537" 
d="M534 546l-18 -102q-106 -157 -216.5 -332t-178.5 -294l-121 30q72 117 190 297.5t196 295.5h-326l18 105h456z" />
    <glyph glyph-name="L.aalt" horiz-adv-x="444" 
d="M386 100l-17 -100h-345l97 542h121l-78 -442h222z" />
    <glyph glyph-name="M.aalt" horiz-adv-x="749" 
d="M713 542l-95 -542h-118l69 376h-3l-207 -376h-81l-71 377h-2l-66 -377h-115l96 542h159l71 -366h3l197 366h163z" />
    <glyph glyph-name="o.sc" horiz-adv-x="669" 
d="M622 318q0 -66 -24 -127t-68.5 -107t-104.5 -72t-128 -26q-58 0 -106 17t-82 48.5t-52 76t-18 96.5q0 67 25 128t69.5 106.5t105 71.5t127.5 26q116 0 186 -66t70 -172zM497 310q0 28 -12.5 61.5t-46 56.5t-81.5 23q-31 0 -64 -12t-61.5 -39.5t-48 -70t-19.5 -94.5
q0 -27 11.5 -61t46 -58t82.5 -24q32 0 65.5 12t61.5 40t47 70.5t19 95.5z" />
    <glyph glyph-name="eight.oldstyle" horiz-adv-x="613" 
d="M567 554q0 -36 -14.5 -73t-50.5 -66.5t-79 -43.5l1 -2q33 -11 60.5 -37t38 -57t10.5 -56q0 -55 -20.5 -99.5t-57.5 -75t-86 -46.5t-104 -16q-65 0 -115 23.5t-78.5 65.5t-28.5 102q0 50 23 95t64.5 73t83.5 37v3q-40 17 -64 53t-24 80q0 48 19 88t52.5 67.5t76.5 42
t90 14.5q52 0 100.5 -19t75.5 -60t27 -93zM454 535q0 45 -27.5 70.5t-72.5 25.5q-24 0 -52 -12t-47.5 -41.5t-19.5 -65.5q0 -28 15 -51.5t37.5 -32.5t43.5 -9q24 0 53 12t49.5 41.5t20.5 62.5zM417 219q0 34 -17.5 60t-43 36t-48.5 10q-64 0 -107 -39.5t-43 -99.5
q0 -49 32.5 -78.5t79.5 -29.5q68 0 107.5 40t39.5 101z" />
    <glyph glyph-name="P.aalt" horiz-adv-x="511" 
d="M486 390q0 -86 -58.5 -135t-164.5 -49h-81l-37 -206h-121l96 542h173q94 0 143.5 -40.5t49.5 -111.5zM365 379q0 31 -21.5 49.5t-60.5 18.5h-59l-26 -148h58q53 0 81 22t28 58z" />
    <glyph glyph-name="Q.aalt" horiz-adv-x="669" 
d="M609 327q0 -74 -29 -130.5t-81 -93.5v-2h114l-17 -101h-302q-116 0 -185.5 63t-69.5 169q0 66 24.5 125.5t68.5 104t102 69.5t122 25q55 0 102 -16t81 -46t52 -73t18 -94zM484 317q0 59 -37 95t-101 36q-29 0 -60 -11.5t-61.5 -42t-46 -73t-15.5 -82.5q0 -64 38 -101
t101 -37q48 0 92 29.5t67 82t23 104.5z" />
    <glyph glyph-name="glyph394" 
d="M486 908l-166 -144h-93l125 144h134zM281 908l-166 -144h-92l124 144h134z" />
    <glyph glyph-name="nine.oldstyle" horiz-adv-x="613" 
d="M558 340q0 -70 -37.5 -150t-125 -174t-234.5 -199l-97 64q84 54 160.5 118.5t120.5 123.5l-3 2q-18 -11 -44.5 -17.5t-46.5 -6.5q-91 0 -147.5 54.5t-56.5 140.5q0 54 19.5 103t56.5 85t89 56.5t114 20.5q74 0 126 -29t79 -77.5t27 -114.5zM441 345q0 24 -11.5 52
t-41.5 47.5t-67 19.5q-70 0 -112 -44.5t-42 -114.5q0 -24 11 -51.5t39.5 -46.5t63.5 -19q70 0 115 45t45 112z" />
    <glyph glyph-name="T.aalt" horiz-adv-x="451" 
d="M483 542l-18 -97h-156l-79 -445h-120l78 445h-156l17 97h434z" />
    <glyph glyph-name="U.aalt" horiz-adv-x="591" 
d="M563 542l-59 -333q-8 -48 -27.5 -88.5t-51 -70.5t-77 -47t-101.5 -17q-91 0 -145.5 47t-54.5 123q0 22 4 47l61 339h120l-58 -328q-3 -16 -3 -37q0 -37 22 -60.5t62 -23.5q36 0 62 15.5t44 45.5t26 72l55 316h121z" />
    <glyph glyph-name="W.aalt" horiz-adv-x="802" 
d="M845 542l-266 -542h-126l-40 375h-1l-182 -375h-126l-59 542h125l30 -379h3l177 379h123l37 -379h2l173 379h130z" />
    <glyph glyph-name="zero.sc" horiz-adv-x="523" 
d="M469 360q0 -78 -21 -150t-56 -124t-81.5 -76t-94.5 -24q-57 0 -99 24t-60.5 69.5t-18.5 97.5q0 61 13.5 118.5t33.5 102.5t50 80.5t71 56.5t88 21q56 0 94 -23t59.5 -66t21.5 -107zM348 354q0 44 -16 72t-47 28q-25 0 -48 -23.5t-41 -63.5t-27.5 -88.5t-9.5 -90.5
q0 -45 15.5 -71.5t46.5 -26.5q18 0 39.5 15.5t40.5 50.5t33 87t14 111z" />
    <glyph glyph-name="X.aalt" horiz-adv-x="549" 
d="M576 542l-235 -262l138 -280h-138l-87 194l-164 -194h-150l257 286l-125 256h136l77 -176l145 176h146z" />
    <glyph glyph-name="Y.aalt" horiz-adv-x="484" 
d="M545 542l-264 -317l-40 -225h-120l40 227l-136 315h131l82 -219l166 219h141z" />
    <glyph glyph-name="glyph402" 
d="M262 845q0 -29 -21 -51t-50 -22t-49.5 19t-20.5 50q0 30 22 51.5t51 21.5t48.5 -19.5t19.5 -49.5z" />
    <glyph glyph-name="one.sc" horiz-adv-x="523" 
d="M394 542l-97 -542h-119l71 396l-106 -71l-53 86l195 131h109z" />
    <glyph glyph-name="Aacute.aalt" horiz-adv-x="564" 
d="M515 0h-127l-20 115h-220l-71 -115h-134l351 542h113zM354 208l-33 200l-119 -200h152zM554 738l-165 -144h-93l125 144h133z" />
    <glyph glyph-name="Acircumflex.aalt" horiz-adv-x="564" 
d="M515 0h-127l-20 115h-220l-71 -115h-134l351 542h113zM354 208l-33 200l-119 -200h152zM539 594h-108l-54 91l-86 -91h-112l140 144h132z" />
    <glyph glyph-name="Adieresis.aalt" horiz-adv-x="564" 
d="M515 0h-127l-20 115h-220l-71 -115h-134l351 542h113zM354 208l-33 200l-119 -200h152zM337 676q0 -29 -20 -50t-49 -21t-48.5 18t-19.5 49q0 30 21 50.5t50 20.5t47.5 -18.5t18.5 -48.5zM535 676q0 -29 -20 -50t-49 -21t-48.5 18t-19.5 49q0 30 21 50.5t50 20.5
t47.5 -18.5t18.5 -48.5z" />
    <glyph glyph-name="two.sc" horiz-adv-x="523" 
d="M467 406q0 -42 -21.5 -83.5t-98.5 -103.5l-152 -120h229l-18 -99h-387l17 96l243 198q35 29 51.5 53t16.5 50t-17 42.5t-45 16.5q-32 0 -57 -21.5t-37 -59.5l-107 25q24 73 80.5 114.5t128.5 41.5q78 0 126 -41.5t48 -108.5z" />
    <glyph glyph-name="Aring.aalt" horiz-adv-x="564" 
d="M515 0h-127l-20 115h-220l-71 -115h-134l351 542h113zM354 208l-33 200l-119 -200h152zM355 583q-39 0 -64.5 25t-25.5 61q0 35 19 64.5t46 41t50 11.5q39 0 64 -24.5t25 -60.5t-18.5 -65.5t-45.5 -41t-50 -11.5zM420 692q0 20 -12.5 35t-32.5 15q-26 0 -43.5 -19.5
t-17.5 -47.5q0 -20 12 -34t32 -14q27 0 44.5 18.5t17.5 46.5z" />
    <glyph glyph-name="Amacron.aalt" horiz-adv-x="564" 
d="M515 0h-127l-20 115h-220l-71 -115h-134l351 542h113zM354 208l-33 200l-119 -200h152zM517 625h-317l13 77h318z" />
    <glyph glyph-name="glyph410" 
d="M279 708l-123 -195h-98l107 195h114z" />
    <glyph glyph-name="three.sc" horiz-adv-x="523" 
d="M454 414q0 -23 -11 -51t-38 -50.5t-60 -30.5v-2q38 -11 60.5 -42.5t22.5 -69.5q0 -84 -57.5 -133t-150.5 -49q-51 0 -95.5 20.5t-67 51t-30.5 61.5l110 35q7 -34 31 -51t56 -17q39 0 62 22.5t23 59.5q0 34 -25 52t-66 18h-35l15 89h35q50 0 76.5 21t26.5 57
q0 25 -17.5 40t-43.5 15q-54 0 -85 -57l-93 47q30 52 79 79t107 27q74 0 122.5 -39t48.5 -103z" />
    <glyph glyph-name="AE.aalt" horiz-adv-x="851" 
d="M828 542l-17 -96h-240l-21 -122h228l-17 -92h-227l-25 -134h260l-17 -98h-378l22 125h-195l-97 -125h-140l426 542h438zM453 445l-10 1l-176 -229h145z" />
    <glyph glyph-name="Cacute.aalt" horiz-adv-x="580" 
d="M568 470l-94 -77q-17 27 -45.5 42.5t-65.5 15.5q-32 0 -66 -11.5t-66.5 -42.5t-48.5 -75t-16 -86q0 -28 12 -62.5t44.5 -58t79.5 -23.5q81 0 140 66l73 -76q-85 -96 -225 -96q-56 0 -103 17t-80 48.5t-50.5 75.5t-17.5 96q0 68 24.5 129.5t69 107t105 71t128.5 25.5
q65 0 117.5 -22.5t84.5 -63.5zM554 738l-165 -144h-93l125 144h133z" />
    <glyph glyph-name="Ccaron.aalt" horiz-adv-x="580" 
d="M568 470l-94 -77q-17 27 -45.5 42.5t-65.5 15.5q-32 0 -66 -11.5t-66.5 -42.5t-48.5 -75t-16 -86q0 -28 12 -62.5t44.5 -58t79.5 -23.5q81 0 140 66l73 -76q-85 -96 -225 -96q-56 0 -103 17t-80 48.5t-50.5 75.5t-17.5 96q0 68 24.5 129.5t69 107t105 71t128.5 25.5
q65 0 117.5 -22.5t84.5 -63.5zM573 738l-140 -144h-131l-88 144h109l53 -91l86 91h111z" />
    <glyph glyph-name="four.sc" horiz-adv-x="523" 
d="M466 205l-17 -96h-75l-19 -109h-111l20 109h-246l19 103l267 330h146l-59 -337h75zM322 424h-2l-165 -219h125z" />
    <glyph glyph-name="Cdotaccent.aalt" horiz-adv-x="580" 
d="M568 470l-94 -77q-17 27 -45.5 42.5t-65.5 15.5q-32 0 -66 -11.5t-66.5 -42.5t-48.5 -75t-16 -86q0 -28 12 -62.5t44.5 -58t79.5 -23.5q81 0 140 66l73 -76q-85 -96 -225 -96q-56 0 -103 17t-80 48.5t-50.5 75.5t-17.5 96q0 68 24.5 129.5t69 107t105 71t128.5 25.5
q65 0 117.5 -22.5t84.5 -63.5zM455 675q0 -29 -21 -51t-50 -22t-49.5 19t-20.5 50q0 30 22 51.5t51 21.5t48.5 -19.5t19.5 -49.5z" />
    <glyph glyph-name="Uogonek.aalt" horiz-adv-x="591" 
d="M319 -201q-55 -38 -106 -38q-40 0 -63.5 20.5t-23.5 59.5q0 28 23.5 64.5t83.5 81.5q-85 4 -135.5 50.5t-50.5 118.5q0 22 4 47l61 339h120l-58 -328q-3 -16 -3 -37q0 -37 22 -60.5t62 -23.5q36 0 62 15.5t44 45.5t26 72l55 316h121l-59 -333q-16 -88 -66.5 -146.5
t-137.5 -72.5q-93 -76 -93 -129q0 -35 40 -35q28 0 56 21z" />
    <glyph glyph-name="question.aalt" horiz-adv-x="450" 
d="M417 418q0 -43 -22 -77t-69 -64q-29 -18 -46.5 -33.5t-21.5 -40.5l-2 -14h-113l4 27q8 61 73 106l30 20q21 15 35.5 30.5t14.5 38.5q0 20 -15.5 33t-38.5 13q-24 0 -43 -15t-27 -46l-109 19q14 65 64 103t122 38q42 0 81.5 -16t61 -49t21.5 -73zM263 70q0 -31 -22.5 -54
t-53.5 -23q-32 0 -52 19t-20 50q0 32 22.5 54.5t53.5 22.5t51.5 -19.5t20.5 -49.5z" />
    <glyph glyph-name="five.sc" horiz-adv-x="523" 
d="M462 542l-18 -98h-206l-22 -99q27 8 54 8q24 0 52 -6.5t53 -24t43.5 -49.5t18.5 -80q0 -35 -11 -71.5t-37.5 -66.5t-68.5 -49.5t-98 -19.5q-53 0 -96 19.5t-66.5 50t-32.5 57.5l107 40q10 -32 35.5 -50t52.5 -18q44 0 69.5 27.5t25.5 71.5q0 37 -25 58.5t-66 21.5
q-30 0 -69.5 -11.5t-68.5 -27.5l65 317h309z" />
    <glyph glyph-name="Eth.aalt" horiz-adv-x="620" 
d="M24 0l43 245h-64l15 81h64l38 216h194q77 0 135.5 -28.5t91 -79t32.5 -122.5q0 -68 -25 -126.5t-70.5 -100t-107 -63.5t-130.5 -22h-216zM222 444l-21 -118h120l-15 -81h-119l-26 -146h77q50 0 90 15.5t66.5 43t40 64t13.5 77.5q0 27 -7.5 51t-22.5 43.5t-45.5 35
t-79.5 15.5h-71z" />
    <glyph glyph-name="Egrave.aalt" horiz-adv-x="502" 
d="M479 542l-17 -96h-240l-22 -122h228l-16 -92h-228l-24 -134h260l-17 -98h-379l97 542h358zM269 738l99 -144h-90l-141 144h132z" />
    <glyph glyph-name="Ecircumflex.aalt" horiz-adv-x="502" 
d="M479 542l-17 -96h-240l-22 -122h228l-16 -92h-228l-24 -134h260l-17 -98h-379l97 542h358zM485 594h-108l-54 91l-86 -91h-112l140 144h132z" />
    <glyph glyph-name="six.sc" horiz-adv-x="523" 
d="M447 191q0 -40 -15.5 -77.5t-44.5 -66t-70.5 -45t-91.5 -16.5q-52 0 -98.5 19.5t-71 62t-24.5 96.5q0 39 18.5 86t76.5 118l144 174h149l-182 -200l1 -3q18 9 50 9q71 0 115 -44.5t44 -112.5zM328 186q0 33 -22.5 55.5t-53.5 22.5q-21 0 -45.5 -10t-41 -35t-16.5 -56
q0 -34 23 -57t56 -23q21 0 45 9.5t39.5 35t15.5 58.5z" />
    <glyph glyph-name="Ecaron.aalt" horiz-adv-x="502" 
d="M479 542l-17 -96h-240l-22 -122h228l-16 -92h-228l-24 -134h260l-17 -98h-379l97 542h358zM511 738l-140 -144h-131l-88 144h109l53 -91l86 91h111z" />
    <glyph glyph-name="Edieresis.aalt" horiz-adv-x="502" 
d="M479 542l-17 -96h-240l-22 -122h228l-16 -92h-228l-24 -134h260l-17 -98h-379l97 542h358zM281 676q0 -29 -20 -50t-49 -21t-48.5 18t-19.5 49q0 30 21 50.5t50 20.5t47.5 -18.5t18.5 -48.5zM479 676q0 -29 -20 -50t-49 -21t-48.5 18t-19.5 49q0 30 21 50.5t50 20.5
t47.5 -18.5t18.5 -48.5z" />
    <glyph glyph-name="glyph426" 
d="M64 564l123 195h98l-107 -195h-114z" />
    <glyph glyph-name="seven.sc" horiz-adv-x="523" 
d="M488 542l-18 -97l-295 -445h-138l305 442h-244l17 100h373z" />
    <glyph glyph-name="Ebreve.aalt" horiz-adv-x="502" 
d="M479 542l-17 -96h-240l-22 -122h228l-16 -92h-228l-24 -134h260l-17 -98h-379l97 542h358zM490 738q-11 -44 -37 -78t-66 -49.5t-84 -15.5q-72 0 -111.5 35.5t-39.5 107.5h66q0 -17 9 -33.5t31 -25t52 -8.5q58 0 81.5 19t33.5 48h65z" />
    <glyph glyph-name="Eogonek.aalt" horiz-adv-x="502" 
d="M392 -201q-55 -38 -106 -38q-40 0 -63.5 20.5t-23.5 59.5q0 71 126 159h-301l97 542h358l-17 -96h-240l-22 -122h228l-16 -92h-228l-24 -134h260l-17 -98h-18q-105 -85 -105 -139q0 -35 40 -35q28 0 56 21z" />
    <glyph glyph-name="Gdotaccent.aalt" horiz-adv-x="618" 
d="M568 470l-93 -78q-40 58 -113 58q-31 0 -65 -11.5t-63 -38.5t-49 -69.5t-20 -96.5q0 -37 16.5 -71t50.5 -52.5t74 -18.5q58 0 95 19l19 108h-107l15 90h224l-48 -272q-46 -24 -100.5 -37.5t-108.5 -13.5q-57 0 -104.5 17t-81.5 48.5t-52 75t-18 95.5q0 69 24.5 130.5
t69 107t104.5 71t128 25.5q48 0 90.5 -12.5t70 -33t42.5 -40.5zM454 675q0 -29 -21 -51t-50 -22t-49.5 19t-20.5 50q0 30 22 51.5t51 21.5t48.5 -19.5t19.5 -49.5z" />
    <glyph glyph-name="eight.sc" horiz-adv-x="523" 
d="M463 423q0 -30 -12 -59t-38 -50.5t-57 -31.5v-2q33 -12 57 -43.5t24 -70.5q0 -40 -16 -73.5t-45.5 -57t-69.5 -36.5t-86 -13q-29 0 -62.5 7.5t-61 26t-44 48t-16.5 69.5q0 43 22.5 79t52.5 53t53 22v3q-27 14 -45.5 41t-18.5 61q0 48 24.5 83.5t68.5 56t101 20.5
q30 0 70 -10.5t69.5 -42t29.5 -80.5zM350 407q0 26 -18 42t-46 16q-33 0 -54.5 -21.5t-21.5 -52.5q0 -26 17.5 -42t44.5 -16q33 0 55.5 20t22.5 54zM320 168q0 31 -20.5 50.5t-51.5 19.5q-19 0 -41 -8.5t-37.5 -30t-15.5 -49.5q0 -17 7.5 -33.5t25.5 -26.5t39 -10
q44 0 69 25t25 63z" />
    <glyph glyph-name="Gbreve.aalt" horiz-adv-x="618" 
d="M568 470l-93 -78q-40 58 -113 58q-31 0 -65 -11.5t-63 -38.5t-49 -69.5t-20 -96.5q0 -37 16.5 -71t50.5 -52.5t74 -18.5q58 0 95 19l19 108h-107l15 90h224l-48 -272q-46 -24 -100.5 -37.5t-108.5 -13.5q-57 0 -104.5 17t-81.5 48.5t-52 75t-18 95.5q0 69 24.5 130.5
t69 107t104.5 71t128 25.5q48 0 90.5 -12.5t70 -33t42.5 -40.5zM551 738q-11 -44 -37 -78t-66 -49.5t-84 -15.5q-72 0 -111.5 35.5t-39.5 107.5h66q0 -17 9 -33.5t31 -25t52 -8.5q58 0 81.5 19t33.5 48h65z" />
    <glyph glyph-name="uni0122.aalt" horiz-adv-x="618" 
d="M568 470l-93 -78q-40 58 -113 58q-31 0 -65 -11.5t-63 -38.5t-49 -69.5t-20 -96.5q0 -37 16.5 -71t50.5 -52.5t74 -18.5q58 0 95 19l19 108h-107l15 90h224l-48 -272q-46 -24 -100.5 -37.5t-108.5 -13.5q-57 0 -104.5 17t-81.5 48.5t-52 75t-18 95.5q0 69 24.5 130.5
t69 107t104.5 71t128 25.5q48 0 90.5 -12.5t70 -33t42.5 -40.5zM338 -45l-123 -195h-98l107 195h114z" />
    <glyph glyph-name="glyph434" 
d="M147 738l99 -144h-90l-141 144h132z" />
    <glyph glyph-name="nine.sc" horiz-adv-x="523" 
d="M469 381q0 -38 -17 -84.5t-73 -113.5l-149 -183h-149l182 203l-1 3q-19 -8 -49 -8q-71 0 -114 43.5t-43 110.5q0 40 15.5 77t44.5 65.5t70.5 45t90.5 16.5q41 0 76 -11.5t61 -33.5t40.5 -55.5t14.5 -74.5zM352 381q0 33 -22.5 56t-55.5 23q-45 0 -72.5 -29t-27.5 -74
q0 -33 22.5 -55.5t53.5 -22.5q32 0 57.5 17.5t35 41t9.5 43.5z" />
    <glyph glyph-name="Igrave.aalt" horiz-adv-x="279" 
d="M243 542l-97 -542h-122l97 542h122zM144 738l99 -144h-90l-141 144h132z" />
    <glyph glyph-name="Iacute.aalt" horiz-adv-x="279" 
d="M243 542l-97 -542h-122l97 542h122zM383 738l-165 -144h-93l125 144h133z" />
    <glyph glyph-name="Itilde.aalt" horiz-adv-x="279" 
d="M243 542l-97 -542h-122l97 542h122zM71 598h-66q43 125 135 125q39 0 75 -18q40 -19 62 -19q33 0 53 44h66q-43 -125 -134 -125q-33 0 -69 17q-44 21 -68 21q-31 0 -54 -45z" />
    <glyph glyph-name="glyph439" 
d="M147 908l99 -144h-90l-141 144h132z" />
    <glyph glyph-name="Idieresis.aalt" horiz-adv-x="279" 
d="M243 542l-97 -542h-122l97 542h122zM170 676q0 -29 -20 -50t-49 -21t-48.5 18t-19.5 49q0 30 21 50.5t50 20.5t47.5 -18.5t18.5 -48.5zM368 676q0 -29 -20 -50t-49 -21t-48.5 18t-19.5 49q0 30 21 50.5t50 20.5t47.5 -18.5t18.5 -48.5z" />
    <glyph glyph-name="Imacron.aalt" horiz-adv-x="279" 
d="M243 542l-97 -542h-122l97 542h122zM351 625h-317l13 77h318z" />
    <glyph glyph-name="glyph442" 
d="M385 738l-165 -144h-93l125 144h133z" />
    <glyph glyph-name="glyph443" 
d="M385 908l-165 -144h-93l125 144h133z" />
    <glyph glyph-name="Jcircumflex.aalt" horiz-adv-x="430" 
d="M401 542l-64 -368q-17 -97 -63 -142.5t-126 -45.5q-64 0 -108 38t-57 101l109 33q6 -31 21.5 -48t36.5 -17q30 0 45.5 21t22.5 64l63 364h120zM526 594h-108l-54 91l-86 -91h-112l140 144h132z" />
    <glyph glyph-name="uni0136.aalt" horiz-adv-x="563" 
d="M593 542l-283 -258l203 -284h-149l-173 258h-2l-44 -258h-121l97 542h119l-41 -227h3l231 227h160zM301 -45l-123 -195h-98l107 195h114z" />
    <glyph glyph-name="Lcaron.aalt" horiz-adv-x="461" 
d="M386 100l-17 -100h-345l97 542h121l-78 -442h222zM481 542l-123 -195h-98l107 195h114z" />
    <glyph glyph-name="glyph447" 
d="M355 764h-108l-54 91l-86 -91h-112l140 144h132z" />
    <glyph glyph-name="uni013B.aalt" horiz-adv-x="444" 
d="M386 100l-17 -100h-345l97 542h121l-78 -442h222zM253 -45l-123 -195h-98l107 195h114z" />
    <glyph glyph-name="Ldot.aalt" horiz-adv-x="444" 
d="M386 100l-17 -100h-345l97 542h121l-78 -442h222zM425 295q0 -29 -21 -51t-50 -22t-49.5 19t-20.5 50q0 30 22 51.5t51 21.5t48.5 -19.5t19.5 -49.5z" />
    <glyph glyph-name="glyph450" 
d="M355 594h-108l-54 91l-86 -91h-112l140 144h132z" />
    <glyph glyph-name="glyph451" 
d="M380 908l-140 -144h-131l-88 144h109l53 -91l86 91h111z" />
    <glyph glyph-name="Ncaron.aalt" horiz-adv-x="636" 
d="M600 542l-97 -542h-138l-155 371h-2l-65 -371h-119l96 542h138l156 -369h2l65 369h119zM570 738l-140 -144h-131l-88 144h109l53 -91l86 91h111z" />
    <glyph glyph-name="Ntilde.aalt" horiz-adv-x="636" 
d="M600 542l-97 -542h-138l-155 371h-2l-65 -371h-119l96 542h138l156 -369h2l65 369h119zM252 598h-66q43 125 135 125q39 0 75 -18q40 -19 62 -19q33 0 53 44h66q-43 -125 -134 -125q-33 0 -69 17q-44 21 -68 21q-31 0 -54 -45z" />
    <glyph glyph-name="Ograve.aalt" horiz-adv-x="669" 
d="M622 318q0 -66 -24 -127t-68.5 -107t-104.5 -72t-128 -26q-58 0 -106 17t-82 48.5t-52 76t-18 96.5q0 67 25 128t69.5 106.5t105 71.5t127.5 26q116 0 186 -66t70 -172zM497 310q0 28 -12.5 61.5t-46 56.5t-81.5 23q-31 0 -64 -12t-61.5 -39.5t-48 -70t-19.5 -94.5
q0 -27 11.5 -61t46 -58t82.5 -24q32 0 65.5 12t61.5 40t47 70.5t19 95.5zM337 738l99 -144h-90l-141 144h132z" />
    <glyph glyph-name="glyph455" 
d="M59 768h-66q43 125 135 125q39 0 75 -18q40 -19 62 -19q33 0 53 44h66q-43 -125 -134 -125q-33 0 -69 17q-44 21 -68 21q-31 0 -54 -45z" />
    <glyph glyph-name="Oacute.aalt" horiz-adv-x="669" 
d="M622 318q0 -66 -24 -127t-68.5 -107t-104.5 -72t-128 -26q-58 0 -106 17t-82 48.5t-52 76t-18 96.5q0 67 25 128t69.5 106.5t105 71.5t127.5 26q116 0 186 -66t70 -172zM497 310q0 28 -12.5 61.5t-46 56.5t-81.5 23q-31 0 -64 -12t-61.5 -39.5t-48 -70t-19.5 -94.5
q0 -27 11.5 -61t46 -58t82.5 -24q32 0 65.5 12t61.5 40t47 70.5t19 95.5zM552 738l-165 -144h-93l125 144h133z" />
    <glyph glyph-name="Ocircumflex.aalt" horiz-adv-x="669" 
d="M622 318q0 -66 -24 -127t-68.5 -107t-104.5 -72t-128 -26q-58 0 -106 17t-82 48.5t-52 76t-18 96.5q0 67 25 128t69.5 106.5t105 71.5t127.5 26q116 0 186 -66t70 -172zM497 310q0 28 -12.5 61.5t-46 56.5t-81.5 23q-31 0 -64 -12t-61.5 -39.5t-48 -70t-19.5 -94.5
q0 -27 11.5 -61t46 -58t82.5 -24q32 0 65.5 12t61.5 40t47 70.5t19 95.5zM569 594h-108l-54 91l-86 -91h-112l140 144h132z" />
    <glyph glyph-name="glyph458" 
d="M380 738l-140 -144h-131l-88 144h109l53 -91l86 91h111z" />
    <glyph glyph-name="glyph459" 
d="M158 846q0 -29 -20 -50t-49 -21t-48.5 18t-19.5 49q0 30 21 50.5t50 20.5t47.5 -18.5t18.5 -48.5zM356 846q0 -29 -20 -50t-49 -21t-48.5 18t-19.5 49q0 30 21 50.5t50 20.5t47.5 -18.5t18.5 -48.5z" />
    <glyph glyph-name="Omacron.aalt" horiz-adv-x="669" 
d="M622 318q0 -66 -24 -127t-68.5 -107t-104.5 -72t-128 -26q-58 0 -106 17t-82 48.5t-52 76t-18 96.5q0 67 25 128t69.5 106.5t105 71.5t127.5 26q116 0 186 -66t70 -172zM497 310q0 28 -12.5 61.5t-46 56.5t-81.5 23q-31 0 -64 -12t-61.5 -39.5t-48 -70t-19.5 -94.5
q0 -27 11.5 -61t46 -58t82.5 -24q32 0 65.5 12t61.5 40t47 70.5t19 95.5zM549 625h-317l13 77h318z" />
    <glyph glyph-name="Obreve.aalt" horiz-adv-x="669" 
d="M622 318q0 -66 -24 -127t-68.5 -107t-104.5 -72t-128 -26q-58 0 -106 17t-82 48.5t-52 76t-18 96.5q0 67 25 128t69.5 106.5t105 71.5t127.5 26q116 0 186 -66t70 -172zM497 310q0 28 -12.5 61.5t-46 56.5t-81.5 23q-31 0 -64 -12t-61.5 -39.5t-48 -70t-19.5 -94.5
q0 -27 11.5 -61t46 -58t82.5 -24q32 0 65.5 12t61.5 40t47 70.5t19 95.5zM567 738q-11 -44 -37 -78t-66 -49.5t-84 -15.5q-72 0 -111.5 35.5t-39.5 107.5h66q0 -17 9 -33.5t31 -25t52 -8.5q58 0 81.5 19t33.5 48h65z" />
    <glyph glyph-name="Oslash.aalt" horiz-adv-x="669" 
d="M622 318q0 -66 -24 -127t-68.5 -107t-104.5 -72t-128 -26q-53 0 -99 14.5t-79 41.5l-78 -69l-39 45l76 68q-39 57 -39 138q0 67 25 128t69.5 106.5t105 71.5t127.5 26q52 0 97.5 -15t77.5 -41l79 70l41 -44l-79 -71q40 -57 40 -137zM164 235q0 -36 13 -65l275 248
q-17 15 -42.5 24t-52.5 9q-31 0 -64 -12t-61.5 -39.5t-48 -70t-19.5 -94.5zM497 310q0 30 -12 61l-276 -246q38 -33 95 -33q32 0 65.5 12t61.5 40t47 70.5t19 95.5z" />
    <glyph glyph-name="glyph463" 
d="M339 795h-317l13 77h318z" />
    <glyph glyph-name="OE.aalt" horiz-adv-x="798" 
d="M299 0q-51 0 -97.5 13t-83 41t-58 72.5t-21.5 102.5q0 51 16.5 105t51.5 94.5t75 64.5t89 36.5t102 12.5h402l-17 -96h-240l-22 -122h228l-16 -92h-228l-24 -134h260l-17 -98h-400zM373 443q-49 0 -89 -16t-66.5 -44t-40 -65t-13.5 -77q0 -38 16.5 -72t53.5 -52.5
t85 -18.5h20l62 345h-28z" />
    <glyph glyph-name="Racute.aalt" horiz-adv-x="532" 
d="M487 397q0 -64 -35 -105.5t-98 -56.5l113 -235h-133l-94 214h-59l-37 -214h-120l96 542h177q93 0 141.5 -37.5t48.5 -107.5zM365 385q0 30 -21 46t-64 16h-58l-25 -139h55q53 0 83 19.5t30 57.5zM481 738l-165 -144h-93l125 144h133z" />
    <glyph glyph-name="glyph466" 
d="M59 598h-66q43 125 135 125q39 0 75 -18q40 -19 62 -19q33 0 53 44h66q-43 -125 -134 -125q-33 0 -69 17q-44 21 -68 21q-31 0 -54 -45z" />
    <glyph glyph-name="Sacute.aalt" horiz-adv-x="473" 
d="M447 480l-85 -71q-31 48 -92 48q-18 0 -38.5 -6.5t-34.5 -23.5t-14 -39q0 -17 11 -31.5t58 -30.5q82 -27 117 -65.5t35 -95.5q0 -83 -61.5 -131t-158.5 -48q-65 0 -117 24.5t-82 65.5l91 71q17 -29 48.5 -44.5t63.5 -15.5q45 0 68 19t23 50q0 20 -15 38t-71 38
q-71 24 -101.5 59t-30.5 88q0 29 11 60t38 57t69.5 43t98.5 17q57 0 102 -22t67 -54zM456 738l-165 -144h-93l125 144h133z" />
    <glyph glyph-name="F.aalt" horiz-adv-x="482" 
d="M473 542l-17 -96h-233l-23 -132h217l-16 -95h-217l-39 -219h-121l96 542h353z" />
    <glyph glyph-name="Scaron.aalt" horiz-adv-x="473" 
d="M447 480l-85 -71q-31 48 -92 48q-18 0 -38.5 -6.5t-34.5 -23.5t-14 -39q0 -17 11 -31.5t58 -30.5q82 -27 117 -65.5t35 -95.5q0 -83 -61.5 -131t-158.5 -48q-65 0 -117 24.5t-82 65.5l91 71q17 -29 48.5 -44.5t63.5 -15.5q45 0 68 19t23 50q0 20 -15 38t-71 38
q-71 24 -101.5 59t-30.5 88q0 29 11 60t38 57t69.5 43t98.5 17q57 0 102 -22t67 -54zM487 738l-140 -144h-131l-88 144h109l53 -91l86 91h111z" />
    <glyph glyph-name="K.aalt" horiz-adv-x="563" 
d="M593 542l-283 -258l203 -284h-149l-173 258h-2l-44 -258h-121l97 542h119l-41 -227h3l231 227h160z" />
    <glyph glyph-name="uni0218.aalt" horiz-adv-x="473" 
d="M447 480l-85 -71q-31 48 -92 48q-18 0 -38.5 -6.5t-34.5 -23.5t-14 -39q0 -17 11 -31.5t58 -30.5q82 -27 117 -65.5t35 -95.5q0 -83 -61.5 -131t-158.5 -48q-65 0 -117 24.5t-82 65.5l91 71q17 -29 48.5 -44.5t63.5 -15.5q45 0 68 19t23 50q0 20 -15 38t-71 38
q-71 24 -101.5 59t-30.5 88q0 29 11 60t38 57t69.5 43t98.5 17q57 0 102 -22t67 -54zM255 -45l-123 -195h-98l107 195h114z" />
    <glyph glyph-name="N.aalt" horiz-adv-x="636" 
d="M600 542l-97 -542h-138l-155 371h-2l-65 -371h-119l96 542h138l156 -369h2l65 369h119z" />
    <glyph glyph-name="Tcaron.aalt" horiz-adv-x="451" 
d="M483 542l-18 -97h-156l-79 -445h-120l78 445h-156l17 97h434zM476 738l-140 -144h-131l-88 144h109l53 -91l86 91h111z" />
    <glyph glyph-name="glyph474" 
d="M158 676q0 -29 -20 -50t-49 -21t-48.5 18t-19.5 49q0 30 21 50.5t50 20.5t47.5 -18.5t18.5 -48.5zM356 676q0 -29 -20 -50t-49 -21t-48.5 18t-19.5 49q0 30 21 50.5t50 20.5t47.5 -18.5t18.5 -48.5z" />
    <glyph glyph-name="Tbar.aalt" horiz-adv-x="451" 
d="M393 350l-14 -75h-100l-49 -275h-120l48 275h-102l14 75h101l17 95h-156l17 97h434l-18 -97h-156l-17 -95h101z" />
    <glyph glyph-name="V.aalt" horiz-adv-x="523" 
d="M572 542l-331 -542h-116l-85 542h125l49 -390h2l227 390h129z" />
    <glyph glyph-name="Ugrave.aalt" horiz-adv-x="591" 
d="M563 542l-59 -333q-8 -48 -27.5 -88.5t-51 -70.5t-77 -47t-101.5 -17q-91 0 -145.5 47t-54.5 123q0 22 4 47l61 339h120l-58 -328q-3 -16 -3 -37q0 -37 22 -60.5t62 -23.5q36 0 62 15.5t44 45.5t26 72l55 316h121zM306 738l99 -144h-90l-141 144h132z" />
    <glyph glyph-name="Agrave.aalt" horiz-adv-x="564" 
d="M515 0h-127l-20 115h-220l-71 -115h-134l351 542h113zM354 208l-33 200l-119 -200h152zM305 738l99 -144h-90l-141 144h132z" />
    <glyph glyph-name="Ucircumflex.aalt" horiz-adv-x="591" 
d="M563 542l-59 -333q-8 -48 -27.5 -88.5t-51 -70.5t-77 -47t-101.5 -17q-91 0 -145.5 47t-54.5 123q0 22 4 47l61 339h120l-58 -328q-3 -16 -3 -37q0 -37 22 -60.5t62 -23.5q36 0 62 15.5t44 45.5t26 72l55 316h121zM528 594h-108l-54 91l-86 -91h-112l140 144h132z" />
    <glyph glyph-name="Atilde.aalt" horiz-adv-x="564" 
d="M515 0h-127l-20 115h-220l-71 -115h-134l351 542h113zM354 208l-33 200l-119 -200h152zM233 598h-66q43 125 135 125q39 0 75 -18q40 -19 62 -19q33 0 53 44h66q-43 -125 -134 -125q-33 0 -69 17q-44 21 -68 21q-31 0 -54 -45z" />
    <glyph glyph-name="Udieresis.aalt" horiz-adv-x="591" 
d="M563 542l-59 -333q-8 -48 -27.5 -88.5t-51 -70.5t-77 -47t-101.5 -17q-91 0 -145.5 47t-54.5 123q0 22 4 47l61 339h120l-58 -328q-3 -16 -3 -37q0 -37 22 -60.5t62 -23.5q36 0 62 15.5t44 45.5t26 72l55 316h121zM327 676q0 -29 -20 -50t-49 -21t-48.5 18t-19.5 49
q0 30 21 50.5t50 20.5t47.5 -18.5t18.5 -48.5zM525 676q0 -29 -20 -50t-49 -21t-48.5 18t-19.5 49q0 30 21 50.5t50 20.5t47.5 -18.5t18.5 -48.5z" />
    <glyph glyph-name="glyph482" 
d="M339 625h-317l13 77h318z" />
    <glyph glyph-name="Ubreve.aalt" horiz-adv-x="591" 
d="M563 542l-59 -333q-8 -48 -27.5 -88.5t-51 -70.5t-77 -47t-101.5 -17q-91 0 -145.5 47t-54.5 123q0 22 4 47l61 339h120l-58 -328q-3 -16 -3 -37q0 -37 22 -60.5t62 -23.5q36 0 62 15.5t44 45.5t26 72l55 316h121zM530 738q-11 -44 -37 -78t-66 -49.5t-84 -15.5
q-72 0 -111.5 35.5t-39.5 107.5h66q0 -17 9 -33.5t31 -25t52 -8.5q58 0 81.5 19t33.5 48h65z" />
    <glyph glyph-name="Ccircumflex.aalt" horiz-adv-x="580" 
d="M568 470l-94 -77q-17 27 -45.5 42.5t-65.5 15.5q-32 0 -66 -11.5t-66.5 -42.5t-48.5 -75t-16 -86q0 -28 12 -62.5t44.5 -58t79.5 -23.5q81 0 140 66l73 -76q-85 -96 -225 -96q-56 0 -103 17t-80 48.5t-50.5 75.5t-17.5 96q0 68 24.5 129.5t69 107t105 71t128.5 25.5
q65 0 117.5 -22.5t84.5 -63.5zM562 594h-108l-54 91l-86 -91h-112l140 144h132z" />
    <glyph glyph-name="Uhungarumlaut.aalt" horiz-adv-x="591" 
d="M563 542l-59 -333q-8 -48 -27.5 -88.5t-51 -70.5t-77 -47t-101.5 -17q-91 0 -145.5 47t-54.5 123q0 22 4 47l61 339h120l-58 -328q-3 -16 -3 -37q0 -37 22 -60.5t62 -23.5q36 0 62 15.5t44 45.5t26 72l55 316h121zM654 738l-166 -144h-93l125 144h134zM449 738l-166 -144
h-92l124 144h134z" />
    <glyph glyph-name="Dcroat.aalt" horiz-adv-x="620" 
d="M24 0l43 245h-64l15 81h64l38 216h194q77 0 135.5 -28.5t91 -79t32.5 -122.5q0 -68 -25 -126.5t-70.5 -100t-107 -63.5t-130.5 -22h-216zM222 444l-21 -118h120l-15 -81h-119l-26 -146h77q50 0 90 15.5t66.5 43t40 64t13.5 77.5q0 27 -7.5 51t-22.5 43.5t-45.5 35
t-79.5 15.5h-71z" />
    <glyph glyph-name="Wcircumflex.aalt" horiz-adv-x="802" 
d="M845 542l-266 -542h-126l-40 375h-1l-182 -375h-126l-59 542h125l30 -379h3l177 379h123l37 -379h2l173 379h130zM632 594h-108l-54 91l-86 -91h-112l140 144h132z" />
    <glyph glyph-name="Eacute.aalt" horiz-adv-x="502" 
d="M479 542l-17 -96h-240l-22 -122h228l-16 -92h-228l-24 -134h260l-17 -98h-379l97 542h358zM504 738l-165 -144h-93l125 144h133z" />
    <glyph glyph-name="Ycircumflex.aalt" horiz-adv-x="484" 
d="M545 542l-264 -317l-40 -225h-120l40 227l-136 315h131l82 -219l166 219h141zM475 594h-108l-54 91l-86 -91h-112l140 144h132z" />
    <glyph glyph-name="glyph490" 
d="M369 738q-11 -44 -37 -78t-66 -49.5t-84 -15.5q-72 0 -111.5 35.5t-39.5 107.5h66q0 -17 9 -33.5t31 -25t52 -8.5q58 0 81.5 19t33.5 48h65z" />
    <glyph glyph-name="Zacute.aalt" horiz-adv-x="509" 
d="M503 542l-16 -91l-332 -351h275l-17 -100h-430l17 98l329 347h-245l18 97h401zM474 738l-165 -144h-93l125 144h133z" />
    <glyph glyph-name="Gcircumflex.aalt" horiz-adv-x="618" 
d="M568 470l-93 -78q-40 58 -113 58q-31 0 -65 -11.5t-63 -38.5t-49 -69.5t-20 -96.5q0 -37 16.5 -71t50.5 -52.5t74 -18.5q58 0 95 19l19 108h-107l15 90h224l-48 -272q-46 -24 -100.5 -37.5t-108.5 -13.5q-57 0 -104.5 17t-81.5 48.5t-52 75t-18 95.5q0 69 24.5 130.5
t69 107t104.5 71t128 25.5q48 0 90.5 -12.5t70 -33t42.5 -40.5zM553 594h-108l-54 91l-86 -91h-112l140 144h132z" />
    <glyph glyph-name="Zdotaccent.aalt" horiz-adv-x="509" 
d="M503 542l-16 -91l-332 -351h275l-17 -100h-430l17 98l329 347h-245l18 97h401zM388 675q0 -29 -21 -51t-50 -22t-49.5 19t-20.5 50q0 30 22 51.5t51 21.5t48.5 -19.5t19.5 -49.5z" />
    <glyph glyph-name="Hbar.aalt" horiz-adv-x="607" 
d="M571 542l-95 -542h-121l41 231h-210l-41 -231h-121l95 542h121l-15 -82h211l15 82h120zM201 324h211l13 76h-211z" />
    <glyph glyph-name="glyph495" horiz-adv-x="926" 
d="M868 97l-16 -97h-345l96 542h122l-79 -445h222zM473 542l-17 -96h-233l-23 -132h217l-16 -95h-217l-39 -219h-121l96 542h353z" />
    <glyph glyph-name="Icircumflex.aalt" horiz-adv-x="279" 
d="M243 542l-97 -542h-122l97 542h122zM366 594h-108l-54 91l-86 -91h-112l140 144h132z" />
    <glyph glyph-name="exclamdown.aalt" horiz-adv-x="311" 
d="M39 0l63 353h118l-63 -353h-118zM105 472q0 31 22 54.5t53 23.5t51.5 -19.5t20.5 -50.5t-22.5 -53.5t-53.5 -22.5t-51 19t-20 49z" />
    <glyph glyph-name="glyph498" 
d="M180 583q-39 0 -64.5 25t-25.5 61q0 35 19 64.5t46 41t50 11.5q39 0 64 -24.5t25 -60.5t-18.5 -65.5t-45.5 -41t-50 -11.5zM245 692q0 20 -12.5 35t-32.5 15q-26 0 -43.5 -19.5t-17.5 -47.5q0 -20 12 -34t32 -14q27 0 44.5 18.5t17.5 46.5z" />
    <glyph glyph-name="Euro.aalt" horiz-adv-x="523" 
d="M511 529l-44 -93q-16 10 -41.5 16.5t-49.5 6.5q-43 0 -79 -22.5t-54 -63.5h194l-35 -74h-186q-9 -32 -9 -56h175l-36 -74h-138q4 -41 34 -64t78 -23q53 0 99 25l21 -90q-25 -16 -63.5 -23.5t-71.5 -7.5q-92 0 -149.5 52t-62.5 131h-73l36 74h38q2 30 9 56h-61l37 74h44
q37 92 103.5 137.5t158.5 45.5q30 0 66.5 -8t59.5 -19z" />
    <glyph glyph-name="Lacute.aalt" horiz-adv-x="444" 
d="M386 100l-17 -100h-345l97 542h121l-78 -442h222zM398 738l-165 -144h-93l125 144h133z" />
    <glyph glyph-name="sterling.aalt" horiz-adv-x="523" 
d="M497 507l-70 -80q-13 15 -32 23.5t-36 8.5q-33 0 -55.5 -25t-31.5 -75l-7 -39h120l-17 -86h-118l-23 -136h195l-18 -98h-380l17 98h67l24 136h-65l15 86h65l11 61q15 81 66.5 128.5t137.5 47.5q38 0 73.5 -13t61.5 -37z" />
    <glyph glyph-name="Nacute.aalt" horiz-adv-x="636" 
d="M600 542l-97 -542h-138l-155 371h-2l-65 -371h-119l96 542h138l156 -369h2l65 369h119zM549 738l-165 -144h-93l125 144h133z" />
    <glyph glyph-name="yen.aalt" horiz-adv-x="523" 
d="M546 544l-192 -240h88l-13 -77h-126l-9 -53h126l-13 -78h-126l-17 -96h-112l17 96h-126l13 78h126l10 53h-126l13 77h98l-110 240h121l81 -207l149 207h128z" />
    <glyph glyph-name="uni0145.aalt" horiz-adv-x="636" 
d="M600 542l-97 -542h-138l-155 371h-2l-65 -371h-119l96 542h138l156 -369h2l65 369h119zM323 -45l-123 -195h-98l107 195h114z" />
    <glyph glyph-name="perthousand.aalt" horiz-adv-x="1040" 
d="M677 151q0 -43 -21 -82t-61 -60t-83 -21q-26 0 -56.5 10t-53 38t-22.5 69q0 70 47 116t119 46q26 0 56.5 -10t52.5 -37.5t22 -68.5zM582 139q0 20 -12.5 32.5t-33.5 12.5q-27 0 -44 -19t-17 -49q0 -21 11.5 -33t32.5 -12q28 0 45.5 19t17.5 49zM350 437q0 -70 -47 -116.5
t-118 -46.5q-56 0 -93.5 32.5t-37.5 85.5q0 25 8 52.5t28 51.5t52.5 40.5t76.5 16.5q57 0 94 -31.5t37 -84.5zM255 425q0 20 -12.5 33t-32.5 13q-28 0 -45 -19.5t-17 -49.5q0 -22 12 -34t33 -12q28 0 45 20t17 49zM997 151q0 -43 -21 -82t-61 -60t-83 -21q-26 0 -56.5 10
t-53 38t-22.5 69q0 70 47 116t119 46q26 0 56.5 -10t52.5 -37.5t22 -68.5zM902 139q0 20 -12.5 32.5t-33.5 12.5q-27 0 -44 -19t-17 -49q0 -21 11.5 -33t32.5 -12q28 0 45.5 19t17.5 49zM608 527l-428 -562l-62 42l430 565z" />
    <glyph glyph-name="glyph506" 
d="M486 738l-166 -144h-93l125 144h134zM281 738l-166 -144h-92l124 144h134z" />
    <glyph glyph-name="one.oldstyle" horiz-adv-x="418" 
d="M334 546l-96 -546h-118l72 405l-103 -69l-52 85l189 125h108z" />
    <glyph glyph-name="Ohungarumlaut.aalt" horiz-adv-x="669" 
d="M622 318q0 -66 -24 -127t-68.5 -107t-104.5 -72t-128 -26q-58 0 -106 17t-82 48.5t-52 76t-18 96.5q0 67 25 128t69.5 106.5t105 71.5t127.5 26q116 0 186 -66t70 -172zM497 310q0 28 -12.5 61.5t-46 56.5t-81.5 23q-31 0 -64 -12t-61.5 -39.5t-48 -70t-19.5 -94.5
q0 -27 11.5 -61t46 -58t82.5 -24q32 0 65.5 12t61.5 40t47 70.5t19 95.5zM693 738l-166 -144h-93l125 144h134zM488 738l-166 -144h-92l124 144h134z" />
    <glyph glyph-name="three.oldstyle" horiz-adv-x="550" 
d="M507 546l-19 -106q-29 -23 -97.5 -70t-148.5 -96l-1 -4l1 1l30 2q29 0 61 -10.5t60 -32t45 -56.5t17 -81q0 -61 -25 -110.5t-70 -83.5t-106.5 -51.5t-132.5 -17.5q-64 0 -113 10l21 104q39 -10 92 -10q54 0 105 17t78.5 52.5t27.5 79.5q0 55 -40 83t-103 28
q-45 0 -105 -15l-7 86q56 34 137.5 88t130.5 89l1 4h-255l18 100h398z" />
    <glyph glyph-name="C.aalt" horiz-adv-x="580" 
d="M568 470l-94 -77q-17 27 -45.5 42.5t-65.5 15.5q-32 0 -66 -11.5t-66.5 -42.5t-48.5 -75t-16 -86q0 -28 12 -62.5t44.5 -58t79.5 -23.5q81 0 140 66l73 -76q-85 -96 -225 -96q-56 0 -103 17t-80 48.5t-50.5 75.5t-17.5 96q0 68 24.5 129.5t69 107t105 71t128.5 25.5
q65 0 117.5 -22.5t84.5 -63.5z" />
    <glyph glyph-name="Scircumflex.aalt" horiz-adv-x="473" 
d="M447 480l-85 -71q-31 48 -92 48q-18 0 -38.5 -6.5t-34.5 -23.5t-14 -39q0 -17 11 -31.5t58 -30.5q82 -27 117 -65.5t35 -95.5q0 -83 -61.5 -131t-158.5 -48q-65 0 -117 24.5t-82 65.5l91 71q17 -29 48.5 -44.5t63.5 -15.5q45 0 68 19t23 50q0 20 -15 38t-71 38
q-71 24 -101.5 59t-30.5 88q0 29 11 60t38 57t69.5 43t98.5 17q57 0 102 -22t67 -54zM470 594h-108l-54 91l-86 -91h-112l140 144h132z" />
    <glyph glyph-name="J.aalt" horiz-adv-x="430" 
d="M401 542l-64 -368q-17 -97 -63 -142.5t-126 -45.5q-64 0 -108 38t-57 101l109 33q6 -31 21.5 -48t36.5 -17q30 0 45.5 21t22.5 64l63 364h120z" />
    <glyph glyph-name="germandbls.aalt" horiz-adv-x="946" 
d="M447 480l-85 -71q-31 48 -92 48q-18 0 -38.5 -6.5t-34.5 -23.5t-14 -39q0 -17 11 -31.5t58 -30.5q82 -27 117 -65.5t35 -95.5q0 -83 -61.5 -131t-158.5 -48q-65 0 -117 24.5t-82 65.5l91 71q17 -29 48.5 -44.5t63.5 -15.5q45 0 68 19t23 50q0 20 -15 38t-71 38
q-71 24 -101.5 59t-30.5 88q0 29 11 60t38 57t69.5 43t98.5 17q57 0 102 -22t67 -54zM920 480l-85 -71q-31 48 -93 48q-37 0 -62 -20t-25 -49q0 -17 11 -31.5t59 -30.5q78 -26 114.5 -64.5t36.5 -96.5q0 -52 -25 -91t-74 -63.5t-120 -24.5q-66 0 -118 24.5t-81 65.5l90 71
q17 -29 49 -44.5t64 -15.5q45 0 67.5 19t22.5 50q0 20 -15 38t-71 38q-71 24 -101 58.5t-30 88.5q0 29 11 60t37.5 57t69 43t98.5 17q57 0 102 -22t68 -54z" />
    <glyph glyph-name="glyph514" 
d="M262 675q0 -29 -21 -51t-50 -22t-49.5 19t-20.5 50q0 30 22 51.5t51 21.5t48.5 -19.5t19.5 -49.5z" />
    <glyph glyph-name="Thorn.aalt" horiz-adv-x="514" 
d="M226 457h80q92 0 137.5 -38t45.5 -110q0 -178 -227 -178h-94l-23 -131h-120l96 542h120zM209 358l-23 -132h77q106 0 106 71q0 31 -19.5 46t-63.5 15h-77z" />
    <glyph glyph-name="Z.aalt" horiz-adv-x="509" 
d="M503 542l-16 -91l-332 -351h275l-17 -100h-430l17 98l329 347h-245l18 97h401z" />
    <glyph glyph-name="Utilde.aalt" horiz-adv-x="591" 
d="M563 542l-59 -333q-8 -48 -27.5 -88.5t-51 -70.5t-77 -47t-101.5 -17q-91 0 -145.5 47t-54.5 123q0 22 4 47l61 339h120l-58 -328q-3 -16 -3 -37q0 -37 22 -60.5t62 -23.5q36 0 62 15.5t44 45.5t26 72l55 316h121zM227 598h-66q43 125 135 125q39 0 75 -18q40 -19 62 -19
q33 0 53 44h66q-43 -125 -134 -125q-33 0 -69 17q-44 21 -68 21q-31 0 -54 -45z" />
    <glyph glyph-name="Aogonek.aalt" horiz-adv-x="564" 
d="M522 -201q-55 -38 -106 -38q-40 0 -63.5 20.5t-23.5 59.5q0 71 126 159h-67l-20 115h-220l-71 -115h-134l351 542h113l108 -542q-105 -85 -105 -139q0 -35 40 -35q28 0 56 21zM354 208l-33 200l-119 -200h152z" />
    <glyph glyph-name="Uring.aalt" horiz-adv-x="591" 
d="M563 542l-59 -333q-8 -48 -27.5 -88.5t-51 -70.5t-77 -47t-101.5 -17q-91 0 -145.5 47t-54.5 123q0 22 4 47l61 339h120l-58 -328q-3 -16 -3 -37q0 -37 22 -60.5t62 -23.5q36 0 62 15.5t44 45.5t26 72l55 316h121zM344 583q-39 0 -64.5 25t-25.5 61q0 35 19 64.5t46 41
t50 11.5q39 0 64 -24.5t25 -60.5t-18.5 -65.5t-45.5 -41t-50 -11.5zM409 692q0 20 -12.5 35t-32.5 15q-26 0 -43.5 -19.5t-17.5 -47.5q0 -20 12 -34t32 -14q27 0 44.5 18.5t17.5 46.5z" />
    <glyph glyph-name="a.sc" horiz-adv-x="564" 
d="M515 0h-127l-20 115h-220l-71 -115h-134l351 542h113zM354 208l-33 200l-119 -200h152z" />
    <glyph glyph-name="Yacute.aalt" horiz-adv-x="484" 
d="M545 542l-264 -317l-40 -225h-120l40 227l-136 315h131l82 -219l166 219h141zM471 738l-165 -144h-93l125 144h133z" />
    <glyph glyph-name="Iogonek.aalt" horiz-adv-x="279" 
d="M153 -201q-55 -38 -106 -38q-40 0 -63.5 20.5t-23.5 59.5q0 71 126 159h-62l97 542h122l-97 -542q-105 -85 -105 -139q0 -35 40 -35q28 0 56 21z" />
    <glyph glyph-name="Zcaron.aalt" horiz-adv-x="509" 
d="M503 542l-16 -91l-332 -351h275l-17 -100h-430l17 98l329 347h-245l18 97h401zM516 738l-140 -144h-131l-88 144h109l53 -91l86 91h111z" />
    <glyph glyph-name="Hcircumflex.aalt" horiz-adv-x="607" 
d="M571 542l-95 -542h-121l41 231h-210l-41 -231h-121l95 542h121l-38 -214h211l38 214h120zM536 594h-108l-54 91l-86 -91h-112l140 144h132z" />
    <glyph glyph-name="IJ.aalt" horiz-adv-x="705" 
d="M243 542l-97 -542h-122l97 542h122zM676 542l-64 -368q-17 -97 -63 -142.5t-126 -45.5q-64 0 -108 38t-57 101l109 33q6 -31 21.5 -48t36.5 -17q30 0 45.5 21t22.5 64l63 364h120z" />
    <glyph glyph-name="Odieresis.aalt" horiz-adv-x="669" 
d="M622 318q0 -66 -24 -127t-68.5 -107t-104.5 -72t-128 -26q-58 0 -106 17t-82 48.5t-52 76t-18 96.5q0 67 25 128t69.5 106.5t105 71.5t127.5 26q116 0 186 -66t70 -172zM497 310q0 28 -12.5 61.5t-46 56.5t-81.5 23q-31 0 -64 -12t-61.5 -39.5t-48 -70t-19.5 -94.5
q0 -27 11.5 -61t46 -58t82.5 -24q32 0 65.5 12t61.5 40t47 70.5t19 95.5zM367 676q0 -29 -20 -50t-49 -21t-48.5 18t-19.5 49q0 30 21 50.5t50 20.5t47.5 -18.5t18.5 -48.5zM565 676q0 -29 -20 -50t-49 -21t-48.5 18t-19.5 49q0 30 21 50.5t50 20.5t47.5 -18.5t18.5 -48.5z
" />
    <glyph glyph-name="cent.aalt" horiz-adv-x="523" 
d="M391 491q47 -5 86 -25t60 -54l-84 -68q-11 19 -33.5 33t-45.5 18l-55 -311q26 2 52.5 13t56.5 41l67 -68q-83 -82 -193 -83l-12 -70h-54l14 74q-84 13 -133.5 68t-49.5 136q0 55 19 107t55 93t87 67t110 30l11 66h54zM321 394q-60 -10 -99 -63t-39 -121q0 -32 11 -60.5
t31 -43t41 -18.5z" />
    <glyph glyph-name="Lslash.aalt" horiz-adv-x="444" 
d="M369 0h-344l35 201l-81 -60l19 108l81 60l42 233h120l-23 -132l122 90l-19 -107l-122 -90l-36 -203h222z" />
    <glyph glyph-name="ordfeminine.aalt" horiz-adv-x="380" 
d="M349 427h-80l-9 58h-107l-37 -58h-88l196 289h71zM253 537l-12 94l-57 -94h69z" />
    <glyph glyph-name="S.aalt" horiz-adv-x="473" 
d="M447 480l-85 -71q-31 48 -92 48q-18 0 -38.5 -6.5t-34.5 -23.5t-14 -39q0 -17 11 -31.5t58 -30.5q82 -27 117 -65.5t35 -95.5q0 -83 -61.5 -131t-158.5 -48q-65 0 -117 24.5t-82 65.5l91 71q17 -29 48.5 -44.5t63.5 -15.5q45 0 68 19t23 50q0 20 -15 38t-71 38
q-71 24 -101.5 59t-30.5 88q0 29 11 60t38 57t69.5 43t98.5 17q57 0 102 -22t67 -54z" />
    <glyph glyph-name="two.oldstyle" horiz-adv-x="553" 
d="M487 389q0 -22 -7.5 -49.5t-26.5 -55.5t-59 -63t-158 -97l-44 -24v-3h261l-18 -97h-436l17 96l63 35q126 69 179 103.5t82 68.5t29 72q0 35 -17 55t-38 25.5t-36 5.5q-37 0 -68.5 -20t-53.5 -55l-86 50q34 57 92 91t126 34q60 0 105 -22t69.5 -59.5t24.5 -90.5z" />
    <glyph glyph-name="B.aalt" horiz-adv-x="531" 
d="M484 416q0 -47 -26 -81.5t-73 -50.5v-2q40 -12 60.5 -40.5t20.5 -70.5q0 -50 -29.5 -91t-87 -60.5t-122.5 -19.5h-203l96 542h195q57 0 97.5 -18t56 -47.5t15.5 -60.5zM365 394q0 27 -20.5 40t-54.5 13h-69l-22 -125h77q24 0 46.5 10t32.5 27.5t10 34.5zM348 176
q0 28 -22 43.5t-59 15.5h-83l-25 -140h70q51 0 85 19t34 62z" />
    <glyph glyph-name="Scedilla.aalt" horiz-adv-x="473" 
d="M274 -138q0 -34 -19.5 -56t-53 -34t-71.5 -12q-27 0 -58.5 7.5t-50.5 18.5l27 48q35 -20 78 -20q33 0 49 11.5t16 29.5q0 36 -47 36q-20 0 -40 -6l-18 25l67 78q-55 5 -98.5 28.5t-69.5 59.5l91 71q17 -29 48.5 -44.5t63.5 -15.5q45 0 68 19t23 50q0 20 -15 38t-71 38
q-71 24 -101.5 59t-30.5 88q0 29 11 60t38 57t69.5 43t98.5 17q57 0 102 -22t67 -54l-85 -71q-31 48 -92 48q-18 0 -38.5 -6.5t-34.5 -23.5t-14 -39q0 -17 11 -31.5t58 -30.5q82 -27 117 -65.5t35 -95.5q0 -77 -54 -124.5t-141 -53.5l-45 -52l20 2q23 0 45.5 -9.5t33.5 -27
t11 -38.5z" />
    <glyph glyph-name="Emacron.aalt" horiz-adv-x="502" 
d="M479 542l-17 -96h-240l-22 -122h228l-16 -92h-228l-24 -134h260l-17 -98h-379l97 542h358zM469 625h-317l13 77h318z" />
    <glyph glyph-name="Uacute.aalt" horiz-adv-x="591" 
d="M563 542l-59 -333q-8 -48 -27.5 -88.5t-51 -70.5t-77 -47t-101.5 -17q-91 0 -145.5 47t-54.5 123q0 22 4 47l61 339h120l-58 -328q-3 -16 -3 -37q0 -37 22 -60.5t62 -23.5q36 0 62 15.5t44 45.5t26 72l55 316h121zM534 738l-165 -144h-93l125 144h133z" />
    <glyph glyph-name="Abreve.aalt" horiz-adv-x="564" 
d="M515 0h-127l-20 115h-220l-71 -115h-134l351 542h113zM354 208l-33 200l-119 -200h152zM534 738q-11 -44 -37 -78t-66 -49.5t-84 -15.5q-72 0 -111.5 35.5t-39.5 107.5h66q0 -17 9 -33.5t31 -25t52 -8.5q58 0 81.5 19t33.5 48h65z" />
    <glyph glyph-name="Dcaron.aalt" horiz-adv-x="620" 
d="M573 313q0 -51 -16.5 -105t-51.5 -94.5t-75 -64.5t-89 -36.5t-102 -12.5h-215l96 542h193q51 0 97.5 -13t83 -41t58 -72.5t21.5 -102.5zM448 301q0 38 -16.5 72t-53.5 52.5t-85 18.5h-71l-61 -345h78q49 0 89 16t66.5 44t40 65t13.5 77zM533 738l-140 -144h-131l-88 144
h109l53 -91l86 91h111z" />
    <glyph glyph-name="i.sc" horiz-adv-x="279" 
d="M243 542l-97 -542h-122l97 542h122zM268 675q0 -29 -21 -51t-50 -22t-49.5 19t-20.5 50q0 30 22 51.5t51 21.5t48.5 -19.5t19.5 -49.5z" />
    <glyph glyph-name="glyph539" horiz-adv-x="761" 
d="M725 542l-97 -542h-121l97 542h121zM473 542l-17 -96h-233l-23 -132h217l-16 -95h-217l-39 -219h-121l96 542h353z" />
    <glyph glyph-name="Otilde.aalt" horiz-adv-x="669" 
d="M622 318q0 -66 -24 -127t-68.5 -107t-104.5 -72t-128 -26q-58 0 -106 17t-82 48.5t-52 76t-18 96.5q0 67 25 128t69.5 106.5t105 71.5t127.5 26q116 0 186 -66t70 -172zM497 310q0 28 -12.5 61.5t-46 56.5t-81.5 23q-31 0 -64 -12t-61.5 -39.5t-48 -70t-19.5 -94.5
q0 -27 11.5 -61t46 -58t82.5 -24q32 0 65.5 12t61.5 40t47 70.5t19 95.5zM265 598h-66q43 125 135 125q39 0 75 -18q40 -19 62 -19q33 0 53 44h66q-43 -125 -134 -125q-33 0 -69 17q-44 21 -68 21q-31 0 -54 -45z" />
    <glyph glyph-name="florin.aalt" horiz-adv-x="523" 
d="M521 522l-59 -83q-23 17 -48 17q-37 0 -58 -55l-21 -60h110l-15 -85h-123l-67 -186q-29 -83 -69 -119t-108 -36q-24 0 -52 7.5t-46 19.5l50 85q24 -16 48 -16q18 0 33.5 12t33.5 63l62 170h-102l15 85h114l32 86q48 128 169 128q28 0 54.5 -9t46.5 -24z" />
    <glyph glyph-name="R.aalt" horiz-adv-x="532" 
d="M487 397q0 -64 -35 -105.5t-98 -56.5l113 -235h-133l-94 214h-59l-37 -214h-120l96 542h177q93 0 141.5 -37.5t48.5 -107.5zM365 385q0 30 -21 46t-64 16h-58l-25 -139h55q53 0 83 19.5t30 57.5z" />
    <glyph glyph-name="uni0156.aalt" horiz-adv-x="532" 
d="M487 397q0 -64 -35 -105.5t-98 -56.5l113 -235h-133l-94 214h-59l-37 -214h-120l96 542h177q93 0 141.5 -37.5t48.5 -107.5zM365 385q0 30 -21 46t-64 16h-58l-25 -139h55q53 0 83 19.5t30 57.5zM506 738l-140 -144h-131l-88 144h109l53 -91l86 91h111z" />
    <glyph glyph-name="Edotaccent.aalt" horiz-adv-x="502" 
d="M479 542l-17 -96h-240l-22 -122h228l-16 -92h-228l-24 -134h260l-17 -98h-379l97 542h358zM385 675q0 -29 -21 -51t-50 -22t-49.5 19t-20.5 50q0 30 22 51.5t51 21.5t48.5 -19.5t19.5 -49.5z" />
    <glyph glyph-name="Umacron.aalt" horiz-adv-x="591" 
d="M563 542l-59 -333q-8 -48 -27.5 -88.5t-51 -70.5t-77 -47t-101.5 -17q-91 0 -145.5 47t-54.5 123q0 22 4 47l61 339h120l-58 -328q-3 -16 -3 -37q0 -37 22 -60.5t62 -23.5q36 0 62 15.5t44 45.5t26 72l55 316h121zM509 625h-317l13 77h318z" />
    <glyph glyph-name="questiondown.aalt" horiz-adv-x="450" 
d="M17 124q0 43 22 77t69 64q29 18 46.5 33.5t21.5 40.5l2 14h113l-4 -27q-8 -61 -73 -106l-30 -20q-21 -15 -35.5 -30.5t-14.5 -38.5q0 -20 15.5 -33t38.5 -13q24 0 43 15t27 46l109 -19q-14 -65 -64 -103t-122 -38q-42 0 -81.5 16t-61 49t-21.5 73zM171 472q0 31 22.5 54
t53.5 23q32 0 52 -19t20 -50q0 -32 -22.5 -54.5t-53.5 -22.5t-51.5 19.5t-20.5 49.5z" />
    <glyph glyph-name="zero.oldstyle" horiz-adv-x="687" 
d="M627 321q0 -67 -24 -128.5t-68 -108t-104 -73t-129 -26.5q-58 0 -106 17.5t-81.5 49.5t-51.5 77t-18 97q0 67 24.5 129t69 108t104.5 72t128 26q57 0 105 -17.5t81.5 -49.5t51.5 -76.5t18 -96.5zM505 311q0 37 -17 72t-51 54t-75 19q-31 0 -64.5 -12t-62.5 -40
t-48.5 -70.5t-19.5 -95.5q0 -27 12 -62t47 -60t84 -25q32 0 66 12t62.5 40t47.5 71t19 97z" />
    <glyph glyph-name="uni0162.aalt" horiz-adv-x="451" 
d="M483 542l-18 -97h-156l-79 -445h-120l78 445h-156l17 97h434zM228 -45l-123 -195h-98l107 195h114z" />
    <glyph glyph-name="Ydieresis.aalt" horiz-adv-x="484" 
d="M545 542l-264 -317l-40 -225h-120l40 227l-136 315h131l82 -219l166 219h141zM268 676q0 -29 -20 -50t-49 -21t-48.5 18t-19.5 49q0 30 21 50.5t50 20.5t47.5 -18.5t18.5 -48.5zM466 676q0 -29 -20 -50t-49 -21t-48.5 18t-19.5 49q0 30 21 50.5t50 20.5t47.5 -18.5
t18.5 -48.5z" />
    <glyph glyph-name="ampersand.aalt" horiz-adv-x="626" 
d="M571 288l-127 -158l107 -130h-144l-41 51q-31 -31 -73.5 -48.5t-91.5 -17.5q-77 0 -126 39.5t-49 108.5q0 62 38 105t102 68q-16 21 -25 48t-9 52q0 66 46 108.5t118 42.5q30 0 58.5 -8.5t49 -25t31 -40.5t10.5 -52q0 -49 -33 -88.5t-96 -66.5l62 -75l63 87h130zM340 421
q0 21 -12.5 34.5t-34.5 13.5q-24 0 -40 -16.5t-16 -42.5q0 -16 7.5 -35.5t19.5 -32.5q38 14 57 35t19 44zM306 125l-87 108q-78 -29 -78 -89q0 -31 20.5 -47t51.5 -16q52 0 93 44z" />
    <glyph glyph-name="percent.aalt" horiz-adv-x="737" 
d="M677 151q0 -43 -21 -82t-61 -60t-83 -21q-26 0 -56.5 10t-53 38t-22.5 69q0 70 47 116t119 46q26 0 56.5 -10t52.5 -37.5t22 -68.5zM582 139q0 20 -12.5 32.5t-33.5 12.5q-27 0 -44 -19t-17 -49q0 -21 11.5 -33t32.5 -12q28 0 45.5 19t17.5 49zM350 437q0 -70 -47 -116.5
t-118 -46.5q-56 0 -93.5 32.5t-37.5 85.5q0 25 8 52.5t28 51.5t52.5 40.5t76.5 16.5q57 0 94 -31.5t37 -84.5zM255 425q0 20 -12.5 33t-32.5 13q-28 0 -45 -19.5t-17 -49.5q0 -22 12 -34t33 -12q28 0 45 20t17 49zM608 527l-428 -562l-62 42l430 565z" />
    <glyph glyph-name="dollar.aalt" horiz-adv-x="523" 
d="M471 482l-82 -71q-26 33 -68 38l-24 -130q67 -25 102 -60t35 -90q0 -26 -8 -54t-30 -53.5t-60.5 -43.5t-97.5 -20l-10 -57h-54l10 57q-20 1 -49.5 8.5t-60.5 27t-48 42.5l87 67q11 -17 32.5 -33t54.5 -19l26 141q-67 23 -100 56.5t-33 88.5q0 70 52.5 116t136.5 49l9 53
h55l-9 -54q42 -4 77 -19.5t57 -39.5zM268 450q-29 -2 -47.5 -20t-18.5 -43q0 -15 8 -29t37 -24zM321 157q0 43 -44 59l-23 -126q29 2 48 21t19 46z" />
    <glyph glyph-name="exclam.aalt" horiz-adv-x="311" 
d="M254 542l-63 -353h-118l63 353h118zM188 70q0 -31 -22 -54.5t-53 -23.5t-51.5 19.5t-20.5 50.5t22.5 53.5t53.5 22.5t51 -19t20 -49z" />
    </font>
</defs>
</svg>
