<?xml version="1.0" standalone="no"?>
<!DOCTYPE svg PUBLIC "-//W3C//DTD SVG 1.1//EN" "http://www.w3.org/Graphics/SVG/1.1/DTD/svg11.dtd" >
<svg xmlns="http://www.w3.org/2000/svg" xmlns:xlink="http://www.w3.org/1999/xlink" version="1.1">
<metadata>
Created by FontForge 20170731 at Wed May  4 18:24:38 2016
 By Aleksey,,,
Copyright (c) 2004 - 2007, 2015, 2016 Monotype GmbH. All rights reserved. This typeface is original artwork of Adrian Frutiger and Akira Kobayashi. The design may be protected in certain jurisdictions.
</metadata>
<defs>
<font id="AvenirNextforINTUITW05-It" horiz-adv-x="240" >
  <font-face 
    font-family="AvenirNextforINTUITW05-It"
    font-weight="400"
    font-style="italic"
    font-stretch="normal"
    units-per-em="1000"
    panose-1="2 11 5 3 2 2 2 9 2 4"
    ascent="800"
    descent="-200"
    x-height="468"
    cap-height="708"
    bbox="-260 -250 1029 946"
    underline-thickness="50"
    underline-position="-175"
    slope="-12"
    unicode-range="U+000D-FB02"
  />
<missing-glyph horiz-adv-x="512" 
d="M222 117h56v67h-56v-67zM225 234h46q0 53 6 72t43 52q27 25 45 52t18 68q0 27 -12 58t-42.5 52t-69.5 21q-54 0 -91 -33.5t-44 -103.5l50 -8q6 48 28 71.5t54 23.5q31 0 53.5 -25t22.5 -60q0 -20 -10 -37t-40 -46q-31 -31 -46 -59q-13 -25 -13 -81zM462 50h-412v617h412
v-617zM512 718h-512v-718h512v718z" />
    <glyph glyph-name="IJ" unicode="IJ" horiz-adv-x="735" 
d="M236 708l-125 -708h-71l125 708h71zM243 120l63 20q5 -30 21.5 -53.5t40 -33t45.5 -9.5q27 0 55.5 10t52 44t37.5 111l88 499h71l-89 -504q-12 -68 -31 -109t-45 -65t-59.5 -36t-75.5 -12q-28 0 -57 7.5t-56 26.5t-42 48.5t-19 55.5z" />
    <glyph glyph-name="ij" unicode="ij" horiz-adv-x="517" 
d="M187 468l-83 -468h-67l83 468h67zM227 649q0 -19 -14 -33.5t-33 -14.5t-32.5 12.5t-13.5 32.5t14.5 34.5t33.5 14.5t32 -13t13 -33zM153 -233l14 57q18 -6 42 -6q30 0 49.5 18t31.5 82l97 550h67l-99 -561q-13 -78 -47.5 -112.5t-98.5 -34.5q-34 0 -56 7zM493 649
q0 -19 -14 -33.5t-33 -14.5t-32.5 12.5t-13.5 32.5t14.5 34.5t33.5 14.5t32 -13t13 -33z" />
    <glyph glyph-name="napostrophe" unicode="&#x22;n" horiz-adv-x="577" 
d="M115 468h65q-7 -62 -11 -80h2q27 42 70 67t90 25q75 0 118 -38.5t43 -104.5q0 -20 -5 -50l-51 -287h-67l46 259q6 32 6 59q0 106 -104 106q-58 0 -107 -48t-65 -136l-42 -240h-67l64 365q10 50 15 103zM241 708l-115 -185h-57l101 185h71z" />
    <glyph glyph-name="uniFB01" unicode="fi" horiz-adv-x="544" 
d="M317 468l-11 -56h-110l-72 -412h-67l72 412h-99l11 56h97l22 127q10 55 33.5 93.5t58.5 59t83 20.5q30 0 55 -7l-16 -59q-21 6 -47 6q-24 0 -45 -11.5t-35 -39.5t-21 -69l-21 -120h112zM481 468l-83 -468h-67l83 468h67zM521 649q0 -19 -14 -33.5t-33 -14.5t-32.5 12.5
t-13.5 32.5t14.5 34.5t33.5 14.5t32 -13t13 -33z" />
    <glyph glyph-name="uniFB02" unicode="fl" horiz-adv-x="544" 
d="M531 756l-133 -756h-68l133 756h68zM317 468l-11 -56h-110l-72 -412h-67l72 412h-99l11 56h97l22 127q10 55 33.5 93.5t58.5 59t83 20.5q30 0 55 -7l-16 -59q-21 6 -47 6q-24 0 -45 -11.5t-35 -39.5t-21 -69l-21 -120h112z" />
    <glyph glyph-name=".notdef" horiz-adv-x="512" 
d="M222 117h56v67h-56v-67zM225 234h46q0 53 6 72t43 52q27 25 45 52t18 68q0 27 -12 58t-42.5 52t-69.5 21q-54 0 -91 -33.5t-44 -103.5l50 -8q6 48 28 71.5t54 23.5q31 0 53.5 -25t22.5 -60q0 -20 -10 -37t-40 -46q-31 -31 -46 -59q-13 -25 -13 -81zM462 50h-412v617h412
v-617zM512 718h-512v-718h512v718z" />
    <glyph glyph-name="glyph1" horiz-adv-x="500" 
 />
    <glyph glyph-name="glyph1" horiz-adv-x="500" 
 />
    <glyph glyph-name="uni000D" unicode="&#xd;" horiz-adv-x="0" 
 />
    <glyph glyph-name="space" unicode=" " horiz-adv-x="250" 
 />
    <glyph glyph-name="exclam" unicode="!" horiz-adv-x="278" 
d="M246 708l-91 -516h-72l91 516h72zM153 49q0 -22 -16 -38.5t-38 -16.5t-37.5 14.5t-15.5 37.5t16.5 39.5t38.5 16.5t37 -14.5t15 -38.5z" />
    <glyph glyph-name="quotedbl" unicode="&#x22;" horiz-adv-x="400" 
d="M116 473l42 235h60l-42 -235h-60zM261 473l42 235h60l-42 -235h-60z" />
    <glyph glyph-name="numbersign" unicode="#" horiz-adv-x="556" 
d="M53 0l68 214h-102l10 60h110l51 162h-108l10 60h117l67 212h61l-67 -212h133l67 212h61l-67 -212h90l-10 -60h-99l-51 -162h95l-10 -60h-103l-68 -214h-61l68 214h-133l-68 -214h-61zM251 436l-51 -162h133l51 162h-133z" />
    <glyph glyph-name="dollar" unicode="$" horiz-adv-x="580" 
d="M251 -13l-12 -71h-42l13 72q-5 0 -21 2t-48 10.5t-67.5 32.5t-56.5 58l62 39q19 -33 56.5 -56t84.5 -26l50 285q-84 31 -123.5 74t-39.5 104q0 20 5 45.5t19 52t40.5 51t70 41.5t97.5 20l12 71h42l-13 -72q53 -3 97.5 -26t70.5 -57l-60 -42q-16 25 -48 44t-70 20
l-48 -274q84 -33 124 -76t40 -105q0 -26 -7 -53.5t-22 -53.5t-43.5 -52t-72.5 -41t-90 -17zM263 48q65 3 108 45t43 102q0 78 -105 124zM282 400l46 260q-27 -1 -58.5 -12.5t-53 -33t-30 -46t-8.5 -49.5q0 -33 16 -57t40.5 -38.5t47.5 -23.5z" />
    <glyph glyph-name="percent" unicode="%" horiz-adv-x="833" 
d="M211 373q-41 0 -78 18t-56 52.5t-19 72.5q0 41 14.5 78t41 65.5t63 44.5t77.5 16q67 0 109.5 -39.5t42.5 -102.5q0 -41 -14.5 -79t-40.5 -66t-62.5 -44t-77.5 -16zM345 573q0 41 -26 68t-69 27q-27 0 -56.5 -14.5t-51 -51t-21.5 -80.5q0 -41 26 -67.5t68 -26.5
q27 0 57 14t51.5 51t21.5 80zM600 -10q-41 0 -78 18t-56 52.5t-19 72.5q0 41 14.5 78t41 65.5t63 44.5t77.5 16q67 0 109.5 -39.5t42.5 -102.5q0 -41 -14.5 -79t-40.5 -66t-62.5 -44t-77.5 -16zM734 190q0 41 -26 68t-69 27q-27 0 -56.5 -14.5t-51 -51t-21.5 -80.5
q0 -41 26 -67.5t68 -26.5q27 0 57 14t51.5 51t21.5 80zM736 712l-581 -743l-45 27l582 743z" />
    <glyph glyph-name="ampersand" unicode="&#x26;" horiz-adv-x="704" 
d="M511 576q0 -120 -189 -199l133 -168l125 174h83l-168 -221l130 -162h-91l-81 105q-51 -59 -106 -88t-120 -29q-56 0 -104.5 19.5t-73.5 61.5t-25 95q0 73 53.5 131.5t150.5 99.5q-26 32 -40.5 71t-14.5 77q0 79 50 131t127 52q44 0 82.5 -17.5t58.5 -53.5t20 -79z
M413 152l-153 196q-52 -22 -87 -48t-54 -58.5t-19 -75.5q0 -27 12.5 -54t45.5 -45.5t73 -18.5q52 0 95 25.5t87 78.5zM441 571q0 43 -24.5 70t-66.5 27q-23 0 -49 -11.5t-44 -41t-18 -67.5q0 -34 15.5 -68.5t36.5 -58.5q70 30 110 66t40 84z" />
    <glyph glyph-name="quotesingle" unicode="'" horiz-adv-x="255" 
d="M116 473l42 235h60l-42 -235h-60z" />
    <glyph glyph-name="parenleft" unicode="(" horiz-adv-x="300" 
d="M83 167q0 -84 18 -161t51 -136l-52 -28q-38 60 -60.5 147.5t-22.5 177.5q0 99 27.5 197t80 193.5t129.5 177.5l46 -33q-58 -64 -110 -153.5t-79.5 -190.5t-27.5 -191z" />
    <glyph glyph-name="parenright" unicode=")" horiz-adv-x="300" 
d="M211 409q0 84 -18 161t-51 136l52 28q38 -60 60.5 -147.5t22.5 -177.5q0 -99 -27.5 -197t-80 -193.5t-129.5 -177.5l-46 33q58 64 110 153.5t79.5 190.5t27.5 191z" />
    <glyph glyph-name="asterisk" unicode="*" horiz-adv-x="444" 
d="M280 708v-145l144 45l18 -50l-146 -45l93 -127l-42 -32l-95 130l-95 -130l-42 32l93 127l-146 45l18 50l144 -45v145h56z" />
    <glyph glyph-name="plus" unicode="+" horiz-adv-x="666" 
d="M363 558v-225h225v-60h-225v-225h-60v225h-225v60h225v225h60z" />
    <glyph glyph-name="comma" unicode="," horiz-adv-x="260" 
d="M146 95l-123 -235h-57l109 235h71z" />
    <glyph glyph-name="hyphen" unicode="-" horiz-adv-x="320" 
d="M266 271l-10 -57h-224l10 57h224z" />
    <glyph glyph-name="period" unicode="." horiz-adv-x="260" 
d="M131 49q0 -22 -16 -38.5t-38 -16.5t-37.5 14.5t-15.5 37.5t16.5 39.5t38.5 16.5t37 -14.5t15 -38.5z" />
    <glyph glyph-name="slash" unicode="/" horiz-adv-x="370" 
d="M435 706l-429 -724l-55 19l431 725z" />
    <glyph glyph-name="zero" unicode="0" horiz-adv-x="580" 
d="M358 726q36 0 70 -12.5t59.5 -42t40.5 -76t15 -110.5q0 -103 -25 -200t-64.5 -163.5t-93 -103t-121.5 -36.5q-36 0 -70.5 12.5t-60 41.5t-40 75t-14.5 110q0 81 15 157t39 136.5t59.5 108.5t83.5 75.5t107 27.5zM353 666q-47 0 -89.5 -37.5t-73 -101t-47.5 -143
t-17 -157.5q0 -93 31.5 -138.5t86.5 -45.5q35 0 68.5 21.5t60.5 60t47.5 88.5t35 119t14.5 147q0 49 -11 93.5t-39 69t-67 24.5z" />
    <glyph glyph-name="one" unicode="1" horiz-adv-x="580" 
d="M429 708l-125 -708h-70l109 621l-149 -111l-35 52l206 146h64z" />
    <glyph glyph-name="two" unicode="2" horiz-adv-x="580" 
d="M465 63l-11 -63h-453l13 75l339 293q72 62 92 102t20 81q0 51 -37.5 82.5t-90.5 31.5q-61 0 -102.5 -35t-57.5 -89l-68 14q23 76 84 123.5t147 47.5q38 0 74 -11t63.5 -32.5t43.5 -53.5t16 -72q0 -62 -21.5 -103.5t-52.5 -72t-70 -63.5l-299 -255h371z" />
    <glyph glyph-name="three" unicode="3" horiz-adv-x="580" 
d="M220 341l11 60h31q91 0 141 39.5t50 116.5q0 50 -34.5 79t-85.5 29q-46 0 -85 -22.5t-62 -64.5l-58 33q75 115 208 115q48 0 93.5 -19t70.5 -59.5t25 -90.5q0 -45 -19 -83t-53.5 -64t-82.5 -39v-2q23 -5 50 -22.5t46.5 -52t19.5 -74.5q0 -50 -17.5 -94t-50.5 -76.5
t-79.5 -50t-101.5 -17.5q-78 0 -136.5 39t-78.5 106l71 25q7 -37 33.5 -63t59 -35.5t57.5 -9.5q75 0 122 46.5t47 122.5q0 64 -43 96t-118 32h-31z" />
    <glyph glyph-name="four" unicode="4" horiz-adv-x="580" 
d="M506 708l-84 -474h105l-11 -63h-105l-30 -171h-69l30 171h-324l12 73l380 464h96zM353 234l70 393h-2l-320 -393h252z" />
    <glyph glyph-name="five" unicode="5" horiz-adv-x="580" 
d="M528 708l-11 -63h-278l-44 -220q44 16 91 16q34 0 69.5 -9.5t66 -33t51 -61t20.5 -87.5q0 -53 -16.5 -102t-50 -86t-85 -58.5t-116.5 -21.5q-73 0 -127 36t-75 93l66 29q10 -31 34.5 -55t52.5 -32.5t50 -8.5q45 0 81.5 14.5t61 40.5t37 61.5t12.5 75.5q0 66 -41.5 107.5
t-110.5 41.5q-34 0 -78 -10.5t-75 -29.5l72 363h343z" />
    <glyph glyph-name="six" unicode="6" horiz-adv-x="580" 
d="M475 708l-258 -309l2 -2q18 12 43.5 19t50.5 7q84 0 138 -52.5t54 -135.5q0 -54 -19 -101t-53.5 -81t-82.5 -52.5t-103 -18.5q-45 0 -84 15.5t-67 43t-43 65t-15 78.5q0 49 24.5 100.5t75.5 114.5l250 309h87zM110 182q0 -27 10 -53.5t28 -46t44 -30.5t57 -11
q30 0 62 9.5t62.5 36t45.5 65.5t15 77q0 58 -36.5 98t-97.5 40q-29 0 -61 -9.5t-60.5 -32t-48.5 -59t-20 -84.5z" />
    <glyph glyph-name="seven" unicode="7" horiz-adv-x="580" 
d="M569 708l-12 -66l-402 -642h-84l413 645h-346l11 63h420z" />
    <glyph glyph-name="eight" unicode="8" horiz-adv-x="580" 
d="M387 373q50 -14 81.5 -54t31.5 -95q0 -57 -21 -103.5t-57 -77t-82 -46t-95 -15.5q-64 0 -110.5 25t-71 65.5t-24.5 93.5q0 30 9.5 62.5t35 66t63 54t69.5 28.5v2q-19 8 -40.5 25t-36 46.5t-14.5 61.5t11 68.5t41.5 72.5t76 54.5t91.5 18.5q83 0 134.5 -44.5t51.5 -122.5
q0 -52 -24.5 -92t-58 -61.5t-61.5 -30.5v-2zM194 517q0 -33 17.5 -61.5t44.5 -40t52 -11.5q33 0 68 16.5t60 54.5t25 73q0 56 -32.5 87t-88.5 31q-38 0 -71 -19t-54 -54t-21 -76zM112 170q0 -56 37 -91.5t97 -35.5q52 0 92 20.5t65 60.5t25 96q0 24 -12.5 53.5t-45 50.5
t-74.5 21q-28 0 -59 -9t-62 -33t-47 -60.5t-16 -72.5z" />
    <glyph glyph-name="nine" unicode="9" horiz-adv-x="580" 
d="M129 0l258 309l-2 2q-18 -12 -43.5 -19t-50.5 -7q-84 0 -138 52.5t-54 135.5q0 54 19 101t53.5 81t82.5 52.5t103 18.5q45 0 84 -15.5t67 -43t43 -65t15 -78.5q0 -49 -24.5 -100.5t-75.5 -114.5l-250 -309h-87zM495 526q0 27 -13 60.5t-46.5 57t-80.5 23.5
q-30 0 -62 -9.5t-62.5 -36t-45.5 -65.5t-15 -77q0 -26 12 -58.5t44 -55.5t78 -23q29 0 61.5 9.5t64.5 34.5t48.5 63.5t16.5 76.5z" />
    <glyph glyph-name="colon" unicode=":" horiz-adv-x="300" 
d="M157 49q0 -22 -16 -38.5t-38 -16.5t-37.5 14.5t-15.5 37.5t16.5 39.5t38.5 16.5t37 -14.5t15 -38.5zM215 421q0 -22 -16 -38.5t-38 -16.5t-37.5 14.5t-15.5 37.5t16.5 39.5t38.5 16.5t37 -14.5t15 -38.5z" />
    <glyph glyph-name="semicolon" unicode=";" horiz-adv-x="300" 
d="M162 95l-123 -235h-60l109 235h74zM215 421q0 -22 -16 -38.5t-38 -16.5t-37.5 14.5t-15.5 37.5t16.5 39.5t38.5 16.5t37 -14.5t15 -38.5z" />
    <glyph glyph-name="less" unicode="&#x3c;" horiz-adv-x="666" 
d="M588 564v-60l-429 -201l429 -201v-60l-510 238v46z" />
    <glyph glyph-name="equal" unicode="=" horiz-adv-x="666" 
d="M78 408h510v-60h-510v60zM78 258h510v-60h-510v60z" />
    <glyph glyph-name="greater" unicode="&#x3e;" horiz-adv-x="666" 
d="M78 504v60l510 -238v-46l-510 -238v60l429 201z" />
    <glyph glyph-name="question" unicode="?" horiz-adv-x="482" 
d="M260 232l-6 -40h-68l10 60q7 39 28 76.5t72 76.5l33 25q53 41 68.5 70t15.5 59q0 32 -17 56.5t-41.5 33.5t-45.5 9q-60 0 -97.5 -33t-49.5 -84l-65 12q11 47 39.5 83.5t72.5 60t99 23.5q57 0 96.5 -20.5t60 -55t20.5 -83.5q0 -29 -11 -61.5t-38.5 -62t-69.5 -59.5
q-59 -42 -79 -71.5t-27 -74.5zM262 49q0 -22 -16 -38.5t-38 -16.5t-37.5 14.5t-15.5 37.5t16.5 39.5t38.5 16.5t37 -14.5t15 -38.5z" />
    <glyph glyph-name="at" unicode="@" horiz-adv-x="800" 
d="M444 489q-21 0 -45.5 -10t-47.5 -34t-40 -63t-17 -89q0 -23 7.5 -41t23.5 -26t34 -8q39 0 72.5 26.5t57 73.5t23.5 99q0 23 -8.5 40.5t-25 24.5t-34.5 7zM673 145l29 -46q-135 -117 -322 -117q-76 0 -140 23t-108.5 64.5t-68 98.5t-23.5 122q0 111 52 211t153.5 162.5
t229.5 62.5q64 0 121 -18.5t99 -54.5t65.5 -88t23.5 -116q0 -53 -13.5 -104.5t-40.5 -93.5t-68 -66.5t-92 -24.5q-20 0 -42.5 7.5t-34.5 26.5t-7 40h-4q-13 -19 -36.5 -38t-49 -27.5t-46.5 -8.5q-64 0 -96.5 35t-32.5 94q0 27 9.5 66t31 75.5t48.5 62t63.5 41t77.5 15.5
q37 0 65.5 -17.5t34.5 -42.5h4l18 45h62l-73 -186q-25 -64 -25 -88q0 -44 48 -44q36 0 66.5 30.5t49.5 83.5t19 107q0 105 -69 167t-180 62q-74 0 -140.5 -29t-115.5 -80.5t-76.5 -121t-27.5 -146.5q0 -55 19.5 -101.5t56 -79.5t88 -50.5t112.5 -17.5q159 0 286 105z" />
    <glyph glyph-name="A" unicode="A" horiz-adv-x="695" 
d="M147 186l-116 -186h-82l456 708h70l147 -708h-75l-38 186h-362zM424 628l-236 -376h310z" />
    <glyph glyph-name="B" unicode="B" horiz-adv-x="620" 
d="M40 0l125 708h204q35 0 72.5 -8t68 -27t48 -49t17.5 -71q0 -69 -42.5 -116t-113.5 -65v-2q42 -7 74 -31t45 -56.5t13 -63.5q0 -52 -22 -93.5t-62.5 -69.5t-96 -42t-121.5 -14h-209zM225 647l-44 -249h145q45 0 85.5 15.5t64.5 47t24 77.5q0 35 -17.5 59t-51.5 37t-81 13
h-125zM171 339l-49 -278h134q69 0 118.5 19t76.5 54.5t27 87.5q0 55 -42 86t-118 31h-147z" />
    <glyph glyph-name="C" unicode="C" horiz-adv-x="720" 
d="M606 150l53 -38q-45 -57 -118 -93.5t-165 -36.5q-69 0 -128 22t-101.5 62.5t-65.5 97t-23 122.5t22 140t74.5 140t116 102t116.5 47t94 11q78 0 143 -31t95 -82l-65 -43q-13 27 -42 50.5t-65.5 33.5t-67.5 10q-92 0 -171 -49t-126.5 -136.5t-47.5 -185.5q0 -51 16.5 -97
t48 -80t78 -53t103.5 -19q65 0 123.5 26.5t102.5 79.5z" />
    <glyph glyph-name="D" unicode="D" horiz-adv-x="757" 
d="M40 0l125 708h214q88 0 165 -33.5t121 -101t44 -161.5q0 -90 -32.5 -167t-83.5 -125t-106.5 -74.5t-111 -36t-98.5 -9.5h-237zM225 645l-103 -582h160q82 0 148.5 28t111.5 76.5t68 110t23 126.5q0 50 -16.5 94t-49.5 77t-85 51.5t-119 18.5h-138z" />
    <glyph glyph-name="E" unicode="E" horiz-adv-x="580" 
d="M171 338l-49 -275h380l-11 -63h-451l125 708h425l-11 -63h-354l-43 -246h338l-11 -61h-338z" />
    <glyph glyph-name="F" unicode="F" horiz-adv-x="550" 
d="M171 337l-60 -337h-71l125 708h417l-11 -63h-346l-44 -247h321l-10 -61h-321z" />
    <glyph glyph-name="G" unicode="G" horiz-adv-x="770" 
d="M380 44q58 0 111.5 13t89.5 35l38 217h-167l11 61h237l-56 -319q-120 -69 -268 -69q-69 0 -128 22t-101.5 62.5t-65.5 97t-23 122.5t22 140t74.5 140t116 102t116.5 47t94 11q78 0 143 -31t95 -82l-65 -43q-13 27 -42 50.5t-65.5 33.5t-67.5 10q-92 0 -171 -49
t-126.5 -136.5t-47.5 -185.5q0 -51 16.5 -97t48 -80t78 -53t103.5 -19z" />
    <glyph glyph-name="H" unicode="H" horiz-adv-x="708" 
d="M40 0l125 708h71l-55 -308h377l55 308h71l-125 -708h-71l59 336h-377l-59 -336h-71z" />
    <glyph glyph-name="I" unicode="I" horiz-adv-x="260" 
d="M236 708l-125 -708h-71l125 708h71z" />
    <glyph glyph-name="J" unicode="J" horiz-adv-x="482" 
d="M-10 120l63 20q5 -30 21.5 -53.5t40 -33t45.5 -9.5q27 0 55.5 10t52 44t37.5 111l88 499h71l-89 -504q-12 -68 -31 -109t-45 -65t-59.5 -36t-75.5 -12q-28 0 -57 7.5t-56 26.5t-42 48.5t-19 55.5z" />
    <glyph glyph-name="K" unicode="K" horiz-adv-x="585" 
d="M236 708l-56 -318h1l360 318h104l-387 -328l296 -380h-93l-283 377h-1l-66 -377h-71l125 708h71z" />
    <glyph glyph-name="L" unicode="L" horiz-adv-x="510" 
d="M236 708l-115 -645h331l-10 -63h-402l125 708h71z" />
    <glyph glyph-name="M" unicode="M" horiz-adv-x="886" 
d="M273 708l134 -586h1l343 586h109l-125 -708h-71l108 612h-2l-364 -612h-38l-148 612h-2l-108 -612h-70l125 708h108z" />
    <glyph glyph-name="N" unicode="N" horiz-adv-x="750" 
d="M255 708l291 -607h2l107 607h71l-125 -708h-89l-290 615h-2l-108 -615h-71l125 708h89z" />
    <glyph glyph-name="O" unicode="O" horiz-adv-x="834" 
d="M373 -18q-50 0 -104 14.5t-100.5 50.5t-71 82t-32 85.5t-7.5 71.5q0 112 51 213.5t147.5 164t214.5 62.5q67 0 125.5 -21.5t101 -62t65.5 -96.5t23 -122q0 -89 -31 -170t-87 -142t-122 -90.5t-111 -34.5t-62 -5zM710 417q0 51 -16 96t-47 79t-77 53t-102 19
q-72 0 -134.5 -31t-107 -83.5t-68.5 -120t-24 -137.5q0 -51 16 -96.5t47 -79.5t76.5 -53t102.5 -19q71 0 133.5 30.5t107 83t69 120.5t24.5 139z" />
    <glyph glyph-name="P" unicode="P" horiz-adv-x="580" 
d="M40 0l125 708h189q103 0 160.5 -45.5t57.5 -124.5q0 -37 -13 -74.5t-45 -67.5t-84.5 -48.5t-126.5 -18.5h-134l-58 -329h-71zM225 647l-46 -259h130q90 0 140.5 36.5t50.5 105.5q0 55 -34.5 86t-117.5 31h-123z" />
    <glyph glyph-name="Q" unicode="Q" horiz-adv-x="836" 
d="M709 411q0 53 -16.5 99.5t-48 81t-77.5 53.5t-102 19q-72 0 -134 -30.5t-106 -82t-67.5 -116.5t-23.5 -131q0 -114 69.5 -178.5t190.5 -64.5q44 0 96 18.5t106.5 68.5t83.5 122t29 141zM785 424q0 -62 -16.5 -118.5t-45.5 -103t-68.5 -81.5t-84.5 -56l-1 -2h207l-11 -63
h-375q-68 0 -128 18t-105.5 55t-71 93t-25.5 128q0 87 31 166.5t79 131.5t100.5 82t105 41t92.5 11q67 0 126 -21.5t101.5 -62t66 -96.5t23.5 -122z" />
    <glyph glyph-name="R" unicode="R" horiz-adv-x="599" 
d="M169 331l-58 -331h-71l125 708h191q72 0 120.5 -21.5t73.5 -58.5t25 -89q0 -59 -24 -100.5t-70 -68t-114 -33.5l156 -337h-81l-148 331h-125zM225 647l-45 -256h126q197 0 197 140q0 57 -42 86.5t-116 29.5h-120z" />
    <glyph glyph-name="S" unicode="S" horiz-adv-x="564" 
d="M552 642l-61 -44q-19 29 -56.5 47.5t-82.5 18.5q-46 0 -87 -17.5t-64 -49.5t-23 -75q0 -40 25.5 -70t103.5 -60q93 -35 136 -78t43 -107q0 -61 -29.5 -112t-86 -82t-140.5 -31q-66 0 -126.5 28t-90.5 77l64 41q20 -36 62 -60t94 -24q74 0 126 42t52 108q0 44 -29.5 76
t-118.5 65q-83 31 -121 74t-38 104q0 44 17 83.5t49.5 68.5t80 45t105.5 16q68 0 120 -23.5t76 -60.5z" />
    <glyph glyph-name="T" unicode="T" horiz-adv-x="547" 
d="M364 645l-114 -645h-71l114 645h-237l11 63h546l-11 -63h-238z" />
    <glyph glyph-name="U" unicode="U" horiz-adv-x="710" 
d="M311 -18q-45 0 -88.5 12.5t-76 40.5t-51 69t-18.5 93q0 36 6 67l78 444h71l-77 -436q-6 -31 -6 -61q0 -54 19 -90.5t55.5 -56.5t91.5 -20q187 0 227 228l77 436h71l-78 -444q-23 -131 -100 -206.5t-201 -75.5z" />
    <glyph glyph-name="V" unicode="V" horiz-adv-x="600" 
d="M153 708l92 -615h2l360 615h79l-421 -708h-74l-114 708h76z" />
    <glyph glyph-name="W" unicode="W" horiz-adv-x="960" 
d="M161 708l57 -609h2l295 609h86l59 -609h2l291 609h76l-345 -708h-84l-57 610h-2l-299 -610h-84l-73 708h76z" />
    <glyph glyph-name="X" unicode="X" horiz-adv-x="618" 
d="M187 708l136 -286l251 286h94l-309 -344l182 -364h-86l-149 313l-273 -313h-98l335 372l-169 336h86z" />
    <glyph glyph-name="Y" unicode="Y" horiz-adv-x="557" 
d="M301 305l-54 -305h-71l54 305l-180 403h84l141 -344l283 344h89z" />
    <glyph glyph-name="Z" unicode="Z" horiz-adv-x="572" 
d="M608 708l-11 -60l-518 -585h419l-11 -63h-512l11 60l519 585h-398l11 63h490z" />
    <glyph glyph-name="bracketleft" unicode="[" horiz-adv-x="300" 
d="M295 732l-9 -54h-96l-138 -780h96l-10 -54h-162l157 888h162z" />
    <glyph glyph-name="backslash" unicode="\" horiz-adv-x="370" 
d="M307 -18l-302 724l57 20l303 -725z" />
    <glyph glyph-name="bracketright" unicode="]" horiz-adv-x="300" 
d="M-2 -156l10 54h96l138 780h-96l9 54h162l-157 -888h-162z" />
    <glyph glyph-name="asciicircum" unicode="^" horiz-adv-x="666" 
d="M80 275l229 433h48l229 -433h-62l-191 361l-191 -361h-62z" />
    <glyph glyph-name="underscore" unicode="_" horiz-adv-x="500" 
d="M0 -125v50h500v-50h-500z" />
    <glyph glyph-name="grave" unicode="`" 
d="M155 564l-132 144h88l100 -144h-56z" />
    <glyph glyph-name="a" unicode="a" horiz-adv-x="534" 
d="M383 287q5 29 5 44q0 93 -110 93q-39 0 -78.5 -16t-67.5 -40l-30 45q33 30 84 48.5t99 18.5q13 0 44 -4t58.5 -19.5t45.5 -42.5t18 -69q0 -24 -4 -50l-34 -190q-11 -66 -11 -105h-60q0 39 6 76h-2q-40 -46 -81.5 -65.5t-99.5 -19.5q-39 0 -75 16t-51.5 44.5t-15.5 60.5
q0 53 34 92t112 61t214 22zM374 236h-16q-128 0 -196.5 -29t-68.5 -87q0 -22 10.5 -39.5t33.5 -26.5t52 -9q52 0 92.5 25t60.5 61.5t25 65.5z" />
    <glyph glyph-name="b" unicode="b" horiz-adv-x="628" 
d="M122 79h-2l-14 -79h-67l134 756h67l-65 -364h2q23 36 71 62t101 26q34 0 70.5 -9.5t71.5 -37t52 -69.5t17 -86q0 -58 -20.5 -111.5t-58 -93.5t-88.5 -62.5t-108 -22.5q-51 0 -97 24.5t-66 66.5zM490 274q0 39 -17 75.5t-52 55.5t-78 19q-31 0 -66.5 -12t-70.5 -44.5
t-53 -79.5t-18 -92q0 -66 41.5 -108.5t109.5 -42.5q33 0 68.5 12t65 40t50 73t20.5 104z" />
    <glyph glyph-name="c" unicode="c" horiz-adv-x="500" 
d="M485 401l-59 -39q-12 27 -42 44.5t-67 17.5q-44 0 -82.5 -18t-66 -49.5t-43 -73.5t-15.5 -88q0 -48 21 -82t54 -51t76 -17q82 0 138 61l43 -37q-79 -81 -186 -81q-99 0 -158 55.5t-59 145.5q0 59 20 112.5t57 93.5t89.5 62.5t113.5 22.5q54 0 99 -20t67 -59z" />
    <glyph glyph-name="d" unicode="d" horiz-adv-x="622" 
d="M34 190q0 58 20.5 111.5t58 93.5t88.5 62.5t108 22.5q51 0 96 -24.5t67 -66.5h2l65 367h67l-134 -756h-67l14 77h-2q-23 -37 -71 -63t-101 -26q-34 0 -70.5 9.5t-71.5 37t-52 69.5t-17 86zM104 195q0 -39 17 -75.5t52 -55.5t78 -19q31 0 66.5 12t70.5 44.5t53 79.5t18 92
q0 66 -41.5 108.5t-109.5 42.5q-33 0 -68.5 -12t-65 -40t-50 -73t-20.5 -104z" />
    <glyph glyph-name="e" unicode="e" horiz-adv-x="566" 
d="M491 216h-387l-2 -22q0 -64 43.5 -106.5t107.5 -42.5q25 0 55.5 8t59 28t47.5 46l42 -40q-40 -48 -95 -73.5t-115 -25.5q-44 0 -83.5 14t-68.5 40.5t-45 65.5t-16 86q0 55 21 107.5t58 92.5t87 63t105 23q46 0 78.5 -11.5t56.5 -30.5t42 -55t18 -86q0 -46 -9 -81z
M113 266h318l2 35q0 53 -33 88t-97 35q-44 0 -83 -19.5t-67.5 -56t-39.5 -82.5z" />
    <glyph glyph-name="f" unicode="f" horiz-adv-x="295" 
d="M317 468l-11 -56h-110l-72 -412h-67l72 412h-99l11 56h97l22 127q10 55 33.5 93.5t58.5 59t83 20.5q30 0 55 -7l-16 -59q-21 6 -47 6q-24 0 -45 -11.5t-35 -39.5t-21 -69l-21 -120h112z" />
    <glyph glyph-name="g" unicode="g" horiz-adv-x="627" 
d="M-4 -146l45 48q25 -36 72 -59.5t98 -23.5q170 0 205 185l17 89h-2q-31 -44 -78.5 -68.5t-99.5 -24.5q-46 0 -85 15.5t-66.5 43.5t-42 65.5t-14.5 80.5q0 55 20.5 105.5t57.5 88.5t87.5 59.5t107.5 21.5q52 0 97.5 -25t64.5 -68h2l15 81h66l-82 -464q-11 -60 -30 -103.5
t-53 -76.5t-83.5 -48.5t-103.5 -15.5q-67 0 -124 25.5t-91 68.5zM114 204q0 -46 20.5 -79.5t53 -51t76.5 -17.5q32 0 67 11.5t65.5 39t51 70.5t20.5 97q0 23 -7 48t-24.5 47.5t-47.5 38.5t-72 16q-90 0 -146.5 -61t-56.5 -159z" />
    <glyph glyph-name="h" unicode="h" horiz-adv-x="577" 
d="M332 480q74 0 117 -38.5t43 -104.5q0 -20 -5 -50l-51 -287h-67l46 259q6 32 6 59q0 106 -106 106q-20 0 -44 -7.5t-48.5 -27.5t-46 -56.5t-31.5 -92.5l-42 -240h-67l133 756h67l-64 -365h2q26 40 68.5 64.5t89.5 24.5z" />
    <glyph glyph-name="i" unicode="i" horiz-adv-x="250" 
d="M187 468l-83 -468h-67l83 468h67zM227 649q0 -19 -14 -33.5t-33 -14.5t-32.5 12.5t-13.5 32.5t14.5 34.5t33.5 14.5t32 -13t13 -33z" />
    <glyph glyph-name="j" unicode="j" horiz-adv-x="251" 
d="M-113 -233l14 57q18 -6 42 -6q30 0 49.5 18t31.5 82l97 550h67l-99 -561q-13 -78 -47.5 -112.5t-98.5 -34.5q-34 0 -56 7zM227 649q0 -19 -14 -33.5t-33 -14.5t-32.5 12.5t-13.5 32.5t14.5 34.5t33.5 14.5t32 -13t13 -33z" />
    <glyph glyph-name="k" unicode="k" horiz-adv-x="487" 
d="M238 756l-88 -499h3l239 211h93l-257 -217l214 -251h-88l-203 246h-3l-42 -246h-68l133 756h67z" />
    <glyph glyph-name="l" unicode="l" horiz-adv-x="252" 
d="M239 756l-133 -756h-68l133 756h68z" />
    <glyph glyph-name="m" unicode="m" horiz-adv-x="874" 
d="M628 480q75 0 118 -38.5t43 -104.5q0 -20 -5 -50l-51 -287h-67l46 259q6 32 6 59q0 106 -104 106q-44 0 -75 -22t-50.5 -61.5t-28.5 -91.5l-44 -249h-67l49 272q6 33 6 61q0 91 -93 91q-31 0 -63.5 -18t-61.5 -59t-41 -107l-42 -240h-67l64 365q10 50 15 103h64
q-7 -62 -11 -80h2q29 43 71 67.5t91 24.5q32 0 59.5 -10.5t46 -32t25.5 -56.5q27 47 70 73t95 26z" />
    <glyph glyph-name="n" unicode="n" horiz-adv-x="577" 
d="M115 468h65q-7 -62 -11 -80h2q27 42 70 67t90 25q75 0 118 -38.5t43 -104.5q0 -20 -5 -50l-51 -287h-67l46 259q6 32 6 59q0 106 -104 106q-58 0 -107 -48t-65 -136l-42 -240h-67l64 365q10 50 15 103z" />
    <glyph glyph-name="o" unicode="o" horiz-adv-x="596" 
d="M250 -12q-94 0 -155 57t-61 146q0 57 20.5 110t58 93.5t89.5 63t110 22.5q95 0 155.5 -56.5t60.5 -145.5q0 -58 -20.5 -111.5t-58 -93.5t-89 -62.5t-110.5 -22.5zM458 274q0 31 -10.5 59t-30 48t-47.5 31.5t-62 11.5q-42 0 -79.5 -18t-65.5 -50t-43 -74t-15 -87
q0 -66 40.5 -108t108.5 -42q54 0 103 30.5t75 86t26 112.5z" />
    <glyph glyph-name="p" unicode="p" horiz-adv-x="628" 
d="M177 392q23 36 71 62t101 26q34 0 70.5 -9.5t71.5 -37t52 -69.5t17 -86q0 -58 -20.5 -111.5t-58 -93.5t-88.5 -62.5t-108 -22.5q-51 0 -96 24.5t-67 66.5h-2l-57 -319h-67l126 708h67l-14 -76h2zM490 274q0 39 -17 75.5t-52 55.5t-78 19q-31 0 -66.5 -12t-70.5 -44.5
t-53 -79.5t-18 -92q0 -66 41.5 -108.5t109.5 -42.5q33 0 68.5 12t65 40t50 73t20.5 104z" />
    <glyph glyph-name="q" unicode="q" horiz-adv-x="620" 
d="M34 190q0 58 20.5 111.5t58 93.5t88.5 62.5t108 22.5q51 0 96 -24.5t67 -66.5h2l14 79h67l-125 -708h-67l56 316h-2q-23 -36 -71 -62t-101 -26q-34 0 -70.5 9.5t-71.5 37t-52 69.5t-17 86zM104 195q0 -39 17 -75.5t52 -55.5t78 -19q31 0 66.5 12t70.5 44.5t53 79.5t18 92
q0 66 -41.5 108.5t-109.5 42.5q-33 0 -68.5 -12t-65 -40t-50 -73t-20.5 -104z" />
    <glyph glyph-name="r" unicode="r" horiz-adv-x="348" 
d="M100 365q10 50 15 103h64q-7 -62 -11 -80h2q26 41 67.5 66.5t88.5 25.5q27 0 44 -5l-16 -64q-14 6 -46 6q-58 0 -102.5 -44t-60.5 -133l-42 -240h-67z" />
    <glyph glyph-name="s" unicode="s" horiz-adv-x="444" 
d="M407 403l-53 -38q-14 27 -43 43t-66 16q-29 0 -57 -10t-41 -27.5t-13 -38.5q0 -26 15.5 -43.5t77.5 -35.5q70 -20 105.5 -52t35.5 -85q0 -45 -24.5 -77t-67 -49.5t-89.5 -17.5q-60 0 -111.5 23t-79.5 66l58 38q17 -30 52.5 -50t77.5 -20q48 0 82.5 20.5t34.5 59.5
q0 26 -19.5 48t-94.5 46q-66 21 -92 51.5t-26 72.5q0 50 32.5 82.5t74.5 43.5t73 11q53 0 96 -21.5t62 -55.5z" />
    <glyph glyph-name="t" unicode="t" horiz-adv-x="307" 
d="M314 468l-11 -56h-127l-49 -274l-3 -32q0 -23 11.5 -39t46.5 -16q14 0 31.5 4.5t25.5 10.5l-8 -58q-12 -6 -33.5 -10t-43.5 -4q-28 0 -51 10t-36 30t-13 53q0 14 3 32l52 293h-97l11 56h95l23 132h67l-23 -132h129z" />
    <glyph glyph-name="u" unicode="u" horiz-adv-x="577" 
d="M429 0h-65q8 63 11 80h-2q-27 -42 -70 -67t-90 -25q-75 0 -118 38.5t-43 104.5q0 20 5 50l51 287h67l-46 -259q-6 -31 -6 -59q0 -105 104 -105q58 0 107 47.5t65 135.5l42 240h67l-64 -365q-10 -50 -15 -103z" />
    <glyph glyph-name="v" unicode="v" horiz-adv-x="478" 
d="M487 468l-282 -468h-72l-98 468h69l75 -396h2l233 396h73z" />
    <glyph glyph-name="w" unicode="w" horiz-adv-x="733" 
d="M52 468h70l32 -380h2l198 380h64l55 -380h3l187 380h72l-239 -468h-72l-53 379h-2l-195 -379h-71z" />
    <glyph glyph-name="x" unicode="x" horiz-adv-x="475" 
d="M393 0h-78l-100 199l-187 -199h-83l240 247l-117 221h72l91 -184l171 184h81l-222 -229z" />
    <glyph glyph-name="y" unicode="y" horiz-adv-x="483" 
d="M114 468l75 -394h2l228 394h75l-354 -589q-45 -74 -82 -96.5t-73 -22.5q-28 0 -57 6l10 62q22 -8 44 -8q30 0 54 20.5t48 62.5l58 98l-98 467h70z" />
    <glyph glyph-name="z" unicode="z" horiz-adv-x="442" 
d="M430 468l-9 -48l-344 -361h290l-10 -59h-380l8 48l343 363h-265l11 57h356z" />
    <glyph glyph-name="braceleft" unicode="{" horiz-adv-x="300" 
d="M-9 258l11 60q38 0 63.5 29.5t35.5 81.5l31 178q12 65 47.5 95t82.5 30h63l-9 -54h-48q-57 0 -72 -83l-31 -178q-6 -33 -23.5 -62.5t-44 -46.5t-44.5 -19v-2q14 -2 32 -14.5t27.5 -34t9.5 -47.5q0 -14 -3 -32l-31 -178q-3 -15 -3 -32q0 -51 45 -51h48l-10 -54h-63
q-39 0 -64 21.5t-25 66.5l4 37l31 178q3 20 3 36q0 36 -16 55.5t-47 19.5z" />
    <glyph glyph-name="bar" unicode="|" horiz-adv-x="222" 
d="M81 750h60v-1000h-60v1000z" />
    <glyph glyph-name="braceright" unicode="}" horiz-adv-x="300" 
d="M291 258q-38 0 -63.5 -29.5t-34.5 -81.5l-31 -178q-12 -65 -48 -95t-83 -30h-63l10 54h48q57 0 72 83l31 178q6 33 23 62.5t44 46.5t45 19v2q-15 2 -32.5 14.5t-27 34t-9.5 46.5q0 15 3 33l31 178q3 15 3 32q0 51 -45 51h-48l9 54h63q40 0 65 -21t25 -67l-4 -37l-31 -178
q-4 -19 -4 -38q0 -35 16 -54t47 -19z" />
    <glyph glyph-name="asciitilde" unicode="~" horiz-adv-x="666" 
d="M535 368l42 -40q-33 -51 -68 -72t-68 -21q-30 0 -54 7.5t-57 28.5q-35 22 -58 31t-45 9q-23 0 -49 -17t-47 -56l-42 40q38 53 70.5 73t65.5 20q57 0 110 -35q64 -41 103 -41q53 0 97 73z" />
    <glyph glyph-name="uni00A0" unicode="&#xa0;" horiz-adv-x="250" 
 />
    <glyph glyph-name="exclamdown" unicode="&#xa1;" horiz-adv-x="278" 
d="M6 -228l91 516h72l-91 -516h-72zM99 431q0 22 16 38.5t38 16.5t37.5 -14.5t15.5 -37.5t-16.5 -39.5t-38.5 -16.5t-37 14.5t-15 38.5z" />
    <glyph glyph-name="cent" unicode="&#xa2;" horiz-adv-x="580" 
d="M242 -8q-78 13 -123 66t-45 131q0 55 18 106t51.5 90.5t81 64t103.5 29.5l11 61h48l-11 -61q47 -4 86 -24t58 -54l-59 -39q-11 24 -36.5 41t-57.5 20l-67 -378q40 1 74.5 17.5t59.5 43.5l43 -37q-79 -81 -187 -81l-11 -60h-48zM254 50l65 372q-76 -10 -125 -75.5
t-49 -151.5q0 -55 28.5 -95t80.5 -50z" />
    <glyph glyph-name="sterling" unicode="&#xa3;" horiz-adv-x="580" 
d="M417 395l-11 -58h-168l-48 -278h263l-11 -59h-436l11 59h102l48 278h-96l11 58h94l16 93q16 84 49 137t78.5 77t101.5 24q43 0 81.5 -14.5t62.5 -40.5l-43 -51q-17 21 -43.5 33.5t-59.5 12.5q-31 0 -62.5 -14t-56 -54.5t-38.5 -115.5l-15 -87h170z" />
    <glyph glyph-name="currency" unicode="&#xa4;" horiz-adv-x="580" 
d="M477 431q47 -61 47 -146q0 -90 -50 -151l86 -86l-39 -40l-88 87q-62 -47 -144 -47t-145 49l-89 -89l-40 40l88 89q-48 57 -48 148q0 83 45 144l-85 85l40 39l85 -84q65 50 149 50q86 0 147 -50l84 84l40 -39zM289 457q-74 0 -120.5 -50t-46.5 -122q0 -54 24 -93.5
t60.5 -60t82.5 -20.5t82.5 20.5t60.5 60t24 93.5q0 72 -46.5 122t-120.5 50z" />
    <glyph glyph-name="yen" unicode="&#xa5;" horiz-adv-x="580" 
d="M76 223h165l20 107h-165l8 52h153l-159 326h77l134 -300l236 300h86l-272 -326h143l-8 -52h-167l-20 -107h167l-8 -52h-167l-31 -171h-66l31 171h-165z" />
    <glyph glyph-name="brokenbar" unicode="&#xa6;" horiz-adv-x="222" 
d="M81 675h60v-350h-60v350zM81 175h60v-350h-60v350z" />
    <glyph glyph-name="section" unicode="&#xa7;" horiz-adv-x="580" 
d="M317 378l-60 26q-3 0 -12 -1.5t-31 -10.5t-43 -33t-21 -58q0 -28 15.5 -51t75.5 -48l61 -25q36 7 65 35.5t29 68.5q0 63 -79 97zM201 441q-26 16 -40 42.5t-14 57.5q0 55 26.5 95.5t70.5 62t105 21.5q58 0 102 -21.5t62 -54.5l-57 -41q-17 28 -45.5 42t-62.5 14
q-33 0 -63 -10.5t-48 -37.5t-18 -60q0 -38 22.5 -60.5t77.5 -44.5q79 -32 114 -67.5t35 -85.5q0 -57 -30 -95.5t-83 -59.5q44 -41 44 -97q0 -48 -25.5 -91t-75 -65.5t-105.5 -22.5q-28 0 -64 10t-68.5 35.5t-48.5 56.5l59 42q17 -39 52.5 -61t70.5 -22q58 0 95.5 29.5
t37.5 81.5q0 36 -22 59t-78 44q-83 31 -116.5 66.5t-33.5 87.5q0 38 17.5 71t47.5 52t59 27z" />
    <glyph glyph-name="dieresis" unicode="&#xa8;" 
d="M128 649q0 -20 -14.5 -35t-33.5 -15q-20 0 -34 13t-14 34t15 36t35 15t33 -13.5t13 -34.5zM326 649q0 -20 -14.5 -35t-34.5 -15t-33.5 13t-13.5 34t14.5 36t34.5 15t33.5 -13.5t13.5 -34.5z" />
    <glyph glyph-name="copyright" unicode="&#xa9;" horiz-adv-x="800" 
d="M580 224l-52 34q-23 -33 -54 -49t-64 -16q-26 0 -53.5 9t-50.5 30t-38 53.5t-15 73.5q0 49 22.5 87t57.5 58t79 20q32 0 62.5 -18t45.5 -41l52 40q-24 36 -69 57.5t-93 21.5q-47 0 -84 -14.5t-66 -38.5t-52.5 -68.5t-23.5 -103.5q0 -48 17 -89.5t47.5 -72t72.5 -47.5
t89 -17q55 0 99.5 26t70.5 65zM20 353q0 -76 29.5 -145t82.5 -120.5t123 -80.5t146 -29t145.5 29t122 80.5t82 120.5t29.5 145t-29.5 145.5t-82 121.5t-122 81t-145.5 29t-146 -29t-123 -81t-82.5 -121.5t-29.5 -145.5zM80 353q0 64 25 123t69.5 103.5t103.5 69.5t123 25
t122.5 -25t102.5 -69.5t69 -103.5t25 -123t-25 -122.5t-69 -102.5t-102.5 -69t-122.5 -25t-123 25t-103.5 69t-69.5 102.5t-25 122.5z" />
    <glyph glyph-name="ordfeminine" unicode="&#xaa;" horiz-adv-x="350" 
d="M292 607l2 22q0 49 -61 49q-21 0 -45.5 -10.5t-39.5 -23.5l-22 35q20 18 53.5 30t62.5 12q31 0 56.5 -11.5t36 -31t10.5 -39.5l-2 -30l-21 -114q-6 -44 -6 -63h-43q0 16 4 46h-1q-39 -53 -105 -53q-15 0 -36.5 5.5t-36.5 20t-18.5 28t-3.5 23.5q0 49 46 77t170 28z
M286 569h-10q-42 0 -74.5 -6t-51.5 -19.5t-19 -36.5q0 -16 12.5 -28t41.5 -12q38 0 64 23.5t33 58.5z" />
    <glyph glyph-name="guillemotleft" unicode="&#xab;" horiz-adv-x="496" 
d="M117 235l85 -171l-50 -33l-106 209l177 209l41 -37zM298 235l85 -171l-50 -33l-106 209l177 209l41 -37z" />
    <glyph glyph-name="logicalnot" unicode="&#xac;" horiz-adv-x="666" 
d="M588 408v-278h-60v218h-450v60h510z" />
    <glyph glyph-name="uni00AD" unicode="&#xad;" horiz-adv-x="320" 
d="M266 271l-10 -57h-224l10 57h224z" />
    <glyph glyph-name="registered" unicode="&#xae;" horiz-adv-x="600" 
d="M112 493q0 46 17.5 87.5t49 73t73.5 49t88 17.5t88 -17.5t73.5 -49t49 -73t17.5 -87.5q0 -34 -12 -72t-44 -76t-79 -57.5t-93 -19.5q-34 0 -72 11.5t-77 43t-59 78t-20 92.5zM148 493q0 -48 25.5 -94.5t72 -72t94.5 -25.5t94.5 25.5t72 72t25.5 94.5q0 29 -10 61t-34 61
t-62 49.5t-86 20.5q-29 0 -61 -10t-61 -34t-49.5 -62t-20.5 -86zM251 366v256h90q28 0 51.5 -10t33.5 -28t10 -37q0 -27 -16 -45t-43 -24l69 -112h-56l-60 107h-33v-107h-46zM297 510h37q16 0 30 4.5t20 14t6 19.5q0 14 -11.5 24.5t-39.5 10.5h-42v-73z" />
    <glyph glyph-name="macron" unicode="&#xaf;" 
d="M316 654l-9 -54h-270l9 54h270z" />
    <glyph glyph-name="degree" unicode="&#xb0;" horiz-adv-x="400" 
d="M399 571q0 -64 -42.5 -106.5t-106.5 -42.5t-106.5 42.5t-42.5 106.5t42.5 106.5t106.5 42.5t106.5 -42.5t42.5 -106.5zM351 571q0 19 -10 43t-35.5 41t-55.5 17q-19 0 -43 -10t-41 -35.5t-17 -55.5q0 -19 10 -43t35.5 -41t55.5 -17q19 0 43 10t41 35.5t17 55.5z" />
    <glyph glyph-name="plusminus" unicode="&#xb1;" horiz-adv-x="666" 
d="M78 347v60h225v156h60v-156h225v-60h-225v-151h-60v151h-225zM78 48v60h510v-60h-510z" />
    <glyph glyph-name="uni00B2" unicode="&#xb2;" horiz-adv-x="370" 
d="M125 344h214l-11 -54h-281l10 60l187 157q36 30 51.5 53.5t15.5 46.5q0 26 -19 42.5t-50 16.5q-21 0 -38.5 -11t-27.5 -27.5t-15 -31.5l-55 15q8 23 25.5 48.5t48.5 42t66 16.5q57 0 89.5 -30.5t32.5 -77.5q0 -32 -16 -62.5t-81 -83.5z" />
    <glyph glyph-name="uni00B3" unicode="&#xb3;" horiz-adv-x="370" 
d="M195 535q51 0 77 20t26 56q0 26 -17 41t-45 15q-51 0 -79 -50l-46 29q21 36 55.5 55t76.5 19q36 0 64.5 -16t39.5 -41.5t11 -48.5q0 -21 -9 -43.5t-30.5 -38.5t-47.5 -23q29 -7 48.5 -32t19.5 -56q0 -24 -7.5 -48t-28 -46.5t-52.5 -32.5t-61 -10q-50 0 -86 24.5t-50 67.5
l60 18q7 -27 27 -41.5t50 -14.5q40 0 64 21t24 56q0 18 -10 35.5t-33.5 26t-51.5 8.5h-19l9 50h21z" />
    <glyph glyph-name="acute" unicode="&#xb4;" 
d="M318 708l-158 -144h-56l126 144h88z" />
    <glyph glyph-name="mu" unicode="&#xb5;" horiz-adv-x="556" 
d="M-27 -228l148 696h66l-55 -259q-10 -48 -10 -73q0 -46 25 -67t78 -21q37 0 76 21t66 64t38 95l51 240h66l-78 -365q-3 -14 -16 -103h-71l16 76h-2q-30 -36 -80.5 -62t-95.5 -26q-69 0 -104 29l-52 -245h-66z" />
    <glyph glyph-name="paragraph" unicode="&#xb6;" horiz-adv-x="600" 
d="M584 708l-147 -834h-66l137 780h-124l-137 -780h-66l78 442q-80 0 -129.5 43.5t-49.5 110.5q0 48 19.5 92t55 76.5t85.5 51t107 18.5h237z" />
    <glyph glyph-name="periodcentered" unicode="&#xb7;" horiz-adv-x="260" 
d="M184 315q0 -22 -16 -38.5t-38 -16.5t-37.5 14.5t-15.5 37.5t16.5 39.5t38.5 16.5t37 -14.5t15 -38.5z" />
    <glyph glyph-name="cedilla" unicode="&#xb8;" 
d="M102 0l-60 -75q13 4 31 4q20 0 39 -9t27 -25t8 -33q0 -24 -13.5 -45.5t-44.5 -34t-62 -12.5q-21 0 -50.5 5.5t-46.5 14.5l19 36q29 -14 74 -14q18 0 34.5 6t24 17t7.5 22q0 18 -14 28t-36 10t-44 -8l-15 15l79 98h43z" />
    <glyph glyph-name="uni00B9" unicode="&#xb9;" horiz-adv-x="370" 
d="M303 708l-75 -422h-61l61 346l-74 -57l-30 41l128 92h51z" />
    <glyph glyph-name="ordmasculine" unicode="&#xba;" horiz-adv-x="350" 
d="M199 424q-27 0 -58.5 11.5t-53 41.5t-21.5 69q0 26 8.5 55t32 58.5t59 45t71.5 15.5q27 0 58.5 -11t53.5 -41t22 -69q0 -26 -8.5 -55.5t-29 -55.5t-54.5 -45t-80 -19zM316 594q0 35 -22.5 58.5t-59.5 23.5q-23 0 -49 -12.5t-44.5 -44t-18.5 -68.5q0 -35 22.5 -58.5
t58.5 -23.5q48 0 80.5 37t32.5 88z" />
    <glyph glyph-name="guillemotright" unicode="&#xbb;" horiz-adv-x="496" 
d="M358 245l-85 171l50 33l106 -209l-177 -209l-41 37zM177 245l-85 171l50 33l106 -209l-177 -209l-41 37z" />
    <glyph glyph-name="onequarter" unicode="&#xbc;" horiz-adv-x="840" 
d="M743 422l-47 -270h66l-10 -54h-63l-17 -98h-55l17 98h-191l9 52l223 272h68zM674 340h-3l-155 -188h125zM303 708l-75 -422h-61l61 346l-74 -57l-30 41l128 92h51zM736 712l-581 -743l-45 27l582 743z" />
    <glyph glyph-name="onehalf" unicode="&#xbd;" horiz-adv-x="840" 
d="M736 712l-581 -743l-45 27l582 743zM303 708l-75 -422h-61l61 346l-74 -57l-30 41l128 92h51zM539 54h214l-11 -54h-281l10 60l187 157q36 30 51.5 53.5t15.5 46.5q0 26 -19 42.5t-50 16.5q-21 0 -38.5 -11t-27.5 -27.5t-15 -31.5l-55 15q8 23 25.5 48.5t48.5 42t66 16.5
q57 0 89.5 -30.5t32.5 -77.5q0 -32 -16 -62.5t-81 -83.5z" />
    <glyph glyph-name="threequarters" unicode="&#xbe;" horiz-adv-x="840" 
d="M743 422l-47 -270h66l-10 -54h-63l-17 -98h-55l17 98h-191l9 52l223 272h68zM674 340h-3l-155 -188h125zM195 535q51 0 77 20t26 56q0 26 -17 41t-45 15q-51 0 -79 -50l-46 29q21 36 55.5 55t76.5 19q36 0 64.5 -16t39.5 -41.5t11 -48.5q0 -21 -9 -43.5t-30.5 -38.5
t-47.5 -23q29 -7 48.5 -32t19.5 -56q0 -24 -7.5 -48t-28 -46.5t-52.5 -32.5t-61 -10q-50 0 -86 24.5t-50 67.5l60 18q7 -27 27 -41.5t50 -14.5q40 0 64 21t24 56q0 18 -10 35.5t-33.5 26t-51.5 8.5h-19l9 50h21zM736 712l-581 -743l-45 27l582 743z" />
    <glyph glyph-name="questiondown" unicode="&#xbf;" horiz-adv-x="482" 
d="M197 248l6 40h68l-10 -60q-7 -39 -28.5 -74.5t-76.5 -77.5l-33 -25q-51 -40 -65 -69t-14 -61t17 -56.5t41.5 -33.5t45.5 -9q27 0 58 11.5t56 40.5t33 65l65 -12q-19 -76 -77.5 -121.5t-136.5 -45.5q-77 0 -125.5 41t-48.5 118q0 42 24 86.5t96 95.5q63 45 81 76.5
t24 70.5zM195 431q0 22 16 38.5t38 16.5t37.5 -14.5t15.5 -37.5t-16.5 -39.5t-38.5 -16.5t-37 14.5t-15 38.5z" />
    <glyph glyph-name="Agrave" unicode="&#xc0;" horiz-adv-x="695" 
d="M147 186l-116 -186h-82l456 708h70l147 -708h-75l-38 186h-362zM424 628l-236 -376h310zM418 764l-132 144h88l100 -144h-56z" />
    <glyph glyph-name="Aacute" unicode="&#xc1;" horiz-adv-x="695" 
d="M147 186l-116 -186h-82l456 708h70l147 -708h-75l-38 186h-362zM424 628l-236 -376h310zM618 908l-158 -144h-56l126 144h88z" />
    <glyph glyph-name="Acircumflex" unicode="&#xc2;" horiz-adv-x="695" 
d="M147 186l-116 -186h-82l456 708h70l147 -708h-75l-38 186h-362zM424 628l-236 -376h310zM512 908l83 -144h-63l-64 108l-102 -108h-69l135 144h80z" />
    <glyph glyph-name="Atilde" unicode="&#xc3;" horiz-adv-x="695" 
d="M147 186l-116 -186h-82l456 708h70l147 -708h-75l-38 186h-362zM424 628l-236 -376h310zM333 776h-43q11 32 28.5 57.5t39.5 36t42 10.5q27 0 69 -23q24 -12 37.5 -17.5t25.5 -5.5q36 0 58 50h43q-38 -104 -111 -104q-23 0 -69 23q-40 23 -63 23q-37 0 -57 -50z" />
    <glyph glyph-name="Adieresis" unicode="&#xc4;" horiz-adv-x="695" 
d="M147 186l-116 -186h-82l456 708h70l147 -708h-75l-38 186h-362zM424 628l-236 -376h310zM410 849q0 -20 -14.5 -35t-33.5 -15q-20 0 -34 13t-14 34t15 36t35 15t33 -13.5t13 -34.5zM608 849q0 -20 -14.5 -35t-34.5 -15t-33.5 13t-13.5 34t14.5 36t34.5 15t33.5 -13.5
t13.5 -34.5z" />
    <glyph glyph-name="Aring" unicode="&#xc5;" horiz-adv-x="695" 
d="M147 186l-116 -186h-82l456 708h70l147 -708h-75l-38 186h-362zM424 628l-236 -376h310zM451 754q-37 0 -61 22.5t-24 56.5q0 33 17.5 61.5t43 40t47.5 11.5q37 0 61 -22t24 -57q0 -47 -31 -80t-77 -33zM525 865q0 22 -14.5 37t-38.5 15q-30 0 -50.5 -24t-20.5 -57
q0 -22 14.5 -37t37.5 -15q14 0 31 8t29 28.5t12 44.5z" />
    <glyph glyph-name="AE" unicode="&#xc6;" horiz-adv-x="990" 
d="M889 0h-424l35 200h-291l-163 -200h-89l586 708h445l-11 -63h-328l-43 -246h312l-11 -61h-312l-49 -275h354zM256 261h255l68 384h-8z" />
    <glyph glyph-name="Ccedilla" unicode="&#xc7;" horiz-adv-x="720" 
d="M606 150l53 -38q-44 -55 -111 -90t-154 -39l-46 -58q13 4 31 4q20 0 39 -9t27 -25t8 -33q0 -24 -13.5 -45.5t-44.5 -34t-62 -12.5q-21 0 -50.5 5.5t-46.5 14.5l19 36q29 -14 74 -14q18 0 34.5 6t24 17t7.5 22q0 18 -14 28t-36 10t-44 -8l-15 15l65 81q-64 4 -118.5 27.5
t-93.5 63.5t-60 94.5t-21 117.5q0 66 22 140t74.5 140t116 102t116.5 47t94 11q78 0 143 -31t95 -82l-65 -43q-13 27 -42 50.5t-65.5 33.5t-67.5 10q-92 0 -171 -49t-126.5 -136.5t-47.5 -185.5q0 -51 16.5 -97t48 -80t78 -53t103.5 -19q65 0 123.5 26.5t102.5 79.5z" />
    <glyph glyph-name="Egrave" unicode="&#xc8;" horiz-adv-x="580" 
d="M171 338l-49 -275h380l-11 -63h-451l125 708h425l-11 -63h-354l-43 -246h338l-11 -61h-338zM390 764l-132 144h88l100 -144h-56z" />
    <glyph glyph-name="Eacute" unicode="&#xc9;" horiz-adv-x="580" 
d="M171 338l-49 -275h380l-11 -63h-451l125 708h425l-11 -63h-354l-43 -246h338l-11 -61h-338zM559 908l-158 -144h-56l126 144h88z" />
    <glyph glyph-name="Ecircumflex" unicode="&#xca;" horiz-adv-x="580" 
d="M171 338l-49 -275h380l-11 -63h-451l125 708h425l-11 -63h-354l-43 -246h338l-11 -61h-338zM452 908l83 -144h-63l-64 108l-102 -108h-69l135 144h80z" />
    <glyph glyph-name="Edieresis" unicode="&#xcb;" horiz-adv-x="580" 
d="M171 338l-49 -275h380l-11 -63h-451l125 708h425l-11 -63h-354l-43 -246h338l-11 -61h-338zM348 849q0 -20 -14.5 -35t-33.5 -15q-20 0 -34 13t-14 34t15 36t35 15t33 -13.5t13 -34.5zM546 849q0 -20 -14.5 -35t-34.5 -15t-33.5 13t-13.5 34t14.5 36t34.5 15t33.5 -13.5
t13.5 -34.5z" />
    <glyph glyph-name="Igrave" unicode="&#xcc;" horiz-adv-x="260" 
d="M236 708l-125 -708h-71l125 708h71zM182 764l-132 144h88l100 -144h-56z" />
    <glyph glyph-name="Iacute" unicode="&#xcd;" horiz-adv-x="260" 
d="M236 708l-125 -708h-71l125 708h71zM387 908l-158 -144h-56l126 144h88z" />
    <glyph glyph-name="Icircumflex" unicode="&#xce;" horiz-adv-x="260" 
d="M236 708l-125 -708h-71l125 708h71zM274 908l83 -144h-63l-64 108l-102 -108h-69l135 144h80z" />
    <glyph glyph-name="Idieresis" unicode="&#xcf;" horiz-adv-x="260" 
d="M236 708l-125 -708h-71l125 708h71zM169 849q0 -20 -14.5 -35t-33.5 -15q-20 0 -34 13t-14 34t15 36t35 15t33 -13.5t13 -34.5zM367 849q0 -20 -14.5 -35t-34.5 -15t-33.5 13t-13.5 34t14.5 36t34.5 15t33.5 -13.5t13.5 -34.5z" />
    <glyph glyph-name="Eth" unicode="&#xd0;" horiz-adv-x="757" 
d="M101 347h-70l10 54h70l54 307h214q88 0 165 -33.5t121 -101t44 -161.5q0 -90 -32.5 -167t-83.5 -125t-106.5 -74.5t-111 -36t-98.5 -9.5h-237zM182 401h251l-10 -54h-251l-50 -284h160q82 0 148.5 28t111.5 76.5t68 110t23 126.5q0 50 -16.5 94t-49.5 77t-85 51.5
t-119 18.5h-138z" />
    <glyph glyph-name="Ntilde" unicode="&#xd1;" horiz-adv-x="750" 
d="M255 708l291 -607h2l107 607h71l-125 -708h-89l-290 615h-2l-108 -615h-71l125 708h89zM334 776h-43q11 32 28.5 57.5t39.5 36t42 10.5q27 0 69 -23q24 -12 37.5 -17.5t25.5 -5.5q36 0 58 50h43q-38 -104 -111 -104q-23 0 -69 23q-40 23 -63 23q-37 0 -57 -50z" />
    <glyph glyph-name="Ograve" unicode="&#xd2;" horiz-adv-x="834" 
d="M373 -18q-50 0 -104 14.5t-100.5 50.5t-71 82t-32 85.5t-7.5 71.5q0 112 51 213.5t147.5 164t214.5 62.5q67 0 125.5 -21.5t101 -62t65.5 -96.5t23 -122q0 -89 -31 -170t-87 -142t-122 -90.5t-111 -34.5t-62 -5zM710 417q0 51 -16 96t-47 79t-77 53t-102 19
q-72 0 -134.5 -31t-107 -83.5t-68.5 -120t-24 -137.5q0 -51 16 -96.5t47 -79.5t76.5 -53t102.5 -19q71 0 133.5 30.5t107 83t69 120.5t24.5 139zM483 764l-132 144h88l100 -144h-56z" />
    <glyph glyph-name="Oacute" unicode="&#xd3;" horiz-adv-x="834" 
d="M373 -18q-50 0 -104 14.5t-100.5 50.5t-71 82t-32 85.5t-7.5 71.5q0 112 51 213.5t147.5 164t214.5 62.5q67 0 125.5 -21.5t101 -62t65.5 -96.5t23 -122q0 -89 -31 -170t-87 -142t-122 -90.5t-111 -34.5t-62 -5zM710 417q0 51 -16 96t-47 79t-77 53t-102 19
q-72 0 -134.5 -31t-107 -83.5t-68.5 -120t-24 -137.5q0 -51 16 -96.5t47 -79.5t76.5 -53t102.5 -19q71 0 133.5 30.5t107 83t69 120.5t24.5 139zM654 908l-158 -144h-56l126 144h88z" />
    <glyph glyph-name="Ocircumflex" unicode="&#xd4;" horiz-adv-x="834" 
d="M373 -18q-50 0 -104 14.5t-100.5 50.5t-71 82t-32 85.5t-7.5 71.5q0 112 51 213.5t147.5 164t214.5 62.5q67 0 125.5 -21.5t101 -62t65.5 -96.5t23 -122q0 -89 -31 -170t-87 -142t-122 -90.5t-111 -34.5t-62 -5zM710 417q0 51 -16 96t-47 79t-77 53t-102 19
q-72 0 -134.5 -31t-107 -83.5t-68.5 -120t-24 -137.5q0 -51 16 -96.5t47 -79.5t76.5 -53t102.5 -19q71 0 133.5 30.5t107 83t69 120.5t24.5 139zM561 908l83 -144h-63l-64 108l-102 -108h-69l135 144h80z" />
    <glyph glyph-name="Otilde" unicode="&#xd5;" horiz-adv-x="834" 
d="M373 -18q-50 0 -104 14.5t-100.5 50.5t-71 82t-32 85.5t-7.5 71.5q0 112 51 213.5t147.5 164t214.5 62.5q67 0 125.5 -21.5t101 -62t65.5 -96.5t23 -122q0 -89 -31 -170t-87 -142t-122 -90.5t-111 -34.5t-62 -5zM710 417q0 51 -16 96t-47 79t-77 53t-102 19
q-72 0 -134.5 -31t-107 -83.5t-68.5 -120t-24 -137.5q0 -51 16 -96.5t47 -79.5t76.5 -53t102.5 -19q71 0 133.5 30.5t107 83t69 120.5t24.5 139zM375 776h-43q11 32 28.5 57.5t39.5 36t42 10.5q27 0 69 -23q24 -12 37.5 -17.5t25.5 -5.5q36 0 58 50h43q-38 -104 -111 -104
q-23 0 -69 23q-40 23 -63 23q-37 0 -57 -50z" />
    <glyph glyph-name="Odieresis" unicode="&#xd6;" horiz-adv-x="834" 
d="M373 -18q-50 0 -104 14.5t-100.5 50.5t-71 82t-32 85.5t-7.5 71.5q0 112 51 213.5t147.5 164t214.5 62.5q67 0 125.5 -21.5t101 -62t65.5 -96.5t23 -122q0 -89 -31 -170t-87 -142t-122 -90.5t-111 -34.5t-62 -5zM710 417q0 51 -16 96t-47 79t-77 53t-102 19
q-72 0 -134.5 -31t-107 -83.5t-68.5 -120t-24 -137.5q0 -51 16 -96.5t47 -79.5t76.5 -53t102.5 -19q71 0 133.5 30.5t107 83t69 120.5t24.5 139zM455 849q0 -20 -14.5 -35t-33.5 -15q-20 0 -34 13t-14 34t15 36t35 15t33 -13.5t13 -34.5zM653 849q0 -20 -14.5 -35t-34.5 -15
t-33.5 13t-13.5 34t14.5 36t34.5 15t33.5 -13.5t13.5 -34.5z" />
    <glyph glyph-name="multiply" unicode="&#xd7;" horiz-adv-x="666" 
d="M174 505l159 -159l158 159l43 -42l-159 -160l159 -159l-43 -43l-158 159l-159 -159l-42 43l159 159l-159 160z" />
    <glyph glyph-name="Oslash" unicode="&#xd8;" horiz-adv-x="834" 
d="M735 608q58 -77 58 -184q0 -66 -21.5 -140t-73 -140.5t-114.5 -102.5t-116.5 -47.5t-94.5 -11.5q-68 0 -127.5 22.5t-100.5 62.5l-90 -85l-30 34l91 84q-58 78 -58 186q0 112 52.5 213.5t151 164t216.5 62.5q67 0 126 -22t101 -62l90 84l30 -34zM680 558l-482 -443
q30 -33 76 -52t102 -19q71 0 134.5 30.5t109.5 83.5t71.5 120.5t25.5 138.5q0 37 -10 74.5t-27 66.5zM652 595q-66 69 -177 69q-72 0 -135.5 -31t-109.5 -84t-71 -120.5t-25 -136.5q0 -37 10 -75.5t28 -67.5z" />
    <glyph glyph-name="Ugrave" unicode="&#xd9;" horiz-adv-x="710" 
d="M311 -18q-45 0 -88.5 12.5t-76 40.5t-51 69t-18.5 93q0 36 6 67l78 444h71l-77 -436q-6 -31 -6 -61q0 -54 19 -90.5t55.5 -56.5t91.5 -20q187 0 227 228l77 436h71l-78 -444q-23 -131 -100 -206.5t-201 -75.5zM424 764l-132 144h88l100 -144h-56z" />
    <glyph glyph-name="Uacute" unicode="&#xda;" horiz-adv-x="710" 
d="M311 -18q-45 0 -88.5 12.5t-76 40.5t-51 69t-18.5 93q0 36 6 67l78 444h71l-77 -436q-6 -31 -6 -61q0 -54 19 -90.5t55.5 -56.5t91.5 -20q187 0 227 228l77 436h71l-78 -444q-23 -131 -100 -206.5t-201 -75.5zM596 908l-158 -144h-56l126 144h88z" />
    <glyph glyph-name="Ucircumflex" unicode="&#xdb;" horiz-adv-x="710" 
d="M311 -18q-45 0 -88.5 12.5t-76 40.5t-51 69t-18.5 93q0 36 6 67l78 444h71l-77 -436q-6 -31 -6 -61q0 -54 19 -90.5t55.5 -56.5t91.5 -20q187 0 227 228l77 436h71l-78 -444q-23 -131 -100 -206.5t-201 -75.5zM500 908l83 -144h-63l-64 108l-102 -108h-69l135 144h80z
" />
    <glyph glyph-name="Udieresis" unicode="&#xdc;" horiz-adv-x="710" 
d="M311 -18q-45 0 -88.5 12.5t-76 40.5t-51 69t-18.5 93q0 36 6 67l78 444h71l-77 -436q-6 -31 -6 -61q0 -54 19 -90.5t55.5 -56.5t91.5 -20q187 0 227 228l77 436h71l-78 -444q-23 -131 -100 -206.5t-201 -75.5zM395 849q0 -20 -14.5 -35t-33.5 -15q-20 0 -34 13t-14 34
t15 36t35 15t33 -13.5t13 -34.5zM593 849q0 -20 -14.5 -35t-34.5 -15t-33.5 13t-13.5 34t14.5 36t34.5 15t33.5 -13.5t13.5 -34.5z" />
    <glyph glyph-name="Yacute" unicode="&#xdd;" horiz-adv-x="557" 
d="M301 305l-54 -305h-71l54 305l-180 403h84l141 -344l283 344h89zM527 908l-158 -144h-56l126 144h88z" />
    <glyph glyph-name="Thorn" unicode="&#xde;" horiz-adv-x="580" 
d="M143 174l-31 -174h-71l125 708h71l-27 -155h118q103 0 160.5 -45.5t57.5 -124.5q0 -37 -13 -74.5t-45 -67.5t-84.5 -48.5t-126.5 -18.5h-134zM199 492l-46 -259h130q90 0 140.5 36.5t50.5 105.5q0 55 -34.5 86t-117.5 31h-123z" />
    <glyph glyph-name="germandbls" unicode="&#xdf;" horiz-adv-x="593" 
d="M192 542l-96 -542h-66l96 544q19 108 78.5 166t152.5 58q83 0 132.5 -45.5t49.5 -116.5q0 -32 -13 -67t-49 -65t-85 -42v-2q47 -9 80 -39.5t45.5 -69.5t12.5 -70q0 -44 -13.5 -90.5t-51.5 -89t-95.5 -63t-116.5 -20.5q-37 0 -62 5l10 57q24 -4 51 -4q61 0 107.5 23.5
t73 67.5t26.5 111t-45.5 109t-120.5 42h-9l11 60h8q30 0 61 9t55 27t37 44.5t13 59.5q0 25 -10.5 51t-38 42t-65.5 16q-40 0 -73 -17t-56.5 -54.5t-33.5 -94.5z" />
    <glyph glyph-name="agrave" unicode="&#xe0;" horiz-adv-x="534" 
d="M383 287q5 29 5 44q0 93 -110 93q-39 0 -78.5 -16t-67.5 -40l-30 45q33 30 84 48.5t99 18.5q13 0 44 -4t58.5 -19.5t45.5 -42.5t18 -69q0 -24 -4 -50l-34 -190q-11 -66 -11 -105h-60q0 39 6 76h-2q-40 -46 -81.5 -65.5t-99.5 -19.5q-39 0 -75 16t-51.5 44.5t-15.5 60.5
q0 53 34 92t112 61t214 22zM374 236h-16q-128 0 -196.5 -29t-68.5 -87q0 -22 10.5 -39.5t33.5 -26.5t52 -9q52 0 92.5 25t60.5 61.5t25 65.5zM301 564l-132 144h88l100 -144h-56z" />
    <glyph glyph-name="aacute" unicode="&#xe1;" horiz-adv-x="534" 
d="M383 287q5 29 5 44q0 93 -110 93q-39 0 -78.5 -16t-67.5 -40l-30 45q33 30 84 48.5t99 18.5q13 0 44 -4t58.5 -19.5t45.5 -42.5t18 -69q0 -24 -4 -50l-34 -190q-11 -66 -11 -105h-60q0 39 6 76h-2q-40 -46 -81.5 -65.5t-99.5 -19.5q-39 0 -75 16t-51.5 44.5t-15.5 60.5
q0 53 34 92t112 61t214 22zM374 236h-16q-128 0 -196.5 -29t-68.5 -87q0 -22 10.5 -39.5t33.5 -26.5t52 -9q52 0 92.5 25t60.5 61.5t25 65.5zM472 708l-158 -144h-56l126 144h88z" />
    <glyph glyph-name="acircumflex" unicode="&#xe2;" horiz-adv-x="534" 
d="M383 287q5 29 5 44q0 93 -110 93q-39 0 -78.5 -16t-67.5 -40l-30 45q33 30 84 48.5t99 18.5q13 0 44 -4t58.5 -19.5t45.5 -42.5t18 -69q0 -24 -4 -50l-34 -190q-11 -66 -11 -105h-60q0 39 6 76h-2q-40 -46 -81.5 -65.5t-99.5 -19.5q-39 0 -75 16t-51.5 44.5t-15.5 60.5
q0 53 34 92t112 61t214 22zM374 236h-16q-128 0 -196.5 -29t-68.5 -87q0 -22 10.5 -39.5t33.5 -26.5t52 -9q52 0 92.5 25t60.5 61.5t25 65.5zM379 708l83 -144h-63l-64 108l-102 -108h-69l135 144h80z" />
    <glyph glyph-name="atilde" unicode="&#xe3;" horiz-adv-x="534" 
d="M383 287q5 29 5 44q0 93 -110 93q-39 0 -78.5 -16t-67.5 -40l-30 45q33 30 84 48.5t99 18.5q13 0 44 -4t58.5 -19.5t45.5 -42.5t18 -69q0 -24 -4 -50l-34 -190q-11 -66 -11 -105h-60q0 39 6 76h-2q-40 -46 -81.5 -65.5t-99.5 -19.5q-39 0 -75 16t-51.5 44.5t-15.5 60.5
q0 53 34 92t112 61t214 22zM374 236h-16q-128 0 -196.5 -29t-68.5 -87q0 -22 10.5 -39.5t33.5 -26.5t52 -9q52 0 92.5 25t60.5 61.5t25 65.5zM193 576h-43q11 32 28.5 57.5t39.5 36t42 10.5q27 0 69 -23q24 -12 37.5 -17.5t25.5 -5.5q36 0 58 50h43q-38 -104 -111 -104
q-23 0 -69 23q-40 23 -63 23q-37 0 -57 -50z" />
    <glyph glyph-name="adieresis" unicode="&#xe4;" horiz-adv-x="534" 
d="M383 287q5 29 5 44q0 93 -110 93q-39 0 -78.5 -16t-67.5 -40l-30 45q33 30 84 48.5t99 18.5q13 0 44 -4t58.5 -19.5t45.5 -42.5t18 -69q0 -24 -4 -50l-34 -190q-11 -66 -11 -105h-60q0 39 6 76h-2q-40 -46 -81.5 -65.5t-99.5 -19.5q-39 0 -75 16t-51.5 44.5t-15.5 60.5
q0 53 34 92t112 61t214 22zM374 236h-16q-128 0 -196.5 -29t-68.5 -87q0 -22 10.5 -39.5t33.5 -26.5t52 -9q52 0 92.5 25t60.5 61.5t25 65.5zM273 649q0 -20 -14.5 -35t-33.5 -15q-20 0 -34 13t-14 34t15 36t35 15t33 -13.5t13 -34.5zM471 649q0 -20 -14.5 -35t-34.5 -15
t-33.5 13t-13.5 34t14.5 36t34.5 15t33.5 -13.5t13.5 -34.5z" />
    <glyph glyph-name="aring" unicode="&#xe5;" horiz-adv-x="534" 
d="M383 287q5 29 5 44q0 93 -110 93q-39 0 -78.5 -16t-67.5 -40l-30 45q33 30 84 48.5t99 18.5q13 0 44 -4t58.5 -19.5t45.5 -42.5t18 -69q0 -24 -4 -50l-34 -190q-11 -66 -11 -105h-60q0 39 6 76h-2q-40 -46 -81.5 -65.5t-99.5 -19.5q-39 0 -75 16t-51.5 44.5t-15.5 60.5
q0 53 34 92t112 61t214 22zM374 236h-16q-128 0 -196.5 -29t-68.5 -87q0 -22 10.5 -39.5t33.5 -26.5t52 -9q52 0 92.5 25t60.5 61.5t25 65.5zM314 554q-37 0 -61 22.5t-24 56.5q0 33 17.5 61.5t43 40t47.5 11.5q37 0 61 -22t24 -57q0 -47 -31 -80t-77 -33zM388 665
q0 22 -14.5 37t-38.5 15q-30 0 -50.5 -24t-20.5 -57q0 -22 14.5 -37t37.5 -15q14 0 31 8t29 28.5t12 44.5z" />
    <glyph glyph-name="ae" unicode="&#xe6;" horiz-adv-x="884" 
d="M442 389q27 38 79 64.5t102 26.5q46 0 78.5 -11.5t56.5 -30.5t42 -55t18 -86q0 -46 -9 -81h-377l-2 -22q0 -65 39 -107t102 -42q25 0 55.5 8t59 28t47.5 46l42 -40q-40 -48 -95 -73.5t-115 -25.5q-29 0 -65 11.5t-67 40.5t-44 66q-30 -54 -82.5 -84.5t-126.5 -30.5
q-44 0 -80 13.5t-56.5 40.5t-20.5 67q0 49 33 84t107.5 52.5t214.5 17.5q10 46 10 65q0 93 -110 93q-39 0 -78.5 -16t-67.5 -40l-30 45q33 30 84 48.5t99 18.5q56 0 98.5 -23t58.5 -68zM370 216h-16q-135 0 -198 -24t-63 -72q0 -22 10.5 -39.5t33.5 -26.5t52 -9
q70 0 118.5 43t59.5 109zM441 266h308l2 35q0 53 -33 88t-97 35q-42 0 -81 -21t-64.5 -59t-34.5 -78z" />
    <glyph glyph-name="ccedilla" unicode="&#xe7;" horiz-adv-x="500" 
d="M485 401l-59 -39q-12 27 -42 44.5t-67 17.5q-44 0 -82.5 -18t-66 -49.5t-43 -73.5t-15.5 -88q0 -48 21 -82t54 -51t76 -17q82 0 138 61l43 -37q-75 -77 -176 -81l-50 -63q13 4 31 4q20 0 39 -9t27 -25t8 -33q0 -24 -13.5 -45.5t-44.5 -34t-62 -12.5q-21 0 -50.5 5.5
t-46.5 14.5l19 36q29 -14 74 -14q18 0 34.5 6t24 17t7.5 22q0 18 -14 28t-36 10t-44 -8l-15 15l70 88q-85 8 -135 62.5t-50 136.5q0 59 20 112.5t57 93.5t89.5 62.5t113.5 22.5q54 0 99 -20t67 -59z" />
    <glyph glyph-name="egrave" unicode="&#xe8;" horiz-adv-x="566" 
d="M491 216h-387l-2 -22q0 -64 43.5 -106.5t107.5 -42.5q25 0 55.5 8t59 28t47.5 46l42 -40q-40 -48 -95 -73.5t-115 -25.5q-44 0 -83.5 14t-68.5 40.5t-45 65.5t-16 86q0 55 21 107.5t58 92.5t87 63t105 23q46 0 78.5 -11.5t56.5 -30.5t42 -55t18 -86q0 -46 -9 -81z
M113 266h318l2 35q0 53 -33 88t-97 35q-44 0 -83 -19.5t-67.5 -56t-39.5 -82.5zM305 564l-132 144h88l100 -144h-56z" />
    <glyph glyph-name="eacute" unicode="&#xe9;" horiz-adv-x="566" 
d="M491 216h-387l-2 -22q0 -64 43.5 -106.5t107.5 -42.5q25 0 55.5 8t59 28t47.5 46l42 -40q-40 -48 -95 -73.5t-115 -25.5q-44 0 -83.5 14t-68.5 40.5t-45 65.5t-16 86q0 55 21 107.5t58 92.5t87 63t105 23q46 0 78.5 -11.5t56.5 -30.5t42 -55t18 -86q0 -46 -9 -81z
M113 266h318l2 35q0 53 -33 88t-97 35q-44 0 -83 -19.5t-67.5 -56t-39.5 -82.5zM482 708l-158 -144h-56l126 144h88z" />
    <glyph glyph-name="ecircumflex" unicode="&#xea;" horiz-adv-x="566" 
d="M491 216h-387l-2 -22q0 -64 43.5 -106.5t107.5 -42.5q25 0 55.5 8t59 28t47.5 46l42 -40q-40 -48 -95 -73.5t-115 -25.5q-44 0 -83.5 14t-68.5 40.5t-45 65.5t-16 86q0 55 21 107.5t58 92.5t87 63t105 23q46 0 78.5 -11.5t56.5 -30.5t42 -55t18 -86q0 -46 -9 -81z
M113 266h318l2 35q0 53 -33 88t-97 35q-44 0 -83 -19.5t-67.5 -56t-39.5 -82.5zM400 708l83 -144h-63l-64 108l-102 -108h-69l135 144h80z" />
    <glyph glyph-name="edieresis" unicode="&#xeb;" horiz-adv-x="566" 
d="M491 216h-387l-2 -22q0 -64 43.5 -106.5t107.5 -42.5q25 0 55.5 8t59 28t47.5 46l42 -40q-40 -48 -95 -73.5t-115 -25.5q-44 0 -83.5 14t-68.5 40.5t-45 65.5t-16 86q0 55 21 107.5t58 92.5t87 63t105 23q46 0 78.5 -11.5t56.5 -30.5t42 -55t18 -86q0 -46 -9 -81z
M113 266h318l2 35q0 53 -33 88t-97 35q-44 0 -83 -19.5t-67.5 -56t-39.5 -82.5zM292 649q0 -20 -14.5 -35t-33.5 -15q-20 0 -34 13t-14 34t15 36t35 15t33 -13.5t13 -34.5zM490 649q0 -20 -14.5 -35t-34.5 -15t-33.5 13t-13.5 34t14.5 36t34.5 15t33.5 -13.5t13.5 -34.5z
" />
    <glyph glyph-name="igrave" unicode="&#xec;" horiz-adv-x="250" 
d="M187 468l-83 -468h-67l83 468h67zM151 564l-132 144h88l100 -144h-56z" />
    <glyph glyph-name="iacute" unicode="&#xed;" horiz-adv-x="250" 
d="M187 468l-83 -468h-67l83 468h67zM346 708l-158 -144h-56l126 144h88z" />
    <glyph glyph-name="icircumflex" unicode="&#xee;" horiz-adv-x="250" 
d="M187 468l-83 -468h-67l83 468h67zM236 708l83 -144h-63l-64 108l-102 -108h-69l135 144h80z" />
    <glyph glyph-name="idieresis" unicode="&#xef;" horiz-adv-x="250" 
d="M187 468l-83 -468h-67l83 468h67zM129 649q0 -20 -14.5 -35t-33.5 -15q-20 0 -34 13t-14 34t15 36t35 15t33 -13.5t13 -34.5zM327 649q0 -20 -14.5 -35t-34.5 -15t-33.5 13t-13.5 34t14.5 36t34.5 15t33.5 -13.5t13.5 -34.5z" />
    <glyph glyph-name="eth" unicode="&#xf0;" horiz-adv-x="596" 
d="M321 480q46 0 80 -14t65 -44l3 2q-17 56 -49 110.5t-72 95.5l-122 -57l-30 36l120 56q-12 13 -24.5 25t-23 20.5t-23 18t-15.5 12.5l61 37q51 -43 86 -82l111 53l34 -35l-113 -54q62 -68 97 -155t35 -180q0 -62 -13.5 -114t-35 -91t-54 -68.5t-78.5 -46.5t-101 -17
q-94 0 -155 57t-61 146q0 57 20.5 110t58 93.5t89.5 63t110 22.5zM467 274q0 31 -10.5 59t-30 48t-47.5 31.5t-62 11.5q-42 0 -79.5 -18t-65.5 -50t-43 -74t-15 -87q0 -66 40.5 -108t108.5 -42q54 0 103 30.5t75 86t26 112.5z" />
    <glyph glyph-name="ntilde" unicode="&#xf1;" horiz-adv-x="577" 
d="M115 468h65q-7 -62 -11 -80h2q27 42 70 67t90 25q75 0 118 -38.5t43 -104.5q0 -20 -5 -50l-51 -287h-67l46 259q6 32 6 59q0 106 -104 106q-58 0 -107 -48t-65 -136l-42 -240h-67l64 365q10 50 15 103zM211 576h-43q11 32 28.5 57.5t39.5 36t42 10.5q27 0 69 -23
q24 -12 37.5 -17.5t25.5 -5.5q36 0 58 50h43q-38 -104 -111 -104q-23 0 -69 23q-40 23 -63 23q-37 0 -57 -50z" />
    <glyph glyph-name="ograve" unicode="&#xf2;" horiz-adv-x="596" 
d="M250 -12q-94 0 -155 57t-61 146q0 57 20.5 110t58 93.5t89.5 63t110 22.5q95 0 155.5 -56.5t60.5 -145.5q0 -58 -20.5 -111.5t-58 -93.5t-89 -62.5t-110.5 -22.5zM458 274q0 31 -10.5 59t-30 48t-47.5 31.5t-62 11.5q-42 0 -79.5 -18t-65.5 -50t-43 -74t-15 -87
q0 -66 40.5 -108t108.5 -42q54 0 103 30.5t75 86t26 112.5zM317 564l-132 144h88l100 -144h-56z" />
    <glyph glyph-name="oacute" unicode="&#xf3;" horiz-adv-x="596" 
d="M250 -12q-94 0 -155 57t-61 146q0 57 20.5 110t58 93.5t89.5 63t110 22.5q95 0 155.5 -56.5t60.5 -145.5q0 -58 -20.5 -111.5t-58 -93.5t-89 -62.5t-110.5 -22.5zM458 274q0 31 -10.5 59t-30 48t-47.5 31.5t-62 11.5q-42 0 -79.5 -18t-65.5 -50t-43 -74t-15 -87
q0 -66 40.5 -108t108.5 -42q54 0 103 30.5t75 86t26 112.5zM496 708l-158 -144h-56l126 144h88z" />
    <glyph glyph-name="ocircumflex" unicode="&#xf4;" horiz-adv-x="596" 
d="M250 -12q-94 0 -155 57t-61 146q0 57 20.5 110t58 93.5t89.5 63t110 22.5q95 0 155.5 -56.5t60.5 -145.5q0 -58 -20.5 -111.5t-58 -93.5t-89 -62.5t-110.5 -22.5zM458 274q0 31 -10.5 59t-30 48t-47.5 31.5t-62 11.5q-42 0 -79.5 -18t-65.5 -50t-43 -74t-15 -87
q0 -66 40.5 -108t108.5 -42q54 0 103 30.5t75 86t26 112.5zM410 708l83 -144h-63l-64 108l-102 -108h-69l135 144h80z" />
    <glyph glyph-name="otilde" unicode="&#xf5;" horiz-adv-x="596" 
d="M250 -12q-94 0 -155 57t-61 146q0 57 20.5 110t58 93.5t89.5 63t110 22.5q95 0 155.5 -56.5t60.5 -145.5q0 -58 -20.5 -111.5t-58 -93.5t-89 -62.5t-110.5 -22.5zM458 274q0 31 -10.5 59t-30 48t-47.5 31.5t-62 11.5q-42 0 -79.5 -18t-65.5 -50t-43 -74t-15 -87
q0 -66 40.5 -108t108.5 -42q54 0 103 30.5t75 86t26 112.5zM217 576h-43q11 32 28.5 57.5t39.5 36t42 10.5q27 0 69 -23q24 -12 37.5 -17.5t25.5 -5.5q36 0 58 50h43q-38 -104 -111 -104q-23 0 -69 23q-40 23 -63 23q-37 0 -57 -50z" />
    <glyph glyph-name="odieresis" unicode="&#xf6;" horiz-adv-x="596" 
d="M250 -12q-94 0 -155 57t-61 146q0 57 20.5 110t58 93.5t89.5 63t110 22.5q95 0 155.5 -56.5t60.5 -145.5q0 -58 -20.5 -111.5t-58 -93.5t-89 -62.5t-110.5 -22.5zM458 274q0 31 -10.5 59t-30 48t-47.5 31.5t-62 11.5q-42 0 -79.5 -18t-65.5 -50t-43 -74t-15 -87
q0 -66 40.5 -108t108.5 -42q54 0 103 30.5t75 86t26 112.5zM297 649q0 -20 -14.5 -35t-33.5 -15q-20 0 -34 13t-14 34t15 36t35 15t33 -13.5t13 -34.5zM495 649q0 -20 -14.5 -35t-34.5 -15t-33.5 13t-13.5 34t14.5 36t34.5 15t33.5 -13.5t13.5 -34.5z" />
    <glyph glyph-name="divide" unicode="&#xf7;" horiz-adv-x="666" 
d="M588 333v-60h-510v60h510zM387 465q0 -21 -15.5 -37.5t-38.5 -16.5t-38.5 16.5t-15.5 37.5t15.5 37.5t38.5 16.5t38.5 -16.5t15.5 -37.5zM387 141q0 -21 -15.5 -37.5t-38.5 -16.5t-38.5 16.5t-15.5 37.5t15.5 37.5t38.5 16.5t38.5 -16.5t15.5 -37.5z" />
    <glyph glyph-name="oslash" unicode="&#xf8;" horiz-adv-x="596" 
d="M491 397q17 -23 27 -55t10 -64q0 -58 -20.5 -111.5t-58 -93.5t-89 -62.5t-110.5 -22.5q-44 0 -83.5 14t-67.5 39l-79 -69l-25 31l77 67q-16 22 -27 53.5t-11 67.5q0 57 20.5 110t58 93.5t89.5 63t110 22.5q45 0 85 -14t68 -39l77 69l26 -31zM440 350l-294 -263
q19 -20 47 -31t61 -11q54 0 103 30.5t75 86t26 112.5q0 43 -18 76zM416 383q-41 41 -108 41q-42 0 -79.5 -18t-65.5 -50t-43 -74t-15 -87q0 -44 18 -77z" />
    <glyph glyph-name="ugrave" unicode="&#xf9;" horiz-adv-x="577" 
d="M429 0h-65q8 63 11 80h-2q-27 -42 -70 -67t-90 -25q-75 0 -118 38.5t-43 104.5q0 20 5 50l51 287h67l-46 -259q-6 -31 -6 -59q0 -105 104 -105q58 0 107 47.5t65 135.5l42 240h67l-64 -365q-10 -50 -15 -103zM292 564l-132 144h88l100 -144h-56z" />
    <glyph glyph-name="uacute" unicode="&#xfa;" horiz-adv-x="577" 
d="M429 0h-65q8 63 11 80h-2q-27 -42 -70 -67t-90 -25q-75 0 -118 38.5t-43 104.5q0 20 5 50l51 287h67l-46 -259q-6 -31 -6 -59q0 -105 104 -105q58 0 107 47.5t65 135.5l42 240h67l-64 -365q-10 -50 -15 -103zM489 708l-158 -144h-56l126 144h88z" />
    <glyph glyph-name="ucircumflex" unicode="&#xfb;" horiz-adv-x="577" 
d="M429 0h-65q8 63 11 80h-2q-27 -42 -70 -67t-90 -25q-75 0 -118 38.5t-43 104.5q0 20 5 50l51 287h67l-46 -259q-6 -31 -6 -59q0 -105 104 -105q58 0 107 47.5t65 135.5l42 240h67l-64 -365q-10 -50 -15 -103zM395 708l83 -144h-63l-64 108l-102 -108h-69l135 144h80z" />
    <glyph glyph-name="udieresis" unicode="&#xfc;" horiz-adv-x="577" 
d="M429 0h-65q8 63 11 80h-2q-27 -42 -70 -67t-90 -25q-75 0 -118 38.5t-43 104.5q0 20 5 50l51 287h67l-46 -259q-6 -31 -6 -59q0 -105 104 -105q58 0 107 47.5t65 135.5l42 240h67l-64 -365q-10 -50 -15 -103zM286 649q0 -20 -14.5 -35t-33.5 -15q-20 0 -34 13t-14 34
t15 36t35 15t33 -13.5t13 -34.5zM484 649q0 -20 -14.5 -35t-34.5 -15t-33.5 13t-13.5 34t14.5 36t34.5 15t33.5 -13.5t13.5 -34.5z" />
    <glyph glyph-name="yacute" unicode="&#xfd;" horiz-adv-x="483" 
d="M114 468l75 -394h2l228 394h75l-354 -589q-45 -74 -82 -96.5t-73 -22.5q-28 0 -57 6l10 62q22 -8 44 -8q30 0 54 20.5t48 62.5l58 98l-98 467h70zM453 708l-158 -144h-56l126 144h88z" />
    <glyph glyph-name="thorn" unicode="&#xfe;" horiz-adv-x="628" 
d="M177 392q23 36 71 62t101 26q34 0 70.5 -9.5t71.5 -37t52 -69.5t17 -86q0 -58 -20.5 -111.5t-58 -93.5t-88.5 -62.5t-108 -22.5q-51 0 -96 24.5t-67 66.5h-2l-57 -319h-67l175 996h67l-63 -364h2zM490 274q0 39 -17 75.5t-52 55.5t-78 19q-31 0 -66.5 -12t-70.5 -44.5
t-53 -79.5t-18 -92q0 -66 41.5 -108.5t109.5 -42.5q33 0 68.5 12t65 40t50 73t20.5 104z" />
    <glyph glyph-name="ydieresis" unicode="&#xff;" horiz-adv-x="483" 
d="M114 468l75 -394h2l228 394h75l-354 -589q-45 -74 -82 -96.5t-73 -22.5q-28 0 -57 6l10 62q22 -8 44 -8q30 0 54 20.5t48 62.5l58 98l-98 467h70zM239 649q0 -20 -14.5 -35t-33.5 -15q-20 0 -34 13t-14 34t15 36t35 15t33 -13.5t13 -34.5zM437 649q0 -20 -14.5 -35
t-34.5 -15t-33.5 13t-13.5 34t14.5 36t34.5 15t33.5 -13.5t13.5 -34.5z" />
    <glyph glyph-name="Amacron" unicode="&#x100;" horiz-adv-x="695" 
d="M147 186l-116 -186h-82l456 708h70l147 -708h-75l-38 186h-362zM424 628l-236 -376h310zM593 854l-9 -54h-270l9 54h270z" />
    <glyph glyph-name="amacron" unicode="&#x101;" horiz-adv-x="534" 
d="M383 287q5 29 5 44q0 93 -110 93q-39 0 -78.5 -16t-67.5 -40l-30 45q33 30 84 48.5t99 18.5q13 0 44 -4t58.5 -19.5t45.5 -42.5t18 -69q0 -24 -4 -50l-34 -190q-11 -66 -11 -105h-60q0 39 6 76h-2q-40 -46 -81.5 -65.5t-99.5 -19.5q-39 0 -75 16t-51.5 44.5t-15.5 60.5
q0 53 34 92t112 61t214 22zM374 236h-16q-128 0 -196.5 -29t-68.5 -87q0 -22 10.5 -39.5t33.5 -26.5t52 -9q52 0 92.5 25t60.5 61.5t25 65.5zM456 654l-9 -54h-270l9 54h270z" />
    <glyph glyph-name="Abreve" unicode="&#x102;" horiz-adv-x="695" 
d="M147 186l-116 -186h-82l456 708h70l147 -708h-75l-38 186h-362zM424 628l-236 -376h310zM563 908h44q-10 -58 -55.5 -95t-106.5 -37q-38 0 -69.5 14.5t-47 46t-15.5 71.5h44q0 -20 8.5 -39t30 -29t50.5 -10q43 0 76 20.5t41 57.5z" />
    <glyph glyph-name="abreve" unicode="&#x103;" horiz-adv-x="534" 
d="M383 287q5 29 5 44q0 93 -110 93q-39 0 -78.5 -16t-67.5 -40l-30 45q33 30 84 48.5t99 18.5q13 0 44 -4t58.5 -19.5t45.5 -42.5t18 -69q0 -24 -4 -50l-34 -190q-11 -66 -11 -105h-60q0 39 6 76h-2q-40 -46 -81.5 -65.5t-99.5 -19.5q-39 0 -75 16t-51.5 44.5t-15.5 60.5
q0 53 34 92t112 61t214 22zM374 236h-16q-128 0 -196.5 -29t-68.5 -87q0 -22 10.5 -39.5t33.5 -26.5t52 -9q52 0 92.5 25t60.5 61.5t25 65.5zM427 708h44q-10 -58 -55.5 -95t-106.5 -37q-38 0 -69.5 14.5t-47 46t-15.5 71.5h44q0 -20 8.5 -39t30 -29t50.5 -10q43 0 76 20.5
t41 57.5z" />
    <glyph glyph-name="Aogonek" unicode="&#x104;" horiz-adv-x="695" 
d="M593 -147l12 -40q-20 -16 -44.5 -26t-47.5 -10t-43 10t-28 26.5t-8 32.5q0 75 113 154l-38 186h-362l-116 -186h-82l456 708h70l147 -708h-27q-100 -84 -100 -134q0 -35 43 -35q14 0 29 6t26 16zM424 628l-236 -376h310z" />
    <glyph glyph-name="aogonek" unicode="&#x105;" horiz-adv-x="534" 
d="M388 -147l12 -40q-20 -16 -44.5 -26t-47.5 -10t-43 10t-28 26.5t-8 32.5q0 75 113 154q0 39 6 76h-2q-40 -46 -81.5 -65.5t-99.5 -19.5q-39 0 -75 16t-51.5 44.5t-15.5 60.5q0 53 34 92t112 61t214 22q5 29 5 44q0 93 -110 93q-39 0 -78.5 -16t-67.5 -40l-30 45
q33 30 84 48.5t99 18.5q13 0 44 -4t58.5 -19.5t45.5 -42.5t18 -69q0 -24 -4 -50l-34 -190q-11 -66 -11 -105h-12q-100 -84 -100 -134q0 -35 43 -35q14 0 29 6t26 16zM374 236h-16q-128 0 -196.5 -29t-68.5 -87q0 -22 10.5 -39.5t33.5 -26.5t52 -9q52 0 92.5 25t60.5 61.5
t25 65.5z" />
    <glyph glyph-name="Cacute" unicode="&#x106;" horiz-adv-x="720" 
d="M606 150l53 -38q-45 -57 -118 -93.5t-165 -36.5q-69 0 -128 22t-101.5 62.5t-65.5 97t-23 122.5t22 140t74.5 140t116 102t116.5 47t94 11q78 0 143 -31t95 -82l-65 -43q-13 27 -42 50.5t-65.5 33.5t-67.5 10q-92 0 -171 -49t-126.5 -136.5t-47.5 -185.5q0 -51 16.5 -97
t48 -80t78 -53t103.5 -19q65 0 123.5 26.5t102.5 79.5zM651 908l-158 -144h-56l126 144h88z" />
    <glyph glyph-name="cacute" unicode="&#x107;" horiz-adv-x="500" 
d="M485 401l-59 -39q-12 27 -42 44.5t-67 17.5q-44 0 -82.5 -18t-66 -49.5t-43 -73.5t-15.5 -88q0 -48 21 -82t54 -51t76 -17q82 0 138 61l43 -37q-79 -81 -186 -81q-99 0 -158 55.5t-59 145.5q0 59 20 112.5t57 93.5t89.5 62.5t113.5 22.5q54 0 99 -20t67 -59zM496 708
l-158 -144h-56l126 144h88z" />
    <glyph glyph-name="Ccircumflex" unicode="&#x108;" horiz-adv-x="720" 
d="M606 150l53 -38q-45 -57 -118 -93.5t-165 -36.5q-69 0 -128 22t-101.5 62.5t-65.5 97t-23 122.5t22 140t74.5 140t116 102t116.5 47t94 11q78 0 143 -31t95 -82l-65 -43q-13 27 -42 50.5t-65.5 33.5t-67.5 10q-92 0 -171 -49t-126.5 -136.5t-47.5 -185.5q0 -51 16.5 -97
t48 -80t78 -53t103.5 -19q65 0 123.5 26.5t102.5 79.5zM553 908l83 -144h-63l-64 108l-102 -108h-69l135 144h80z" />
    <glyph glyph-name="ccircumflex" unicode="&#x109;" horiz-adv-x="500" 
d="M485 401l-59 -39q-12 27 -42 44.5t-67 17.5q-44 0 -82.5 -18t-66 -49.5t-43 -73.5t-15.5 -88q0 -48 21 -82t54 -51t76 -17q82 0 138 61l43 -37q-79 -81 -186 -81q-99 0 -158 55.5t-59 145.5q0 59 20 112.5t57 93.5t89.5 62.5t113.5 22.5q54 0 99 -20t67 -59zM408 708
l83 -144h-63l-64 108l-102 -108h-69l135 144h80z" />
    <glyph glyph-name="Cdotaccent" unicode="&#x10a;" horiz-adv-x="720" 
d="M606 150l53 -38q-45 -57 -118 -93.5t-165 -36.5q-69 0 -128 22t-101.5 62.5t-65.5 97t-23 122.5t22 140t74.5 140t116 102t116.5 47t94 11q78 0 143 -31t95 -82l-65 -43q-13 27 -42 50.5t-65.5 33.5t-67.5 10q-92 0 -171 -49t-126.5 -136.5t-47.5 -185.5q0 -51 16.5 -97
t48 -80t78 -53t103.5 -19q65 0 123.5 26.5t102.5 79.5zM550 849q0 -19 -14 -33.5t-33 -14.5t-32.5 12.5t-13.5 32.5t14.5 34.5t33.5 14.5t32 -13t13 -33z" />
    <glyph glyph-name="cdotaccent" unicode="&#x10b;" horiz-adv-x="500" 
d="M485 401l-59 -39q-12 27 -42 44.5t-67 17.5q-44 0 -82.5 -18t-66 -49.5t-43 -73.5t-15.5 -88q0 -48 21 -82t54 -51t76 -17q82 0 138 61l43 -37q-79 -81 -186 -81q-99 0 -158 55.5t-59 145.5q0 59 20 112.5t57 93.5t89.5 62.5t113.5 22.5q54 0 99 -20t67 -59zM398 649
q0 -19 -14 -33.5t-33 -14.5t-32.5 12.5t-13.5 32.5t14.5 34.5t33.5 14.5t32 -13t13 -33z" />
    <glyph glyph-name="Ccaron" unicode="&#x10c;" horiz-adv-x="720" 
d="M606 150l53 -38q-45 -57 -118 -93.5t-165 -36.5q-69 0 -128 22t-101.5 62.5t-65.5 97t-23 122.5t22 140t74.5 140t116 102t116.5 47t94 11q78 0 143 -31t95 -82l-65 -43q-13 27 -42 50.5t-65.5 33.5t-67.5 10q-92 0 -171 -49t-126.5 -136.5t-47.5 -185.5q0 -51 16.5 -97
t48 -80t78 -53t103.5 -19q65 0 123.5 26.5t102.5 79.5zM666 908l-135 -144h-80l-83 144h63l64 -108l102 108h69z" />
    <glyph glyph-name="ccaron" unicode="&#x10d;" horiz-adv-x="500" 
d="M485 401l-59 -39q-12 27 -42 44.5t-67 17.5q-44 0 -82.5 -18t-66 -49.5t-43 -73.5t-15.5 -88q0 -48 21 -82t54 -51t76 -17q82 0 138 61l43 -37q-79 -81 -186 -81q-99 0 -158 55.5t-59 145.5q0 59 20 112.5t57 93.5t89.5 62.5t113.5 22.5q54 0 99 -20t67 -59zM509 708
l-135 -144h-80l-83 144h63l64 -108l102 108h69z" />
    <glyph glyph-name="Dcaron" unicode="&#x10e;" horiz-adv-x="757" 
d="M40 0l125 708h214q88 0 165 -33.5t121 -101t44 -161.5q0 -90 -32.5 -167t-83.5 -125t-106.5 -74.5t-111 -36t-98.5 -9.5h-237zM225 645l-103 -582h160q82 0 148.5 28t111.5 76.5t68 110t23 126.5q0 50 -16.5 94t-49.5 77t-85 51.5t-119 18.5h-138zM576 908l-135 -144h-80
l-83 144h63l64 -108l102 108h69z" />
    <glyph glyph-name="dcaron" unicode="&#x10f;" horiz-adv-x="622" 
d="M34 190q0 58 20.5 111.5t58 93.5t88.5 62.5t108 22.5q51 0 96 -24.5t67 -66.5h2l65 367h67l-134 -756h-67l14 77h-2q-23 -37 -71 -63t-101 -26q-34 0 -70.5 9.5t-71.5 37t-52 69.5t-17 86zM104 195q0 -39 17 -75.5t52 -55.5t78 -19q31 0 66.5 12t70.5 44.5t53 79.5t18 92
q0 66 -41.5 108.5t-109.5 42.5q-33 0 -68.5 -12t-65 -40t-50 -73t-20.5 -104zM791 708l-115 -185h-57l101 185h71z" />
    <glyph glyph-name="Dcroat" unicode="&#x110;" horiz-adv-x="757" 
d="M101 347h-70l10 54h70l54 307h214q88 0 165 -33.5t121 -101t44 -161.5q0 -90 -32.5 -167t-83.5 -125t-106.5 -74.5t-111 -36t-98.5 -9.5h-237zM182 401h251l-10 -54h-251l-50 -284h160q82 0 148.5 28t111.5 76.5t68 110t23 126.5q0 50 -16.5 94t-49.5 77t-85 51.5
t-119 18.5h-138z" />
    <glyph glyph-name="dcroat" unicode="&#x111;" horiz-adv-x="622" 
d="M353 620h162l24 136h67l-24 -136h51l-8 -50h-52l-101 -570h-67l14 77h-2q-23 -37 -71 -63t-101 -26q-34 0 -70.5 9.5t-71.5 37t-52 69.5t-17 86q0 58 20.5 111.5t58 93.5t88.5 62.5t108 22.5q51 0 96 -24.5t67 -66.5h2l32 181h-161zM104 195q0 -39 17 -75.5t52 -55.5
t78 -19q31 0 66.5 12t70.5 44.5t53 79.5t18 92q0 66 -41.5 108.5t-109.5 42.5q-33 0 -68.5 -12t-65 -40t-50 -73t-20.5 -104z" />
    <glyph glyph-name="Emacron" unicode="&#x112;" horiz-adv-x="580" 
d="M171 338l-49 -275h380l-11 -63h-451l125 708h425l-11 -63h-354l-43 -246h338l-11 -61h-338zM536 854l-9 -54h-270l9 54h270z" />
    <glyph glyph-name="emacron" unicode="&#x113;" horiz-adv-x="566" 
d="M491 216h-387l-2 -22q0 -64 43.5 -106.5t107.5 -42.5q25 0 55.5 8t59 28t47.5 46l42 -40q-40 -48 -95 -73.5t-115 -25.5q-44 0 -83.5 14t-68.5 40.5t-45 65.5t-16 86q0 55 21 107.5t58 92.5t87 63t105 23q46 0 78.5 -11.5t56.5 -30.5t42 -55t18 -86q0 -46 -9 -81z
M113 266h318l2 35q0 53 -33 88t-97 35q-44 0 -83 -19.5t-67.5 -56t-39.5 -82.5zM483 654l-9 -54h-270l9 54h270z" />
    <glyph glyph-name="Ebreve" unicode="&#x114;" horiz-adv-x="580" 
d="M171 338l-49 -275h380l-11 -63h-451l125 708h425l-11 -63h-354l-43 -246h338l-11 -61h-338zM506 908h44q-10 -58 -55.5 -95t-106.5 -37q-38 0 -69.5 14.5t-47 46t-15.5 71.5h44q0 -20 8.5 -39t30 -29t50.5 -10q43 0 76 20.5t41 57.5z" />
    <glyph glyph-name="ebreve" unicode="&#x115;" horiz-adv-x="566" 
d="M491 216h-387l-2 -22q0 -64 43.5 -106.5t107.5 -42.5q25 0 55.5 8t59 28t47.5 46l42 -40q-40 -48 -95 -73.5t-115 -25.5q-44 0 -83.5 14t-68.5 40.5t-45 65.5t-16 86q0 55 21 107.5t58 92.5t87 63t105 23q46 0 78.5 -11.5t56.5 -30.5t42 -55t18 -86q0 -46 -9 -81z
M113 266h318l2 35q0 53 -33 88t-97 35q-44 0 -83 -19.5t-67.5 -56t-39.5 -82.5zM453 708h44q-10 -58 -55.5 -95t-106.5 -37q-38 0 -69.5 14.5t-47 46t-15.5 71.5h44q0 -20 8.5 -39t30 -29t50.5 -10q43 0 76 20.5t41 57.5z" />
    <glyph glyph-name="Edotaccent" unicode="&#x116;" horiz-adv-x="580" 
d="M171 338l-49 -275h380l-11 -63h-451l125 708h425l-11 -63h-354l-43 -246h338l-11 -61h-338zM447 849q0 -19 -14 -33.5t-33 -14.5t-32.5 12.5t-13.5 32.5t14.5 34.5t33.5 14.5t32 -13t13 -33z" />
    <glyph glyph-name="edotaccent" unicode="&#x117;" horiz-adv-x="566" 
d="M491 216h-387l-2 -22q0 -64 43.5 -106.5t107.5 -42.5q25 0 55.5 8t59 28t47.5 46l42 -40q-40 -48 -95 -73.5t-115 -25.5q-44 0 -83.5 14t-68.5 40.5t-45 65.5t-16 86q0 55 21 107.5t58 92.5t87 63t105 23q46 0 78.5 -11.5t56.5 -30.5t42 -55t18 -86q0 -46 -9 -81z
M113 266h318l2 35q0 53 -33 88t-97 35q-44 0 -83 -19.5t-67.5 -56t-39.5 -82.5zM390 649q0 -19 -14 -33.5t-33 -14.5t-32.5 12.5t-13.5 32.5t14.5 34.5t33.5 14.5t32 -13t13 -33z" />
    <glyph glyph-name="Eogonek" unicode="&#x118;" horiz-adv-x="580" 
d="M468 -147l12 -40q-20 -16 -44.5 -26t-47.5 -10t-43 10t-28 26.5t-8 32.5q0 75 113 154h-382l125 708h425l-11 -63h-354l-43 -246h338l-11 -61h-338l-49 -275h380l-11 -63h-21q-100 -84 -100 -134q0 -35 43 -35q14 0 29 6t26 16z" />
    <glyph glyph-name="eogonek" unicode="&#x119;" horiz-adv-x="566" 
d="M305 -147l12 -40q-20 -16 -44.5 -26t-47.5 -10t-43 10t-28 26.5t-8 32.5q0 30 21.5 66t74.5 76q-91 2 -149.5 57t-58.5 149q0 55 21 107.5t58 92.5t87 63t105 23q46 0 78.5 -11.5t56.5 -30.5t42 -55t18 -86q0 -46 -9 -81h-387l-2 -22q0 -64 43.5 -106.5t107.5 -42.5
q25 0 55.5 8t59 28t47.5 46l42 -40q-65 -77 -159 -94q-91 -78 -91 -127q0 -35 43 -35q14 0 29 6t26 16zM113 266h318l2 35q0 53 -33 88t-97 35q-44 0 -83 -19.5t-67.5 -56t-39.5 -82.5z" />
    <glyph glyph-name="Ecaron" unicode="&#x11a;" horiz-adv-x="580" 
d="M171 338l-49 -275h380l-11 -63h-451l125 708h425l-11 -63h-354l-43 -246h338l-11 -61h-338zM559 908l-135 -144h-80l-83 144h63l64 -108l102 108h69z" />
    <glyph glyph-name="ecaron" unicode="&#x11b;" horiz-adv-x="566" 
d="M491 216h-387l-2 -22q0 -64 43.5 -106.5t107.5 -42.5q25 0 55.5 8t59 28t47.5 46l42 -40q-40 -48 -95 -73.5t-115 -25.5q-44 0 -83.5 14t-68.5 40.5t-45 65.5t-16 86q0 55 21 107.5t58 92.5t87 63t105 23q46 0 78.5 -11.5t56.5 -30.5t42 -55t18 -86q0 -46 -9 -81z
M113 266h318l2 35q0 53 -33 88t-97 35q-44 0 -83 -19.5t-67.5 -56t-39.5 -82.5zM505 708l-135 -144h-80l-83 144h63l64 -108l102 108h69z" />
    <glyph glyph-name="Gcircumflex" unicode="&#x11c;" horiz-adv-x="770" 
d="M380 44q58 0 111.5 13t89.5 35l38 217h-167l11 61h237l-56 -319q-120 -69 -268 -69q-69 0 -128 22t-101.5 62.5t-65.5 97t-23 122.5t22 140t74.5 140t116 102t116.5 47t94 11q78 0 143 -31t95 -82l-65 -43q-13 27 -42 50.5t-65.5 33.5t-67.5 10q-92 0 -171 -49
t-126.5 -136.5t-47.5 -185.5q0 -51 16.5 -97t48 -80t78 -53t103.5 -19zM560 908l83 -144h-63l-64 108l-102 -108h-69l135 144h80z" />
    <glyph glyph-name="gcircumflex" unicode="&#x11d;" horiz-adv-x="627" 
d="M-4 -146l45 48q25 -36 72 -59.5t98 -23.5q170 0 205 185l17 89h-2q-31 -44 -78.5 -68.5t-99.5 -24.5q-46 0 -85 15.5t-66.5 43.5t-42 65.5t-14.5 80.5q0 55 20.5 105.5t57.5 88.5t87.5 59.5t107.5 21.5q52 0 97.5 -25t64.5 -68h2l15 81h66l-82 -464q-11 -60 -30 -103.5
t-53 -76.5t-83.5 -48.5t-103.5 -15.5q-67 0 -124 25.5t-91 68.5zM114 204q0 -46 20.5 -79.5t53 -51t76.5 -17.5q32 0 67 11.5t65.5 39t51 70.5t20.5 97q0 23 -7 48t-24.5 47.5t-47.5 38.5t-72 16q-90 0 -146.5 -61t-56.5 -159zM422 708l83 -144h-63l-64 108l-102 -108h-69
l135 144h80z" />
    <glyph glyph-name="Gbreve" unicode="&#x11e;" horiz-adv-x="770" 
d="M380 44q58 0 111.5 13t89.5 35l38 217h-167l11 61h237l-56 -319q-120 -69 -268 -69q-69 0 -128 22t-101.5 62.5t-65.5 97t-23 122.5t22 140t74.5 140t116 102t116.5 47t94 11q78 0 143 -31t95 -82l-65 -43q-13 27 -42 50.5t-65.5 33.5t-67.5 10q-92 0 -171 -49
t-126.5 -136.5t-47.5 -185.5q0 -51 16.5 -97t48 -80t78 -53t103.5 -19zM609 908h44q-10 -58 -55.5 -95t-106.5 -37q-38 0 -69.5 14.5t-47 46t-15.5 71.5h44q0 -20 8.5 -39t30 -29t50.5 -10q43 0 76 20.5t41 57.5z" />
    <glyph glyph-name="gbreve" unicode="&#x11f;" horiz-adv-x="627" 
d="M-4 -146l45 48q25 -36 72 -59.5t98 -23.5q170 0 205 185l17 89h-2q-31 -44 -78.5 -68.5t-99.5 -24.5q-46 0 -85 15.5t-66.5 43.5t-42 65.5t-14.5 80.5q0 55 20.5 105.5t57.5 88.5t87.5 59.5t107.5 21.5q52 0 97.5 -25t64.5 -68h2l15 81h66l-82 -464q-11 -60 -30 -103.5
t-53 -76.5t-83.5 -48.5t-103.5 -15.5q-67 0 -124 25.5t-91 68.5zM114 204q0 -46 20.5 -79.5t53 -51t76.5 -17.5q32 0 67 11.5t65.5 39t51 70.5t20.5 97q0 23 -7 48t-24.5 47.5t-47.5 38.5t-72 16q-90 0 -146.5 -61t-56.5 -159zM474 708h44q-10 -58 -55.5 -95t-106.5 -37
q-38 0 -69.5 14.5t-47 46t-15.5 71.5h44q0 -20 8.5 -39t30 -29t50.5 -10q43 0 76 20.5t41 57.5z" />
    <glyph glyph-name="Gdotaccent" unicode="&#x120;" horiz-adv-x="770" 
d="M380 44q58 0 111.5 13t89.5 35l38 217h-167l11 61h237l-56 -319q-120 -69 -268 -69q-69 0 -128 22t-101.5 62.5t-65.5 97t-23 122.5t22 140t74.5 140t116 102t116.5 47t94 11q78 0 143 -31t95 -82l-65 -43q-13 27 -42 50.5t-65.5 33.5t-67.5 10q-92 0 -171 -49
t-126.5 -136.5t-47.5 -185.5q0 -51 16.5 -97t48 -80t78 -53t103.5 -19zM553 849q0 -19 -14 -33.5t-33 -14.5t-32.5 12.5t-13.5 32.5t14.5 34.5t33.5 14.5t32 -13t13 -33z" />
    <glyph glyph-name="gdotaccent" unicode="&#x121;" horiz-adv-x="627" 
d="M-4 -146l45 48q25 -36 72 -59.5t98 -23.5q170 0 205 185l17 89h-2q-31 -44 -78.5 -68.5t-99.5 -24.5q-46 0 -85 15.5t-66.5 43.5t-42 65.5t-14.5 80.5q0 55 20.5 105.5t57.5 88.5t87.5 59.5t107.5 21.5q52 0 97.5 -25t64.5 -68h2l15 81h66l-82 -464q-11 -60 -30 -103.5
t-53 -76.5t-83.5 -48.5t-103.5 -15.5q-67 0 -124 25.5t-91 68.5zM114 204q0 -46 20.5 -79.5t53 -51t76.5 -17.5q32 0 67 11.5t65.5 39t51 70.5t20.5 97q0 23 -7 48t-24.5 47.5t-47.5 38.5t-72 16q-90 0 -146.5 -61t-56.5 -159zM412 649q0 -19 -14 -33.5t-33 -14.5
t-32.5 12.5t-13.5 32.5t14.5 34.5t33.5 14.5t32 -13t13 -33z" />
    <glyph glyph-name="uni0122" unicode="&#x122;" horiz-adv-x="770" 
d="M380 44q58 0 111.5 13t89.5 35l38 217h-167l11 61h237l-56 -319q-120 -69 -268 -69q-69 0 -128 22t-101.5 62.5t-65.5 97t-23 122.5t22 140t74.5 140t116 102t116.5 47t94 11q78 0 143 -31t95 -82l-65 -43q-13 27 -42 50.5t-65.5 33.5t-67.5 10q-92 0 -171 -49
t-126.5 -136.5t-47.5 -185.5q0 -51 16.5 -97t48 -80t78 -53t103.5 -19zM424 -45l-115 -185h-57l101 185h71z" />
    <glyph glyph-name="uni0123" unicode="&#x123;" horiz-adv-x="627" 
d="M-4 -146l45 48q25 -36 72 -59.5t98 -23.5q170 0 205 185l17 89h-2q-31 -44 -78.5 -68.5t-99.5 -24.5q-46 0 -85 15.5t-66.5 43.5t-42 65.5t-14.5 80.5q0 55 20.5 105.5t57.5 88.5t87.5 59.5t107.5 21.5q52 0 97.5 -25t64.5 -68h2l15 81h66l-82 -464q-11 -60 -30 -103.5
t-53 -76.5t-83.5 -48.5t-103.5 -15.5q-67 0 -124 25.5t-91 68.5zM114 204q0 -46 20.5 -79.5t53 -51t76.5 -17.5q32 0 67 11.5t65.5 39t51 70.5t20.5 97q0 23 -7 48t-24.5 47.5t-47.5 38.5t-72 16q-90 0 -146.5 -61t-56.5 -159zM295 564l115 185h57l-101 -185h-71z" />
    <glyph glyph-name="Hcircumflex" unicode="&#x124;" horiz-adv-x="708" 
d="M40 0l125 708h71l-55 -308h377l55 308h71l-125 -708h-71l59 336h-377l-59 -336h-71zM500 908l83 -144h-63l-64 108l-102 -108h-69l135 144h80z" />
    <glyph glyph-name="hcircumflex" unicode="&#x125;" horiz-adv-x="577" 
d="M332 480q74 0 117 -38.5t43 -104.5q0 -20 -5 -50l-51 -287h-67l46 259q6 32 6 59q0 106 -106 106q-20 0 -44 -7.5t-48.5 -27.5t-46 -56.5t-31.5 -92.5l-42 -240h-67l133 756h67l-64 -365h2q26 40 68.5 64.5t89.5 24.5zM432 940l83 -144h-63l-64 108l-102 -108h-69
l135 144h80z" />
    <glyph glyph-name="Hbar" unicode="&#x126;" horiz-adv-x="708" 
d="M40 0l125 708h71l-28 -158h377l28 158h71l-125 -708h-71l59 336h-377l-59 -336h-71zM181 400h377l18 100h-377z" />
    <glyph glyph-name="hbar" unicode="&#x127;" horiz-adv-x="577" 
d="M90 620h55l24 136h67l-24 -136h158l-8 -50h-159l-31 -179h2q26 40 68.5 64.5t89.5 24.5q74 0 117 -38.5t43 -104.5q0 -20 -5 -50l-51 -287h-67l46 259q6 32 6 59q0 106 -106 106q-20 0 -44 -7.5t-48.5 -27.5t-46 -56.5t-31.5 -92.5l-42 -240h-67l100 570h-54z" />
    <glyph glyph-name="Itilde" unicode="&#x128;" horiz-adv-x="260" 
d="M236 708l-125 -708h-71l125 708h71zM91 776h-43q11 32 28.5 57.5t39.5 36t42 10.5q27 0 69 -23q24 -12 37.5 -17.5t25.5 -5.5q36 0 58 50h43q-38 -104 -111 -104q-23 0 -69 23q-40 23 -63 23q-37 0 -57 -50z" />
    <glyph glyph-name="itilde" unicode="&#x129;" horiz-adv-x="250" 
d="M187 468l-83 -468h-67l83 468h67zM52 576h-43q11 32 28.5 57.5t39.5 36t42 10.5q27 0 69 -23q24 -12 37.5 -17.5t25.5 -5.5q36 0 58 50h43q-38 -104 -111 -104q-23 0 -69 23q-40 23 -63 23q-37 0 -57 -50z" />
    <glyph glyph-name="Imacron" unicode="&#x12a;" horiz-adv-x="260" 
d="M236 708l-125 -708h-71l125 708h71zM357 854l-9 -54h-270l9 54h270z" />
    <glyph glyph-name="imacron" unicode="&#x12b;" horiz-adv-x="250" 
d="M187 468l-83 -468h-67l83 468h67zM317 654l-9 -54h-270l9 54h270z" />
    <glyph glyph-name="Iogonek" unicode="&#x12e;" horiz-adv-x="260" 
d="M108 -147l12 -40q-20 -16 -44.5 -26t-47.5 -10t-43 10t-28 26.5t-8 32.5q0 75 113 154h-22l125 708h71l-125 -708h-1q-100 -84 -100 -134q0 -35 43 -35q14 0 29 6t26 16z" />
    <glyph glyph-name="iogonek" unicode="&#x12f;" horiz-adv-x="250" 
d="M100 -147l12 -40q-20 -16 -44.5 -26t-47.5 -10t-43 10t-28 26.5t-8 32.5q0 75 113 154h-17l83 468h67l-83 -468h-2q-100 -84 -100 -134q0 -35 43 -35q14 0 29 6t26 16zM227 649q0 -19 -14 -33.5t-33 -14.5t-32.5 12.5t-13.5 32.5t14.5 34.5t33.5 14.5t32 -13t13 -33z" />
    <glyph glyph-name="Idotaccent" unicode="&#x130;" horiz-adv-x="260" 
d="M236 708l-125 -708h-71l125 708h71zM267 849q0 -19 -14 -33.5t-33 -14.5t-32.5 12.5t-13.5 32.5t14.5 34.5t33.5 14.5t32 -13t13 -33z" />
    <glyph glyph-name="dotlessi" unicode="&#x131;" horiz-adv-x="250" 
d="M187 468l-83 -468h-67l83 468h67z" />
    <glyph glyph-name="Jcircumflex" unicode="&#x134;" horiz-adv-x="482" 
d="M-10 120l63 20q5 -30 21.5 -53.5t40 -33t45.5 -9.5q27 0 55.5 10t52 44t37.5 111l88 499h71l-89 -504q-12 -68 -31 -109t-45 -65t-59.5 -36t-75.5 -12q-28 0 -57 7.5t-56 26.5t-42 48.5t-19 55.5zM501 908l83 -144h-63l-64 108l-102 -108h-69l135 144h80z" />
    <glyph glyph-name="jcircumflex" unicode="&#x135;" horiz-adv-x="251" 
d="M-113 -233l14 57q18 -6 42 -6q30 0 49.5 18t31.5 82l97 550h67l-99 -561q-13 -78 -47.5 -112.5t-98.5 -34.5q-34 0 -56 7zM231 708l83 -144h-63l-64 108l-102 -108h-69l135 144h80z" />
    <glyph glyph-name="uni0136" unicode="&#x136;" horiz-adv-x="585" 
d="M236 708l-56 -318h1l360 318h104l-387 -328l296 -380h-93l-283 377h-1l-66 -377h-71l125 708h71zM324 -45l-115 -185h-57l101 185h71z" />
    <glyph glyph-name="uni0137" unicode="&#x137;" horiz-adv-x="487" 
d="M238 756l-88 -499h3l239 211h93l-257 -217l214 -251h-88l-203 246h-3l-42 -246h-68l133 756h67zM273 -45l-115 -185h-57l101 185h71z" />
    <glyph glyph-name="Lacute" unicode="&#x139;" horiz-adv-x="510" 
d="M236 708l-115 -645h331l-10 -63h-402l125 708h71zM387 908l-158 -144h-56l126 144h88z" />
    <glyph glyph-name="lacute" unicode="&#x13a;" horiz-adv-x="252" 
d="M239 756l-133 -756h-68l133 756h68zM389 936l-158 -144h-56l126 144h88z" />
    <glyph glyph-name="uni013B" unicode="&#x13b;" horiz-adv-x="510" 
d="M236 708l-115 -645h331l-10 -63h-402l125 708h71zM289 -45l-115 -185h-57l101 185h71z" />
    <glyph glyph-name="uni013C" unicode="&#x13c;" horiz-adv-x="252" 
d="M239 756l-133 -756h-68l133 756h68zM126 -45l-115 -185h-57l101 185h71z" />
    <glyph glyph-name="Lcaron" unicode="&#x13d;" horiz-adv-x="510" 
d="M236 708l-115 -645h331l-10 -63h-402l125 708h71zM470 708l-115 -185h-57l101 185h71z" />
    <glyph glyph-name="lcaron" unicode="&#x13e;" horiz-adv-x="252" 
d="M239 756l-133 -756h-68l133 756h68zM435 708l-115 -185h-57l101 185h71z" />
    <glyph glyph-name="Ldot" unicode="&#x13f;" horiz-adv-x="510" 
d="M236 708l-115 -645h331l-10 -63h-402l125 708h71zM425 329q0 -19 -14 -33.5t-33 -14.5t-32.5 12.5t-13.5 32.5t14.5 34.5t33.5 14.5t32 -13t13 -33z" />
    <glyph glyph-name="ldot" unicode="&#x140;" horiz-adv-x="312" 
d="M239 756l-133 -756h-68l133 756h68zM328 329q0 -19 -14 -33.5t-33 -14.5t-32.5 12.5t-13.5 32.5t14.5 34.5t33.5 14.5t32 -13t13 -33z" />
    <glyph glyph-name="Lslash" unicode="&#x141;" horiz-adv-x="510" 
d="M237 708l-61 -346l249 186l-13 -70l-249 -186l-40 -228h330l-11 -64h-402l43 242l-95 -70l13 70l94 70l70 396h72z" />
    <glyph glyph-name="lslash" unicode="&#x142;" horiz-adv-x="252" 
d="M237 756l-52 -298l96 84l-13 -73l-96 -83l-68 -386h-66l58 331l-95 -83l13 73l95 82l62 353h66z" />
    <glyph glyph-name="Nacute" unicode="&#x143;" horiz-adv-x="750" 
d="M255 708l291 -607h2l107 607h71l-125 -708h-89l-290 615h-2l-108 -615h-71l125 708h89zM610 908l-158 -144h-56l126 144h88z" />
    <glyph glyph-name="nacute" unicode="&#x144;" horiz-adv-x="577" 
d="M115 468h65q-7 -62 -11 -80h2q27 42 70 67t90 25q75 0 118 -38.5t43 -104.5q0 -20 -5 -50l-51 -287h-67l46 259q6 32 6 59q0 106 -104 106q-58 0 -107 -48t-65 -136l-42 -240h-67l64 365q10 50 15 103zM481 708l-158 -144h-56l126 144h88z" />
    <glyph glyph-name="uni0145" unicode="&#x145;" horiz-adv-x="750" 
d="M255 708l291 -607h2l107 607h71l-125 -708h-89l-290 615h-2l-108 -615h-71l125 708h89zM369 -45l-115 -185h-57l101 185h71z" />
    <glyph glyph-name="uni0146" unicode="&#x146;" horiz-adv-x="577" 
d="M115 468h65q-7 -62 -11 -80h2q27 42 70 67t90 25q75 0 118 -38.5t43 -104.5q0 -20 -5 -50l-51 -287h-67l46 259q6 32 6 59q0 106 -104 106q-58 0 -107 -48t-65 -136l-42 -240h-67l64 365q10 50 15 103zM284 -45l-115 -185h-57l101 185h71z" />
    <glyph glyph-name="Ncaron" unicode="&#x147;" horiz-adv-x="750" 
d="M255 708l291 -607h2l107 607h71l-125 -708h-89l-290 615h-2l-108 -615h-71l125 708h89zM622 908l-135 -144h-80l-83 144h63l64 -108l102 108h69z" />
    <glyph glyph-name="ncaron" unicode="&#x148;" horiz-adv-x="577" 
d="M115 468h65q-7 -62 -11 -80h2q27 42 70 67t90 25q75 0 118 -38.5t43 -104.5q0 -20 -5 -50l-51 -287h-67l46 259q6 32 6 59q0 106 -104 106q-58 0 -107 -48t-65 -136l-42 -240h-67l64 365q10 50 15 103zM496 708l-135 -144h-80l-83 144h63l64 -108l102 108h69z" />
    <glyph glyph-name="Omacron" unicode="&#x14c;" horiz-adv-x="834" 
d="M373 -18q-50 0 -104 14.5t-100.5 50.5t-71 82t-32 85.5t-7.5 71.5q0 112 51 213.5t147.5 164t214.5 62.5q67 0 125.5 -21.5t101 -62t65.5 -96.5t23 -122q0 -89 -31 -170t-87 -142t-122 -90.5t-111 -34.5t-62 -5zM710 417q0 51 -16 96t-47 79t-77 53t-102 19
q-72 0 -134.5 -31t-107 -83.5t-68.5 -120t-24 -137.5q0 -51 16 -96.5t47 -79.5t76.5 -53t102.5 -19q71 0 133.5 30.5t107 83t69 120.5t24.5 139zM638 854l-9 -54h-270l9 54h270z" />
    <glyph glyph-name="omacron" unicode="&#x14d;" horiz-adv-x="596" 
d="M250 -12q-94 0 -155 57t-61 146q0 57 20.5 110t58 93.5t89.5 63t110 22.5q95 0 155.5 -56.5t60.5 -145.5q0 -58 -20.5 -111.5t-58 -93.5t-89 -62.5t-110.5 -22.5zM458 274q0 31 -10.5 59t-30 48t-47.5 31.5t-62 11.5q-42 0 -79.5 -18t-65.5 -50t-43 -74t-15 -87
q0 -66 40.5 -108t108.5 -42q54 0 103 30.5t75 86t26 112.5zM488 654l-9 -54h-270l9 54h270z" />
    <glyph glyph-name="Obreve" unicode="&#x14e;" horiz-adv-x="834" 
d="M373 -18q-50 0 -104 14.5t-100.5 50.5t-71 82t-32 85.5t-7.5 71.5q0 112 51 213.5t147.5 164t214.5 62.5q67 0 125.5 -21.5t101 -62t65.5 -96.5t23 -122q0 -89 -31 -170t-87 -142t-122 -90.5t-111 -34.5t-62 -5zM710 417q0 51 -16 96t-47 79t-77 53t-102 19
q-72 0 -134.5 -31t-107 -83.5t-68.5 -120t-24 -137.5q0 -51 16 -96.5t47 -79.5t76.5 -53t102.5 -19q71 0 133.5 30.5t107 83t69 120.5t24.5 139zM603 908h44q-10 -58 -55.5 -95t-106.5 -37q-38 0 -69.5 14.5t-47 46t-15.5 71.5h44q0 -20 8.5 -39t30 -29t50.5 -10
q43 0 76 20.5t41 57.5z" />
    <glyph glyph-name="obreve" unicode="&#x14f;" horiz-adv-x="596" 
d="M250 -12q-94 0 -155 57t-61 146q0 57 20.5 110t58 93.5t89.5 63t110 22.5q95 0 155.5 -56.5t60.5 -145.5q0 -58 -20.5 -111.5t-58 -93.5t-89 -62.5t-110.5 -22.5zM458 274q0 31 -10.5 59t-30 48t-47.5 31.5t-62 11.5q-42 0 -79.5 -18t-65.5 -50t-43 -74t-15 -87
q0 -66 40.5 -108t108.5 -42q54 0 103 30.5t75 86t26 112.5zM452 708h44q-10 -58 -55.5 -95t-106.5 -37q-38 0 -69.5 14.5t-47 46t-15.5 71.5h44q0 -20 8.5 -39t30 -29t50.5 -10q43 0 76 20.5t41 57.5z" />
    <glyph glyph-name="Ohungarumlaut" unicode="&#x150;" horiz-adv-x="834" 
d="M373 -18q-50 0 -104 14.5t-100.5 50.5t-71 82t-32 85.5t-7.5 71.5q0 112 51 213.5t147.5 164t214.5 62.5q67 0 125.5 -21.5t101 -62t65.5 -96.5t23 -122q0 -89 -31 -170t-87 -142t-122 -90.5t-111 -34.5t-62 -5zM710 417q0 51 -16 96t-47 79t-77 53t-102 19
q-72 0 -134.5 -31t-107 -83.5t-68.5 -120t-24 -137.5q0 -51 16 -96.5t47 -79.5t76.5 -53t102.5 -19q71 0 133.5 30.5t107 83t69 120.5t24.5 139zM576 908l-159 -144h-59l127 144h91zM746 908l-158 -144h-59l126 144h91z" />
    <glyph glyph-name="ohungarumlaut" unicode="&#x151;" horiz-adv-x="596" 
d="M250 -12q-94 0 -155 57t-61 146q0 57 20.5 110t58 93.5t89.5 63t110 22.5q95 0 155.5 -56.5t60.5 -145.5q0 -58 -20.5 -111.5t-58 -93.5t-89 -62.5t-110.5 -22.5zM458 274q0 31 -10.5 59t-30 48t-47.5 31.5t-62 11.5q-42 0 -79.5 -18t-65.5 -50t-43 -74t-15 -87
q0 -66 40.5 -108t108.5 -42q54 0 103 30.5t75 86t26 112.5zM425 708l-159 -144h-59l127 144h91zM595 708l-158 -144h-59l126 144h91z" />
    <glyph glyph-name="OE" unicode="&#x152;" horiz-adv-x="970" 
d="M881 0h-493q-88 0 -165 33.5t-121 101t-44 161.5q0 90 32.5 167t83.5 125t106.5 74.5t111 36t98.5 9.5h490l-11 -63h-328l-43 -246h312l-11 -61h-312l-49 -275h354zM467 63l103 582h-85q-82 0 -148.5 -28t-111.5 -76.5t-68 -110t-23 -126.5q0 -50 16.5 -94t49.5 -77
t85 -51.5t119 -18.5h63z" />
    <glyph glyph-name="oe" unicode="&#x153;" horiz-adv-x="982" 
d="M473 107q-35 -53 -91 -86t-132 -33q-94 0 -155 57t-61 146q0 57 20.5 110t58 93.5t89.5 63t110 22.5q67 0 119 -33t75 -87q15 25 44.5 53.5t76 47.5t94.5 19q46 0 78.5 -11.5t56.5 -30.5t42 -55t18 -86q0 -46 -9 -81h-387l-2 -22q0 -64 43.5 -106.5t107.5 -42.5
q25 0 55.5 8t59 28t47.5 46l42 -40q-40 -48 -95 -73.5t-115 -25.5q-57 0 -97 20.5t-61.5 47.5t-31.5 51zM458 274q0 31 -10.5 59t-30 48t-47.5 31.5t-62 11.5q-42 0 -79.5 -18t-65.5 -50t-43 -74t-15 -87q0 -66 40.5 -108t108.5 -42q54 0 103 30.5t75 86t26 112.5zM529 266
h318l2 35q0 53 -33 88t-97 35q-44 0 -83 -19.5t-67.5 -56t-39.5 -82.5z" />
    <glyph glyph-name="Racute" unicode="&#x154;" horiz-adv-x="599" 
d="M169 331l-58 -331h-71l125 708h191q72 0 120.5 -21.5t73.5 -58.5t25 -89q0 -59 -24 -100.5t-70 -68t-114 -33.5l156 -337h-81l-148 331h-125zM225 647l-45 -256h126q197 0 197 140q0 57 -42 86.5t-116 29.5h-120zM521 908l-158 -144h-56l126 144h88z" />
    <glyph glyph-name="racute" unicode="&#x155;" horiz-adv-x="348" 
d="M100 365q10 50 15 103h64q-7 -62 -11 -80h2q26 41 67.5 66.5t88.5 25.5q27 0 44 -5l-16 -64q-14 6 -46 6q-58 0 -102.5 -44t-60.5 -133l-42 -240h-67zM362 708l-158 -144h-56l126 144h88z" />
    <glyph glyph-name="uni0156" unicode="&#x156;" horiz-adv-x="599" 
d="M169 331l-58 -331h-71l125 708h191q72 0 120.5 -21.5t73.5 -58.5t25 -89q0 -59 -24 -100.5t-70 -68t-114 -33.5l156 -337h-81l-148 331h-125zM225 647l-45 -256h126q197 0 197 140q0 57 -42 86.5t-116 29.5h-120zM311 -45l-115 -185h-57l101 185h71z" />
    <glyph glyph-name="uni0157" unicode="&#x157;" horiz-adv-x="348" 
d="M100 365q10 50 15 103h64q-7 -62 -11 -80h2q26 41 67.5 66.5t88.5 25.5q27 0 44 -5l-16 -64q-14 6 -46 6q-58 0 -102.5 -44t-60.5 -133l-42 -240h-67zM123 -46l-115 -185h-57l101 185h71z" />
    <glyph glyph-name="Rcaron" unicode="&#x158;" horiz-adv-x="599" 
d="M169 331l-58 -331h-71l125 708h191q72 0 120.5 -21.5t73.5 -58.5t25 -89q0 -59 -24 -100.5t-70 -68t-114 -33.5l156 -337h-81l-148 331h-125zM225 647l-45 -256h126q197 0 197 140q0 57 -42 86.5t-116 29.5h-120zM529 908l-135 -144h-80l-83 144h63l64 -108l102 108h69z
" />
    <glyph glyph-name="rcaron" unicode="&#x159;" horiz-adv-x="348" 
d="M100 365q10 50 15 103h64q-7 -62 -11 -80h2q26 41 67.5 66.5t88.5 25.5q27 0 44 -5l-16 -64q-14 6 -46 6q-58 0 -102.5 -44t-60.5 -133l-42 -240h-67zM421 708l-135 -144h-80l-83 144h63l64 -108l102 108h69z" />
    <glyph glyph-name="Sacute" unicode="&#x15a;" horiz-adv-x="564" 
d="M552 642l-61 -44q-19 29 -56.5 47.5t-82.5 18.5q-46 0 -87 -17.5t-64 -49.5t-23 -75q0 -40 25.5 -70t103.5 -60q93 -35 136 -78t43 -107q0 -61 -29.5 -112t-86 -82t-140.5 -31q-66 0 -126.5 28t-90.5 77l64 41q20 -36 62 -60t94 -24q74 0 126 42t52 108q0 44 -29.5 76
t-118.5 65q-83 31 -121 74t-38 104q0 44 17 83.5t49.5 68.5t80 45t105.5 16q68 0 120 -23.5t76 -60.5zM517 908l-158 -144h-56l126 144h88z" />
    <glyph glyph-name="sacute" unicode="&#x15b;" horiz-adv-x="444" 
d="M407 403l-53 -38q-14 27 -43 43t-66 16q-29 0 -57 -10t-41 -27.5t-13 -38.5q0 -26 15.5 -43.5t77.5 -35.5q70 -20 105.5 -52t35.5 -85q0 -45 -24.5 -77t-67 -49.5t-89.5 -17.5q-60 0 -111.5 23t-79.5 66l58 38q17 -30 52.5 -50t77.5 -20q48 0 82.5 20.5t34.5 59.5
q0 26 -19.5 48t-94.5 46q-66 21 -92 51.5t-26 72.5q0 50 32.5 82.5t74.5 43.5t73 11q53 0 96 -21.5t62 -55.5zM430 708l-158 -144h-56l126 144h88z" />
    <glyph glyph-name="Scircumflex" unicode="&#x15c;" horiz-adv-x="564" 
d="M552 642l-61 -44q-19 29 -56.5 47.5t-82.5 18.5q-46 0 -87 -17.5t-64 -49.5t-23 -75q0 -40 25.5 -70t103.5 -60q93 -35 136 -78t43 -107q0 -61 -29.5 -112t-86 -82t-140.5 -31q-66 0 -126.5 28t-90.5 77l64 41q20 -36 62 -60t94 -24q74 0 126 42t52 108q0 44 -29.5 76
t-118.5 65q-83 31 -121 74t-38 104q0 44 17 83.5t49.5 68.5t80 45t105.5 16q68 0 120 -23.5t76 -60.5zM434 908l83 -144h-63l-64 108l-102 -108h-69l135 144h80z" />
    <glyph glyph-name="scircumflex" unicode="&#x15d;" horiz-adv-x="444" 
d="M407 403l-53 -38q-14 27 -43 43t-66 16q-29 0 -57 -10t-41 -27.5t-13 -38.5q0 -26 15.5 -43.5t77.5 -35.5q70 -20 105.5 -52t35.5 -85q0 -45 -24.5 -77t-67 -49.5t-89.5 -17.5q-60 0 -111.5 23t-79.5 66l58 38q17 -30 52.5 -50t77.5 -20q48 0 82.5 20.5t34.5 59.5
q0 26 -19.5 48t-94.5 46q-66 21 -92 51.5t-26 72.5q0 50 32.5 82.5t74.5 43.5t73 11q53 0 96 -21.5t62 -55.5zM340 708l83 -144h-63l-64 108l-102 -108h-69l135 144h80z" />
    <glyph glyph-name="Scedilla" unicode="&#x15e;" horiz-adv-x="564" 
d="M552 642l-61 -44q-19 29 -56.5 47.5t-82.5 18.5q-46 0 -87 -17.5t-64 -49.5t-23 -75q0 -40 25.5 -70t103.5 -60q93 -35 136 -78t43 -107q0 -36 -12.5 -73.5t-39.5 -70t-72 -54.5t-106 -26l-46 -58q13 4 31 4q20 0 39 -9t27 -25t8 -33q0 -24 -13.5 -45.5t-44.5 -34
t-62 -12.5q-21 0 -50.5 5.5t-46.5 14.5l19 36q29 -14 74 -14q18 0 34.5 6t24 17t7.5 22q0 18 -14 28t-36 10t-44 -8l-15 15l65 81q-62 3 -117 30.5t-83 73.5l64 41q20 -36 62 -60t94 -24q74 0 126 42t52 108q0 44 -29.5 76t-118.5 65q-83 31 -121 74t-38 104q0 44 17 83.5
t49.5 68.5t80 45t105.5 16q68 0 120 -23.5t76 -60.5z" />
    <glyph glyph-name="scedilla" unicode="&#x15f;" horiz-adv-x="444" 
d="M407 403l-53 -38q-14 27 -43 43t-66 16q-29 0 -57 -10t-41 -27.5t-13 -38.5q0 -26 15.5 -43.5t77.5 -35.5q70 -20 105.5 -52t35.5 -85q0 -32 -16 -63.5t-55 -52.5t-84 -26l-51 -65q13 4 31 4q20 0 39 -9t27 -25t8 -33q0 -24 -13.5 -45.5t-44.5 -34t-62 -12.5
q-21 0 -50.5 5.5t-46.5 14.5l19 36q29 -14 74 -14q18 0 34.5 6t24 17t7.5 22q0 18 -14 28t-36 10t-44 -8l-15 15l69 87q-55 3 -101 25.5t-72 62.5l58 38q17 -30 52.5 -50t77.5 -20q48 0 82.5 20.5t34.5 59.5q0 26 -19.5 48t-94.5 46q-66 21 -92 51.5t-26 72.5
q0 50 32.5 82.5t74.5 43.5t73 11q53 0 96 -21.5t62 -55.5z" />
    <glyph glyph-name="Scaron" unicode="&#x160;" horiz-adv-x="564" 
d="M552 642l-61 -44q-19 29 -56.5 47.5t-82.5 18.5q-46 0 -87 -17.5t-64 -49.5t-23 -75q0 -40 25.5 -70t103.5 -60q93 -35 136 -78t43 -107q0 -61 -29.5 -112t-86 -82t-140.5 -31q-66 0 -126.5 28t-90.5 77l64 41q20 -36 62 -60t94 -24q74 0 126 42t52 108q0 44 -29.5 76
t-118.5 65q-83 31 -121 74t-38 104q0 44 17 83.5t49.5 68.5t80 45t105.5 16q68 0 120 -23.5t76 -60.5zM531 908l-135 -144h-80l-83 144h63l64 -108l102 108h69z" />
    <glyph glyph-name="scaron" unicode="&#x161;" horiz-adv-x="444" 
d="M407 403l-53 -38q-14 27 -43 43t-66 16q-29 0 -57 -10t-41 -27.5t-13 -38.5q0 -26 15.5 -43.5t77.5 -35.5q70 -20 105.5 -52t35.5 -85q0 -45 -24.5 -77t-67 -49.5t-89.5 -17.5q-60 0 -111.5 23t-79.5 66l58 38q17 -30 52.5 -50t77.5 -20q48 0 82.5 20.5t34.5 59.5
q0 26 -19.5 48t-94.5 46q-66 21 -92 51.5t-26 72.5q0 50 32.5 82.5t74.5 43.5t73 11q53 0 96 -21.5t62 -55.5zM442 708l-135 -144h-80l-83 144h63l64 -108l102 108h69z" />
    <glyph glyph-name="uni0162" unicode="&#x162;" horiz-adv-x="547" 
d="M364 645l-114 -645h-71l114 645h-237l11 63h546l-11 -63h-238zM264 -45l-115 -185h-57l101 185h71z" />
    <glyph glyph-name="uni0163" unicode="&#x163;" horiz-adv-x="307" 
d="M314 468l-11 -56h-127l-49 -274l-3 -32q0 -23 11.5 -39t46.5 -16q14 0 31.5 4.5t25.5 10.5l-8 -58q-12 -6 -33.5 -10t-43.5 -4q-28 0 -51 10t-36 30t-13 53q0 14 3 32l52 293h-97l11 56h95l23 132h67l-23 -132h129zM192 -45l-115 -185h-57l101 185h71z" />
    <glyph glyph-name="Tcaron" unicode="&#x164;" horiz-adv-x="547" 
d="M364 645l-114 -645h-71l114 645h-237l11 63h546l-11 -63h-238zM522 908l-135 -144h-80l-83 144h63l64 -108l102 108h69z" />
    <glyph glyph-name="tcaron" unicode="&#x165;" horiz-adv-x="307" 
d="M314 468l-11 -56h-127l-49 -274l-3 -32q0 -23 11.5 -39t46.5 -16q14 0 31.5 4.5t25.5 10.5l-8 -58q-12 -6 -33.5 -10t-43.5 -4q-28 0 -51 10t-36 30t-13 53q0 14 3 32l52 293h-97l11 56h95l23 132h67l-23 -132h129zM436 731l-115 -185h-57l101 185h71z" />
    <glyph glyph-name="Tbar" unicode="&#x166;" horiz-adv-x="558" 
d="M110 543h170l18 102h-237l11 63h546l-11 -63h-238l-18 -102h173l-8 -50h-174l-87 -493h-71l87 493h-169z" />
    <glyph glyph-name="tbar" unicode="&#x167;" horiz-adv-x="307" 
d="M16 314h75l18 98h-97l11 56h95l23 132h67l-23 -132h129l-11 -56h-127l-18 -98h114l-8 -50h-115l-22 -126l-3 -32q0 -23 11.5 -39t46.5 -16q14 0 31.5 4.5t25.5 10.5l-8 -58q-12 -6 -33.5 -10t-43.5 -4q-28 0 -51 10t-36 30t-13 53q0 14 3 32l25 145h-74z" />
    <glyph glyph-name="Utilde" unicode="&#x168;" horiz-adv-x="710" 
d="M311 -18q-45 0 -88.5 12.5t-76 40.5t-51 69t-18.5 93q0 36 6 67l78 444h71l-77 -436q-6 -31 -6 -61q0 -54 19 -90.5t55.5 -56.5t91.5 -20q187 0 227 228l77 436h71l-78 -444q-23 -131 -100 -206.5t-201 -75.5zM318 776h-43q11 32 28.5 57.5t39.5 36t42 10.5q27 0 69 -23
q24 -12 37.5 -17.5t25.5 -5.5q36 0 58 50h43q-38 -104 -111 -104q-23 0 -69 23q-40 23 -63 23q-37 0 -57 -50z" />
    <glyph glyph-name="utilde" unicode="&#x169;" horiz-adv-x="577" 
d="M429 0h-65q8 63 11 80h-2q-27 -42 -70 -67t-90 -25q-75 0 -118 38.5t-43 104.5q0 20 5 50l51 287h67l-46 -259q-6 -31 -6 -59q0 -105 104 -105q58 0 107 47.5t65 135.5l42 240h67l-64 -365q-10 -50 -15 -103zM208 576h-43q11 32 28.5 57.5t39.5 36t42 10.5q27 0 69 -23
q24 -12 37.5 -17.5t25.5 -5.5q36 0 58 50h43q-38 -104 -111 -104q-23 0 -69 23q-40 23 -63 23q-37 0 -57 -50z" />
    <glyph glyph-name="Umacron" unicode="&#x16a;" horiz-adv-x="710" 
d="M311 -18q-45 0 -88.5 12.5t-76 40.5t-51 69t-18.5 93q0 36 6 67l78 444h71l-77 -436q-6 -31 -6 -61q0 -54 19 -90.5t55.5 -56.5t91.5 -20q187 0 227 228l77 436h71l-78 -444q-23 -131 -100 -206.5t-201 -75.5zM585 854l-9 -54h-270l9 54h270z" />
    <glyph glyph-name="umacron" unicode="&#x16b;" horiz-adv-x="577" 
d="M429 0h-65q8 63 11 80h-2q-27 -42 -70 -67t-90 -25q-75 0 -118 38.5t-43 104.5q0 20 5 50l51 287h67l-46 -259q-6 -31 -6 -59q0 -105 104 -105q58 0 107 47.5t65 135.5l42 240h67l-64 -365q-10 -50 -15 -103zM474 654l-9 -54h-270l9 54h270z" />
    <glyph glyph-name="Ubreve" unicode="&#x16c;" horiz-adv-x="710" 
d="M311 -18q-45 0 -88.5 12.5t-76 40.5t-51 69t-18.5 93q0 36 6 67l78 444h71l-77 -436q-6 -31 -6 -61q0 -54 19 -90.5t55.5 -56.5t91.5 -20q187 0 227 228l77 436h71l-78 -444q-23 -131 -100 -206.5t-201 -75.5zM552 908h44q-10 -58 -55.5 -95t-106.5 -37q-38 0 -69.5 14.5
t-47 46t-15.5 71.5h44q0 -20 8.5 -39t30 -29t50.5 -10q43 0 76 20.5t41 57.5z" />
    <glyph glyph-name="ubreve" unicode="&#x16d;" horiz-adv-x="577" 
d="M429 0h-65q8 63 11 80h-2q-27 -42 -70 -67t-90 -25q-75 0 -118 38.5t-43 104.5q0 20 5 50l51 287h67l-46 -259q-6 -31 -6 -59q0 -105 104 -105q58 0 107 47.5t65 135.5l42 240h67l-64 -365q-10 -50 -15 -103zM440 708h44q-10 -58 -55.5 -95t-106.5 -37q-38 0 -69.5 14.5
t-47 46t-15.5 71.5h44q0 -20 8.5 -39t30 -29t50.5 -10q43 0 76 20.5t41 57.5z" />
    <glyph glyph-name="Uring" unicode="&#x16e;" horiz-adv-x="710" 
d="M311 -18q-45 0 -88.5 12.5t-76 40.5t-51 69t-18.5 93q0 36 6 67l78 444h71l-77 -436q-6 -31 -6 -61q0 -54 19 -90.5t55.5 -56.5t91.5 -20q187 0 227 228l77 436h71l-78 -444q-23 -131 -100 -206.5t-201 -75.5zM435 754q-37 0 -61 22.5t-24 56.5q0 33 17.5 61.5t43 40
t47.5 11.5q37 0 61 -22t24 -57q0 -47 -31 -80t-77 -33zM509 865q0 22 -14.5 37t-38.5 15q-30 0 -50.5 -24t-20.5 -57q0 -22 14.5 -37t37.5 -15q14 0 31 8t29 28.5t12 44.5z" />
    <glyph glyph-name="uring" unicode="&#x16f;" horiz-adv-x="577" 
d="M429 0h-65q8 63 11 80h-2q-27 -42 -70 -67t-90 -25q-75 0 -118 38.5t-43 104.5q0 20 5 50l51 287h67l-46 -259q-6 -31 -6 -59q0 -105 104 -105q58 0 107 47.5t65 135.5l42 240h67l-64 -365q-10 -50 -15 -103zM327 554q-37 0 -61 22.5t-24 56.5q0 33 17.5 61.5t43 40
t47.5 11.5q37 0 61 -22t24 -57q0 -47 -31 -80t-77 -33zM401 665q0 22 -14.5 37t-38.5 15q-30 0 -50.5 -24t-20.5 -57q0 -22 14.5 -37t37.5 -15q14 0 31 8t29 28.5t12 44.5z" />
    <glyph glyph-name="Uhungarumlaut" unicode="&#x170;" horiz-adv-x="710" 
d="M311 -18q-45 0 -88.5 12.5t-76 40.5t-51 69t-18.5 93q0 36 6 67l78 444h71l-77 -436q-6 -31 -6 -61q0 -54 19 -90.5t55.5 -56.5t91.5 -20q187 0 227 228l77 436h71l-78 -444q-23 -131 -100 -206.5t-201 -75.5zM527 908l-159 -144h-59l127 144h91zM697 908l-158 -144h-59
l126 144h91z" />
    <glyph glyph-name="uhungarumlaut" unicode="&#x171;" horiz-adv-x="577" 
d="M429 0h-65q8 63 11 80h-2q-27 -42 -70 -67t-90 -25q-75 0 -118 38.5t-43 104.5q0 20 5 50l51 287h67l-46 -259q-6 -31 -6 -59q0 -105 104 -105q58 0 107 47.5t65 135.5l42 240h67l-64 -365q-10 -50 -15 -103zM417 708l-159 -144h-59l127 144h91zM587 708l-158 -144h-59
l126 144h91z" />
    <glyph glyph-name="Uogonek" unicode="&#x172;" horiz-adv-x="710" 
d="M311 -18q-45 0 -88.5 12.5t-76 40.5t-51 69t-18.5 93q0 36 6 67l78 444h71l-77 -436q-6 -31 -6 -61q0 -54 19 -90.5t55.5 -56.5t91.5 -20q187 0 227 228l77 436h71l-78 -444q-21 -114 -81 -186.5t-156 -89.5q-85 -76 -85 -122q0 -35 43 -35q14 0 29 6t26 16l12 -40
q-20 -16 -44.5 -26t-47.5 -10t-43 10t-28 26.5t-8 32.5q0 67 88 136h-6z" />
    <glyph glyph-name="uogonek" unicode="&#x173;" horiz-adv-x="577" 
d="M409 -147l12 -40q-20 -16 -44.5 -26t-47.5 -10t-43 10t-28 26.5t-8 32.5q0 75 113 154h1q8 63 11 80h-2q-27 -42 -70 -67t-90 -25q-75 0 -118 38.5t-43 104.5q0 20 5 50l51 287h67l-46 -259q-6 -31 -6 -59q0 -105 104 -105q58 0 107 47.5t65 135.5l42 240h67l-64 -365
q-10 -50 -15 -103h-18q-100 -84 -100 -134q0 -35 43 -35q14 0 29 6t26 16z" />
    <glyph glyph-name="Wcircumflex" unicode="&#x174;" horiz-adv-x="960" 
d="M161 708l57 -609h2l295 609h86l59 -609h2l291 609h76l-345 -708h-84l-57 610h-2l-299 -610h-84l-73 708h76zM633 908l83 -144h-63l-64 108l-102 -108h-69l135 144h80z" />
    <glyph glyph-name="wcircumflex" unicode="&#x175;" horiz-adv-x="733" 
d="M52 468h70l32 -380h2l198 380h64l55 -380h3l187 380h72l-239 -468h-72l-53 379h-2l-195 -379h-71zM466 708l83 -144h-63l-64 108l-102 -108h-69l135 144h80z" />
    <glyph glyph-name="Ycircumflex" unicode="&#x176;" horiz-adv-x="557" 
d="M301 305l-54 -305h-71l54 305l-180 403h84l141 -344l283 344h89zM417 908l83 -144h-63l-64 108l-102 -108h-69l135 144h80z" />
    <glyph glyph-name="ycircumflex" unicode="&#x177;" horiz-adv-x="483" 
d="M114 468l75 -394h2l228 394h75l-354 -589q-45 -74 -82 -96.5t-73 -22.5q-28 0 -57 6l10 62q22 -8 44 -8q30 0 54 20.5t48 62.5l58 98l-98 467h70zM347 708l83 -144h-63l-64 108l-102 -108h-69l135 144h80z" />
    <glyph glyph-name="Ydieresis" unicode="&#x178;" horiz-adv-x="557" 
d="M301 305l-54 -305h-71l54 305l-180 403h84l141 -344l283 344h89zM308 849q0 -20 -14.5 -35t-33.5 -15q-20 0 -34 13t-14 34t15 36t35 15t33 -13.5t13 -34.5zM506 849q0 -20 -14.5 -35t-34.5 -15t-33.5 13t-13.5 34t14.5 36t34.5 15t33.5 -13.5t13.5 -34.5z" />
    <glyph glyph-name="Zacute" unicode="&#x179;" horiz-adv-x="572" 
d="M608 708l-11 -60l-518 -585h419l-11 -63h-512l11 60l519 585h-398l11 63h490zM525 908l-158 -144h-56l126 144h88z" />
    <glyph glyph-name="zacute" unicode="&#x17a;" horiz-adv-x="442" 
d="M430 468l-9 -48l-344 -361h290l-10 -59h-380l8 48l343 363h-265l11 57h356zM421 708l-158 -144h-56l126 144h88z" />
    <glyph glyph-name="Zdotaccent" unicode="&#x17b;" horiz-adv-x="572" 
d="M608 708l-11 -60l-518 -585h419l-11 -63h-512l11 60l519 585h-398l11 63h490zM429 849q0 -19 -14 -33.5t-33 -14.5t-32.5 12.5t-13.5 32.5t14.5 34.5t33.5 14.5t32 -13t13 -33z" />
    <glyph glyph-name="zdotaccent" unicode="&#x17c;" horiz-adv-x="442" 
d="M430 468l-9 -48l-344 -361h290l-10 -59h-380l8 48l343 363h-265l11 57h356zM324 649q0 -19 -14 -33.5t-33 -14.5t-32.5 12.5t-13.5 32.5t14.5 34.5t33.5 14.5t32 -13t13 -33z" />
    <glyph glyph-name="Zcaron" unicode="&#x17d;" horiz-adv-x="572" 
d="M608 708l-11 -60l-518 -585h419l-11 -63h-512l11 60l519 585h-398l11 63h490zM536 908l-135 -144h-80l-83 144h63l64 -108l102 108h69z" />
    <glyph glyph-name="zcaron" unicode="&#x17e;" horiz-adv-x="442" 
d="M430 468l-9 -48l-344 -361h290l-10 -59h-380l8 48l343 363h-265l11 57h356zM435 708l-135 -144h-80l-83 144h63l64 -108l102 108h69z" />
    <glyph glyph-name="florin" unicode="&#x192;" horiz-adv-x="580" 
d="M443 419l-10 -54h-119l-129 -352q-55 -152 -182 -152q-21 0 -42 6t-35 18l40 48q21 -12 50 -12q32 0 57.5 22t47.5 84l122 338h-108l10 54h119l52 144q57 157 180 157q24 0 48 -8t42 -21l-43 -48q-25 17 -54 17q-71 0 -110 -116l-44 -125h108z" />
    <glyph glyph-name="uni0218" unicode="&#x218;" horiz-adv-x="564" 
d="M552 642l-61 -44q-19 29 -56.5 47.5t-82.5 18.5q-46 0 -87 -17.5t-64 -49.5t-23 -75q0 -40 25.5 -70t103.5 -60q93 -35 136 -78t43 -107q0 -61 -29.5 -112t-86 -82t-140.5 -31q-66 0 -126.5 28t-90.5 77l64 41q20 -36 62 -60t94 -24q74 0 126 42t52 108q0 44 -29.5 76
t-118.5 65q-83 31 -121 74t-38 104q0 44 17 83.5t49.5 68.5t80 45t105.5 16q68 0 120 -23.5t76 -60.5zM289 -45l-115 -185h-57l101 185h71z" />
    <glyph glyph-name="uni0219" unicode="&#x219;" horiz-adv-x="444" 
d="M407 403l-53 -38q-14 27 -43 43t-66 16q-29 0 -57 -10t-41 -27.5t-13 -38.5q0 -26 15.5 -43.5t77.5 -35.5q70 -20 105.5 -52t35.5 -85q0 -45 -24.5 -77t-67 -49.5t-89.5 -17.5q-60 0 -111.5 23t-79.5 66l58 38q17 -30 52.5 -50t77.5 -20q48 0 82.5 20.5t34.5 59.5
q0 26 -19.5 48t-94.5 46q-66 21 -92 51.5t-26 72.5q0 50 32.5 82.5t74.5 43.5t73 11q53 0 96 -21.5t62 -55.5zM225 -45l-115 -185h-57l101 185h71z" />
    <glyph glyph-name="uni021A" unicode="&#x21a;" horiz-adv-x="547" 
d="M364 645l-114 -645h-71l114 645h-237l11 63h546l-11 -63h-238zM264 -45l-115 -185h-57l101 185h71z" />
    <glyph glyph-name="uni021B" unicode="&#x21b;" horiz-adv-x="307" 
d="M314 468l-11 -56h-127l-49 -274l-3 -32q0 -23 11.5 -39t46.5 -16q14 0 31.5 4.5t25.5 10.5l-8 -58q-12 -6 -33.5 -10t-43.5 -4q-28 0 -51 10t-36 30t-13 53q0 14 3 32l52 293h-97l11 56h95l23 132h67l-23 -132h129zM192 -45l-115 -185h-57l101 185h71z" />
    <glyph glyph-name="circumflex" unicode="&#x2c6;" 
d="M231 708l83 -144h-63l-64 108l-102 -108h-69l135 144h80z" />
    <glyph glyph-name="caron" unicode="&#x2c7;" 
d="M340 708l-135 -144h-80l-83 144h63l64 -108l102 108h69z" />
    <glyph glyph-name="uni02C9" unicode="&#x2c9;" 
d="M316 854l-9 -54h-270l9 54h270z" />
    <glyph glyph-name="breve" unicode="&#x2d8;" 
d="M294 708h44q-10 -58 -55.5 -95t-106.5 -37q-38 0 -69.5 14.5t-47 46t-15.5 71.5h44q0 -20 8.5 -39t30 -29t50.5 -10q43 0 76 20.5t41 57.5z" />
    <glyph glyph-name="dotaccent" unicode="&#x2d9;" 
d="M227 649q0 -19 -14 -33.5t-33 -14.5t-32.5 12.5t-13.5 32.5t14.5 34.5t33.5 14.5t32 -13t13 -33z" />
    <glyph glyph-name="ring" unicode="&#x2da;" 
d="M170 554q-37 0 -61 22.5t-24 56.5q0 33 17.5 61.5t43 40t47.5 11.5q37 0 61 -22t24 -57q0 -47 -31 -80t-77 -33zM244 665q0 22 -14.5 37t-38.5 15q-30 0 -50.5 -24t-20.5 -57q0 -22 14.5 -37t37.5 -15q14 0 31 8t29 28.5t12 44.5z" />
    <glyph glyph-name="ogonek" unicode="&#x2db;" 
d="M112 -147l12 -40q-20 -16 -44.5 -26t-47.5 -10t-43 10t-28 26.5t-8 32.5q0 75 113 154h48q-100 -84 -100 -134q0 -35 43 -35q14 0 29 6t26 16z" />
    <glyph glyph-name="tilde" unicode="&#x2dc;" 
d="M49 576h-43q11 32 28.5 57.5t39.5 36t42 10.5q27 0 69 -23q24 -12 37.5 -17.5t25.5 -5.5q36 0 58 50h43q-38 -104 -111 -104q-23 0 -69 23q-40 23 -63 23q-37 0 -57 -50z" />
    <glyph glyph-name="hungarumlaut" unicode="&#x2dd;" 
d="M197 708l-159 -144h-59l127 144h91zM367 708l-158 -144h-59l126 144h91z" />
    <glyph glyph-name="uni0394" unicode="&#x394;" horiz-adv-x="670" 
d="M607 0h-642l432 712h74zM524 62l-105 583l-350 -583h455z" />
    <glyph glyph-name="uni03A9" unicode="&#x3a9;" horiz-adv-x="744" 
d="M635 0h-251l38 181q57 10 103 39t81 78.5t50 116.5q6 29 6 54q0 85 -57 138t-149 53q-51 0 -101.5 -18t-92 -51.5t-70.5 -79t-40 -96.5q-7 -31 -7 -63q0 -31 11.5 -68.5t44.5 -66t85 -36.5l-38 -181h-251l12 58h197l17 82q-52 16 -86.5 52t-46.5 79t-12 78t7 67
q14 64 51 120.5t90.5 98t117 64t126.5 22.5q55 0 103 -17.5t83.5 -49t54.5 -76t19 -96.5q0 -34 -7 -65q-7 -35 -24.5 -75.5t-48 -79.5t-76.5 -72.5t-107 -49.5l-17 -82h197z" />
    <glyph glyph-name="uni03BC" unicode="&#x3bc;" horiz-adv-x="556" 
d="M-27 -228l148 696h66l-55 -259q-10 -48 -10 -73q0 -46 25 -67t78 -21q37 0 76 21t66 64t38 95l51 240h66l-78 -365q-3 -14 -16 -103h-71l16 76h-2q-30 -36 -80.5 -62t-95.5 -26q-69 0 -104 29l-52 -245h-66z" />
    <glyph glyph-name="pi" unicode="&#x3c0;" horiz-adv-x="563" 
d="M482 11q-41 -17 -68 -17q-64 0 -64 56q0 21 9 61l63 298h-220l-86 -409h-64l86 409h-70l13 59h494l-13 -59h-76l-64 -305l-4 -28q0 -26 30 -26q21 0 44 10z" />
    <glyph glyph-name="endash" unicode="&#x2013;" horiz-adv-x="400" 
d="M370 271l-10 -57h-340l10 57h340z" />
    <glyph glyph-name="emdash" unicode="&#x2014;" horiz-adv-x="600" 
d="M570 271l-10 -57h-540l10 57h540z" />
    <glyph glyph-name="quoteleft" unicode="&#x2018;" horiz-adv-x="222" 
d="M71 473l123 235h57l-109 -235h-71z" />
    <glyph glyph-name="quoteright" unicode="&#x2019;" horiz-adv-x="222" 
d="M251 708l-123 -235h-57l109 235h71z" />
    <glyph glyph-name="quotesinglbase" unicode="&#x201a;" horiz-adv-x="222" 
d="M143 95l-123 -235h-57l109 235h71z" />
    <glyph glyph-name="quotedblleft" unicode="&#x201c;" horiz-adv-x="387" 
d="M71 473l123 235h57l-109 -235h-71zM236 473l123 235h57l-109 -235h-71z" />
    <glyph glyph-name="quotedblright" unicode="&#x201d;" horiz-adv-x="387" 
d="M416 708l-123 -235h-57l109 235h71zM251 708l-123 -235h-57l109 235h71z" />
    <glyph glyph-name="quotedblbase" unicode="&#x201e;" horiz-adv-x="387" 
d="M308 95l-123 -235h-57l109 235h71zM143 95l-123 -235h-57l109 235h71z" />
    <glyph glyph-name="dagger" unicode="&#x2020;" horiz-adv-x="556" 
d="M382 708l-36 -204h204l-11 -60h-204l-100 -570h-66l100 570h-204l11 60h204l36 204h66z" />
    <glyph glyph-name="daggerdbl" unicode="&#x2021;" horiz-adv-x="556" 
d="M382 708l-34 -192h195l-11 -60h-195l-58 -330h195l-10 -60h-195l-34 -192h-66l34 192h-195l10 60h195l58 330h-195l11 60h195l34 192h66z" />
    <glyph glyph-name="bullet" unicode="&#x2022;" horiz-adv-x="500" 
d="M73 354q0 73 52 125t125 52t125 -52t52 -125t-52 -125t-125 -52t-125 52t-52 125z" />
    <glyph glyph-name="ellipsis" unicode="&#x2026;" horiz-adv-x="1000" 
d="M174 49q0 -22 -16 -38.5t-38 -16.5t-37.5 14.5t-15.5 37.5t16.5 39.5t38.5 16.5t37 -14.5t15 -38.5zM508 49q0 -22 -16 -38.5t-38 -16.5t-37.5 14.5t-15.5 37.5t16.5 39.5t38.5 16.5t37 -14.5t15 -38.5zM842 49q0 -22 -16 -38.5t-38 -16.5t-37.5 14.5t-15.5 37.5
t16.5 39.5t38.5 16.5t37 -14.5t15 -38.5z" />
    <glyph glyph-name="perthousand" unicode="&#x2030;" horiz-adv-x="1000" 
d="M203 412q-43 0 -76.5 20t-47 49t-13.5 57q0 36 13 69.5t36.5 58.5t56 39.5t69.5 14.5q43 0 76 -20t46 -48.5t13 -56.5q0 -47 -22 -91t-63.5 -68t-87.5 -24zM318 588q0 35 -22 58t-60 23q-22 0 -47.5 -12.5t-44 -43.5t-18.5 -68q0 -16 7 -35t27 -32.5t46 -13.5
q35 0 63 21.5t38.5 50.5t10.5 52zM423 -12q-43 0 -76.5 20t-47 49t-13.5 57q0 36 13 69.5t36.5 58.5t56 39.5t69.5 14.5q43 0 76 -20t46 -48.5t13 -56.5q0 -47 -22 -91t-63.5 -68t-87.5 -24zM538 164q0 35 -22 58t-60 23q-22 0 -47.5 -12.5t-44 -43.5t-18.5 -68q0 -16 7 -35
t27 -32.5t46 -13.5q35 0 63 21.5t38.5 50.5t10.5 52zM776 -12q-43 0 -76.5 20t-47 49t-13.5 57q0 36 13 69.5t36.5 58.5t56 39.5t69.5 14.5q43 0 76 -20t46 -48.5t13 -56.5q0 -47 -22 -91t-63.5 -68t-87.5 -24zM891 164q0 35 -22 58t-60 23q-22 0 -47.5 -12.5t-44 -43.5
t-18.5 -68q0 -16 7 -35t27 -32.5t46 -13.5q35 0 63 21.5t38.5 50.5t10.5 52zM644 712l-581 -743l-45 27l582 743z" />
    <glyph glyph-name="guilsinglleft" unicode="&#x2039;" horiz-adv-x="315" 
d="M117 235l85 -171l-50 -33l-106 209l177 209l41 -37z" />
    <glyph glyph-name="guilsinglright" unicode="&#x203a;" horiz-adv-x="315" 
d="M177 245l-85 171l50 33l106 -209l-177 -209l-41 37z" />
    <glyph glyph-name="fraction" unicode="&#x2044;" horiz-adv-x="100" 
d="M366 712l-581 -743l-45 27l582 743z" />
    <glyph glyph-name="Euro" unicode="&#x20ac;" horiz-adv-x="580" 
d="M559 633q-21 14 -53.5 22t-62.5 8q-53 0 -101 -24t-87 -68.5t-63 -101.5h300l-28 -55h-292q-8 -22 -15 -59t-8 -63h257l-27 -55h-231q0 -87 53 -139.5t144 -52.5q32 0 67 9.5t69 30.5l19 -56q-74 -47 -169 -47q-45 0 -90.5 14t-82 46.5t-59.5 82.5t-23 112h-76l29 55h49
q1 20 8 57.5t15 64.5h-69l30 55h57q21 55 55 102.5t77 82t94.5 53.5t105.5 19q41 0 79.5 -8.5t63.5 -23.5z" />
    <glyph glyph-name="uni2113" unicode="&#x2113;" horiz-adv-x="500" 
d="M459 621q0 -42 -21.5 -93t-75.5 -116t-145 -137q-35 -148 -35 -180q0 -15 6 -29t19.5 -21t28.5 -7q22 0 45 9.5t54 31.5h2l19 -40q-71 -53 -137 -53q-47 0 -76.5 26t-29.5 71q0 21 27 145l-69 -60h-2l-21 39l105 84l56 262q17 83 58.5 125.5t97.5 42.5q19 0 41 -9.5
t37.5 -34.5t15.5 -56zM401 617q0 24 -12 40t-30 16q-26 0 -47 -25t-33 -81l-49 -228q45 42 84.5 91.5t63 97t23.5 89.5z" />
    <glyph glyph-name="trademark" unicode="&#x2122;" horiz-adv-x="1000" 
d="M459 708v-54h-133v-358h-60v358h-136v54h329zM986 708v-412h-60v346h-2l-139 -346h-39l-139 346h-2v-346h-60v412h93l129 -316l129 316h90z" />
    <glyph glyph-name="Omega" unicode="&#x2126;" horiz-adv-x="744" 
d="M635 0h-251l38 181q57 10 103 39t81 78.5t50 116.5q6 29 6 54q0 85 -57 138t-149 53q-51 0 -101.5 -18t-92 -51.5t-70.5 -79t-40 -96.5q-7 -31 -7 -63q0 -31 11.5 -68.5t44.5 -66t85 -36.5l-38 -181h-251l12 58h197l17 82q-52 16 -86.5 52t-46.5 79t-12 78t7 67
q14 64 51 120.5t90.5 98t117 64t126.5 22.5q55 0 103 -17.5t83.5 -49t54.5 -76t19 -96.5q0 -34 -7 -65q-7 -35 -24.5 -75.5t-48 -79.5t-76.5 -72.5t-107 -49.5l-17 -82h197z" />
    <glyph glyph-name="estimated" unicode="&#x212e;" horiz-adv-x="800" 
d="M210 402h385v193q-82 79 -194 79t-191 -79v-193zM745 355h-535v-240q77 -78 192 -78q83 0 144 38t112 121l46 -28q-61 -96 -130 -138t-172 -42q-75 0 -139 28t-109.5 78.5t-69.5 118t-24 142.5t24 142.5t69.5 117t109.5 77.5t139 28q74 0 138 -27t109.5 -75.5
t70.5 -116.5t25 -146z" />
    <glyph glyph-name="partialdiff" unicode="&#x2202;" horiz-adv-x="496" 
d="M455 363q0 -63 -9 -126.5t-33 -120t-70 -92.5t-113 -36q-33 0 -68 12t-64 40.5t-48 72.5t-19 99q0 54 23 105.5t69.5 79.5t101.5 28q47 0 91 -23t75 -61l1 52q0 41 -9 89.5t-30 90.5t-56.5 67.5t-83.5 25.5q-24 0 -49.5 -8.5t-62.5 -37.5l-36 43q67 58 145 58
q51 0 97.5 -22t79.5 -70.5t50.5 -116.5t17.5 -149zM386 278q-21 28 -49.5 50.5t-56.5 31.5t-49 9q-24 0 -48.5 -8.5t-46 -31t-32 -56t-10.5 -63.5q0 -29 9 -60.5t26.5 -55.5t43.5 -38.5t58 -14.5q30 0 55 13.5t45.5 40.5t36 76t18.5 107z" />
    <glyph glyph-name="Delta" unicode="&#x2206;" horiz-adv-x="670" 
d="M607 0h-642l432 712h74zM524 62l-105 583l-350 -583h455z" />
    <glyph glyph-name="product" unicode="&#x220f;" horiz-adv-x="711" 
d="M641 -214h-66v938h-438v-938h-66v1000h570v-1000z" />
    <glyph glyph-name="summation" unicode="&#x2211;" horiz-adv-x="604" 
d="M578 -214h-553v55l329 448l-315 441v56h527v-62h-442l309 -435l-328 -442h473v-61z" />
    <glyph glyph-name="minus" unicode="&#x2212;" horiz-adv-x="666" 
d="M588 333v-60h-510v60h510z" />
    <glyph glyph-name="uni2215" unicode="&#x2215;" horiz-adv-x="100" 
d="M366 712l-581 -743l-45 27l582 743z" />
    <glyph glyph-name="uni2219" unicode="&#x2219;" horiz-adv-x="260" 
d="M184 315q0 -22 -16 -38.5t-38 -16.5t-37.5 14.5t-15.5 37.5t16.5 39.5t38.5 16.5t37 -14.5t15 -38.5z" />
    <glyph glyph-name="radical" unicode="&#x221a;" horiz-adv-x="493" 
d="M502 786l-210 -1000h-66l-164 340l-46 -22l-24 50l100 48l158 -332l189 916h63z" />
    <glyph glyph-name="infinity" unicode="&#x221e;" horiz-adv-x="741" 
d="M700 252q0 -28 -12 -63t-46.5 -60t-81.5 -25q-26 0 -57.5 11.5t-62.5 35t-69 60.5q-82 -71 -115.5 -89t-74.5 -18q-62 0 -101 41.5t-39 103.5q0 28 12.5 63.5t46 60t79.5 24.5q14 0 40.5 -6t60 -28.5t91.5 -77.5q5 5 29.5 28.5t46 40.5t42.5 27t38 13.5t31 3.5
q63 0 102.5 -41.5t39.5 -104.5zM643 249q0 28 -12.5 51t-32 32t-38.5 9t-48.5 -12.5t-102.5 -80.5q71 -63 102.5 -74.5t51.5 -11.5q37 0 58.5 25t21.5 62zM333 249q-55 47 -74 60t-40.5 22t-40.5 9q-27 0 -46.5 -15.5t-26.5 -36.5t-7 -38q0 -38 23 -63t61 -25
q27 0 65.5 20.5t85.5 66.5z" />
    <glyph glyph-name="integral" unicode="&#x222b;" horiz-adv-x="543" 
d="M406 736q0 -16 -10.5 -25t-26.5 -9q-11 0 -19.5 6t-17 20t-15.5 14q-16 0 -24 -24.5t-10 -55.5t-1.5 -52.5t1 -39t0.5 -19.5v-504q0 -97 -7.5 -136t-20.5 -65.5t-37 -42.5t-57 -16q-23 0 -41.5 12t-18.5 35q0 13 10 22.5t23 9.5q11 0 18.5 -5.5t16 -19t15.5 -13.5
q6 0 12 6.5t10 20.5t6 31.5t3 33.5t1 27v18.5v21.5l1 21v495v9.5t-1 46.5t2 80.5t14.5 72t36 53t67.5 21.5q18 0 36 -6.5t26 -19t8 -24.5z" />
    <glyph glyph-name="approxequal" unicode="&#x2248;" horiz-adv-x="666" 
d="M596 402q-6 -57 -37 -97t-86 -40q-48 0 -145 37q-45 16 -77 26t-56 10q-15 0 -32.5 -8t-30.5 -28.5t-16 -43.5h-45q9 68 42 103.5t82 35.5q45 0 143 -36q43 -16 76.5 -26.5t59.5 -10.5q16 0 33 7.5t29 26.5t17 44h43zM596 232q-3 -26 -13.5 -55t-26.5 -46t-36 -27
t-48 -10q-49 0 -144 37q-45 16 -77 26t-56 10q-15 0 -32.5 -8t-30.5 -28.5t-16 -43.5h-45q4 26 15.5 59t38.5 57t69 24q44 0 144 -36q95 -37 136 -37q32 0 51.5 21.5t26.5 56.5h44z" />
    <glyph glyph-name="notequal" unicode="&#x2260;" horiz-adv-x="666" 
d="M584 120h-287l-76 -144l-52 27l62 117h-149v60h181l68 130h-249v60h282l77 147l52 -28l-63 -119h154v-60h-186l-69 -130h255v-60z" />
    <glyph glyph-name="lessequal" unicode="&#x2264;" horiz-adv-x="666" 
d="M584 108l-502 188v65l502 189v-65l-419 -157l419 -155v-65zM584 6h-502v59h502v-59z" />
    <glyph glyph-name="greaterequal" unicode="&#x2265;" horiz-adv-x="666" 
d="M584 296l-502 -188v65l420 155l-420 157v65l502 -189v-65zM584 6h-502v59h502v-59z" />
    <glyph glyph-name="lozenge" unicode="&#x25ca;" horiz-adv-x="593" 
d="M498 356l-171 -391h-63l-169 391l169 391h63zM433 356l-137 325l-136 -325l136 -325z" />
    <glyph glyph-name="uniF6BE" unicode="&#xf6be;" horiz-adv-x="251" 
d="M-113 -233l14 57q18 -6 42 -6q30 0 49.5 18t31.5 82l97 550h67l-99 -561q-13 -78 -47.5 -112.5t-98.5 -34.5q-34 0 -56 7z" />
    <glyph glyph-name="uniF6C3" unicode="&#xf6c3;" 
d="M193 -45l-115 -185h-57l101 185h71z" />
    <glyph glyph-name="uniF8FF" unicode="&#xf8ff;" horiz-adv-x="512" 
d="M222 117h56v67h-56v-67zM225 234h46q0 53 6 72t43 52q27 25 45 52t18 68q0 27 -12 58t-42.5 52t-69.5 21q-54 0 -91 -33.5t-44 -103.5l50 -8q6 48 28 71.5t54 23.5q31 0 53.5 -25t22.5 -60q0 -20 -10 -37t-40 -46q-31 -31 -46 -59q-13 -25 -13 -81zM462 50h-412v617h412
v-617zM512 718h-512v-718h512v718z" />
    <glyph glyph-name="Ccedilla.aalt" horiz-adv-x="560" 
d="M541 461l-54 -43q-21 30 -54 47t-75 17q-51 0 -96 -20.5t-77 -56.5t-49.5 -82.5t-17.5 -96.5q0 -77 45 -127t126 -50q91 0 156 71l44 -41q-76 -87 -197 -91l-50 -63q13 4 31 4q20 0 39 -9t27 -25t8 -33q0 -24 -13.5 -45.5t-44.5 -34t-62 -12.5q-21 0 -50.5 5.5
t-46.5 14.5l19 36q29 -14 74 -14q18 0 34.5 6t24 17t7.5 22q0 18 -14 28t-36 10t-44 -8l-15 15l70 88q-95 9 -149.5 71.5t-54.5 157.5q0 65 23.5 124.5t66 104t100.5 69.5t123 25q42 0 81 -12t64 -31.5t37 -37.5z" />
    <glyph glyph-name="four.oldstyle" horiz-adv-x="569" 
d="M507 65l-10 -61h-114l-31 -174h-69l31 174h-312l12 65l366 476h80l-371 -480h233l46 260h69l-46 -260h116z" />
    <glyph glyph-name="Rcaron.aalt" horiz-adv-x="491" 
d="M444 400q0 -44 -17 -76t-50 -51.5t-79 -26.5l116 -246h-75l-107 238h-84l-42 -238h-69l94 530h145q78 0 123 -33t45 -97zM374 395q0 38 -29 58.5t-79 20.5h-77l-32 -180h80q63 0 100 24t37 77zM251 -45l-115 -185h-57l101 185h71z" />
    <glyph glyph-name="glyph378" 
d="M294 908h44q-10 -58 -55.5 -95t-106.5 -37q-38 0 -69.5 14.5t-47 46t-15.5 71.5h44q0 -20 8.5 -39t30 -29t50.5 -10q43 0 76 20.5t41 57.5z" />
    <glyph glyph-name="five.oldstyle" horiz-adv-x="519" 
d="M490 531l-13 -65h-273l-54 -198q36 9 66 9q65 0 110.5 -24.5t69 -65t23.5 -96.5q0 -57 -20 -106t-59 -83.5t-95 -53.5t-124 -19q-61 0 -109 10l13 64q39 -12 93 -12q71 0 122 23t78.5 65.5t27.5 105.5q0 43 -19.5 75t-57 46t-78.5 14q-11 0 -45 -3.5t-79 -17.5l87 332
h336z" />
    <glyph glyph-name="D.aalt" horiz-adv-x="596" 
d="M543 308q0 -70 -24.5 -128t-69 -98t-105.5 -61t-130 -21h-177l94 530h161q50 0 95.5 -13.5t80.5 -41t55 -70t20 -97.5zM472 300q0 77 -51 125t-142 48h-90l-73 -415h98q117 0 187.5 67t70.5 175z" />
    <glyph glyph-name="E.aalt" horiz-adv-x="475" 
d="M453 530l-10 -57h-254l-30 -171h243l-10 -56h-243l-33 -188h275l-11 -58h-343l94 530h322z" />
    <glyph glyph-name="G.aalt" horiz-adv-x="596" 
d="M541 461l-55 -43q-20 29 -53.5 46.5t-74.5 17.5q-51 0 -96 -20.5t-77 -56.5t-49.5 -82.5t-17.5 -96.5q0 -37 11 -69.5t33 -57t55 -38t74 -13.5q35 0 70 8t59 21l26 154h-121l10 56h188l-43 -252q-85 -47 -196 -47q-54 0 -99 17t-76 48t-47 74t-16 92q0 65 23.5 124.5
t66 104t100.5 69.5t123 25q57 0 106 -21.5t76 -59.5z" />
    <glyph glyph-name="six.oldstyle" horiz-adv-x="585" 
d="M516 238q0 -52 -18.5 -98.5t-52.5 -81.5t-82.5 -54.5t-105.5 -19.5q-93 0 -151.5 55.5t-58.5 148.5q0 228 385 525l57 -40q-89 -62 -172 -140.5t-128 -148.5l2 -2q25 22 59 34t68 12q32 0 66.5 -9.5t63.5 -32.5t48.5 -60t19.5 -88zM444 233q0 31 -13.5 63t-46 54.5
t-77.5 22.5q-40 0 -75 -14.5t-60.5 -40.5t-39.5 -60.5t-14 -72.5q0 -60 40 -101t102 -41q30 0 62 10t59 33t45 60.5t18 86.5z" />
    <glyph glyph-name="H.aalt" horiz-adv-x="579" 
d="M533 530l-92 -530h-69l42 245h-265l-43 -245h-69l93 530h69l-40 -229h266l40 229h68z" />
    <glyph glyph-name="I.aalt" horiz-adv-x="246" 
d="M200 530l-94 -530h-69l94 530h69z" />
    <glyph glyph-name="glyph386" 
d="M170 754q-37 0 -61 22.5t-24 56.5q0 33 17.5 61.5t43 40t47.5 11.5q37 0 61 -22t24 -57q0 -47 -31 -80t-77 -33zM244 865q0 22 -14.5 37t-38.5 15q-30 0 -50.5 -24t-20.5 -57q0 -22 14.5 -37t37.5 -15q14 0 31 8t29 28.5t12 44.5z" />
    <glyph glyph-name="seven.oldstyle" horiz-adv-x="516" 
d="M516 531l-12 -66q-105 -158 -218.5 -340.5t-184.5 -307.5l-73 19q74 124 198 319t203 311h-346l12 65h421z" />
    <glyph glyph-name="L.aalt" horiz-adv-x="408" 
d="M354 58l-10 -58h-307l94 530h69l-84 -472h238z" />
    <glyph glyph-name="M.aalt" horiz-adv-x="718" 
d="M672 530l-93 -530h-67l76 431h-2l-257 -431h-44l-104 431h-2l-76 -431h-66l94 530h93l102 -426l251 426h95z" />
    <glyph glyph-name="o.sc" horiz-adv-x="649" 
d="M596 312q0 -64 -22.5 -123.5t-64 -104.5t-99 -70.5t-123.5 -25.5q-111 0 -176 63.5t-65 166.5q0 65 23 124t65 104t99 70.5t122 25.5q54 0 99.5 -17t77 -47.5t48 -73t16.5 -92.5zM524 307q0 46 -19.5 88.5t-61 65t-92.5 22.5q-38 0 -78 -14t-78.5 -51.5t-57.5 -91
t-19 -102.5q0 -46 19.5 -88.5t61 -65t92.5 -22.5t95 21t74.5 57t47 83.5t16.5 97.5z" />
    <glyph glyph-name="eight.oldstyle" horiz-adv-x="576" 
d="M534 557q0 -17 -4.5 -42.5t-20.5 -52t-46.5 -51t-74.5 -37.5l1 -2q35 -11 63 -37t39 -58t11 -58q0 -55 -20.5 -99.5t-56 -74.5t-81.5 -45.5t-95 -15.5q-60 0 -106 23t-72 63t-26 97q0 40 12 71.5t31.5 57.5t54.5 50t81 33v3q-43 17 -67.5 54t-24.5 81q0 34 11.5 70
t39 66.5t70 50.5t96.5 20q38 0 71.5 -10.5t59 -31.5t40 -53t14.5 -72zM466 547q0 54 -34 85.5t-88 31.5q-31 0 -65 -15t-57 -52.5t-23 -78.5q0 -35 18 -62.5t45 -38.5t51 -11q40 0 77 19.5t56.5 54t19.5 67.5zM432 218q0 40 -22 71.5t-53.5 44t-58.5 12.5q-37 0 -71 -13
t-59 -36.5t-39 -55.5t-14 -68q0 -29 13 -58.5t47.5 -49.5t76.5 -20q81 0 130.5 49t49.5 124z" />
    <glyph glyph-name="P.aalt" horiz-adv-x="472" 
d="M442 396q0 -76 -51.5 -121t-149.5 -45h-95l-41 -230h-68l94 530h146q77 0 121 -35.5t44 -98.5zM375 389q0 40 -28 62.5t-73 22.5h-86l-33 -188h86q64 0 99 28t35 75z" />
    <glyph glyph-name="Q.aalt" horiz-adv-x="649" 
d="M590 310q0 -85 -40.5 -153t-106.5 -97v-2h144l-11 -58h-286q-113 0 -178.5 60.5t-65.5 164.5q0 63 23 121.5t64 102.5t97.5 68.5t120.5 24.5q110 0 174.5 -63.5t64.5 -168.5zM518 307q0 56 -22.5 95.5t-60 60t-88.5 20.5q-36 0 -75.5 -14t-77.5 -51t-57 -89t-19 -99
q0 -28 7.5 -58t27 -55t54 -42t86.5 -17q47 0 88.5 20t72 54.5t47.5 80t17 94.5z" />
    <glyph glyph-name="glyph394" 
d="M197 908l-159 -144h-59l127 144h91zM367 908l-158 -144h-59l126 144h91z" />
    <glyph glyph-name="nine.oldstyle" horiz-adv-x="585" 
d="M523 341q0 -112 -95 -244t-290 -282l-56 41q90 62 170 137t126 146l-3 2q-22 -20 -55.5 -30.5t-67.5 -10.5q-55 0 -102 24t-71 69.5t-24 96.5q0 25 6 57t22.5 64.5t46.5 63.5t78 50.5t105 19.5q45 0 84 -14t67 -40.5t43.5 -65t15.5 -84.5zM453 344q0 60 -40 100.5
t-102 40.5q-41 0 -71 -12.5t-53.5 -33t-41.5 -57.5t-18 -86q0 -44 22 -79t53.5 -48t60.5 -13q82 0 136 54.5t54 133.5z" />
    <glyph glyph-name="T.aalt" horiz-adv-x="419" 
d="M450 530l-10 -56h-166l-84 -474h-67l83 474h-169l9 56h404z" />
    <glyph glyph-name="U.aalt" horiz-adv-x="567" 
d="M530 530l-58 -327q-39 -215 -233 -215q-85 0 -133 44.5t-48 116.5q0 25 4 49l59 332h69l-58 -322q-4 -23 -4 -47q0 -50 28.5 -81t85.5 -31q134 0 164 165l55 316h69z" />
    <glyph glyph-name="W.aalt" horiz-adv-x="746" 
d="M779 530l-264 -530h-75l-42 433h-2l-216 -433h-75l-49 530h71l35 -435h2l215 435h71l42 -435h2l212 435h73z" />
    <glyph glyph-name="zero.sc" horiz-adv-x="479" 
d="M427 360q0 -44 -9 -101.5t-30 -109t-48 -86.5t-63.5 -55.5t-79.5 -20.5q-48 0 -80.5 21t-50 60.5t-17.5 98.5q0 61 16 136t52 133.5t78 82t85 23.5q48 0 80 -21.5t49.5 -61.5t17.5 -99zM358 354q0 56 -20.5 92t-62.5 36q-25 0 -52 -18t-53 -63.5t-39 -108.5t-13 -118
t20 -90.5t62 -35.5q33 0 62.5 26t51 70.5t33 99.5t11.5 110z" />
    <glyph glyph-name="X.aalt" horiz-adv-x="484" 
d="M500 530l-222 -256l132 -274h-76l-104 225l-191 -225h-85l245 279l-120 251h75l93 -204l172 204h81z" />
    <glyph glyph-name="Y.aalt" horiz-adv-x="432" 
d="M485 530l-255 -301l-40 -229h-68l40 230l-130 300h75l99 -245l195 245h84z" />
    <glyph glyph-name="glyph402" 
d="M227 849q0 -19 -14 -33.5t-33 -14.5t-32.5 12.5t-13.5 32.5t14.5 34.5t33.5 14.5t32 -13t13 -33z" />
    <glyph glyph-name="one.sc" horiz-adv-x="479" 
d="M341 530l-94 -530h-67l79 443l-112 -79l-34 48l168 118h60z" />
    <glyph glyph-name="Aacute.aalt" horiz-adv-x="517" 
d="M458 0h-71l-24 132h-251l-83 -132h-77l342 530h62zM354 187l-45 263l-164 -263h209zM521 738l-158 -144h-56l126 144h88z" />
    <glyph glyph-name="Acircumflex.aalt" horiz-adv-x="517" 
d="M458 0h-71l-24 132h-251l-83 -132h-77l342 530h62zM354 187l-45 263l-164 -263h209zM398 738l83 -144h-63l-64 108l-102 -108h-69l135 144h80z" />
    <glyph glyph-name="Adieresis.aalt" horiz-adv-x="517" 
d="M458 0h-71l-24 132h-251l-83 -132h-77l342 530h62zM354 187l-45 263l-164 -263h209zM294 679q0 -20 -14.5 -35t-33.5 -15q-20 0 -34 13t-14 34t15 36t35 15t33 -13.5t13 -34.5zM492 679q0 -20 -14.5 -35t-34.5 -15t-33.5 13t-13.5 34t14.5 36t34.5 15t33.5 -13.5
t13.5 -34.5z" />
    <glyph glyph-name="two.sc" horiz-adv-x="479" 
d="M420 413q0 -40 -20.5 -81.5t-97.5 -109.5l-186 -164h254l-10 -58h-339l11 59l233 208q46 41 67 74.5t21 66.5q0 34 -22 55t-59 21q-38 0 -68 -24t-46 -64l-60 18q10 28 32.5 58.5t61 50t81.5 19.5q66 0 106.5 -35.5t40.5 -93.5z" />
    <glyph glyph-name="Aring.aalt" horiz-adv-x="517" 
d="M458 0h-71l-24 132h-251l-83 -132h-77l342 530h62zM354 187l-45 263l-164 -263h209zM333 584q-37 0 -61 22.5t-24 56.5q0 33 17.5 61.5t43 40t47.5 11.5q37 0 61 -22t24 -57q0 -47 -31 -80t-77 -33zM407 695q0 22 -14.5 37t-38.5 15q-30 0 -50.5 -24t-20.5 -57
q0 -22 14.5 -37t37.5 -15q14 0 31 8t29 28.5t12 44.5z" />
    <glyph glyph-name="Amacron.aalt" horiz-adv-x="517" 
d="M458 0h-71l-24 132h-251l-83 -132h-77l342 530h62zM354 187l-45 263l-164 -263h209zM485 684l-9 -54h-270l9 54h270z" />
    <glyph glyph-name="glyph410" 
d="M253 708l-115 -185h-57l101 185h71z" />
    <glyph glyph-name="three.sc" horiz-adv-x="479" 
d="M408 414q0 -51 -31.5 -89.5t-84.5 -49.5v-2q20 -4 41.5 -18.5t35 -41t13.5 -55.5q0 -56 -25 -94t-65.5 -57t-94.5 -19q-42 0 -79 17.5t-57 44t-27 50.5l61 23q11 -37 39.5 -57t65.5 -20q26 0 53 10.5t44 37.5t17 63q0 43 -29.5 67t-75.5 24h-33l11 55h29q28 0 58.5 9.5
t49 35.5t18.5 62q0 32 -23 54t-59 22q-28 0 -54 -16t-45 -46l-51 31q27 42 67 64.5t87 22.5q28 0 62.5 -11.5t58 -42t23.5 -74.5z" />
    <glyph glyph-name="AE.aalt" horiz-adv-x="785" 
d="M763 530l-10 -57h-255l-30 -171h244l-10 -56h-243l-34 -188h276l-10 -58h-343l25 142h-217l-115 -142h-80l429 530h373zM431 473h-11l-221 -276h183z" />
    <glyph glyph-name="Cacute.aalt" horiz-adv-x="560" 
d="M541 461l-54 -43q-21 30 -54 47t-75 17q-51 0 -96 -20.5t-77 -56.5t-49.5 -82.5t-17.5 -96.5q0 -77 45 -127t126 -50q91 0 156 71l44 -41q-80 -91 -206 -91q-54 0 -98.5 17t-75.5 47.5t-47 73.5t-16 93q0 65 23.5 124.5t66 104t100.5 69.5t123 25q42 0 81 -12t64 -31.5
t37 -37.5zM504 738l-158 -144h-56l126 144h88z" />
    <glyph glyph-name="Ccaron.aalt" horiz-adv-x="560" 
d="M541 461l-54 -43q-21 30 -54 47t-75 17q-51 0 -96 -20.5t-77 -56.5t-49.5 -82.5t-17.5 -96.5q0 -77 45 -127t126 -50q91 0 156 71l44 -41q-80 -91 -206 -91q-54 0 -98.5 17t-75.5 47.5t-47 73.5t-16 93q0 65 23.5 124.5t66 104t100.5 69.5t123 25q42 0 81 -12t64 -31.5
t37 -37.5zM537 738l-135 -144h-80l-83 144h63l64 -108l102 108h69z" />
    <glyph glyph-name="four.sc" horiz-adv-x="479" 
d="M418 179l-11 -57h-78l-21 -122h-63l21 122h-237l12 64l276 344h83l-61 -351h79zM327 458h-2l-216 -279h167z" />
    <glyph glyph-name="Cdotaccent.aalt" horiz-adv-x="560" 
d="M541 461l-54 -43q-21 30 -54 47t-75 17q-51 0 -96 -20.5t-77 -56.5t-49.5 -82.5t-17.5 -96.5q0 -77 45 -127t126 -50q91 0 156 71l44 -41q-80 -91 -206 -91q-54 0 -98.5 17t-75.5 47.5t-47 73.5t-16 93q0 65 23.5 124.5t66 104t100.5 69.5t123 25q42 0 81 -12t64 -31.5
t37 -37.5zM428 679q0 -19 -14 -33.5t-33 -14.5t-32.5 12.5t-13.5 32.5t14.5 34.5t33.5 14.5t32 -13t13 -33z" />
    <glyph glyph-name="Uogonek.aalt" horiz-adv-x="567" 
d="M290 -147l12 -40q-20 -16 -44.5 -26t-47.5 -10t-43 10t-28 26.5t-8 32.5q0 30 21.5 66t74.5 76q-80 4 -124.5 48t-44.5 113q0 25 4 49l59 332h69l-58 -322q-4 -23 -4 -47q0 -50 28.5 -81t85.5 -31q134 0 164 165l55 316h69l-58 -327q-34 -191 -191 -212q-89 -76 -89 -125
q0 -35 43 -35q14 0 29 6t26 16z" />
    <glyph glyph-name="question.aalt" horiz-adv-x="424" 
d="M383 419q0 -41 -22.5 -74.5t-70.5 -66.5q-29 -20 -47.5 -39t-24.5 -55l-3 -22h-65l5 31q10 62 73 108l35 26q54 39 54 88q0 31 -21 50t-54 19q-35 0 -61.5 -21t-38.5 -60l-61 12q7 28 26.5 58t56.5 49.5t78 19.5q42 0 74.5 -15.5t49.5 -42t17 -65.5zM218 45
q0 -20 -14.5 -35.5t-34.5 -15.5t-33 12.5t-13 34.5q0 21 15 36t34 15q20 0 33 -13t13 -34z" />
    <glyph glyph-name="five.sc" horiz-adv-x="479" 
d="M420 530l-12 -57h-205l-30 -148q29 13 65 13q67 0 111 -42t44 -110q0 -32 -9 -65.5t-31.5 -63t-61 -49.5t-92.5 -20q-43 0 -79.5 16t-57 40t-28.5 45l59 28q5 -15 19.5 -32t38.5 -28t48 -11q59 0 92.5 38.5t33.5 97.5q0 45 -29.5 72.5t-78.5 27.5q-26 0 -60 -10t-58 -26
l56 284h265z" />
    <glyph glyph-name="Eth.aalt" horiz-adv-x="596" 
d="M91 303l40 227h161q50 0 95.5 -13.5t80.5 -41t55 -70t20 -97.5q0 -70 -24.5 -128t-69 -98t-105.5 -61t-130 -21h-177l44 251h-71l10 52h71zM150 251l-34 -193h98q117 0 187.5 67t70.5 175q0 77 -51 125t-142 48h-90l-30 -170h149l-10 -52h-148z" />
    <glyph glyph-name="Egrave.aalt" horiz-adv-x="475" 
d="M453 530l-10 -57h-254l-30 -171h243l-10 -56h-243l-33 -188h275l-11 -58h-343l94 530h322zM282 594l-132 144h88l100 -144h-56z" />
    <glyph glyph-name="Ecircumflex.aalt" horiz-adv-x="475" 
d="M453 530l-10 -57h-254l-30 -171h243l-10 -56h-243l-33 -188h275l-11 -58h-343l94 530h322zM365 738l83 -144h-63l-64 108l-102 -108h-69l135 144h80z" />
    <glyph glyph-name="six.sc" horiz-adv-x="479" 
d="M403 181q0 -50 -25 -96.5t-72.5 -71.5t-99.5 -25q-71 0 -116.5 43t-45.5 115q0 33 15.5 76t67.5 110l156 198h79l-179 -218l2 -2q13 8 33 13t37 5q65 0 106.5 -41t41.5 -106zM336 176q0 20 -9 43t-32.5 39.5t-54.5 16.5q-40 0 -72 -22t-44.5 -52t-12.5 -55q0 -41 28 -71
t71 -30q29 0 57.5 13.5t48.5 45.5t20 72z" />
    <glyph glyph-name="Ecaron.aalt" horiz-adv-x="475" 
d="M453 530l-10 -57h-254l-30 -171h243l-10 -56h-243l-33 -188h275l-11 -58h-343l94 530h322zM468 738l-135 -144h-80l-83 144h63l64 -108l102 108h69z" />
    <glyph glyph-name="Edieresis.aalt" horiz-adv-x="475" 
d="M453 530l-10 -57h-254l-30 -171h243l-10 -56h-243l-33 -188h275l-11 -58h-343l94 530h322zM259 679q0 -20 -14.5 -35t-33.5 -15q-20 0 -34 13t-14 34t15 36t35 15t33 -13.5t13 -34.5zM457 679q0 -20 -14.5 -35t-34.5 -15t-33.5 13t-13.5 34t14.5 36t34.5 15t33.5 -13.5
t13.5 -34.5z" />
    <glyph glyph-name="glyph426" 
d="M93 564l115 185h57l-101 -185h-71z" />
    <glyph glyph-name="seven.sc" horiz-adv-x="479" 
d="M441 530l-11 -61l-299 -469h-78l308 471h-251l9 59h322z" />
    <glyph glyph-name="Ebreve.aalt" horiz-adv-x="475" 
d="M453 530l-10 -57h-254l-30 -171h243l-10 -56h-243l-33 -188h275l-11 -58h-343l94 530h322zM417 738h44q-10 -58 -55.5 -95t-106.5 -37q-38 0 -69.5 14.5t-47 46t-15.5 71.5h44q0 -20 8.5 -39t30 -29t50.5 -10q43 0 76 20.5t41 57.5z" />
    <glyph glyph-name="Eogonek.aalt" horiz-adv-x="475" 
d="M358 -147l12 -40q-20 -16 -44.5 -26t-47.5 -10t-43 10t-28 26.5t-8 32.5q0 75 113 154h-275l94 530h322l-10 -57h-254l-30 -171h243l-10 -56h-243l-33 -188h275l-11 -58h-20q-100 -84 -100 -134q0 -35 43 -35q14 0 29 6t26 16z" />
    <glyph glyph-name="Gdotaccent.aalt" horiz-adv-x="596" 
d="M541 461l-55 -43q-20 29 -53.5 46.5t-74.5 17.5q-51 0 -96 -20.5t-77 -56.5t-49.5 -82.5t-17.5 -96.5q0 -37 11 -69.5t33 -57t55 -38t74 -13.5q35 0 70 8t59 21l26 154h-121l10 56h188l-43 -252q-85 -47 -196 -47q-54 0 -99 17t-76 48t-47 74t-16 92q0 65 23.5 124.5
t66 104t100.5 69.5t123 25q57 0 106 -21.5t76 -59.5zM426 679q0 -19 -14 -33.5t-33 -14.5t-32.5 12.5t-13.5 32.5t14.5 34.5t33.5 14.5t32 -13t13 -33z" />
    <glyph glyph-name="eight.sc" horiz-adv-x="479" 
d="M419 415q0 -26 -11 -55t-37 -50.5t-57 -30.5v-2q34 -11 57.5 -42.5t23.5 -71.5q0 -50 -25.5 -92t-72 -62.5t-95.5 -20.5q-42 0 -78.5 17t-57 48.5t-20.5 76.5q0 58 37.5 100.5t92.5 54.5v2q-28 13 -46.5 40t-18.5 62q0 45 22.5 81.5t63 54t81.5 17.5q42 0 74.5 -16.5
t49.5 -44t17 -66.5zM357 408q0 36 -24 58t-60 22q-21 0 -45 -10t-40 -35t-16 -55q0 -34 22.5 -55.5t58.5 -21.5q44 0 74 28t30 69zM331 162q0 40 -26.5 65.5t-67.5 25.5q-54 0 -90.5 -33t-36.5 -84q0 -32 16.5 -54t39.5 -29.5t42 -7.5q27 0 56 11t48 39.5t19 66.5z" />
    <glyph glyph-name="Gbreve.aalt" horiz-adv-x="596" 
d="M541 461l-55 -43q-20 29 -53.5 46.5t-74.5 17.5q-51 0 -96 -20.5t-77 -56.5t-49.5 -82.5t-17.5 -96.5q0 -37 11 -69.5t33 -57t55 -38t74 -13.5q35 0 70 8t59 21l26 154h-121l10 56h188l-43 -252q-85 -47 -196 -47q-54 0 -99 17t-76 48t-47 74t-16 92q0 65 23.5 124.5
t66 104t100.5 69.5t123 25q57 0 106 -21.5t76 -59.5zM484 738h44q-10 -58 -55.5 -95t-106.5 -37q-38 0 -69.5 14.5t-47 46t-15.5 71.5h44q0 -20 8.5 -39t30 -29t50.5 -10q43 0 76 20.5t41 57.5z" />
    <glyph glyph-name="uni0122.aalt" horiz-adv-x="596" 
d="M541 461l-55 -43q-20 29 -53.5 46.5t-74.5 17.5q-51 0 -96 -20.5t-77 -56.5t-49.5 -82.5t-17.5 -96.5q0 -37 11 -69.5t33 -57t55 -38t74 -13.5q35 0 70 8t59 21l26 154h-121l10 56h188l-43 -252q-85 -47 -196 -47q-54 0 -99 17t-76 48t-47 74t-16 92q0 65 23.5 124.5
t66 104t100.5 69.5t123 25q57 0 106 -21.5t76 -59.5zM326 -45l-115 -185h-57l101 185h71z" />
    <glyph glyph-name="glyph434" 
d="M155 594l-132 144h88l100 -144h-56z" />
    <glyph glyph-name="nine.sc" horiz-adv-x="479" 
d="M428 385q0 -31 -14 -71.5t-63 -105.5l-161 -208h-80l183 225l-2 2q-13 -8 -34.5 -13t-37.5 -5q-64 0 -105 40t-41 104q0 39 14.5 73.5t41.5 60.5t63 40.5t76 14.5q71 0 115.5 -43t44.5 -114zM363 386q0 29 -16 54t-39 35t-43 10q-55 0 -90.5 -36.5t-35.5 -90.5
q0 -31 15 -55t37.5 -33.5t42.5 -9.5q26 0 56 12.5t51.5 44t21.5 69.5z" />
    <glyph glyph-name="Igrave.aalt" horiz-adv-x="246" 
d="M200 530l-94 -530h-69l94 530h69zM146 594l-132 144h88l100 -144h-56z" />
    <glyph glyph-name="Iacute.aalt" horiz-adv-x="246" 
d="M200 530l-94 -530h-69l94 530h69zM351 738l-158 -144h-56l126 144h88z" />
    <glyph glyph-name="Itilde.aalt" horiz-adv-x="246" 
d="M200 530l-94 -530h-69l94 530h69zM58 606h-43q11 32 28.5 57.5t39.5 36t42 10.5q27 0 69 -23q24 -12 37.5 -17.5t25.5 -5.5q36 0 58 50h43q-38 -104 -111 -104q-27 0 -69 23q-44 23 -63 23q-37 0 -57 -50z" />
    <glyph glyph-name="glyph439" 
d="M155 764l-132 144h88l100 -144h-56z" />
    <glyph glyph-name="Idieresis.aalt" horiz-adv-x="246" 
d="M200 530l-94 -530h-69l94 530h69zM135 679q0 -20 -14.5 -35t-33.5 -15q-20 0 -34 13t-14 34t15 36t35 15t33 -13.5t13 -34.5zM333 679q0 -20 -14.5 -35t-34.5 -15t-33.5 13t-13.5 34t14.5 36t34.5 15t33.5 -13.5t13.5 -34.5z" />
    <glyph glyph-name="Imacron.aalt" horiz-adv-x="246" 
d="M200 530l-94 -530h-69l94 530h69zM325 684l-9 -54h-270l9 54h270z" />
    <glyph glyph-name="glyph442" 
d="M318 738l-158 -144h-56l126 144h88z" />
    <glyph glyph-name="glyph443" 
d="M318 908l-158 -144h-56l126 144h88z" />
    <glyph glyph-name="Jcircumflex.aalt" horiz-adv-x="394" 
d="M355 530l-64 -373q-28 -169 -166 -169q-40 0 -71.5 18.5t-46.5 45.5t-20 50l61 18q8 -33 28.5 -52t48.5 -19q21 0 42 10t34.5 36.5t20.5 67.5l65 367h68zM395 738l83 -144h-63l-64 108l-102 -108h-69l135 144h80z" />
    <glyph glyph-name="uni0136.aalt" horiz-adv-x="503" 
d="M514 530l-287 -248l212 -282h-87l-197 271h-2l-47 -271h-69l93 530h69l-41 -234h2l260 234h94zM264 -45l-115 -185h-57l101 185h71z" />
    <glyph glyph-name="Lcaron.aalt" horiz-adv-x="408" 
d="M354 58l-10 -58h-307l94 530h69l-84 -472h238zM405 530l-115 -185h-57l101 185h71z" />
    <glyph glyph-name="glyph447" 
d="M231 908l83 -144h-63l-64 108l-102 -108h-69l135 144h80z" />
    <glyph glyph-name="uni013B.aalt" horiz-adv-x="408" 
d="M354 58l-10 -58h-307l94 530h69l-84 -472h238zM240 -45l-115 -185h-57l101 185h71z" />
    <glyph glyph-name="Ldot.aalt" horiz-adv-x="408" 
d="M354 58l-10 -58h-307l94 530h69l-84 -472h238zM363 269q0 -19 -14 -33.5t-33 -14.5t-32.5 12.5t-13.5 32.5t14.5 34.5t33.5 14.5t32 -13t13 -33z" />
    <glyph glyph-name="glyph450" 
d="M231 738l83 -144h-63l-64 108l-102 -108h-69l135 144h80z" />
    <glyph glyph-name="glyph451" 
d="M340 908l-135 -144h-80l-83 144h63l64 -108l102 108h69z" />
    <glyph glyph-name="Ncaron.aalt" horiz-adv-x="605" 
d="M559 530l-94 -530h-83l-198 435h-2l-76 -435h-69l94 530h82l200 -433h1l77 433h68zM521 738l-135 -144h-80l-83 144h63l64 -108l102 108h69z" />
    <glyph glyph-name="Ntilde.aalt" horiz-adv-x="605" 
d="M559 530l-94 -530h-83l-198 435h-2l-76 -435h-69l94 530h82l200 -433h1l77 433h68zM240 606h-43q11 32 28.5 57.5t39.5 36t42 10.5q27 0 69 -23q24 -12 37.5 -17.5t25.5 -5.5q36 0 58 50h43q-38 -104 -111 -104q-27 0 -69 23q-44 23 -63 23q-37 0 -57 -50z" />
    <glyph glyph-name="Ograve.aalt" horiz-adv-x="649" 
d="M596 312q0 -64 -22.5 -123.5t-64 -104.5t-99 -70.5t-123.5 -25.5q-111 0 -176 63.5t-65 166.5q0 65 23 124t65 104t99 70.5t122 25.5q54 0 99.5 -17t77 -47.5t48 -73t16.5 -92.5zM524 307q0 46 -19.5 88.5t-61 65t-92.5 22.5q-38 0 -78 -14t-78.5 -51.5t-57.5 -91
t-19 -102.5q0 -46 19.5 -88.5t61 -65t92.5 -22.5t95 21t74.5 57t47 83.5t16.5 97.5zM361 594l-132 144h88l100 -144h-56z" />
    <glyph glyph-name="glyph455" 
d="M49 776h-43q11 32 28.5 57.5t39.5 36t42 10.5q27 0 69 -23q24 -12 37.5 -17.5t25.5 -5.5q36 0 58 50h43q-38 -104 -111 -104q-23 0 -69 23q-40 23 -63 23q-37 0 -57 -50z" />
    <glyph glyph-name="Oacute.aalt" horiz-adv-x="649" 
d="M596 312q0 -64 -22.5 -123.5t-64 -104.5t-99 -70.5t-123.5 -25.5q-111 0 -176 63.5t-65 166.5q0 65 23 124t65 104t99 70.5t122 25.5q54 0 99.5 -17t77 -47.5t48 -73t16.5 -92.5zM524 307q0 46 -19.5 88.5t-61 65t-92.5 22.5q-38 0 -78 -14t-78.5 -51.5t-57.5 -91
t-19 -102.5q0 -46 19.5 -88.5t61 -65t92.5 -22.5t95 21t74.5 57t47 83.5t16.5 97.5zM524 738l-158 -144h-56l126 144h88z" />
    <glyph glyph-name="Ocircumflex.aalt" horiz-adv-x="649" 
d="M596 312q0 -64 -22.5 -123.5t-64 -104.5t-99 -70.5t-123.5 -25.5q-111 0 -176 63.5t-65 166.5q0 65 23 124t65 104t99 70.5t122 25.5q54 0 99.5 -17t77 -47.5t48 -73t16.5 -92.5zM524 307q0 46 -19.5 88.5t-61 65t-92.5 22.5q-38 0 -78 -14t-78.5 -51.5t-57.5 -91
t-19 -102.5q0 -46 19.5 -88.5t61 -65t92.5 -22.5t95 21t74.5 57t47 83.5t16.5 97.5zM451 738l83 -144h-63l-64 108l-102 -108h-69l135 144h80z" />
    <glyph glyph-name="glyph458" 
d="M340 738l-135 -144h-80l-83 144h63l64 -108l102 108h69z" />
    <glyph glyph-name="glyph459" 
d="M128 849q0 -20 -14.5 -35t-33.5 -15q-20 0 -34 13t-14 34t15 36t35 15t33 -13.5t13 -34.5zM326 849q0 -20 -14.5 -35t-34.5 -15t-33.5 13t-13.5 34t14.5 36t34.5 15t33.5 -13.5t13.5 -34.5z" />
    <glyph glyph-name="Omacron.aalt" horiz-adv-x="649" 
d="M596 312q0 -64 -22.5 -123.5t-64 -104.5t-99 -70.5t-123.5 -25.5q-111 0 -176 63.5t-65 166.5q0 65 23 124t65 104t99 70.5t122 25.5q54 0 99.5 -17t77 -47.5t48 -73t16.5 -92.5zM524 307q0 46 -19.5 88.5t-61 65t-92.5 22.5q-38 0 -78 -14t-78.5 -51.5t-57.5 -91
t-19 -102.5q0 -46 19.5 -88.5t61 -65t92.5 -22.5t95 21t74.5 57t47 83.5t16.5 97.5zM527 684l-9 -54h-270l9 54h270z" />
    <glyph glyph-name="Obreve.aalt" horiz-adv-x="649" 
d="M596 312q0 -64 -22.5 -123.5t-64 -104.5t-99 -70.5t-123.5 -25.5q-111 0 -176 63.5t-65 166.5q0 65 23 124t65 104t99 70.5t122 25.5q54 0 99.5 -17t77 -47.5t48 -73t16.5 -92.5zM524 307q0 46 -19.5 88.5t-61 65t-92.5 22.5q-38 0 -78 -14t-78.5 -51.5t-57.5 -91
t-19 -102.5q0 -46 19.5 -88.5t61 -65t92.5 -22.5t95 21t74.5 57t47 83.5t16.5 97.5zM493 738h44q-10 -58 -55.5 -95t-106.5 -37q-38 0 -69.5 14.5t-47 46t-15.5 71.5h44q0 -20 8.5 -39t30 -29t50.5 -10q43 0 76 20.5t41 57.5z" />
    <glyph glyph-name="Oslash.aalt" horiz-adv-x="649" 
d="M22 -28l-25 31l88 79q-39 58 -39 136q0 65 23 124t65 104t99 70.5t122 25.5q52 0 96.5 -16t75.5 -44l78 70l26 -31l-77 -70q42 -58 42 -139q0 -64 -22.5 -123.5t-64 -104.5t-99 -70.5t-123.5 -25.5q-55 0 -100 16.5t-77 46.5zM526 307q0 53 -25 97l-339 -306
q47 -50 129 -50q51 0 95 21t75.5 57.5t48 83.5t16.5 97zM116 224q0 -54 22 -94l339 306q-49 47 -126 47q-51 0 -94.5 -21t-75 -58t-48.5 -84t-17 -96z" />
    <glyph glyph-name="glyph463" 
d="M316 854l-9 -54h-270l9 54h270z" />
    <glyph glyph-name="OE.aalt" horiz-adv-x="770" 
d="M748 530l-10 -57h-255l-30 -171h244l-10 -56h-243l-34 -188h276l-10 -58h-383q-114 0 -180.5 58.5t-66.5 159.5q0 31 8 70.5t29.5 79.5t59.5 77t96 61t122 24h387zM415 469h-59q-51 0 -95.5 -19.5t-77 -53.5t-50.5 -79t-18 -94q0 -74 48.5 -118t133.5 -44h46z" />
    <glyph glyph-name="Racute.aalt" horiz-adv-x="491" 
d="M444 400q0 -44 -17 -76t-50 -51.5t-79 -26.5l116 -246h-75l-107 238h-84l-42 -238h-69l94 530h145q78 0 123 -33t45 -97zM374 395q0 38 -29 58.5t-79 20.5h-77l-32 -180h80q63 0 100 24t37 77zM442 738l-158 -144h-56l126 144h88z" />
    <glyph glyph-name="glyph466" 
d="M49 606h-43q11 32 28.5 57.5t39.5 36t42 10.5q27 0 69 -23q24 -12 37.5 -17.5t25.5 -5.5q36 0 58 50h43q-38 -104 -111 -104q-27 0 -69 23q-44 23 -63 23q-37 0 -57 -50z" />
    <glyph glyph-name="Sacute.aalt" horiz-adv-x="441" 
d="M410 475l-51 -41q-14 24 -42.5 37t-60.5 13q-47 0 -83 -26t-36 -71q0 -31 20 -49t67 -34q75 -27 109.5 -62.5t34.5 -89.5q0 -76 -54.5 -120t-142.5 -44q-58 0 -105.5 22.5t-70.5 58.5l55 39q17 -29 52 -45t73 -16q28 0 57 9.5t47 34t18 56.5q0 35 -26 58t-83 44
q-65 24 -92.5 55t-27.5 78q0 46 26 84.5t72.5 57t95.5 18.5q50 0 90 -19.5t58 -47.5zM418 738l-158 -144h-56l126 144h88z" />
    <glyph glyph-name="F.aalt" horiz-adv-x="455" 
d="M446 530l-9 -57h-248l-31 -178h231l-9 -56h-231l-43 -239h-69l93 530h316z" />
    <glyph glyph-name="Scaron.aalt" horiz-adv-x="441" 
d="M410 475l-51 -41q-14 24 -42.5 37t-60.5 13q-47 0 -83 -26t-36 -71q0 -31 20 -49t67 -34q75 -27 109.5 -62.5t34.5 -89.5q0 -76 -54.5 -120t-142.5 -44q-58 0 -105.5 22.5t-70.5 58.5l55 39q17 -29 52 -45t73 -16q28 0 57 9.5t47 34t18 56.5q0 35 -26 58t-83 44
q-65 24 -92.5 55t-27.5 78q0 46 26 84.5t72.5 57t95.5 18.5q50 0 90 -19.5t58 -47.5zM449 738l-135 -144h-80l-83 144h63l64 -108l102 108h69z" />
    <glyph glyph-name="K.aalt" horiz-adv-x="503" 
d="M514 530l-287 -248l212 -282h-87l-197 271h-2l-47 -271h-69l93 530h69l-41 -234h2l260 234h94z" />
    <glyph glyph-name="uni0218.aalt" horiz-adv-x="441" 
d="M410 475l-51 -41q-14 24 -42.5 37t-60.5 13q-47 0 -83 -26t-36 -71q0 -31 20 -49t67 -34q75 -27 109.5 -62.5t34.5 -89.5q0 -76 -54.5 -120t-142.5 -44q-58 0 -105.5 22.5t-70.5 58.5l55 39q17 -29 52 -45t73 -16q28 0 57 9.5t47 34t18 56.5q0 35 -26 58t-83 44
q-65 24 -92.5 55t-27.5 78q0 46 26 84.5t72.5 57t95.5 18.5q50 0 90 -19.5t58 -47.5zM208 -45l-115 -185h-57l101 185h71z" />
    <glyph glyph-name="N.aalt" horiz-adv-x="605" 
d="M559 530l-94 -530h-83l-198 435h-2l-76 -435h-69l94 530h82l200 -433h1l77 433h68z" />
    <glyph glyph-name="Tcaron.aalt" horiz-adv-x="419" 
d="M450 530l-10 -56h-166l-84 -474h-67l83 474h-169l9 56h404zM436 738l-135 -144h-80l-83 144h63l64 -108l102 108h69z" />
    <glyph glyph-name="glyph474" 
d="M128 679q0 -20 -14.5 -35t-33.5 -15q-20 0 -34 13t-14 34t15 36t35 15t33 -13.5t13 -34.5zM326 679q0 -20 -14.5 -35t-34.5 -15t-33.5 13t-13.5 34t14.5 36t34.5 15t33.5 -13.5t13.5 -34.5z" />
    <glyph glyph-name="Tbar.aalt" horiz-adv-x="419" 
d="M66 315l8 45h112l20 114h-169l9 56h404l-10 -56h-166l-20 -114h116l-8 -45h-116l-56 -315h-67l55 315h-112z" />
    <glyph glyph-name="V.aalt" horiz-adv-x="481" 
d="M520 530l-319 -530h-70l-85 530h71l64 -445h2l262 445h75z" />
    <glyph glyph-name="Ugrave.aalt" horiz-adv-x="567" 
d="M530 530l-58 -327q-39 -215 -233 -215q-85 0 -133 44.5t-48 116.5q0 25 4 49l59 332h69l-58 -322q-4 -23 -4 -47q0 -50 28.5 -81t85.5 -31q134 0 164 165l55 316h69zM315 594l-132 144h88l100 -144h-56z" />
    <glyph glyph-name="Agrave.aalt" horiz-adv-x="517" 
d="M458 0h-71l-24 132h-251l-83 -132h-77l342 530h62zM354 187l-45 263l-164 -263h209zM297 594l-132 144h88l100 -144h-56z" />
    <glyph glyph-name="Ucircumflex.aalt" horiz-adv-x="567" 
d="M530 530l-58 -327q-39 -215 -233 -215q-85 0 -133 44.5t-48 116.5q0 25 4 49l59 332h69l-58 -322q-4 -23 -4 -47q0 -50 28.5 -81t85.5 -31q134 0 164 165l55 316h69zM408 738l83 -144h-63l-64 108l-102 -108h-69l135 144h80z" />
    <glyph glyph-name="Atilde.aalt" horiz-adv-x="517" 
d="M458 0h-71l-24 132h-251l-83 -132h-77l342 530h62zM354 187l-45 263l-164 -263h209zM211 606h-43q11 32 28.5 57.5t39.5 36t42 10.5q27 0 69 -23q24 -12 37.5 -17.5t25.5 -5.5q36 0 58 50h43q-38 -104 -111 -104q-27 0 -69 23q-44 23 -63 23q-37 0 -57 -50z" />
    <glyph glyph-name="Udieresis.aalt" horiz-adv-x="567" 
d="M530 530l-58 -327q-39 -215 -233 -215q-85 0 -133 44.5t-48 116.5q0 25 4 49l59 332h69l-58 -322q-4 -23 -4 -47q0 -50 28.5 -81t85.5 -31q134 0 164 165l55 316h69zM300 679q0 -20 -14.5 -35t-33.5 -15q-20 0 -34 13t-14 34t15 36t35 15t33 -13.5t13 -34.5zM498 679
q0 -20 -14.5 -35t-34.5 -15t-33.5 13t-13.5 34t14.5 36t34.5 15t33.5 -13.5t13.5 -34.5z" />
    <glyph glyph-name="glyph482" 
d="M316 684l-9 -54h-270l9 54h270z" />
    <glyph glyph-name="Ubreve.aalt" horiz-adv-x="567" 
d="M530 530l-58 -327q-39 -215 -233 -215q-85 0 -133 44.5t-48 116.5q0 25 4 49l59 332h69l-58 -322q-4 -23 -4 -47q0 -50 28.5 -81t85.5 -31q134 0 164 165l55 316h69zM450 738h44q-10 -58 -55.5 -95t-106.5 -37q-38 0 -69.5 14.5t-47 46t-15.5 71.5h44q0 -20 8.5 -39
t30 -29t50.5 -10q43 0 76 20.5t41 57.5z" />
    <glyph glyph-name="Ccircumflex.aalt" horiz-adv-x="560" 
d="M541 461l-54 -43q-21 30 -54 47t-75 17q-51 0 -96 -20.5t-77 -56.5t-49.5 -82.5t-17.5 -96.5q0 -77 45 -127t126 -50q91 0 156 71l44 -41q-80 -91 -206 -91q-54 0 -98.5 17t-75.5 47.5t-47 73.5t-16 93q0 65 23.5 124.5t66 104t100.5 69.5t123 25q42 0 81 -12t64 -31.5
t37 -37.5zM433 738l83 -144h-63l-64 108l-102 -108h-69l135 144h80z" />
    <glyph glyph-name="Uhungarumlaut.aalt" horiz-adv-x="567" 
d="M530 530l-58 -327q-39 -215 -233 -215q-85 0 -133 44.5t-48 116.5q0 25 4 49l59 332h69l-58 -322q-4 -23 -4 -47q0 -50 28.5 -81t85.5 -31q134 0 164 165l55 316h69zM424 738l-159 -144h-59l127 144h91zM594 738l-158 -144h-59l126 144h91z" />
    <glyph glyph-name="Dcroat.aalt" horiz-adv-x="596" 
d="M91 303l40 227h161q50 0 95.5 -13.5t80.5 -41t55 -70t20 -97.5q0 -70 -24.5 -128t-69 -98t-105.5 -61t-130 -21h-177l44 251h-71l10 52h71zM150 251l-34 -193h98q117 0 187.5 67t70.5 175q0 77 -51 125t-142 48h-90l-30 -170h149l-10 -52h-148z" />
    <glyph glyph-name="Wcircumflex.aalt" horiz-adv-x="746" 
d="M779 530l-264 -530h-75l-42 433h-2l-216 -433h-75l-49 530h71l35 -435h2l215 435h71l42 -435h2l212 435h73zM496 738l83 -144h-63l-64 108l-102 -108h-69l135 144h80z" />
    <glyph glyph-name="Eacute.aalt" horiz-adv-x="475" 
d="M453 530l-10 -57h-254l-30 -171h243l-10 -56h-243l-33 -188h275l-11 -58h-343l94 530h322zM472 738l-158 -144h-56l126 144h88z" />
    <glyph glyph-name="Ycircumflex.aalt" horiz-adv-x="432" 
d="M485 530l-255 -301l-40 -229h-68l40 230l-130 300h75l99 -245l195 245h84zM337 738l83 -144h-63l-64 108l-102 -108h-69l135 144h80z" />
    <glyph glyph-name="glyph490" 
d="M294 738h44q-10 -58 -55.5 -95t-106.5 -37q-38 0 -69.5 14.5t-47 46t-15.5 71.5h44q0 -20 8.5 -39t30 -29t50.5 -10q43 0 76 20.5t41 57.5z" />
    <glyph glyph-name="Zacute.aalt" horiz-adv-x="478" 
d="M470 530l-10 -55l-375 -417h307l-10 -58h-392l10 61l373 413h-284l11 56h370zM420 738l-158 -144h-56l126 144h88z" />
    <glyph glyph-name="Gcircumflex.aalt" horiz-adv-x="596" 
d="M541 461l-55 -43q-20 29 -53.5 46.5t-74.5 17.5q-51 0 -96 -20.5t-77 -56.5t-49.5 -82.5t-17.5 -96.5q0 -37 11 -69.5t33 -57t55 -38t74 -13.5q35 0 70 8t59 21l26 154h-121l10 56h188l-43 -252q-85 -47 -196 -47q-54 0 -99 17t-76 48t-47 74t-16 92q0 65 23.5 124.5
t66 104t100.5 69.5t123 25q57 0 106 -21.5t76 -59.5zM436 738l83 -144h-63l-64 108l-102 -108h-69l135 144h80z" />
    <glyph glyph-name="Zdotaccent.aalt" horiz-adv-x="478" 
d="M470 530l-10 -55l-375 -417h307l-10 -58h-392l10 61l373 413h-284l11 56h370zM347 679q0 -19 -14 -33.5t-33 -14.5t-32.5 12.5t-13.5 32.5t14.5 34.5t33.5 14.5t32 -13t13 -33z" />
    <glyph glyph-name="Hbar.aalt" horiz-adv-x="579" 
d="M533 530l-92 -530h-69l42 245h-265l-43 -245h-69l93 530h69l-19 -105h266l19 105h68zM159 301h266l14 84h-266z" />
    <glyph glyph-name="glyph495" horiz-adv-x="863" 
d="M446 530l-9 -57h-249l-31 -178h232l-9 -56h-232l-43 -239h-68l93 530h316zM809 58l-10 -58h-307l94 530h68l-84 -472h239z" />
    <glyph glyph-name="Icircumflex.aalt" horiz-adv-x="246" 
d="M200 530l-94 -530h-69l94 530h69zM239 738l83 -144h-63l-64 108l-102 -108h-69l135 144h80z" />
    <glyph glyph-name="exclamdown.aalt" horiz-adv-x="281" 
d="M219 489q0 -22 -14.5 -36.5t-34.5 -14.5t-33 12.5t-13 33.5t14.5 36t33.5 15q21 0 34 -12t13 -34zM189 371l-65 -371h-66l65 371h66z" />
    <glyph glyph-name="glyph498" 
d="M170 584q-37 0 -61 22.5t-24 56.5q0 33 17.5 61.5t43 40t47.5 11.5q37 0 61 -22t24 -57q0 -47 -31 -80t-77 -33zM244 695q0 22 -14.5 37t-38.5 15q-30 0 -50.5 -24t-20.5 -57q0 -22 14.5 -37t37.5 -15q14 0 31 8t29 28.5t12 44.5z" />
    <glyph glyph-name="Euro.aalt" horiz-adv-x="479" 
d="M456 516l-27 -56q-16 10 -41.5 16.5t-49.5 6.5q-56 0 -103.5 -35.5t-70.5 -95.5h217l-22 -48h-211q-6 -17 -10 -40.5t-4 -37.5h193l-22 -49h-170q1 -29 14 -61.5t44.5 -52.5t77.5 -20q24 0 52.5 8t50.5 22l16 -52q-25 -16 -60 -24.5t-67 -8.5t-65.5 9.5t-61 32.5t-46 60
t-19.5 87h-62l23 49h39q0 29 14 78h-55l23 48h45q34 92 98.5 141t146.5 49q29 0 61 -7.5t52 -18.5z" />
    <glyph glyph-name="Lacute.aalt" horiz-adv-x="408" 
d="M354 58l-10 -58h-307l94 530h69l-84 -472h238zM361 738l-158 -144h-56l126 144h88z" />
    <glyph glyph-name="sterling.aalt" horiz-adv-x="479" 
d="M445 502l-39 -46q-13 14 -33.5 22t-39.5 8q-89 0 -112 -125l-11 -64h121l-10 -51h-119l-33 -189h189l-10 -57h-325l10 57h69l34 189h-67l10 51h65l15 82q13 75 57.5 119t118.5 44q33 0 61.5 -10t48.5 -30z" />
    <glyph glyph-name="Nacute.aalt" horiz-adv-x="605" 
d="M559 530l-94 -530h-83l-198 435h-2l-76 -435h-69l94 530h82l200 -433h1l77 433h68zM500 738l-158 -144h-56l126 144h88z" />
    <glyph glyph-name="yen.aalt" horiz-adv-x="479" 
d="M487 530l-202 -245h106l-8 -47h-129l-13 -72h130l-8 -46h-130l-21 -120h-63l22 120h-131l8 46h130l13 72h-130l7 47h115l-117 245h70l100 -227l177 227h74z" />
    <glyph glyph-name="uni0145.aalt" horiz-adv-x="605" 
d="M559 530l-94 -530h-83l-198 435h-2l-76 -435h-69l94 530h82l200 -433h1l77 433h68zM301 -45l-115 -185h-57l101 185h71z" />
    <glyph glyph-name="perthousand.aalt" horiz-adv-x="972" 
d="M168 275q-51 0 -84 31t-33 79q0 65 43 111t108 46q51 0 83 -30.5t32 -78.5q0 -24 -7.5 -50.5t-25 -50t-47 -40.5t-69.5 -17zM259 425q0 27 -17.5 45.5t-45.5 18.5q-17 0 -37.5 -10t-35 -34.5t-14.5 -52.5q0 -27 18 -45.5t45 -18.5q17 0 37.5 10t35 34.5t14.5 52.5z
M466 -12q-51 0 -84 31t-33 79q0 47 22.5 83t55.5 54.5t73 18.5q24 0 51 -10t45.5 -37t18.5 -62q0 -48 -22 -84t-54.5 -54.5t-72.5 -18.5zM558 138q0 27 -17.5 45.5t-45.5 18.5q-17 0 -37.5 -10t-35 -34.5t-14.5 -52.5q0 -27 18 -45.5t45 -18.5q17 0 37.5 10t35 34.5
t14.5 52.5zM765 -12q-51 0 -84 31t-33 79q0 47 22.5 83t55.5 54.5t73 18.5q24 0 51 -10t45.5 -37t18.5 -62q0 -48 -22 -84t-54.5 -54.5t-72.5 -18.5zM857 138q0 27 -17.5 45.5t-45.5 18.5q-17 0 -37.5 -10t-35 -34.5t-14.5 -52.5q0 -27 18 -45.5t45 -18.5q17 0 37.5 10
t35 34.5t14.5 52.5zM569 531l-439 -562l-41 29l440 561z" />
    <glyph glyph-name="glyph506" 
d="M197 738l-159 -144h-59l127 144h91zM367 738l-158 -144h-59l126 144h91z" />
    <glyph glyph-name="one.oldstyle" horiz-adv-x="370" 
d="M285 531l-94 -531h-71l79 439l-111 -78l-35 51l169 119h63z" />
    <glyph glyph-name="Ohungarumlaut.aalt" horiz-adv-x="649" 
d="M596 312q0 -64 -22.5 -123.5t-64 -104.5t-99 -70.5t-123.5 -25.5q-111 0 -176 63.5t-65 166.5q0 65 23 124t65 104t99 70.5t122 25.5q54 0 99.5 -17t77 -47.5t48 -73t16.5 -92.5zM524 307q0 46 -19.5 88.5t-61 65t-92.5 22.5q-38 0 -78 -14t-78.5 -51.5t-57.5 -91
t-19 -102.5q0 -46 19.5 -88.5t61 -65t92.5 -22.5t95 21t74.5 57t47 83.5t16.5 97.5zM470 738l-159 -144h-59l127 144h91zM640 738l-158 -144h-59l126 144h91z" />
    <glyph glyph-name="three.oldstyle" horiz-adv-x="527" 
d="M482 531l-11 -69q-43 -36 -123 -93t-148 -102l-2 -4h1q17 4 39 4q53 0 96.5 -22t69.5 -62t26 -99t-24 -107t-67 -80.5t-100 -49.5t-120 -17q-64 0 -101 9l12 64q39 -10 91 -10q49 0 92 12t75.5 36t50.5 59t18 79q0 25 -8 49.5t-27 44t-50 31.5t-75 12q-53 0 -101 -16
l-7 54q64 42 156 108t141 104v4h-283l10 61h369z" />
    <glyph glyph-name="C.aalt" horiz-adv-x="560" 
d="M541 461l-54 -43q-21 30 -54 47t-75 17q-51 0 -96 -20.5t-77 -56.5t-49.5 -82.5t-17.5 -96.5q0 -77 45 -127t126 -50q91 0 156 71l44 -41q-80 -91 -206 -91q-54 0 -98.5 17t-75.5 47.5t-47 73.5t-16 93q0 65 23.5 124.5t66 104t100.5 69.5t123 25q42 0 81 -12t64 -31.5
t37 -37.5z" />
    <glyph glyph-name="Scircumflex.aalt" horiz-adv-x="441" 
d="M410 475l-51 -41q-14 24 -42.5 37t-60.5 13q-47 0 -83 -26t-36 -71q0 -31 20 -49t67 -34q75 -27 109.5 -62.5t34.5 -89.5q0 -76 -54.5 -120t-142.5 -44q-58 0 -105.5 22.5t-70.5 58.5l55 39q17 -29 52 -45t73 -16q28 0 57 9.5t47 34t18 56.5q0 35 -26 58t-83 44
q-65 24 -92.5 55t-27.5 78q0 46 26 84.5t72.5 57t95.5 18.5q50 0 90 -19.5t58 -47.5zM344 738l83 -144h-63l-64 108l-102 -108h-69l135 144h80z" />
    <glyph glyph-name="J.aalt" horiz-adv-x="394" 
d="M355 530l-64 -373q-28 -169 -166 -169q-40 0 -71.5 18.5t-46.5 45.5t-20 50l61 18q8 -33 28.5 -52t48.5 -19q21 0 42 10t34.5 36.5t20.5 67.5l65 367h68z" />
    <glyph glyph-name="germandbls.aalt" horiz-adv-x="886" 
d="M414 477l-51 -41q-14 24 -42.5 37t-60.5 13q-46 0 -82.5 -27t-36.5 -72q0 -31 20 -49t67 -34q75 -27 109.5 -62.5t34.5 -89.5q0 -76 -54.5 -120.5t-142.5 -44.5q-58 0 -105.5 22.5t-70.5 58.5l55 39q17 -29 52 -45t73 -16q58 0 90 28.5t32 72.5q0 35 -26 58t-83 44
q-65 24 -92.5 55t-27.5 78q0 46 23.5 81.5t67.5 58t103 22.5q50 0 90 -19.5t58 -47.5zM855 477l-51 -41q-14 24 -42.5 37t-60.5 13q-46 0 -82.5 -27t-36.5 -72q0 -31 20 -49t67 -34q75 -27 109.5 -62.5t34.5 -89.5q0 -76 -54.5 -120.5t-142.5 -44.5q-58 0 -105.5 22.5
t-70.5 58.5l55 39q17 -29 52 -45t73 -16q58 0 90 28.5t32 72.5q0 35 -26 58t-83 44q-65 24 -92.5 55t-27.5 78q0 46 23.5 81.5t67.5 58t103 22.5q50 0 90 -19.5t58 -47.5z" />
    <glyph glyph-name="glyph514" 
d="M227 679q0 -19 -14 -33.5t-33 -14.5t-32.5 12.5t-13.5 32.5t14.5 34.5t33.5 14.5t32 -13t13 -33z" />
    <glyph glyph-name="Thorn.aalt" horiz-adv-x="471" 
d="M129 132l-24 -132h-68l94 530h67l-21 -114h88q85 0 130.5 -33.5t45.5 -93.5q0 -53 -22 -87t-66.5 -52t-119.5 -18h-104zM167 355l-28 -162h101q50 0 78 10.5t40.5 29.5t12.5 50q0 36 -26.5 54t-83.5 18h-94z" />
    <glyph glyph-name="Z.aalt" horiz-adv-x="478" 
d="M470 530l-10 -55l-375 -417h307l-10 -58h-392l10 61l373 413h-284l11 56h370z" />
    <glyph glyph-name="Utilde.aalt" horiz-adv-x="567" 
d="M530 530l-58 -327q-39 -215 -233 -215q-85 0 -133 44.5t-48 116.5q0 25 4 49l59 332h69l-58 -322q-4 -23 -4 -47q0 -50 28.5 -81t85.5 -31q134 0 164 165l55 316h69zM219 606h-43q11 32 28.5 57.5t39.5 36t42 10.5q27 0 69 -23q24 -12 37.5 -17.5t25.5 -5.5q36 0 58 50
h43q-38 -104 -111 -104q-27 0 -69 23q-44 23 -63 23q-37 0 -57 -50z" />
    <glyph glyph-name="Aogonek.aalt" horiz-adv-x="517" 
d="M433 -147l12 -40q-20 -16 -44.5 -26t-47.5 -10t-43 10t-28 26.5t-8 32.5q0 75 113 154l-24 132h-251l-83 -132h-77l342 530h62l102 -530h-23q-100 -84 -100 -134q0 -35 43 -35q14 0 29 6t26 16zM354 187l-45 263l-164 -263h209z" />
    <glyph glyph-name="Uring.aalt" horiz-adv-x="567" 
d="M530 530l-58 -327q-39 -215 -233 -215q-85 0 -133 44.5t-48 116.5q0 25 4 49l59 332h69l-58 -322q-4 -23 -4 -47q0 -50 28.5 -81t85.5 -31q134 0 164 165l55 316h69zM340 584q-37 0 -61 22.5t-24 56.5q0 33 17.5 61.5t43 40t47.5 11.5q37 0 61 -22t24 -57q0 -47 -31 -80
t-77 -33zM414 695q0 22 -14.5 37t-38.5 15q-30 0 -50.5 -24t-20.5 -57q0 -22 14.5 -37t37.5 -15q14 0 31 8t29 28.5t12 44.5z" />
    <glyph glyph-name="a.sc" horiz-adv-x="517" 
d="M458 0h-71l-24 132h-251l-83 -132h-77l342 530h62zM354 187l-45 263l-164 -263h209z" />
    <glyph glyph-name="Yacute.aalt" horiz-adv-x="432" 
d="M485 530l-255 -301l-40 -229h-68l40 230l-130 300h75l99 -245l195 245h84zM421 738l-158 -144h-56l126 144h88z" />
    <glyph glyph-name="Iogonek.aalt" horiz-adv-x="246" 
d="M104 -147l12 -40q-20 -16 -44.5 -26t-47.5 -10t-43 10t-28 26.5t-8 32.5q0 75 113 154h-21l94 530h69l-94 -530q-100 -84 -100 -134q0 -35 43 -35q14 0 29 6t26 16z" />
    <glyph glyph-name="Zcaron.aalt" horiz-adv-x="478" 
d="M470 530l-10 -55l-375 -417h307l-10 -58h-392l10 61l373 413h-284l11 56h370zM465 738l-135 -144h-80l-83 144h63l64 -108l102 108h69z" />
    <glyph glyph-name="Hcircumflex.aalt" horiz-adv-x="579" 
d="M533 530l-92 -530h-69l42 245h-265l-43 -245h-69l93 530h69l-40 -229h266l40 229h68zM408 738l83 -144h-63l-64 108l-102 -108h-69l135 144h80z" />
    <glyph glyph-name="IJ.aalt" horiz-adv-x="639" 
d="M200 530l-94 -530h-69l94 530h69zM600 530l-64 -373q-28 -169 -166 -169q-40 0 -71.5 18.5t-46.5 45.5t-20 50l61 18q8 -33 28.5 -52t48.5 -19q21 0 42 10t34.5 36.5t20.5 67.5l65 367h68z" />
    <glyph glyph-name="Odieresis.aalt" horiz-adv-x="649" 
d="M596 312q0 -64 -22.5 -123.5t-64 -104.5t-99 -70.5t-123.5 -25.5q-111 0 -176 63.5t-65 166.5q0 65 23 124t65 104t99 70.5t122 25.5q54 0 99.5 -17t77 -47.5t48 -73t16.5 -92.5zM524 307q0 46 -19.5 88.5t-61 65t-92.5 22.5q-38 0 -78 -14t-78.5 -51.5t-57.5 -91
t-19 -102.5q0 -46 19.5 -88.5t61 -65t92.5 -22.5t95 21t74.5 57t47 83.5t16.5 97.5zM340 679q0 -20 -14.5 -35t-33.5 -15q-20 0 -34 13t-14 34t15 36t35 15t33 -13.5t13 -34.5zM538 679q0 -20 -14.5 -35t-34.5 -15t-33.5 13t-13.5 34t14.5 36t34.5 15t33.5 -13.5t13.5 -34.5
z" />
    <glyph glyph-name="cent.aalt" horiz-adv-x="479" 
d="M210 -8q-78 13 -123 66t-45 131q0 55 18 106t51.5 90.5t81 64t103.5 29.5l11 61h48l-11 -61q47 -4 86 -24t58 -54l-59 -39q-11 24 -36.5 41t-57.5 20l-67 -378q40 1 74.5 17.5t59.5 43.5l43 -37q-79 -81 -187 -81l-11 -60h-48zM222 50l65 372q-76 -10 -125 -75.5
t-49 -151.5q0 -55 28.5 -95t80.5 -50z" />
    <glyph glyph-name="Lslash.aalt" horiz-adv-x="408" 
d="M77 228l-76 -56l13 70l76 54l41 234h69l-31 -177l159 116l-13 -70l-159 -114l-40 -227h238l-10 -58h-307z" />
    <glyph glyph-name="ordfeminine.aalt" horiz-adv-x="369" 
d="M337 430h-51l-11 67h-130l-42 -67h-56l189 291h45zM269 534l-22 130l-80 -130h102z" />
    <glyph glyph-name="S.aalt" horiz-adv-x="441" 
d="M410 475l-51 -41q-14 24 -42.5 37t-60.5 13q-47 0 -83 -26t-36 -71q0 -31 20 -49t67 -34q75 -27 109.5 -62.5t34.5 -89.5q0 -76 -54.5 -120t-142.5 -44q-58 0 -105.5 22.5t-70.5 58.5l55 39q17 -29 52 -45t73 -16q28 0 57 9.5t47 34t18 56.5q0 35 -26 58t-83 44
q-65 24 -92.5 55t-27.5 78q0 46 26 84.5t72.5 57t95.5 18.5q50 0 90 -19.5t58 -47.5z" />
    <glyph glyph-name="two.oldstyle" horiz-adv-x="512" 
d="M453 386q0 -22 -7 -49t-25.5 -54.5t-55.5 -61t-172 -113.5l-75 -44v-3h296l-12 -61h-400l12 63l95 57q102 61 144.5 89.5t69.5 54t43.5 53.5t16.5 63q0 52 -33.5 78t-77.5 26q-43 0 -80 -22.5t-62 -65.5l-50 35q32 54 83.5 84t111.5 30q76 0 127 -42.5t51 -116.5z" />
    <glyph glyph-name="B.aalt" horiz-adv-x="502" 
d="M447 409q0 -48 -28.5 -83t-78.5 -48v-2q39 -10 63.5 -39.5t24.5 -73.5q0 -50 -24.5 -85.5t-73.5 -56.5t-122 -21h-171l94 530h160q31 0 68 -10t62.5 -38.5t25.5 -72.5zM377 399q0 17 -9.5 35t-34 28.5t-56.5 10.5h-88l-30 -171h96q35 0 66 13.5t43.5 36.5t12.5 47z
M359 165q0 29 -17 48.5t-41.5 26.5t-45.5 7h-105l-34 -189h94q64 0 106.5 26t42.5 81z" />
    <glyph glyph-name="Scedilla.aalt" horiz-adv-x="441" 
d="M410 475l-51 -41q-14 24 -42.5 37t-60.5 13q-47 0 -83 -26t-36 -71q0 -31 20 -49t67 -34q75 -27 109.5 -62.5t34.5 -89.5q0 -71 -47 -114t-126 -49l-51 -64q13 4 31 4q20 0 39 -9t27 -25t8 -33q0 -24 -13.5 -45.5t-44.5 -34t-62 -12.5q-21 0 -50.5 5.5t-46.5 14.5l19 36
q29 -14 74 -14q18 0 34.5 6t24 17t7.5 22q0 18 -14 28t-36 10t-44 -8l-15 15l70 87q-53 4 -95 25.5t-62 54.5l55 39q17 -29 52 -45t73 -16q28 0 57 9.5t47 34t18 56.5q0 35 -26 58t-83 44q-65 24 -92.5 55t-27.5 78q0 46 26 84.5t72.5 57t95.5 18.5q50 0 90 -19.5t58 -47.5z
" />
    <glyph glyph-name="Emacron.aalt" horiz-adv-x="475" 
d="M453 530l-10 -57h-254l-30 -171h243l-10 -56h-243l-33 -188h275l-11 -58h-343l94 530h322zM448 684l-9 -54h-270l9 54h270z" />
    <glyph glyph-name="Uacute.aalt" horiz-adv-x="567" 
d="M530 530l-58 -327q-39 -215 -233 -215q-85 0 -133 44.5t-48 116.5q0 25 4 49l59 332h69l-58 -322q-4 -23 -4 -47q0 -50 28.5 -81t85.5 -31q134 0 164 165l55 316h69zM501 738l-158 -144h-56l126 144h88z" />
    <glyph glyph-name="Abreve.aalt" horiz-adv-x="517" 
d="M458 0h-71l-24 132h-251l-83 -132h-77l342 530h62zM354 187l-45 263l-164 -263h209zM451 738h44q-10 -58 -55.5 -95t-106.5 -37q-38 0 -69.5 14.5t-47 46t-15.5 71.5h44q0 -20 8.5 -39t30 -29t50.5 -10q43 0 76 20.5t41 57.5z" />
    <glyph glyph-name="Dcaron.aalt" horiz-adv-x="596" 
d="M543 308q0 -70 -24.5 -128t-69 -98t-105.5 -61t-130 -21h-177l94 530h161q50 0 95.5 -13.5t80.5 -41t55 -70t20 -97.5zM472 300q0 77 -51 125t-142 48h-90l-73 -415h98q117 0 187.5 67t70.5 175zM490 738l-135 -144h-80l-83 144h63l64 -108l102 108h69z" />
    <glyph glyph-name="i.sc" horiz-adv-x="246" 
d="M200 530l-94 -530h-69l94 530h69zM228 679q0 -19 -14 -33.5t-33 -14.5t-32.5 12.5t-13.5 32.5t14.5 34.5t33.5 14.5t32 -13t13 -33z" />
    <glyph glyph-name="glyph539" horiz-adv-x="700" 
d="M446 530l-9 -57h-249l-31 -178h232l-9 -56h-232l-43 -239h-68l93 530h316zM654 530l-94 -530h-68l94 530h68z" />
    <glyph glyph-name="Otilde.aalt" horiz-adv-x="649" 
d="M596 312q0 -64 -22.5 -123.5t-64 -104.5t-99 -70.5t-123.5 -25.5q-111 0 -176 63.5t-65 166.5q0 65 23 124t65 104t99 70.5t122 25.5q54 0 99.5 -17t77 -47.5t48 -73t16.5 -92.5zM524 307q0 46 -19.5 88.5t-61 65t-92.5 22.5q-38 0 -78 -14t-78.5 -51.5t-57.5 -91
t-19 -102.5q0 -46 19.5 -88.5t61 -65t92.5 -22.5t95 21t74.5 57t47 83.5t16.5 97.5zM257 606h-43q11 32 28.5 57.5t39.5 36t42 10.5q27 0 69 -23q24 -12 37.5 -17.5t25.5 -5.5q36 0 58 50h43q-38 -104 -111 -104q-27 0 -69 23q-44 23 -63 23q-37 0 -57 -50z" />
    <glyph glyph-name="florin.aalt" horiz-adv-x="479" 
d="M472 515l-35 -48q-20 17 -48 17q-23 0 -42 -17.5t-31 -50.5l-36 -101h97l-9 -51h-105l-76 -216q-24 -68 -56.5 -101t-90.5 -33q-20 0 -40.5 5.5t-35.5 15.5l29 49q22 -14 46 -14q26 0 46.5 16.5t42.5 80.5l70 197h-93l9 51h100l40 111q41 116 138 116q47 0 80 -27z" />
    <glyph glyph-name="R.aalt" horiz-adv-x="491" 
d="M444 400q0 -44 -17 -76t-50 -51.5t-79 -26.5l116 -246h-75l-107 238h-84l-42 -238h-69l94 530h145q78 0 123 -33t45 -97zM374 395q0 38 -29 58.5t-79 20.5h-77l-32 -180h80q63 0 100 24t37 77z" />
    <glyph glyph-name="uni0156.aalt" horiz-adv-x="491" 
d="M444 400q0 -44 -17 -76t-50 -51.5t-79 -26.5l116 -246h-75l-107 238h-84l-42 -238h-69l94 530h145q78 0 123 -33t45 -97zM374 395q0 38 -29 58.5t-79 20.5h-77l-32 -180h80q63 0 100 24t37 77zM462 738l-135 -144h-80l-83 144h63l64 -108l102 108h69z" />
    <glyph glyph-name="Edotaccent.aalt" horiz-adv-x="475" 
d="M453 530l-10 -57h-254l-30 -171h243l-10 -56h-243l-33 -188h275l-11 -58h-343l94 530h322zM354 679q0 -19 -14 -33.5t-33 -14.5t-32.5 12.5t-13.5 32.5t14.5 34.5t33.5 14.5t32 -13t13 -33z" />
    <glyph glyph-name="Umacron.aalt" horiz-adv-x="567" 
d="M530 530l-58 -327q-39 -215 -233 -215q-85 0 -133 44.5t-48 116.5q0 25 4 49l59 332h69l-58 -322q-4 -23 -4 -47q0 -50 28.5 -81t85.5 -31q134 0 164 165l55 316h69zM488 684l-9 -54h-270l9 54h270z" />
    <glyph glyph-name="questiondown.aalt" horiz-adv-x="424" 
d="M309 489q0 -21 -14.5 -36t-34.5 -15t-33 13t-13 34q0 20 14.5 35.5t34.5 15.5t33 -12.5t13 -34.5zM351 115q-7 -28 -27 -58t-57.5 -49.5t-79.5 -19.5t-74 14.5t-48.5 42t-16.5 66.5q0 41 22.5 74.5t70.5 66.5q29 19 48.5 38.5t24.5 55.5l3 22h65l-5 -31q-10 -62 -72 -108
l-34 -26q-55 -41 -55 -88q0 -30 20.5 -49t53.5 -19q35 0 61.5 20.5t37.5 59.5z" />
    <glyph glyph-name="zero.oldstyle" horiz-adv-x="660" 
d="M602 312q0 -64 -23 -123.5t-64.5 -105t-99 -71.5t-123.5 -26q-55 0 -100.5 17t-77 48t-48 74.5t-16.5 93.5q0 48 13.5 94.5t38 86t65 75t93.5 53t101 17.5q55 0 100 -17t76.5 -48t48 -74.5t16.5 -93.5zM528 308q0 26 -7.5 55t-27 55t-53.5 44.5t-84 18.5t-93 -21t-74 -57
t-48 -82.5t-17 -95.5q0 -17 3.5 -39t14 -44t30 -43t52 -34.5t73.5 -13.5q50 0 93.5 20.5t74 57t47 83t16.5 96.5z" />
    <glyph glyph-name="uni0162.aalt" horiz-adv-x="419" 
d="M450 530l-10 -56h-166l-84 -474h-67l83 474h-169l9 56h404zM210 -45l-115 -185h-57l101 185h71z" />
    <glyph glyph-name="Ydieresis.aalt" horiz-adv-x="432" 
d="M485 530l-255 -301l-40 -229h-68l40 230l-130 300h75l99 -245l195 245h84zM225 679q0 -20 -14.5 -35t-33.5 -15q-20 0 -34 13t-14 34t15 36t35 15t33 -13.5t13 -34.5zM423 679q0 -20 -14.5 -35t-34.5 -15t-33.5 13t-13.5 34t14.5 36t34.5 15t33.5 -13.5t13.5 -34.5z" />
    <glyph glyph-name="ampersand.aalt" horiz-adv-x="571" 
d="M514 279l-115 -162l92 -117h-81l-53 68q-69 -80 -170 -80q-29 0 -65.5 11.5t-62 44.5t-25.5 82q0 114 146 171q-40 54 -40 108q0 60 39.5 98.5t101.5 38.5q56 0 90 -30.5t34 -80.5q0 -48 -33.5 -86t-103.5 -67l93 -119l80 120h73zM343 427q0 26 -17 44t-46 18
q-32 0 -55.5 -21.5t-23.5 -58.5q0 -21 10 -45.5t27 -45.5q105 42 105 109zM321 113l-109 141q-39 -15 -65 -34t-36.5 -43.5t-10.5 -47.5q0 -20 10 -40.5t33.5 -32.5t50.5 -12q73 0 127 69z" />
    <glyph glyph-name="percent.aalt" horiz-adv-x="684" 
d="M168 275q-51 0 -84 31t-33 79q0 65 43 111t108 46q51 0 83 -30.5t32 -78.5q0 -24 -7.5 -50.5t-25 -50t-47 -40.5t-69.5 -17zM259 425q0 27 -17.5 45.5t-45.5 18.5q-17 0 -37.5 -10t-35 -34.5t-14.5 -52.5q0 -27 18 -45.5t45 -18.5q17 0 37.5 10t35 34.5t14.5 52.5z
M466 -12q-51 0 -84 31t-33 79q0 47 22.5 83t55.5 54.5t73 18.5q24 0 51 -10t45.5 -37t18.5 -62q0 -48 -22 -84t-54.5 -54.5t-72.5 -18.5zM558 138q0 27 -17.5 45.5t-45.5 18.5q-17 0 -37.5 -10t-35 -34.5t-14.5 -52.5q0 -27 18 -45.5t45 -18.5q17 0 37.5 10t35 34.5
t14.5 52.5zM569 531l-439 -562l-41 29l440 561z" />
    <glyph glyph-name="dollar.aalt" horiz-adv-x="479" 
d="M418 470l-48 -39q-13 19 -35.5 31.5t-49.5 13.5l-33 -180q46 -19 74.5 -40t40 -47t11.5 -54q0 -40 -17.5 -73.5t-56.5 -57.5t-104 -26l-9 -54h-35l10 54q-42 2 -81 22.5t-59 50.5l51 38q15 -24 40 -39t58 -18l35 194q-43 15 -70.5 34.5t-38.5 45t-11 54.5q0 64 48 105.5
t121 44.5l9 52h35l-9 -53q42 -2 74 -18t50 -41zM250 476q-27 -2 -51.5 -16.5t-35 -35.5t-10.5 -40q0 -30 16.5 -48t50.5 -29zM314 151q0 29 -17.5 49.5t-53.5 34.5l-33 -183q21 1 45.5 10t41.5 33t17 56z" />
    <glyph glyph-name="exclam.aalt" horiz-adv-x="281" 
d="M215 530l-66 -371h-66l65 371h67zM148 46q0 -21 -14.5 -36t-33.5 -15q-20 0 -33.5 12.5t-13.5 33.5t15 36t35 15t32.5 -12.5t12.5 -33.5z" />
    </font>
</defs>
</svg>
