<?xml version="1.0" standalone="no"?>
<!DOCTYPE svg PUBLIC "-//W3C//DTD SVG 1.1//EN" "http://www.w3.org/Graphics/SVG/1.1/DTD/svg11.dtd" >
<svg xmlns="http://www.w3.org/2000/svg" xmlns:xlink="http://www.w3.org/1999/xlink" version="1.1">
<metadata>
Created by FontForge 20170731 at Tue Mar  4 00:17:50 2014
 By Aleksey,,,
Copyright (c) 2014 by Marco Ugolini. All rights reserved.
</metadata>
<defs>
<font id="ColunaRounded-CondensedBold" horiz-adv-x="370" >
  <font-face 
    font-family="Coluna Rounded"
    font-weight="700"
    font-stretch="condensed"
    units-per-em="1000"
    panose-1="2 0 5 6 0 0 0 2 0 3"
    ascent="750"
    descent="-250"
    x-height="719"
    cap-height="720"
    bbox="-45 -375 648 897"
    underline-thickness="80"
    underline-position="-276"
    unicode-range="U+0020-2212"
  />
<missing-glyph horiz-adv-x="180" 
 />
    <glyph glyph-name=".notdef" horiz-adv-x="180" 
 />
    <glyph glyph-name=".null" horiz-adv-x="0" 
 />
    <glyph glyph-name="nonmarkingreturn" horiz-adv-x="333" 
 />
    <glyph glyph-name="space" unicode=" " horiz-adv-x="169" 
 />
    <glyph glyph-name="exclam" unicode="!" horiz-adv-x="166" 
d="M145 54q0 -25 -18 -43t-43 -18t-43 18t-18 43q0 26 18 44t43 18t43 -18.5t18 -43.5zM36 168q-8 0 -8 8v536q0 8 8 8h93q8 0 8 -8v-536q0 -8 -8 -8h-93z" />
    <glyph glyph-name="quotedbl" unicode="&#x22;" horiz-adv-x="208" 
d="M91 552q-26 0 -50.5 30t-24.5 86v38q0 14 17 14h39q19 0 19 -15v-62h-4q-15 -3 -14 -18t9 -33l9 -17v-23zM187 552q-26 0 -50.5 30t-24.5 86v38q0 14 18 14h39q18 0 18 -15v-62h-4q-15 -3 -14 -18t9 -33l9 -17v-23z" />
    <glyph glyph-name="numbersign" unicode="#" horiz-adv-x="412" 
d="M393 324q8 0 6 -8l-11 -51q-2 -8 -10 -8h-44l-19 -84h52q8 0 6 -8l-12 -52q-2 -8 -10 -8h-52l-14 -64q-2 -8 -10 -8h-53q-8 0 -6 8l14 64h-93l-14 -64q-2 -8 -10 -8h-54q-8 0 -6 8l15 64l-49 1q-8 0 -6 8l11 51q2 8 10 8h49l19 84h-57q-8 0 -6 8l12 51q2 8 10 8h56l14 64
q2 8 10 8h54q8 0 6 -8l-15 -64h94l14 64q2 8 10 8h53q8 0 6 -8l-14 -64h44zM152 173h93l19 84h-93z" />
    <glyph glyph-name="dollar" unicode="$" horiz-adv-x="353" 
d="M305 341q23 -23 30.5 -47t7.5 -67v-84q0 -67 -51 -117q-29 -29 -73 -36v-54q0 -11 -8 -19t-19 -8h-26q-11 0 -19 8t-8 19v52q-45 7 -76 38q-51 50 -51 117v88q0 11 8 19t19 8h84q11 0 19 -8t8 -19v-95q0 -22 25 -22q24 0 24 22v88q0 8 -1 14t-2 9.5t-6 9.5t-7.5 8.5
t-12 11.5t-14.5 14l-104 94q-40 40 -40 97v90q0 68 51 118q32 31 76 36v51q0 11 8 19t19 8h26q11 0 19 -8t8 -19v-52q40 -7 69 -35q51 -50 51 -118v-77q0 -11 -8 -19t-19 -8h-86q-11 0 -19 8t-8 19v84q0 23 -21 23q-22 0 -22 -22v-84q0 -12 4 -21.5t8 -14t14.5 -13.5
t16.5 -15z" />
    <glyph glyph-name="percent" unicode="%" horiz-adv-x="389" 
d="M295 253q34 0 57.5 -19t23.5 -48v-133q0 -29 -23.5 -48t-57.5 -19t-57 19.5t-23 47.5v133q0 28 23 47.5t57 19.5zM308 57v125q0 11 -13 11q-12 0 -12 -11v-125q0 -11 12 -11q13 0 13 11zM173 533q0 -28 -23 -47t-58 -19q-34 0 -57 19t-23 47v134q0 28 23 47t57 19
q35 0 58 -19t23 -47v-134zM80 537q0 -10 12 -10q13 0 13 10v126q0 10 -13 10q-12 0 -12 -10v-126zM328 720q8 0 6 -8l-209 -705q-2 -8 -10 -8h-61q-8 0 -6 8l209 705q2 8 10 8h61z" />
    <glyph glyph-name="ampersand" unicode="&#x26;" horiz-adv-x="426" 
d="M365 311v-186q0 -22 35 -29q1 0 4 -1q9 -5 10 -12v-83q0 -16 -16 -13q-67 0 -90 22l-5 3l-6 -3q-44 -23 -102 -23q-35 0 -70.5 10t-52.5 27q-47 48 -47 111v128q0 20 1.5 32t14 31t36.5 33q-6 3 -14 9.5t-22 30.5t-14 53v135q0 60 47 106q38 37 109 37q69 0 107 -37
q48 -48 48 -111v-23q0 -11 -8 -19t-19 -8h-71q-11 0 -19 8t-8 19v33q0 15 -9 23t-21 8q-13 0 -22 -8t-9 -23v-164q0 -29 31 -29h57v43q0 11 8 19t19 8h71q11 0 19 -8t8 -19v-43h22q11 0 19 -8t8 -19v-33q0 -11 -8 -19t-19 -8h-22zM240 125v186h-57q-33 0 -33 -29v-157
q0 -16 10 -23.5t35 -7.5q16 0 25.5 2.5t13.5 7.5t5 9.5t1 11.5z" />
    <glyph glyph-name="quotesingle" unicode="'" horiz-adv-x="106" 
d="M90 556q0 -8 -8 -8h-59q-8 0 -8 8v156q0 8 8 8h59q8 0 8 -8v-156z" />
    <glyph glyph-name="parenleft" unicode="(" horiz-adv-x="190" 
d="M108 579v-437q0 -37 38 -44q17 -3 17 -17v-65q0 -16 -17 -16q-43 4 -79 37q-40 40 -40 130v387q0 90 40 130q36 33 79 37q17 0 17 -16v-65q0 -14 -17 -17q-38 -7 -38 -44z" />
    <glyph glyph-name="parenright" unicode=")" horiz-adv-x="190" 
d="M82 142v437q0 37 -38 44q-17 3 -17 17v65q0 16 17 16q43 -4 79 -37q40 -40 40 -130v-387q0 -90 -40 -130q-36 -33 -79 -37q-17 0 -17 16v65q0 14 17 17q38 7 38 44z" />
    <glyph glyph-name="asterisk" unicode="*" horiz-adv-x="148" 
d="M137 669v-24h-34l24 -24l-17 -17l-24 23v-33h-25v33l-23 -23l-18 17l24 24h-33v24h33l-24 24l18 17l23 -23v33h25v-33l24 23l17 -17l-24 -24h34z" />
    <glyph glyph-name="plus" unicode="+" horiz-adv-x="260" 
d="M175 309v-8v-64q0 -8 -8 -8h-74q-8 0 -8 8v64v8h-8h-59q-8 0 -8 8v74q0 8 8 8h59h8v8v64q0 8 8 8h74q8 0 8 -8v-64v-8h8h59q8 0 8 -8v-74q0 -8 -8 -8h-59h-8z" />
    <glyph glyph-name="comma" unicode="," horiz-adv-x="137" 
d="M49 57h69q8 0 5 -8l-50 -151q-2 -8 -10 -8h-69q-8 0 -6 8l50 151q3 8 11 8z" />
    <glyph glyph-name="hyphen" unicode="-" horiz-adv-x="234" 
d="M222 317q0 -8 -8 -8h-194q-8 0 -8 8v74q0 8 8 8h194q8 0 8 -8v-74z" />
    <glyph glyph-name="period" unicode="." horiz-adv-x="164" 
d="M145 54q0 -25 -18 -43t-43 -18t-43 18t-18 43q0 26 18 44t43 18t43 -18.5t18 -43.5z" />
    <glyph glyph-name="slash" unicode="/" horiz-adv-x="346" 
d="M27 -1q-8 0 -6 8l209 705q2 8 10 8h79q8 0 6 -8l-209 -705q-2 -8 -10 -8h-79z" />
    <glyph glyph-name="zero" unicode="0" horiz-adv-x="373" 
d="M20 573q0 67 50 117q40 39 116 39q77 0 116 -39q51 -49 51 -117v-431q0 -68 -51 -117q-38 -39 -116 -39q-77 0 -116 39q-50 50 -50 117v431zM213 581q0 22 -27 22q-26 0 -26 -22l53 -256v256zM160 134q0 -23 26 -23q27 0 27 23v31l-53 247v-278z" />
    <glyph glyph-name="one" unicode="1" horiz-adv-x="295" 
d="M252 720q16 0 16 -16v-688q0 -16 -16 -16h-116q-16 0 -16 16v552l-21 -28q-10 -12 -22 -2l-54 49q-12 10 -1 23l89 98q10 12 27 12h114z" />
    <glyph glyph-name="two" unicode="2" horiz-adv-x="380" 
d="M321 368l-137 -174q-9 -12 -13 -27.5t-3 -24.5v-10h166q16 0 16 -16v-100q0 -16 -16 -16h-300q-16 0 -16 16v136q0 37 6 53t29 49l152 196q10 16 10 29v95q0 22 -22 22q-23 0 -23 -22v-105q0 -16 -16 -16h-116q-16 0 -16 16v95q0 70 53 123q43 42 119 42q77 0 119 -42
q48 -48 48 -119v-99q-3 -47 -40 -101z" />
    <glyph glyph-name="three" unicode="3" horiz-adv-x="365" 
d="M306 352q39 -52 39 -84v-128q0 -66 -50 -116q-40 -39 -115 -39q-74 0 -114 39q-50 50 -50 116v82q0 16 16 16h113q16 0 16 -16v-91q0 -18 19 -18q20 0 20 18v156q0 16 -20 16h-32h-1q-16 0 -16 16v77q0 16 16 16h1h32q18 0 18 16v154q0 18 -18 18q-17 0 -17 -18v-85
q0 -16 -16 -16h-113q-16 0 -16 16v76q0 66 50 116q41 39 112 39q73 0 113 -39q50 -49 50 -112v-126q0 -39 -37 -88q-2 -4 -4 -5q2 -2 4 -6z" />
    <glyph glyph-name="four" unicode="4" horiz-adv-x="382" 
d="M356 244q16 0 16 -16v-93q0 -16 -16 -16h-42v-103q0 -16 -16 -16h-101q-16 0 -16 16v104l-155 -1q-16 0 -16 16v50q0 18 5 31l154 489q6 15 21 15h108q16 0 16 -16v-460h42zM181 448l-57 -204h57v204z" />
    <glyph glyph-name="five" unicode="5" horiz-adv-x="364" 
d="M295 454q51 -49 51 -112v-196q0 -72 -51 -121q-39 -39 -116 -39q-68 0 -108 39q-50 50 -50 117v71q0 11 8 19t19 8h78q11 0 19 -8t8 -19v-83q0 -22 26 -22q27 0 27 22v192q0 15 -7.5 25t-19.5 10q-19 0 -23 -21q-5 -18 -17 -18h-91q-11 0 -19 8t-8 19v375h301v-134h-174
v-107q0 9 31 13q73 6 116 -38z" />
    <glyph glyph-name="six" unicode="6" 
d="M303 396q51 -51 51 -119v-132q0 -69 -51 -119q-40 -40 -117 -40t-118 40q-51 50 -51 119v88q0 69 17 129l102 341q6 15 21 15h108q7 0 10 -4.5t1 -10.5l-81 -267q71 -3 108 -40zM208 133v156q0 18 -22 18q-23 0 -23 -18v-156q0 -19 23 -19q22 0 22 19z" />
    <glyph glyph-name="seven" unicode="7" horiz-adv-x="358" 
d="M329 720q16 0 16 -16v-63q0 -18 -5 -31l-181 -595q-6 -15 -21 -15h-113q-7 0 -10 4.5t-1 10.5l167 561h-129q-16 0 -16 16v112q0 16 16 16h277z" />
    <glyph glyph-name="eight" unicode="8" horiz-adv-x="359" 
d="M343 452q0 -32 -39 -84q-1 -2 -5 -6q1 -1 2.5 -3.5t2.5 -3.5q39 -52 39 -84v-131q0 -66 -50 -115q-39 -39 -114 -39q-73 0 -114 39q-49 49 -49 115v131q0 33 38 84q4 4 5 7q-1 2 -5 6q-38 51 -38 84v123q0 66 49 115q39 39 114 39q76 0 114 -39q50 -49 50 -115v-123z
M201 129v154q0 18 -22 18q-21 0 -21 -18v-154q0 -18 21 -18q22 0 22 18zM201 440v147q0 17 -22 17q-21 0 -21 -17v-147q0 -17 21 -17q22 0 22 17z" />
    <glyph glyph-name="nine" unicode="9" horiz-adv-x="362" 
d="M349 485q0 -69 -17 -129l-101 -341q-6 -15 -21 -15h-109q-7 0 -10 4.5t-1 10.5l81 267q-71 3 -108 40q-51 50 -51 119v129q0 68 51 119q41 40 118 40t117 -40q51 -51 51 -119v-85zM158 429q0 -19 23 -19q22 0 22 19v153q0 18 -22 18q-23 0 -23 -18v-153z" />
    <glyph glyph-name="colon" unicode=":" horiz-adv-x="166" 
d="M145 352q0 -25 -18 -43t-43 -18t-43 18t-18 43q0 26 18 44t43 18t43 -18.5t18 -43.5zM145 54q0 -25 -18 -43t-43 -18t-43 18t-18 43q0 26 18 44t43 18t43 -18.5t18 -43.5z" />
    <glyph glyph-name="semicolon" unicode=";" horiz-adv-x="160" 
d="M146 352q0 -25 -18 -43t-43 -18t-43 18t-18 43q0 26 18 44t43 18t43 -18.5t18 -43.5zM49 57h69q8 0 5 -8l-50 -151q-2 -8 -10 -8h-69q-8 0 -6 8l50 151q3 8 11 8z" />
    <glyph glyph-name="less" unicode="&#x3c;" horiz-adv-x="265" 
d="M250 478l-122 -122q-7 -7 0 -12l122 -123q6 -6 0 -12l-44 -45q-8 -6 -12 0l-179 179l-6 6q0 1 6 7l179 179q5 5 12 0l44 -45q6 -6 0 -12z" />
    <glyph glyph-name="equal" unicode="=" horiz-adv-x="230" 
d="M215 407q0 -8 -8 -8h-184q-8 0 -8 8v74q0 8 8 8h184q8 0 8 -8v-74zM215 227q0 -8 -8 -8h-184q-8 0 -8 8v74q0 8 8 8h184q8 0 8 -8v-74z" />
    <glyph glyph-name="greater" unicode="&#x3e;" horiz-adv-x="265" 
d="M15 221l123 123q5 5 0 12l-123 122q-6 6 0 12l45 45q5 5 12 0l178 -179q6 -6 6 -7l-6 -6l-178 -179q-8 -6 -12 0l-45 45q-7 5 0 12z" />
    <glyph glyph-name="question" unicode="?" horiz-adv-x="350" 
d="M290 691q45 -45 45 -113v-29q0 -40 -16.5 -77.5t-37.5 -63.5t-45 -67t-34 -84l-9 -81q0 -8 -8 -8h-96q-8 0 -8 8q6 81 6 82q10 53 33.5 99t45.5 72t39 62t17 76v16v2q0 20 -13 33.5t-32 13.5q-22 0 -35 -13t-13 -34v-60q0 -8 -8 -8h-98q-8 0 -8 8v49q0 66 51 117
q38 38 112 38q73 0 112 -38zM139 116q25 0 43 -18.5t18 -43.5t-18 -43t-43 -18t-43 18t-18 43q0 26 18 44t43 18z" />
    <glyph glyph-name="at" unicode="@" horiz-adv-x="579" 
d="M405 499v-210q0 -15 12 -19.5t21 -1.5q23 8 37 37q16 31 8 90v1q-13 78 -67 131.5t-124 53.5q-12 0 -36 -4q-76 -15 -127 -101q-44 -74 -32 -161q13 -79 66 -130.5t124 -51.5q18 0 35 4q28 6 48 15l48 -68q-42 -22 -82 -29q-22 -5 -52 -5q-26 0 -53 6q-59 13 -96 44
q-44 31 -74 82q-32 55 -41 116q-11 64 3 123q10 54 43 109v1q33 52 77 82q44 32 101 45q22 5 51 5q27 0 54 -6q57 -13 96 -45q44 -34 75 -86q29 -51 40 -114q13 -80 -15 -146q-14 -34 -37 -54h-1q-29 -29 -69 -29q-52 0 -73 21q-18 18 -23 38q-7 -17 -24 -23q-18 -7 -36 -7
q-53 0 -88 41q-39 42 -39 104q0 61 39 105q36 40 88 40q19 0 34.5 -7t15.5 -21v25h73zM282 290q20 0 32 20.5t12 46.5t-12 46.5t-32 20.5q-21 0 -34.5 -20.5t-13.5 -46.5t13.5 -46.5t34.5 -20.5z" />
    <glyph glyph-name="A" unicode="A" horiz-adv-x="408" 
d="M392 27q2 -11 -5 -19t-18 -8h-93q-10 0 -18.5 6.5t-10.5 16.5l-7 85h-72l-7 -85q-7 -23 -30 -23h-93q-11 0 -17.5 8t-4.5 19l111 666q1 11 10.5 19t20.5 8h45h1h45q11 0 20.5 -8t11.5 -19zM178 215h52l-26 282z" />
    <glyph glyph-name="B" unicode="B" horiz-adv-x="384" 
d="M316 371q52 -57 52 -119v-79q0 -76 -50 -126q-49 -47 -123 -47h-141q-11 0 -19 8t-8 19v666q0 11 8 19t19 8h133q75 0 123 -48q50 -50 50 -125v-68q0 -53 -44 -108zM170 601v-184h19q28 0 28 30v124q0 30 -30 30h-17zM225 149v135q0 14 -8.5 22.5t-20.5 8.5h-26v-197h25
q30 0 30 31z" />
    <glyph glyph-name="C" unicode="C" 
d="M303 690q51 -49 51 -118v-119q0 -11 -8 -19t-19 -8h-88q-11 0 -19 8t-8 19v127q0 23 -25 23t-25 -23v-445q0 -23 25 -23t25 23v122q0 11 8 19t19 8h88q11 0 19 -8t8 -19v-114q0 -67 -51 -118q-39 -39 -116 -39t-116 39q-51 51 -51 118v429q0 69 51 118q39 39 116 39
t116 -39z" />
    <glyph glyph-name="D" unicode="D" horiz-adv-x="380" 
d="M311 673q51 -51 51 -126v-374q0 -75 -51 -126q-49 -47 -117 -47h-140q-11 0 -19 8t-8 19v666q0 11 8 19t19 8h140q68 0 117 -47zM219 149v422q0 31 -25 31h-24v-484h24q25 0 25 31z" />
    <glyph glyph-name="E" unicode="E" horiz-adv-x="321" 
d="M174 125h105q11 0 19 -8t8 -19v-71q0 -11 -8 -19t-19 -8h-225q-11 0 -19 8t-8 19v666q0 11 8 19t19 8h225q11 0 19 -8t8 -19v-66q0 -11 -8 -19t-19 -8h-105v-194h71q11 0 19 -8t8 -19v-50q0 -11 -8 -19t-19 -8h-71v-177z" />
    <glyph glyph-name="F" unicode="F" horiz-adv-x="318" 
d="M174 406h71q11 0 19 -8t8 -19v-50q0 -11 -8 -19t-19 -8h-71v-275q0 -11 -8 -19t-19 -8h-93q-11 0 -19 8t-8 19v666q0 11 8 19t19 8h225q11 0 19 -8t8 -19v-66q0 -11 -8 -19t-19 -8h-105v-194z" />
    <glyph glyph-name="G" unicode="G" horiz-adv-x="372" 
d="M303 690q51 -49 51 -118v-120q0 -11 -8 -19t-19 -8h-88q-11 0 -19 8t-8 19v128q0 23 -25 23t-25 -23v-445q0 -23 27 -23q23 0 27 23v132q-13 0 -21 8t-8 19v25q0 11 8 19t19 8h113q11 0 19 -8t8 -19v-319h-40q0 1 -0.5 2.5t-1 6t-1 8.5t-1.5 8t-2 6l-1 2
q-25 -25 -50.5 -36t-69.5 -11q-77 0 -116 39q-51 51 -51 118v429q0 69 51 118q39 39 116 39t116 -39z" />
    <glyph glyph-name="H" unicode="H" horiz-adv-x="400" 
d="M346 720q11 0 19 -8t8 -19v-666q0 -11 -8 -19t-19 -8h-93q-11 0 -19 8t-8 19v275h-52v-275q0 -11 -8 -19t-19 -8h-93q-11 0 -19 8t-8 19v666q0 11 8 19t19 8h93q11 0 19 -8t8 -19v-287h52v287q0 11 8 19t19 8h93z" />
    <glyph glyph-name="I" unicode="I" horiz-adv-x="212" 
d="M177 27q0 -11 -8 -19t-19 -8h-88q-11 0 -19 8t-8 19v666q0 11 8 19t19 8h88q11 0 19 -8t8 -19v-666z" />
    <glyph glyph-name="J" unicode="J" horiz-adv-x="377" 
d="M323 719q11 0 19 -8t8 -19v-549q0 -67 -51 -118q-39 -39 -116 -39t-116 39q-51 51 -51 118v113q0 11 8 19t19 8h88q11 0 19 -8t8 -19v-121q0 -23 25 -23t25 23v557q0 11 8 19t19 8h88z" />
    <glyph glyph-name="K" unicode="K" horiz-adv-x="423" 
d="M286 432l121 -406q3 -11 -2.5 -18.5t-16.5 -7.5h-89q-11 0 -21 7.5t-13 18.5q-67 243 -74 269q-10 -25 -22 -54v-214q0 -11 -8 -19t-19 -8h-88q-11 0 -19 8t-8 19v666q0 11 8 19t19 8h84q11 0 19 -8t8 -19v-229q9 25 79 230q4 11 14.5 18.5t21.5 7.5h88q11 0 16 -7.5
t1 -17.5z" />
    <glyph glyph-name="L" unicode="L" horiz-adv-x="318" 
d="M174 129h105q11 0 19 -8t8 -19v-75q0 -11 -8 -19t-19 -8h-225q-11 0 -19 8t-8 19v666q0 11 8 19t19 8h93q11 0 19 -8t8 -19v-564z" />
    <glyph glyph-name="M" unicode="M" horiz-adv-x="506" 
d="M452 719q11 0 19 -8t8 -19v-665q0 -11 -8 -19t-19 -8h-69q-11 0 -19 8t-8 19v383q-3 -27 -46 -383q-2 -11 -10.5 -19t-19.5 -8h-53q-11 0 -19.5 8t-10.5 19l-46 384v-384q0 -11 -8 -19t-19 -8h-70q-11 0 -19 8t-8 19v665q0 11 8 19t19 8h129q11 0 19.5 -8t9.5 -19
l41 -516l42 516q1 11 9.5 19t19.5 8h128z" />
    <glyph glyph-name="N" unicode="N" horiz-adv-x="396" 
d="M342 720q11 0 19 -8t8 -19v-666q0 -11 -8 -19t-19 -8h-75q-11 0 -21 7.5t-12 18.5l-82 364v-363q0 -11 -8 -19t-19 -8h-71q-11 0 -19 8t-8 19v666q0 11 8 19t19 8h79q11 0 20.5 -7.5t11.5 -18.5q73 -353 79 -379v378q0 11 8 19t19 8h71z" />
    <glyph glyph-name="O" unicode="O" horiz-adv-x="373" 
d="M304 690q51 -49 51 -117v-431q0 -68 -51 -117q-39 -39 -118 -39t-118 39q-50 50 -50 117v431q0 67 50 117q40 39 118 39t118 -39zM213 134v447q0 22 -27 22q-26 0 -26 -22v-447q0 -23 26 -23q27 0 27 23z" />
    <glyph glyph-name="P" unicode="P" horiz-adv-x="374" 
d="M312 672q50 -50 50 -125v-100q0 -75 -50 -125q-47 -47 -117 -47h-25v-248q0 -11 -8 -19t-19 -8h-89q-11 0 -19 8t-8 19v666q0 11 8 19t19 8h141q69 0 117 -48zM219 423v148q0 31 -24 31h-25v-209h25q24 0 24 30z" />
    <glyph glyph-name="Q" unicode="Q" horiz-adv-x="385" 
d="M365 10q0 -5 -1.5 -9t-3 -6.5t-5.5 -4t-6 -2t-7 0t-6.5 0.5t-6.5 1l-5 1q-38 10 -52 27q-52 -32 -86 -32q-76 0 -116 39q-50 52 -50 118v429q0 68 50 118q40 39 116 39q77 0 116 -39q51 -49 51 -118v-429q0 -33 -20 -60v0h-1v0v0v0h1v0h1h1h1h10q8 0 13 -3.5t5 -7.5l1 -3
v-59zM162 135q0 -23 24 -23q4 0 9 3l2 1q6 10 4 16t-7.5 17.5t-5.5 19.5h23v411q0 23 -25 23q-24 0 -24 -23v-445z" />
    <glyph glyph-name="R" unicode="R" horiz-adv-x="383" 
d="M361 38q0 -5 2 -13.5t2 -13t-6 -8t-20 -3.5h-108q-12 0 -12 36v217q0 30 -25 30h-25v-233v-23q0 -11 -8 -19t-19 -8h-88q-11 0 -19 8t-8 19v666q0 11 8 19t19 8h140q69 0 117 -48q50 -50 50 -125v-92q0 -60 -50 -117q50 -39 50 -117v-183zM219 431v140q0 31 -25 31h-25
v-201h25q25 0 25 30z" />
    <glyph glyph-name="S" unicode="S" horiz-adv-x="367" 
d="M311 341q23 -23 30.5 -47t7.5 -67v-84q0 -67 -51 -117q-40 -40 -117 -40q-72 0 -112 40q-51 50 -51 117v88q0 11 8 19t19 8h84q11 0 19 -8t8 -19v-95q0 -22 25 -22q24 0 24 22v88q0 8 -1 14t-2 9.5t-6 9.5t-7.5 8.5t-12 11.5t-14.5 14l-104 94q-40 40 -40 97v90
q0 68 51 118q40 39 113 39q72 0 112 -39q51 -50 51 -118v-77q0 -11 -8 -19t-19 -8h-86q-11 0 -19 8t-8 19v84q0 23 -21 23q-22 0 -22 -22v-84q0 -12 4 -21.5t8 -14t14.5 -13.5t16.5 -15z" />
    <glyph glyph-name="T" unicode="T" horiz-adv-x="356" 
d="M250 600v-573q0 -11 -8 -19t-19 -8h-90q-11 0 -19 8t-8 19v573h-68q-11 0 -19 8t-8 19v66q0 11 8 19t19 8h280q11 0 19 -8t8 -19v-66q0 -11 -8 -19t-19 -8h-68z" />
    <glyph glyph-name="U" unicode="U" 
d="M325 719q11 0 19 -8t8 -19v-546q0 -71 -50 -121q-40 -39 -117 -39q-78 0 -117 39q-50 50 -50 121v546q0 11 8 19t19 8h87q11 0 19 -8t8 -19v-558q0 -22 26 -22t26 22v558q0 11 8 19t19 8h87z" />
    <glyph glyph-name="V" unicode="V" horiz-adv-x="409" 
d="M371 720q11 0 18 -8t5 -19l-110 -666q-1 -11 -10.5 -19t-20.5 -8h-97q-11 0 -20.5 8t-10.5 19l-110 666q-2 11 5 19t18 8h93q11 0 19.5 -8t10.5 -19q40 -422 43 -449q3 27 44 449q2 11 10.5 19t19.5 8h93z" />
    <glyph glyph-name="W" unicode="W" horiz-adv-x="597" 
d="M558 720q11 0 18 -8t5 -19l-102 -666q-1 -11 -10.5 -19t-20.5 -8h-76q-11 0 -20.5 8t-10.5 19l-42 312q-4 -27 -43 -312q-1 -11 -10.5 -19t-20.5 -8h-76q-11 0 -20.5 8t-10.5 19l-102 666q-2 11 5 19t18 8h77q11 0 19.5 -8t10.5 -19q40 -403 43 -430l45 430q2 11 10.5 19
t19.5 8h69q11 0 19.5 -8t10.5 -19l45 -430q3 27 43 430q2 11 10.5 19t19.5 8h77z" />
    <glyph glyph-name="X" unicode="X" horiz-adv-x="408" 
d="M278 378l109 -352q3 -11 -2.5 -18.5t-16.5 -7.5h-93q-11 0 -21 7.5t-12 18.5l-37 184l-39 -184q-3 -11 -12.5 -18.5t-20.5 -7.5h-93q-11 0 -16.5 7.5t-2.5 18.5l113 352l-98 316q-4 10 2 18t17 8h94q11 0 20.5 -8t10.5 -19l27 -180l27 180q1 11 10.5 19t20.5 8h94
q11 0 16.5 -7.5t2.5 -18.5z" />
    <glyph glyph-name="Y" unicode="Y" horiz-adv-x="434" 
d="M286 298v-271q0 -11 -8 -19t-19 -8h-85q-11 0 -19 8t-8 19v273l-129 394q-3 11 2.5 18.5t16.5 7.5h86q11 0 21 -7.5t13 -18.5l60 -214l60 214q3 11 13 18.5t21 7.5h86q11 0 16.5 -7.5t2.5 -18.5z" />
    <glyph glyph-name="Z" unicode="Z" horiz-adv-x="342" 
d="M300 131q11 0 19 -8t8 -19v-77q0 -11 -8 -19t-19 -8h-258q-11 0 -19 8t-8 19v67l145 488h-112q-11 0 -19 8t-8 19v84q0 11 8 19t19 8h250q11 0 19 -8t8 -19v-64l-152 -498h127z" />
    <glyph glyph-name="bracketleft" unicode="[" horiz-adv-x="177" 
d="M107 80h8h27q8 0 8 -8v-64q0 -8 -8 -8h-107q-8 0 -8 8v704q0 8 8 8h107q8 0 8 -8v-64q0 -8 -8 -8h-27h-8v-8v-544v-8z" />
    <glyph glyph-name="backslash" unicode="\" horiz-adv-x="346" 
d="M240 -1q-8 0 -10 8l-209 705q-2 8 6 8h79q8 0 10 -8l209 -705q2 -8 -6 -8h-79z" />
    <glyph glyph-name="bracketright" unicode="]" horiz-adv-x="177" 
d="M70 640h-8h-27q-8 0 -8 8v64q0 8 8 8h107q8 0 8 -8v-704q0 -8 -8 -8h-107q-8 0 -8 8v64q0 8 8 8h27h8v8v544v8z" />
    <glyph glyph-name="underscore" unicode="_" horiz-adv-x="210" 
d="M195 7q0 -8 -8 -8h-164q-8 0 -8 8v84q0 8 8 8h164q8 0 8 -8v-84z" />
    <glyph glyph-name="grave" unicode="`" horiz-adv-x="160" 
d="M24 868q-4 7 4 7h82q8 0 10 -8l23 -105q2 -8 -6 -8h-38q-9 0 -12 7z" />
    <glyph glyph-name="a" unicode="a" horiz-adv-x="408" 
d="M392 27q2 -11 -5 -19t-18 -8h-93q-10 0 -18.5 6.5t-10.5 16.5l-7 85h-72l-7 -85q-7 -23 -30 -23h-93q-11 0 -17.5 8t-4.5 19l111 666q1 11 10.5 19t20.5 8h45h1h45q11 0 20.5 -8t11.5 -19zM178 215h52l-26 282z" />
    <glyph glyph-name="b" unicode="b" horiz-adv-x="384" 
d="M316 371q52 -57 52 -119v-79q0 -76 -50 -126q-49 -47 -123 -47h-141q-11 0 -19 8t-8 19v666q0 11 8 19t19 8h133q75 0 123 -48q50 -50 50 -125v-68q0 -53 -44 -108zM170 601v-184h19q28 0 28 30v124q0 30 -30 30h-17zM225 149v135q0 14 -8.5 22.5t-20.5 8.5h-26v-197h25
q30 0 30 31z" />
    <glyph glyph-name="c" unicode="c" 
d="M303 690q51 -49 51 -118v-119q0 -11 -8 -19t-19 -8h-88q-11 0 -19 8t-8 19v127q0 23 -25 23t-25 -23v-445q0 -23 25 -23t25 23v122q0 11 8 19t19 8h88q11 0 19 -8t8 -19v-114q0 -67 -51 -118q-39 -39 -116 -39t-116 39q-51 51 -51 118v429q0 69 51 118q39 39 116 39
t116 -39z" />
    <glyph glyph-name="d" unicode="d" horiz-adv-x="380" 
d="M311 673q51 -51 51 -126v-374q0 -75 -51 -126q-49 -47 -117 -47h-140q-11 0 -19 8t-8 19v666q0 11 8 19t19 8h140q68 0 117 -47zM219 149v422q0 31 -25 31h-24v-484h24q25 0 25 31z" />
    <glyph glyph-name="e" unicode="e" horiz-adv-x="321" 
d="M174 125h105q11 0 19 -8t8 -19v-71q0 -11 -8 -19t-19 -8h-225q-11 0 -19 8t-8 19v666q0 11 8 19t19 8h225q11 0 19 -8t8 -19v-66q0 -11 -8 -19t-19 -8h-105v-194h71q11 0 19 -8t8 -19v-50q0 -11 -8 -19t-19 -8h-71v-177z" />
    <glyph glyph-name="f" unicode="f" horiz-adv-x="318" 
d="M174 406h71q11 0 19 -8t8 -19v-50q0 -11 -8 -19t-19 -8h-71v-275q0 -11 -8 -19t-19 -8h-93q-11 0 -19 8t-8 19v666q0 11 8 19t19 8h225q11 0 19 -8t8 -19v-66q0 -11 -8 -19t-19 -8h-105v-194z" />
    <glyph glyph-name="g" unicode="g" horiz-adv-x="372" 
d="M303 690q51 -49 51 -118v-120q0 -11 -8 -19t-19 -8h-88q-11 0 -19 8t-8 19v128q0 23 -25 23t-25 -23v-445q0 -23 27 -23q23 0 27 23v132q-13 0 -21 8t-8 19v25q0 11 8 19t19 8h113q11 0 19 -8t8 -19v-319h-40q0 1 -0.5 2.5t-1 6t-1 8.5t-1.5 8t-2 6l-1 2
q-25 -25 -50.5 -36t-69.5 -11q-77 0 -116 39q-51 51 -51 118v429q0 69 51 118q39 39 116 39t116 -39z" />
    <glyph glyph-name="h" unicode="h" horiz-adv-x="400" 
d="M346 720q11 0 19 -8t8 -19v-666q0 -11 -8 -19t-19 -8h-93q-11 0 -19 8t-8 19v275h-52v-275q0 -11 -8 -19t-19 -8h-93q-11 0 -19 8t-8 19v666q0 11 8 19t19 8h93q11 0 19 -8t8 -19v-287h52v287q0 11 8 19t19 8h93z" />
    <glyph glyph-name="i" unicode="i" horiz-adv-x="212" 
d="M177 693v-666q0 -11 -8 -19t-19 -8h-88q-11 0 -19 8t-8 19v666q0 11 8 19t19 8h88q11 0 19 -8t8 -19z" />
    <glyph glyph-name="j" unicode="j" horiz-adv-x="377" 
d="M323 719q11 0 19 -8t8 -19v-549q0 -67 -51 -118q-39 -39 -116 -39t-116 39q-51 51 -51 118v113q0 11 8 19t19 8h88q11 0 19 -8t8 -19v-121q0 -23 25 -23t25 23v557q0 11 8 19t19 8h88z" />
    <glyph glyph-name="k" unicode="k" horiz-adv-x="423" 
d="M286 432l121 -406q3 -11 -2.5 -18.5t-16.5 -7.5h-89q-11 0 -21 7.5t-13 18.5q-67 243 -74 269q-10 -25 -22 -54v-214q0 -11 -8 -19t-19 -8h-88q-11 0 -19 8t-8 19v666q0 11 8 19t19 8h84q11 0 19 -8t8 -19v-229q9 25 79 230q4 11 14.5 18.5t21.5 7.5h88q11 0 16 -7.5
t1 -17.5z" />
    <glyph glyph-name="l" unicode="l" horiz-adv-x="318" 
d="M174 129h105q11 0 19 -8t8 -19v-75q0 -11 -8 -19t-19 -8h-225q-11 0 -19 8t-8 19v666q0 11 8 19t19 8h93q11 0 19 -8t8 -19v-564z" />
    <glyph glyph-name="m" unicode="m" horiz-adv-x="506" 
d="M452 719q11 0 19 -8t8 -19v-665q0 -11 -8 -19t-19 -8h-69q-11 0 -19 8t-8 19v383q-3 -27 -46 -383q-2 -11 -10.5 -19t-19.5 -8h-53q-11 0 -19.5 8t-10.5 19l-46 384v-384q0 -11 -8 -19t-19 -8h-70q-11 0 -19 8t-8 19v665q0 11 8 19t19 8h129q11 0 19.5 -8t9.5 -19
l41 -516l42 516q1 11 9.5 19t19.5 8h128z" />
    <glyph glyph-name="n" unicode="n" horiz-adv-x="396" 
d="M342 720q11 0 19 -8t8 -19v-666q0 -11 -8 -19t-19 -8h-75q-11 0 -21 7.5t-12 18.5l-82 364v-363q0 -11 -8 -19t-19 -8h-71q-11 0 -19 8t-8 19v666q0 11 8 19t19 8h79q11 0 20.5 -7.5t11.5 -18.5q73 -353 79 -379v378q0 11 8 19t19 8h71z" />
    <glyph glyph-name="o" unicode="o" horiz-adv-x="373" 
d="M304 690q51 -49 51 -117v-431q0 -68 -51 -117q-39 -39 -118 -39t-118 39q-50 50 -50 117v431q0 67 50 117q40 39 118 39t118 -39zM213 134v447q0 22 -27 22q-26 0 -26 -22v-447q0 -23 26 -23q27 0 27 23z" />
    <glyph glyph-name="p" unicode="p" horiz-adv-x="374" 
d="M312 672q50 -50 50 -125v-100q0 -75 -50 -125q-47 -47 -117 -47h-25v-248q0 -11 -8 -19t-19 -8h-89q-11 0 -19 8t-8 19v666q0 11 8 19t19 8h141q69 0 117 -48zM219 423v148q0 31 -24 31h-25v-209h25q24 0 24 30z" />
    <glyph glyph-name="q" unicode="q" horiz-adv-x="385" 
d="M365 10q0 -5 -1.5 -9t-3 -6.5t-5.5 -4t-6 -2t-7 0t-6.5 0.5t-6.5 1l-5 1q-38 10 -52 27q-52 -32 -86 -32q-76 0 -116 39q-50 52 -50 118v429q0 68 50 118q40 39 116 39q77 0 116 -39q51 -49 51 -118v-429q0 -33 -20 -60v0h-1v0v0v0h1v0h1h1h1h10q8 0 13 -3.5t5 -7.5l1 -3
v-59zM162 135q0 -23 24 -23q4 0 9 3l2 1q6 10 4 16t-7.5 17.5t-5.5 19.5h23v411q0 23 -25 23q-24 0 -24 -23v-445z" />
    <glyph glyph-name="r" unicode="r" horiz-adv-x="383" 
d="M361 38q0 -5 2 -13.5t2 -13t-6 -8t-20 -3.5h-108q-12 0 -12 36v217q0 30 -25 30h-25v-233v-23q0 -11 -8 -19t-19 -8h-88q-11 0 -19 8t-8 19v666q0 11 8 19t19 8h140q69 0 117 -48q50 -50 50 -125v-92q0 -60 -50 -117q50 -39 50 -117v-183zM219 431v140q0 31 -25 31h-25
v-201h25q25 0 25 30z" />
    <glyph glyph-name="s" unicode="s" horiz-adv-x="367" 
d="M311 341q23 -23 30.5 -47t7.5 -67v-84q0 -67 -51 -117q-40 -40 -117 -40q-72 0 -112 40q-51 50 -51 117v88q0 11 8 19t19 8h84q11 0 19 -8t8 -19v-95q0 -22 25 -22q24 0 24 22v88q0 8 -1 14t-2 9.5t-6 9.5t-7.5 8.5t-12 11.5t-14.5 14l-104 94q-40 40 -40 97v90
q0 68 51 118q40 39 113 39q72 0 112 -39q51 -50 51 -118v-77q0 -11 -8 -19t-19 -8h-86q-11 0 -19 8t-8 19v84q0 23 -21 23q-22 0 -22 -22v-84q0 -12 4 -21.5t8 -14t14.5 -13.5t16.5 -15z" />
    <glyph glyph-name="t" unicode="t" horiz-adv-x="356" 
d="M250 600v-573q0 -11 -8 -19t-19 -8h-90q-11 0 -19 8t-8 19v573h-68q-11 0 -19 8t-8 19v66q0 11 8 19t19 8h280q11 0 19 -8t8 -19v-66q0 -11 -8 -19t-19 -8h-68z" />
    <glyph glyph-name="u" unicode="u" 
d="M325 719q11 0 19 -8t8 -19v-546q0 -71 -50 -121q-40 -39 -117 -39q-78 0 -117 39q-50 50 -50 121v546q0 11 8 19t19 8h87q11 0 19 -8t8 -19v-558q0 -22 26 -22t26 22v558q0 11 8 19t19 8h87z" />
    <glyph glyph-name="v" unicode="v" horiz-adv-x="409" 
d="M371 720q11 0 18 -8t5 -19l-110 -666q-1 -11 -10.5 -19t-20.5 -8h-97q-11 0 -20.5 8t-10.5 19l-110 666q-2 11 5 19t18 8h93q11 0 19.5 -8t10.5 -19q40 -422 43 -449q3 27 44 449q2 11 10.5 19t19.5 8h93z" />
    <glyph glyph-name="w" unicode="w" horiz-adv-x="597" 
d="M558 720q11 0 18 -8t5 -19l-102 -666q-1 -11 -10.5 -19t-20.5 -8h-76q-11 0 -20.5 8t-10.5 19l-42 312q-4 -27 -43 -312q-1 -11 -10.5 -19t-20.5 -8h-76q-11 0 -20.5 8t-10.5 19l-102 666q-2 11 5 19t18 8h77q11 0 19.5 -8t10.5 -19q40 -403 43 -430l45 430q2 11 10.5 19
t19.5 8h69q11 0 19.5 -8t10.5 -19l45 -430q3 27 43 430q2 11 10.5 19t19.5 8h77z" />
    <glyph glyph-name="x" unicode="x" horiz-adv-x="408" 
d="M278 378l109 -352q3 -11 -2.5 -18.5t-16.5 -7.5h-93q-11 0 -21 7.5t-12 18.5l-37 184l-39 -184q-3 -11 -12.5 -18.5t-20.5 -7.5h-93q-11 0 -16.5 7.5t-2.5 18.5l113 352l-98 316q-4 10 2 18t17 8h94q11 0 20.5 -8t10.5 -19l27 -180l27 180q1 11 10.5 19t20.5 8h94
q11 0 16.5 -7.5t2.5 -18.5z" />
    <glyph glyph-name="y" unicode="y" horiz-adv-x="434" 
d="M286 298v-271q0 -11 -8 -19t-19 -8h-85q-11 0 -19 8t-8 19v273l-129 394q-3 11 2.5 18.5t16.5 7.5h86q11 0 21 -7.5t13 -18.5l60 -214l60 214q3 11 13 18.5t21 7.5h86q11 0 16.5 -7.5t2.5 -18.5z" />
    <glyph glyph-name="z" unicode="z" horiz-adv-x="342" 
d="M300 131q11 0 19 -8t8 -19v-77q0 -11 -8 -19t-19 -8h-258q-11 0 -19 8t-8 19v67l145 488h-112q-11 0 -19 8t-8 19v84q0 11 8 19t19 8h250q11 0 19 -8t8 -19v-64l-152 -498h127z" />
    <glyph glyph-name="bar" unicode="|" horiz-adv-x="110" 
d="M23 -115q-8 0 -8 8v928q0 8 8 8h64q8 0 8 -8v-928q0 -8 -8 -8h-64z" />
    <glyph glyph-name="exclamdown" unicode="&#xa1;" horiz-adv-x="167" 
d="M23 299q0 25 18 43t43 18t43 -18t18 -43q0 -26 -18 -44t-43 -18t-43 18.5t-18 43.5zM132 185q8 0 8 -8v-536q0 -8 -8 -8h-93q-8 0 -8 8v536q0 8 8 8h93z" />
    <glyph glyph-name="cent" unicode="&#xa2;" 
d="M239 426q-11 0 -19 8t-8 19v127q0 23 -25 23t-25 -23v-445q0 -23 25 -23t25 23v122q0 11 8 19t19 8h88q11 0 19 -8t8 -19v-114q0 -67 -51 -118q-28 -28 -76 -36v-53q0 -11 -8 -19t-19 -8h-26q-11 0 -19 8t-8 19v53q-48 8 -76 36q-51 51 -51 118v429q0 69 51 118
q28 28 76 36v51q0 11 8 19t19 8h26q11 0 19 -8t8 -19v-51q48 -8 76 -36q51 -49 51 -118v-119q0 -11 -8 -19t-19 -8h-88z" />
    <glyph glyph-name="sterling" unicode="&#xa3;" horiz-adv-x="369" 
d="M318 134q11 0 19 -8t8 -19l10 -80q0 -11 -8 -19t-19 -8h-282q-11 0 -19 8t-8 19l10 82q0 11 8 19t19 8h5q13 2 22 7.5t13 17.5t5.5 21.5t0 30.5t-3 31t-5.5 36h-55q-11 0 -19 8t-8 19v26q0 11 8 19t19 8h38q-10 37 -25.5 86.5t-25 81t-9.5 44.5q0 50 6.5 69t34.5 46
q42 42 126 42q76 0 116 -39q51 -49 51 -118v-37q0 -11 -8 -19t-19 -8h-88q-11 0 -19 8t-8 19v45q0 23 -25 23t-25 -23q0 -3 10 -35t24.5 -85t23.5 -100h100q11 0 19 -8t8 -19v-26q0 -11 -8 -19t-19 -8h-88q9 -117 -34 -146h124z" />
    <glyph glyph-name="yen" unicode="&#xa5;" horiz-adv-x="435" 
d="M416 694l-106 -324h55q11 0 19 -8t8 -19v-26q0 -11 -8 -19t-19 -8h-79v-54h79q11 0 19 -8t8 -19v-26q0 -11 -8 -19t-19 -8h-79v-129q0 -11 -8 -19t-19 -8h-85q-11 0 -19 8t-8 19v129h-78q-11 0 -19 8t-8 19v26q0 11 8 19t19 8h78v54h-78q-11 0 -19 8t-8 19v26q0 11 8 19
t19 8h55l-106 324q-3 11 2.5 18.5t16.5 7.5h86q11 0 21 -7.5t13 -18.5l60 -214l60 214q3 11 13 18.5t21 7.5h86q11 0 16.5 -7.5t2.5 -18.5z" />
    <glyph glyph-name="dieresis" unicode="&#xa8;" horiz-adv-x="242" 
d="M184 852q18 0 31 -13t13 -31t-13 -31t-31 -13t-31 13t-13 31t13 31t31 13zM58 852q18 0 31 -13t13 -31t-13 -31t-31 -13t-31 13t-13 31t13 31t31 13z" />
    <glyph glyph-name="copyright" unicode="&#xa9;" horiz-adv-x="669" 
d="M334 551q61 0 81 -21q27 -25 27 -61v-76h-74v80q0 12 -34 12t-34 -12v-231q0 -12 34 -12t34 12v77h74v-73q0 -34 -27 -61q-20 -21 -81 -21q-60 0 -81 21q-27 27 -27 61v223q0 36 27 61q21 21 81 21zM558 587q90 -95 90 -227q0 -134 -90 -227t-224 -93t-224 93
q-89 92 -89 227q0 133 89 227q89 92 224 92t224 -92zM334 110q100 0 170 73t70 177t-70 176.5t-170 72.5t-169.5 -72.5t-69.5 -176.5t69.5 -177t169.5 -73z" />
    <glyph glyph-name="registered" unicode="&#xae;" horiz-adv-x="669" 
d="M446 190q0 -2 3 -14l1 -1q0 -2 -2 -2h-11h-56q-7 0 -7 18v113q0 7 -1 9.5t-8.5 4.5t-23.5 2h-34v-147h-72v130v244h106q56 0 81 -25q24 -23 24 -65v-48q0 -33 -24 -60q24 -20 24 -61v-95v-3zM374 397v73q0 6 -1.5 9t-9 5t-22.5 2h-34v-105h34q23 0 28 3.5t5 12.5z
M558 587q90 -95 90 -227q0 -134 -90 -227q-88 -93 -224 -93q-135 0 -223 93q-90 93 -90 227q0 132 90 227q87 92 223 92q137 0 224 -92zM334 110q101 0 170.5 72.5t69.5 177.5q0 104 -69.5 176.5t-170.5 72.5q-100 0 -169.5 -72.5t-69.5 -176.5t69.5 -177t169.5 -73z" />
    <glyph glyph-name="macron" unicode="&#xaf;" horiz-adv-x="280" 
d="M265 793q0 -8 -8 -8h-234q-8 0 -8 8v44q0 8 8 8h234q8 0 8 -8v-44z" />
    <glyph glyph-name="degree" unicode="&#xb0;" horiz-adv-x="217" 
d="M108 734q41 0 69 -27.5t28 -67.5t-28 -67t-69 -27q-40 0 -68 27t-28 67t28 67.5t68 27.5zM108 595q19 0 32 13t13 31q0 19 -13 32t-32 13q-18 0 -31 -13t-13 -32q0 -18 13 -31t31 -13z" />
    <glyph glyph-name="acute" unicode="&#xb4;" horiz-adv-x="160" 
d="M136 868l-64 -107q-4 -7 -12 -7h-38q-8 0 -6 8l24 105q2 8 10 8h82q8 0 4 -7z" />
    <glyph glyph-name="cedilla" unicode="&#xb8;" horiz-adv-x="156" 
d="M59 -151q-13 1 -29 6q-15 3 -11 14q1 2 2 6t2 7.5t2 7.5q5 13 19 9q16 -4 27 -4q19 0 21 14q0 7 -3 9q-7 9 -37 9q-21 0 -24 8q-1 3 -2.5 6.5t-1.5 4.5q-3 8 8 19l62 63l29 -36l-31 -25l7 -3q17 -7 26 -16q18 -20 15 -45q-4 -29 -24 -43t-57 -11z" />
    <glyph glyph-name="questiondown" unicode="&#xbf;" horiz-adv-x="250" 
d="M0 -337q-45 45 -45 113v29q0 40 16.5 77.5t37.5 63.5t45 67t34 84l8 81q2 8 9 8h96q8 0 8 -8l-6 -82q-10 -53 -33.5 -99t-45.5 -72t-39 -62t-17 -76v-16v-2q0 -20 13 -33.5t32 -13.5q22 0 35 13t13 34v19v19v22q0 8 8 8h98q8 0 8 -8v-22v-19v-8q0 -66 -51 -117
q-38 -38 -112 -38q-73 0 -112 38zM151 238q-25 0 -43 18.5t-18 43.5t18 43t43 18t43 -18t18 -43q0 -26 -18 -44t-43 -18z" />
    <glyph glyph-name="Agrave" unicode="&#xc0;" horiz-adv-x="408" 
d="M392 27q2 -11 -5 -19t-18 -8h-93q-10 0 -18.5 6.5t-10.5 16.5l-7 85h-72l-7 -85q-7 -23 -30 -23h-93q-11 0 -17.5 8t-4.5 19l111 666q1 11 10.5 19t20.5 8h45h1h45q11 0 20.5 -8t11.5 -19zM178 215h52l-26 282zM106 868q-4 7 4 7h82q8 0 10 -8l23 -105q2 -8 -6 -8h-38
q-9 0 -12 7z" />
    <glyph glyph-name="Aacute" unicode="&#xc1;" horiz-adv-x="408" 
d="M392 27q2 -11 -5 -19t-18 -8h-93q-10 0 -18.5 6.5t-10.5 16.5l-7 85h-72l-7 -85q-7 -23 -30 -23h-93q-11 0 -17.5 8t-4.5 19l111 666q1 11 10.5 19t20.5 8h45h1h45q11 0 20.5 -8t11.5 -19zM178 215h52l-26 282zM304 868l-64 -107q-4 -7 -12 -7h-38q-8 0 -6 8l24 105
q2 8 10 8h82q8 0 4 -7z" />
    <glyph glyph-name="Acircumflex" unicode="&#xc2;" horiz-adv-x="408" 
d="M392 27q2 -11 -5 -19t-18 -8h-93q-10 0 -18.5 6.5t-10.5 16.5l-7 85h-72l-7 -85q-7 -23 -30 -23h-93q-11 0 -17.5 8t-4.5 19l111 666q1 11 10.5 19t20.5 8h45h1h45q11 0 20.5 -8t11.5 -19zM178 215h52l-26 282zM299 813q6 -6 1 -11l-33 -35q-6 -6 -11 -1l-46 37
q-6 6 -12 0l-47 -37q-5 -5 -11 1l-32 35q-5 5 1 11l89 68q6 6 12 0z" />
    <glyph glyph-name="Atilde" unicode="&#xc3;" horiz-adv-x="408" 
d="M392 27q2 -11 -5 -19t-18 -8h-93q-10 0 -18.5 6.5t-10.5 16.5l-7 85h-72l-7 -85q-7 -23 -30 -23h-93q-11 0 -17.5 8t-4.5 19l111 666q1 11 10.5 19t20.5 8h45h1h45q11 0 20.5 -8t11.5 -19zM178 215h52l-26 282zM309 848q11 -7 4 -16l-20 -27q-9 -12 -22 -18
q-13 -7 -28 -7q-17 0 -32 9l-30 19q-13 10 -27 -3q-7 -7 -9 -10q-6 -7 -19 -1q-7 4 -25 17q-10 7 -2 19l16 20q9 11 21 17q16 8 29 8q15 0 32 -10l28 -19q14 -10 29 4q6 6 11 12q7 10 16 4q2 -1 12.5 -7.5t15.5 -10.5z" />
    <glyph glyph-name="Adieresis" unicode="&#xc4;" horiz-adv-x="408" 
d="M392 27q2 -11 -5 -19t-18 -8h-93q-10 0 -18.5 6.5t-10.5 16.5l-7 85h-72l-7 -85q-7 -23 -30 -23h-93q-11 0 -17.5 8t-4.5 19l111 666q1 11 10.5 19t20.5 8h45h1h45q11 0 20.5 -8t11.5 -19zM178 215h52l-26 282zM267 852q18 0 31 -13t13 -31t-13 -31t-31 -13t-31 13
t-13 31t13 31t31 13zM141 852q18 0 31 -13t13 -31t-13 -31t-31 -13t-31 13t-13 31t13 31t31 13z" />
    <glyph glyph-name="Aring" unicode="&#xc5;" horiz-adv-x="408" 
d="M392 27q2 -11 -5 -19t-18 -8h-93q-10 0 -18.5 6.5t-10.5 16.5l-7 85h-72l-7 -85q-7 -23 -30 -23h-93q-11 0 -17.5 8t-4.5 19l111 666q1 11 10.5 19t20.5 8h45h1h45q11 0 20.5 -8t11.5 -19zM178 215h52l-26 282zM204 750q-32 0 -53 21q-22 22 -22 52q0 31 22 52.5t53 21.5
t53 -21.5t22 -52.5q0 -30 -22 -52q-21 -21 -53 -21zM204 852q-12 0 -20.5 -8.5t-8.5 -20.5q0 -11 9 -19.5t20 -8.5t19.5 8.5t8.5 19.5q0 12 -8.5 20.5t-19.5 8.5z" />
    <glyph glyph-name="AE" unicode="&#xc6;" horiz-adv-x="473" 
d="M353 406h47q11 0 19 -8t8 -19v-50q0 -11 -8 -19t-19 -8h-47v-177h80q11 0 19 -8t8 -19v-71q0 -11 -8 -19t-19 -8h-185q-11 0 -19 8t-8 19v81h-49l-8 -81q-2 -11 -10.5 -19t-19.5 -8h-94q-11 0 -18 8t-5 19l112 666q1 11 10.5 19t20.5 8h273q11 0 19 -8t8 -19v-66
q0 -11 -8 -19t-19 -8h-80v-194zM221 215v383l-38 -383h38z" />
    <glyph glyph-name="Ccedilla" unicode="&#xc7;" horiz-adv-x="368" 
d="M303 690q51 -49 51 -118v-119q0 -11 -8 -19t-19 -8h-88q-11 0 -19 8t-8 19v127q0 23 -25 23t-25 -23v-445q0 -23 25 -23t25 23v122q0 11 8 19t19 8h88q11 0 19 -8t8 -19v-114q0 -67 -51 -118q-31 -31 -87 -38l-26 -20l7 -3q17 -7 26 -16q18 -20 15 -45q-4 -29 -24 -43
q-19 -14 -57 -11q-13 1 -29 6q-14 3 -10 14l6 21q3 13 18 9q16 -4 27 -4q21 0 21 14q2 6 -3 9q-7 9 -37 9q-21 0 -23 8q-1 3 -2.5 6.5t-1.5 4.5q-3 8 7 19l23 23q-52 7 -82 37q-51 51 -51 118v429q0 69 51 118q39 39 116 39t116 -39z" />
    <glyph glyph-name="Egrave" unicode="&#xc8;" horiz-adv-x="321" 
d="M174 125h105q11 0 19 -8t8 -19v-71q0 -11 -8 -19t-19 -8h-225q-11 0 -19 8t-8 19v666q0 11 8 19t19 8h225q11 0 19 -8t8 -19v-66q0 -11 -8 -19t-19 -8h-105v-194h71q11 0 19 -8t8 -19v-50q0 -11 -8 -19t-19 -8h-71v-177zM69 868q-3 7 4 7h82q8 0 10 -8l23 -105
q2 -8 -6 -8h-38q-8 0 -12 7z" />
    <glyph glyph-name="Eacute" unicode="&#xc9;" horiz-adv-x="321" 
d="M174 125h105q11 0 19 -8t8 -19v-71q0 -11 -8 -19t-19 -8h-225q-11 0 -19 8t-8 19v666q0 11 8 19t19 8h225q11 0 19 -8t8 -19v-66q0 -11 -8 -19t-19 -8h-105v-194h71q11 0 19 -8t8 -19v-50q0 -11 -8 -19t-19 -8h-71v-177zM268 868l-64 -107q-4 -7 -12 -7h-38q-8 0 -6 8
l24 105q2 8 10 8h82q8 0 4 -7z" />
    <glyph glyph-name="Ecircumflex" unicode="&#xca;" horiz-adv-x="321" 
d="M174 125h105q11 0 19 -8t8 -19v-71q0 -11 -8 -19t-19 -8h-225q-11 0 -19 8t-8 19v666q0 11 8 19t19 8h225q11 0 19 -8t8 -19v-66q0 -11 -8 -19t-19 -8h-105v-194h71q11 0 19 -8t8 -19v-50q0 -11 -8 -19t-19 -8h-71v-177zM261 813q6 -6 1 -11l-33 -35q-6 -6 -11 -1l-46 37
q-6 6 -12 0l-47 -37q-5 -5 -11 1l-32 35q-5 5 1 11l89 68q6 6 12 0z" />
    <glyph glyph-name="Edieresis" unicode="&#xcb;" horiz-adv-x="321" 
d="M174 125h105q11 0 19 -8t8 -19v-71q0 -11 -8 -19t-19 -8h-225q-11 0 -19 8t-8 19v666q0 11 8 19t19 8h225q11 0 19 -8t8 -19v-66q0 -11 -8 -19t-19 -8h-105v-194h71q11 0 19 -8t8 -19v-50q0 -11 -8 -19t-19 -8h-71v-177zM229 852q18 0 31 -13t13 -31t-13 -31t-31 -13
t-31 13t-13 31t13 31t31 13zM103 852q18 0 31 -13t13 -31t-13 -31t-31 -13t-31 13t-13 31t13 31t31 13z" />
    <glyph glyph-name="Igrave" unicode="&#xcc;" horiz-adv-x="210" 
d="M175 27q0 -11 -8 -19t-19 -8h-88q-11 0 -19 8t-8 19v666q0 11 8 19t19 8h88q11 0 19 -8t8 -19v-666zM6 868q-4 7 4 7h82q8 0 10 -8l23 -105q2 -8 -6 -8h-38q-9 0 -12 7z" />
    <glyph glyph-name="Iacute" unicode="&#xcd;" horiz-adv-x="214" 
d="M177 27v666q0 11 -8 19t-19 8h-88q-11 0 -19 -8t-8 -19v-666q0 -11 8 -19t19 -8h88q11 0 19 8t8 19zM204 868l-64 -107q-4 -7 -12 -7h-38q-8 0 -6 8l24 105q2 8 10 8h82q8 0 4 -7z" />
    <glyph glyph-name="Icircumflex" unicode="&#xce;" horiz-adv-x="228" 
d="M185 27q0 -11 -8 -19t-19 -8h-88q-11 0 -19 8t-8 19v666q0 11 8 19t19 8h88q11 0 19 -8t8 -19v-666zM209 813q6 -6 1 -11l-33 -35q-6 -6 -11 -1l-46 37q-6 6 -12 0l-47 -37q-5 -5 -11 1l-32 35q-5 5 1 11l89 68q6 6 12 0z" />
    <glyph glyph-name="Idieresis" unicode="&#xcf;" horiz-adv-x="230" 
d="M186 27v666q0 11 -8 19t-19 8h-88q-11 0 -19 -8t-8 -19v-666q0 -11 8 -19t19 -8h88q11 0 19 8t8 19zM178 852q18 0 31 -13t13 -31t-13 -31t-31 -13t-31 13t-13 31t13 31t31 13zM52 852q18 0 31 -13t13 -31t-13 -31t-31 -13t-31 13t-13 31t13 31t31 13z" />
    <glyph glyph-name="Eth" unicode="&#xd0;" horiz-adv-x="392" 
d="M323 673q51 -51 51 -126v-374q0 -75 -51 -126q-49 -47 -117 -47h-140q-11 0 -19 8t-8 19v287h-6q-11 0 -19 8t-8 19v26q0 11 8 19t19 8h6v299q0 11 8 19t19 8h140q68 0 117 -47zM231 149v422q0 31 -25 31h-24v-208q9 0 16.5 -8t7.5 -19v-26q0 -11 -7.5 -19t-16.5 -8v-196
h24q25 0 25 31z" />
    <glyph glyph-name="Ntilde" unicode="&#xd1;" horiz-adv-x="396" 
d="M342 720q11 0 19 -8t8 -19v-666q0 -11 -8 -19t-19 -8h-75q-11 0 -21 7.5t-12 18.5l-82 364v-363q0 -11 -8 -19t-19 -8h-71q-11 0 -19 8t-8 19v666q0 11 8 19t19 8h79q11 0 20.5 -7.5t11.5 -18.5q73 -353 79 -379v378q0 11 8 19t19 8h71zM299 848q11 -7 4 -16l-20 -27
q-9 -12 -22 -18q-13 -7 -28 -7q-17 0 -32 9l-30 19q-13 10 -27 -3q-7 -7 -9 -10q-6 -7 -19 -1q-7 4 -25 17q-10 7 -2 19l16 20q9 11 21 17q16 8 29 8q15 0 32 -10l28 -19q14 -10 29 4q6 6 11 12q7 10 16 4q2 -1 12.5 -7.5t15.5 -10.5z" />
    <glyph glyph-name="Ograve" unicode="&#xd2;" horiz-adv-x="373" 
d="M304 690q51 -49 51 -117v-431q0 -68 -51 -117q-39 -39 -118 -39t-118 39q-50 50 -50 117v431q0 67 50 117q40 39 118 39t118 -39zM213 134v447q0 22 -27 22q-26 0 -26 -22v-447q0 -23 26 -23q27 0 27 23zM89 868q-3 7 4 7h82q8 0 10 -8l23 -105q2 -8 -6 -8h-38
q-8 0 -12 7z" />
    <glyph glyph-name="Oacute" unicode="&#xd3;" horiz-adv-x="373" 
d="M304 690q51 -49 51 -117v-431q0 -68 -51 -117q-39 -39 -118 -39t-118 39q-50 50 -50 117v431q0 67 50 117q40 39 118 39t118 -39zM213 134v447q0 22 -27 22q-26 0 -26 -22v-447q0 -23 26 -23q27 0 27 23zM288 868l-64 -107q-4 -7 -12 -7h-38q-8 0 -6 8l24 105q2 8 10 8
h82q8 0 4 -7z" />
    <glyph glyph-name="Ocircumflex" unicode="&#xd4;" horiz-adv-x="373" 
d="M304 690q51 -49 51 -117v-431q0 -68 -51 -117q-39 -39 -118 -39t-118 39q-50 50 -50 117v431q0 67 50 117q40 39 118 39t118 -39zM213 134v447q0 22 -27 22q-26 0 -26 -22v-447q0 -23 26 -23q27 0 27 23zM281 813q6 -6 1 -11l-33 -35q-6 -6 -11 -1l-46 37q-6 6 -12 0
l-47 -37q-5 -5 -11 1l-32 35q-5 5 1 11l89 68q6 6 12 0z" />
    <glyph glyph-name="Otilde" unicode="&#xd5;" horiz-adv-x="373" 
d="M304 690q51 -49 51 -117v-431q0 -68 -51 -117q-39 -39 -118 -39t-118 39q-50 50 -50 117v431q0 67 50 117q40 39 118 39t118 -39zM213 134v447q0 22 -27 22q-26 0 -26 -22v-447q0 -23 26 -23q27 0 27 23zM291 848q11 -7 4 -16l-20 -27q-9 -12 -22 -18q-13 -7 -28 -7
q-17 0 -32 9l-30 19q-13 10 -27 -3q-7 -7 -9 -10q-6 -7 -19 -1q-7 4 -25 17q-10 7 -2 19l16 20q9 11 21 17q16 8 29 8q15 0 32 -10l28 -19q14 -10 29 4q6 6 11 12q7 10 16 4q2 -1 12.5 -7.5t15.5 -10.5z" />
    <glyph glyph-name="Odieresis" unicode="&#xd6;" horiz-adv-x="373" 
d="M304 690q51 -49 51 -117v-431q0 -68 -51 -117q-39 -39 -118 -39t-118 39q-50 50 -50 117v431q0 67 50 117q40 39 118 39t118 -39zM213 134v447q0 22 -27 22q-26 0 -26 -22v-447q0 -23 26 -23q27 0 27 23zM249 852q18 0 31 -13t13 -31t-13 -31t-31 -13t-31 13t-13 31
t13 31t31 13zM123 852q18 0 31 -13t13 -31t-13 -31t-31 -13t-31 13t-13 31t13 31t31 13z" />
    <glyph glyph-name="multiply" unicode="&#xd7;" horiz-adv-x="271" 
d="M130 290l-6 -5l-49 -50q-5 -5 -11 0l-53 53q-5 6 0 11l50 49l5 6l-5 6l-50 49q-6 6 0 12l52 52q5 5 12 0l49 -50l6 -5l6 5l49 50q5 5 11 0l53 -53q5 -6 0 -11l-50 -49l-5 -6l5 -6l50 -49q5 -7 0 -12l-52 -52q-6 -6 -12 0l-49 50z" />
    <glyph glyph-name="Oslash" unicode="&#xd8;" horiz-adv-x="396" 
d="M385 703q6 -2 4 -10l-33 -70q8 -24 8 -50v-429q0 -68 -51 -117q-39 -40 -116 -40q-76 0 -116 40l-3 3l-17 -36q-3 -6 -10 -4l-40 19q-8 4 -4 11l33 69v1q-9 24 -9 54v429q0 67 50 117q40 39 116 39q77 0 116 -39l6 -6l16 35q2 7 10 3zM222 136v202l-49 -106v-96
q0 -23 24 -23q25 0 25 23zM222 481v99q0 23 -25 23q-24 0 -24 -23v-205z" />
    <glyph glyph-name="Ugrave" unicode="&#xd9;" 
d="M325 719q11 0 19 -8t8 -19v-546q0 -71 -50 -121q-40 -39 -117 -39q-78 0 -117 39q-50 50 -50 121v546q0 11 8 19t19 8h87q11 0 19 -8t8 -19v-558q0 -22 26 -22t26 22v558q0 11 8 19t19 8h87zM91 868q-3 7 4 7h82q8 0 10 -8l23 -105q2 -8 -6 -8h-38q-8 0 -12 7z" />
    <glyph glyph-name="Uacute" unicode="&#xda;" 
d="M325 719q11 0 19 -8t8 -19v-546q0 -71 -50 -121q-40 -39 -117 -39q-78 0 -117 39q-50 50 -50 121v546q0 11 8 19t19 8h87q11 0 19 -8t8 -19v-558q0 -22 26 -22t26 22v558q0 11 8 19t19 8h87zM282 868l-64 -107q-4 -7 -12 -7h-38q-8 0 -6 8l24 105q2 8 10 8h82q8 0 4 -7z
" />
    <glyph glyph-name="Ucircumflex" unicode="&#xdb;" 
d="M325 719q11 0 19 -8t8 -19v-546q0 -71 -50 -121q-40 -39 -117 -39q-78 0 -117 39q-50 50 -50 121v546q0 11 8 19t19 8h87q11 0 19 -8t8 -19v-558q0 -22 26 -22t26 22v558q0 11 8 19t19 8h87zM279 813q6 -6 1 -11l-33 -35q-6 -6 -11 -1l-46 37q-6 6 -12 0l-47 -37
q-5 -5 -11 1l-32 35q-5 5 1 11l89 68q6 6 12 0z" />
    <glyph glyph-name="Udieresis" unicode="&#xdc;" 
d="M325 719q11 0 19 -8t8 -19v-546q0 -71 -50 -121q-40 -39 -117 -39q-78 0 -117 39q-50 50 -50 121v546q0 11 8 19t19 8h87q11 0 19 -8t8 -19v-558q0 -22 26 -22t26 22v558q0 11 8 19t19 8h87zM247 852q18 0 31 -13t13 -31t-13 -31t-31 -13t-31 13t-13 31t13 31t31 13z
M121 852q18 0 31 -13t13 -31t-13 -31t-31 -13t-31 13t-13 31t13 31t31 13z" />
    <glyph glyph-name="Yacute" unicode="&#xdd;" horiz-adv-x="434" 
d="M286 298v-271q0 -11 -8 -19t-19 -8h-85q-11 0 -19 8t-8 19v273l-129 394q-3 11 2.5 18.5t16.5 7.5h86q11 0 21 -7.5t13 -18.5l60 -214l60 214q3 11 13 18.5t21 7.5h86q11 0 16.5 -7.5t2.5 -18.5zM315 868l-64 -107q-3 -7 -12 -7h-38q-8 0 -6 8l24 105q2 8 10 8h82
q7 0 4 -7z" />
    <glyph glyph-name="Thorn" unicode="&#xde;" horiz-adv-x="374" 
d="M312 537q50 -50 50 -126v-99q0 -74 -50 -126q-49 -47 -117 -47h-25v-112q0 -11 -8 -19t-19 -8h-89q-11 0 -19 8t-8 19v666q0 11 8 19t19 8h89q11 0 19 -8t8 -19v-109h25q68 0 117 -47zM219 288v147q0 31 -24 31h-25v-209h25q24 0 24 31z" />
    <glyph glyph-name="germandbls" unicode="&#xdf;" horiz-adv-x="398" 
d="M338 371q44 -49 44 -119v-79q0 -28 -7 -52q-13 -45 -43 -74q-49 -47 -123 -47h-1v118h1q12 0 18 3q12 7 12 28v151q0 21 -5.5 26t-28.5 5v70q19 0 22.5 4t3.5 26v149q0 30 -30 30h-1q-30 0 -30 -30v-552q0 -11 -8 -19t-19 -8h-89q-11 0 -19 8t-8 19v528q0 75 50 125
q48 48 123 48h1q75 0 123 -48q50 -50 50 -125v-77q0 -63 -36 -108z" />
    <glyph glyph-name="agrave" unicode="&#xe0;" horiz-adv-x="408" 
d="M248 0l-11 108h-66l-11 -108h-149l120 720h146l120 -720h-149zM227 215l-23 286l-23 -286h46zM106 868q-4 7 4 7h82q8 0 10 -8l23 -105q2 -8 -6 -8h-38q-9 0 -12 7z" />
    <glyph glyph-name="aacute" unicode="&#xe1;" horiz-adv-x="408" 
d="M248 0h149l-120 720h-146l-120 -720h149l11 108h66zM227 215h-46l23 286zM304 868l-64 -107q-4 -7 -12 -7h-38q-8 0 -6 8l24 105q2 8 10 8h82q8 0 4 -7z" />
    <glyph glyph-name="acircumflex" unicode="&#xe2;" horiz-adv-x="408" 
d="M248 0l-11 108h-66l-11 -108h-149l120 720h146l120 -720h-149zM227 215l-23 286l-23 -286h46zM299 813q6 -6 1 -11l-33 -35q-6 -6 -11 -1l-46 37q-6 6 -12 0l-47 -37q-5 -5 -11 1l-32 35q-5 5 1 11l89 68q6 6 12 0z" />
    <glyph glyph-name="atilde" unicode="&#xe3;" horiz-adv-x="408" 
d="M248 0h149l-120 720h-146l-120 -720h149l11 108h66zM227 215h-46l23 286zM309 848q11 -7 4 -16l-20 -27q-9 -12 -22 -18q-13 -7 -28 -7q-17 0 -32 9l-30 19q-13 10 -27 -3q-7 -7 -9 -10q-6 -7 -19 -1q-7 4 -25 17q-10 7 -2 19l16 20q9 11 21 17q16 8 29 8q15 0 32 -10
l28 -19q14 -10 29 4q6 6 11 12q7 10 16 4q2 -1 12.5 -7.5t15.5 -10.5z" />
    <glyph glyph-name="adieresis" unicode="&#xe4;" horiz-adv-x="408" 
d="M248 0h149l-120 720h-146l-120 -720h149l11 108h66zM227 215h-46l23 286zM267 852q18 0 31 -13t13 -31t-13 -31t-31 -13t-31 13t-13 31t13 31t31 13zM141 852q18 0 31 -13t13 -31t-13 -31t-31 -13t-31 13t-13 31t13 31t31 13z" />
    <glyph glyph-name="aring" unicode="&#xe5;" horiz-adv-x="408" 
d="M248 0l-11 108h-66l-11 -108h-149l120 720h146l120 -720h-149zM227 215l-23 286l-23 -286h46zM204 750q-32 0 -53 21q-22 22 -22 52q0 31 22 52.5t53 21.5t53 -21.5t22 -52.5q0 -30 -22 -52q-21 -21 -53 -21zM204 852q-12 0 -20.5 -8.5t-8.5 -20.5q0 -11 9 -19.5t20 -8.5
t19.5 8.5t8.5 19.5q0 12 -8.5 20.5t-19.5 8.5z" />
    <glyph glyph-name="ae" unicode="&#xe6;" horiz-adv-x="473" 
d="M353 406h47q11 0 19 -8t8 -19v-50q0 -11 -8 -19t-19 -8h-47v-177h80q11 0 19 -8t8 -19v-71q0 -11 -8 -19t-19 -8h-185q-11 0 -19 8t-8 19v81h-49l-8 -81q-2 -11 -10.5 -19t-19.5 -8h-94q-11 0 -18 8t-5 19l112 666q1 11 10.5 19t20.5 8h273q11 0 19 -8t8 -19v-66
q0 -11 -8 -19t-19 -8h-80v-194zM221 215v383l-38 -383h38z" />
    <glyph glyph-name="ccedilla" unicode="&#xe7;" horiz-adv-x="368" 
d="M303 690q51 -49 51 -118v-119q0 -11 -8 -19t-19 -8h-88q-11 0 -19 8t-8 19v127q0 23 -25 23t-25 -23v-445q0 -23 25 -23t25 23v122q0 11 8 19t19 8h88q11 0 19 -8t8 -19v-114q0 -67 -51 -118q-31 -31 -87 -38l-26 -20l7 -3q17 -7 26 -16q18 -20 15 -45q-4 -29 -24 -43
q-19 -14 -57 -11q-13 1 -29 6q-14 3 -10 14l6 21q3 13 18 9q16 -4 27 -4q21 0 21 14q2 6 -3 9q-7 9 -37 9q-21 0 -23 8q-1 3 -2.5 6.5t-1.5 4.5q-3 8 7 19l23 23q-52 7 -82 37q-51 51 -51 118v429q0 69 51 118q39 39 116 39t116 -39z" />
    <glyph glyph-name="egrave" unicode="&#xe8;" horiz-adv-x="321" 
d="M27 0v720h279v-120h-132v-194h98v-104h-98v-177h132v-125h-279zM69 868q-3 7 4 7h82q8 0 10 -8l23 -105q2 -8 -6 -8h-38q-8 0 -12 7z" />
    <glyph glyph-name="eacute" unicode="&#xe9;" horiz-adv-x="321" 
d="M27 0h279v125h-132v177h98v104h-98v194h132v120h-279v-720zM268 868l-64 -107q-4 -7 -12 -7h-38q-8 0 -6 8l24 105q2 8 10 8h82q8 0 4 -7z" />
    <glyph glyph-name="ecircumflex" unicode="&#xea;" horiz-adv-x="321" 
d="M27 0v720h279v-120h-132v-194h98v-104h-98v-177h132v-125h-279zM261 813q6 -6 1 -11l-33 -35q-6 -6 -11 -1l-46 37q-6 6 -12 0l-47 -37q-5 -5 -11 1l-32 35q-5 5 1 11l89 68q6 6 12 0z" />
    <glyph glyph-name="edieresis" unicode="&#xeb;" horiz-adv-x="321" 
d="M27 0h279v125h-132v177h98v104h-98v194h132v120h-279v-720zM229 852q18 0 31 -13t13 -31t-13 -31t-31 -13t-31 13t-13 31t13 31t31 13zM103 852q18 0 31 -13t13 -31t-13 -31t-31 -13t-31 13t-13 31t13 31t31 13z" />
    <glyph glyph-name="igrave" unicode="&#xec;" horiz-adv-x="210" 
d="M33 0v720h142v-720h-142zM6 868q-4 7 4 7h82q8 0 10 -8l23 -105q2 -8 -6 -8h-38q-9 0 -12 7z" />
    <glyph glyph-name="iacute" unicode="&#xed;" horiz-adv-x="214" 
d="M35 0h142v720h-142v-720zM204 868l-64 -107q-4 -7 -12 -7h-38q-8 0 -6 8l24 105q2 8 10 8h82q8 0 4 -7z" />
    <glyph glyph-name="icircumflex" unicode="&#xee;" horiz-adv-x="228" 
d="M43 0v720h142v-720h-142zM209 813q6 -6 1 -11l-33 -35q-6 -6 -11 -1l-46 37q-6 6 -12 0l-47 -37q-5 -5 -11 1l-32 35q-5 5 1 11l89 68q6 6 12 0z" />
    <glyph glyph-name="idieresis" unicode="&#xef;" horiz-adv-x="230" 
d="M44 0h142v720h-142v-720zM178 852q18 0 31 -13t13 -31t-13 -31t-31 -13t-31 13t-13 31t13 31t31 13zM52 852q18 0 31 -13t13 -31t-13 -31t-31 -13t-31 13t-13 31t13 31t31 13z" />
    <glyph glyph-name="eth" unicode="&#xf0;" horiz-adv-x="392" 
d="M323 673q51 -51 51 -126v-374q0 -75 -51 -126q-49 -47 -117 -47h-140q-11 0 -19 8t-8 19v287h-6q-11 0 -19 8t-8 19v26q0 11 8 19t19 8h6v299q0 11 8 19t19 8h140q68 0 117 -47zM231 149v422q0 31 -25 31h-24v-208q9 0 16.5 -8t7.5 -19v-26q0 -11 -7.5 -19t-16.5 -8v-196
h24q25 0 25 31z" />
    <glyph glyph-name="ntilde" unicode="&#xf1;" horiz-adv-x="396" 
d="M240 0h129v720h-125v-343l-84 343h-133v-720h125v352zM299 848q11 -7 4 -16l-20 -27q-9 -12 -22 -18q-13 -7 -28 -7q-17 0 -32 9l-30 19q-13 10 -27 -3q-7 -7 -9 -10q-6 -7 -19 -1q-7 4 -25 17q-10 7 -2 19l16 20q9 11 21 17q16 8 29 8q15 0 32 -10l28 -19q14 -10 29 4
q6 6 11 12q7 10 16 4q2 -1 12.5 -7.5t15.5 -10.5z" />
    <glyph glyph-name="ograve" unicode="&#xf2;" horiz-adv-x="373" 
d="M302 695q51 -49 51 -117v-436q0 -68 -51 -117q-39 -39 -116 -39t-116 39q-50 50 -50 117v436q0 67 50 117q40 39 116 39t116 -39zM211 134v452q0 22 -25 22q-24 0 -24 -22v-452q0 -23 24 -23q25 0 25 23zM89 868q-3 7 4 7h82q8 0 10 -8l23 -105q2 -8 -6 -8h-38
q-8 0 -12 7z" />
    <glyph glyph-name="oacute" unicode="&#xf3;" horiz-adv-x="373" 
d="M302 695q51 -49 51 -117v-436q0 -68 -51 -117q-39 -39 -116 -39t-116 39q-50 50 -50 117v436q0 67 50 117q40 39 116 39t116 -39zM211 134v452q0 22 -25 22q-24 0 -24 -22v-452q0 -23 24 -23q25 0 25 23zM288 868l-64 -107q-4 -7 -12 -7h-38q-8 0 -6 8l24 105q2 8 10 8
h82q8 0 4 -7z" />
    <glyph glyph-name="ocircumflex" unicode="&#xf4;" horiz-adv-x="373" 
d="M302 695q51 -49 51 -117v-436q0 -68 -51 -117q-39 -39 -116 -39t-116 39q-50 50 -50 117v436q0 67 50 117q40 39 116 39t116 -39zM211 134v452q0 22 -25 22q-24 0 -24 -22v-452q0 -23 24 -23q25 0 25 23zM281 813q6 -6 1 -11l-33 -35q-6 -6 -11 -1l-46 37q-6 6 -12 0
l-47 -37q-5 -5 -11 1l-32 35q-5 5 1 11l89 68q6 6 12 0z" />
    <glyph glyph-name="otilde" unicode="&#xf5;" horiz-adv-x="373" 
d="M302 695q51 -49 51 -117v-436q0 -68 -51 -117q-39 -39 -116 -39t-116 39q-50 50 -50 117v436q0 67 50 117q40 39 116 39t116 -39zM211 134v452q0 22 -25 22q-24 0 -24 -22v-452q0 -23 24 -23q25 0 25 23zM291 848q11 -7 4 -16l-20 -27q-9 -12 -22 -18q-13 -7 -28 -7
q-17 0 -32 9l-30 19q-13 10 -27 -3q-7 -7 -9 -10q-6 -7 -19 -1q-7 4 -25 17q-10 7 -2 19l16 20q9 11 21 17q16 8 29 8q15 0 32 -10l28 -19q14 -10 29 4q6 6 11 12q7 10 16 4q2 -1 12.5 -7.5t15.5 -10.5z" />
    <glyph glyph-name="odieresis" unicode="&#xf6;" horiz-adv-x="373" 
d="M302 695q51 -49 51 -117v-436q0 -68 -51 -117q-39 -39 -116 -39t-116 39q-50 50 -50 117v436q0 67 50 117q40 39 116 39t116 -39zM211 134v452q0 22 -25 22q-24 0 -24 -22v-452q0 -23 24 -23q25 0 25 23zM249 852q18 0 31 -13t13 -31t-13 -31t-31 -13t-31 13t-13 31
t13 31t31 13zM123 852q18 0 31 -13t13 -31t-13 -31t-31 -13t-31 13t-13 31t13 31t31 13z" />
    <glyph glyph-name="divide" unicode="&#xf7;" horiz-adv-x="248" 
d="M170 489q0 -19 -13.5 -32.5t-32.5 -13.5t-32.5 13.5t-13.5 32.5t13.5 32.5t32.5 13.5t32.5 -13.5t13.5 -32.5zM170 219q0 -19 -13.5 -32.5t-32.5 -13.5t-32.5 13.5t-13.5 32.5t13.5 32.5t32.5 13.5t32.5 -13.5t13.5 -32.5zM239 317q0 -8 -8 -8h-214q-8 0 -8 8v74q0 8 8 8
h214q8 0 8 -8v-74z" />
    <glyph glyph-name="oslash" unicode="&#xf8;" horiz-adv-x="402" 
d="M385 703q6 -2 4 -10l-33 -70q8 -24 8 -50v-429q0 -68 -51 -117q-39 -40 -116 -40q-76 0 -116 40l-3 3l-17 -36q-3 -6 -10 -4l-40 19q-8 4 -4 11l33 69v1q-9 24 -9 54v429q0 67 50 117q40 39 116 39q77 0 116 -39l6 -6l16 35q2 7 10 3zM222 136v202l-49 -106v-96
q0 -23 24 -23q25 0 25 23zM222 481v99q0 23 -25 23q-24 0 -24 -23v-205z" />
    <glyph glyph-name="ugrave" unicode="&#xf9;" 
d="M209 134v586h141v-578q0 -67 -50 -117q-40 -39 -115 -39q-76 0 -115 39q-50 50 -50 117v578h141v-586q0 -22 24 -22t24 22zM91 868q-3 7 4 7h82q8 0 10 -8l23 -105q2 -8 -6 -8h-38q-8 0 -12 7z" />
    <glyph glyph-name="uacute" unicode="&#xfa;" 
d="M209 134v586h141v-578q0 -67 -50 -117q-40 -39 -115 -39q-76 0 -115 39q-50 50 -50 117v578h141v-586q0 -22 24 -22t24 22zM282 868l-64 -107q-4 -7 -12 -7h-38q-8 0 -6 8l24 105q2 8 10 8h82q8 0 4 -7z" />
    <glyph glyph-name="ucircumflex" unicode="&#xfb;" 
d="M209 134v586h141v-578q0 -67 -50 -117q-40 -39 -115 -39q-76 0 -115 39q-50 50 -50 117v578h141v-586q0 -22 24 -22t24 22zM279 813q6 -6 1 -11l-33 -35q-6 -6 -11 -1l-46 37q-6 6 -12 0l-47 -37q-5 -5 -11 1l-32 35q-5 5 1 11l89 68q6 6 12 0z" />
    <glyph glyph-name="udieresis" unicode="&#xfc;" 
d="M209 134v586h141v-578q0 -67 -50 -117q-40 -39 -115 -39q-76 0 -115 39q-50 50 -50 117v578h141v-586q0 -22 24 -22t24 22zM247 852q18 0 31 -13t13 -31t-13 -31t-31 -13t-31 13t-13 31t13 31t31 13zM121 852q18 0 31 -13t13 -31t-13 -31t-31 -13t-31 13t-13 31t13 31
t31 13z" />
    <glyph glyph-name="yacute" unicode="&#xfd;" horiz-adv-x="434" 
d="M147 0h139v298l138 422h-140l-67 -240l-67 240h-140l137 -420v-300zM315 868l-64 -107q-3 -7 -12 -7h-38q-8 0 -6 8l24 105q2 8 10 8h82q7 0 4 -7z" />
    <glyph glyph-name="thorn" unicode="&#xfe;" horiz-adv-x="374" 
d="M312 537q50 -50 50 -126v-99q0 -74 -50 -126q-49 -47 -117 -47h-25v-112q0 -11 -8 -19t-19 -8h-89q-11 0 -19 8t-8 19v666q0 11 8 19t19 8h89q11 0 19 -8t8 -19v-109h25q68 0 117 -47zM219 288v147q0 31 -24 31h-25v-209h25q24 0 24 31z" />
    <glyph glyph-name="ydieresis" unicode="&#xff;" horiz-adv-x="434" 
d="M147 0h139v298l138 422h-140l-67 -240l-67 240h-140l137 -420v-300zM280 852q18 0 31 -13t13 -31t-13 -31t-31 -13t-31 13t-13 31t13 31t31 13zM154 852q18 0 31 -13t13 -31t-13 -31t-31 -13t-31 13t-13 31t13 31t31 13z" />
    <glyph glyph-name="Amacron" unicode="&#x100;" horiz-adv-x="408" 
d="M392 27q2 -11 -5 -19t-18 -8h-93q-10 0 -18.5 6.5t-10.5 16.5l-7 85h-72l-7 -85q-7 -23 -30 -23h-93q-11 0 -17.5 8t-4.5 19l111 666q1 11 10.5 19t20.5 8h45h1h45q11 0 20.5 -8t11.5 -19zM178 215h52l-26 282zM329 793q0 -8 -8 -8h-234q-8 0 -8 8v44q0 8 8 8h234
q8 0 8 -8v-44z" />
    <glyph glyph-name="amacron" unicode="&#x101;" horiz-adv-x="408" 
d="M392 27q2 -11 -5 -19t-18 -8h-93q-10 0 -18.5 6.5t-10.5 16.5l-7 85h-72l-7 -85q-7 -23 -30 -23h-93q-11 0 -17.5 8t-4.5 19l111 666q1 11 10.5 19t20.5 8h45h1h45q11 0 20.5 -8t11.5 -19zM178 215h52l-26 282zM329 793q0 -8 -8 -8h-234q-8 0 -8 8v44q0 8 8 8h234
q8 0 8 -8v-44z" />
    <glyph glyph-name="Abreve" unicode="&#x102;" horiz-adv-x="408" 
d="M392 27q2 -11 -5 -19t-18 -8h-93q-10 0 -18.5 6.5t-10.5 16.5l-7 85h-72l-7 -85q-7 -23 -30 -23h-93q-11 0 -17.5 8t-4.5 19l111 666q1 11 10.5 19t20.5 8h45h1h45q11 0 20.5 -8t11.5 -19zM178 215h52l-26 282zM243 823h24q7 0 9.5 -3.5t1.5 -6.5q-3 -24 -21 -42
q-21 -21 -53 -21t-53 21q-18 18 -21 43q-3 9 8 9h28q7 0 10 -6q5 -22 28 -22q20 0 27 20q0 8 12 8z" />
    <glyph glyph-name="abreve" unicode="&#x103;" horiz-adv-x="408" 
d="M392 27q2 -11 -5 -19t-18 -8h-93q-10 0 -18.5 6.5t-10.5 16.5l-7 85h-72l-7 -85q-7 -23 -30 -23h-93q-11 0 -17.5 8t-4.5 19l111 666q1 11 10.5 19t20.5 8h45h1h45q11 0 20.5 -8t11.5 -19zM178 215h52l-26 282zM243 823h24q7 0 9.5 -3.5t1.5 -6.5q-3 -24 -21 -42
q-21 -21 -53 -21t-53 21q-18 18 -21 43q-3 9 8 9h28q7 0 10 -6q5 -22 28 -22q20 0 27 20q0 8 12 8z" />
    <glyph glyph-name="Aogonek" unicode="&#x104;" horiz-adv-x="408" 
d="M395 -109q1 -9 -4 -13.5t-16 -4.5q-34 0 -64 16q-45 26 -51 70q-4 20 3 44q-13 7 -16 20l-7 85h-72l-7 -85q-7 -23 -30 -23h-93q-11 0 -17.5 8t-4.5 19l111 666q1 11 10.5 19t20.5 8h45h1h45q11 0 20.5 -8t11.5 -19l111 -666q2 -11 -5 -19t-18 -8h-2q-15 -5 -22 -13
q-7 -10 -6 -15q2 -16 32 -19q15 -1 17 -14q5 -27 7 -48zM178 215h52l-26 282z" />
    <glyph glyph-name="aogonek" unicode="&#x105;" horiz-adv-x="408" 
d="M395 -109q1 -9 -4 -13.5t-16 -4.5q-34 0 -64 16q-45 26 -51 70q-4 20 3 44q-13 7 -16 20l-7 85h-72l-7 -85q-7 -23 -30 -23h-93q-11 0 -17.5 8t-4.5 19l111 666q1 11 10.5 19t20.5 8h45h1h45q11 0 20.5 -8t11.5 -19l111 -666q2 -11 -5 -19t-18 -8h-2q-15 -5 -22 -13
q-7 -10 -6 -15q2 -16 32 -19q15 -1 17 -14q5 -27 7 -48zM178 215h52l-26 282z" />
    <glyph glyph-name="Cacute" unicode="&#x106;" 
d="M303 690q51 -49 51 -118v-119q0 -11 -8 -19t-19 -8h-88q-11 0 -19 8t-8 19v127q0 23 -25 23t-25 -23v-445q0 -23 25 -23t25 23v122q0 11 8 19t19 8h88q11 0 19 -8t8 -19v-114q0 -67 -51 -118q-39 -39 -116 -39t-116 39q-51 51 -51 118v429q0 69 51 118q39 39 116 39
t116 -39zM284 868l-64 -107q-4 -7 -12 -7h-38q-8 0 -6 8l24 105q2 8 10 8h82q8 0 4 -7z" />
    <glyph glyph-name="cacute" unicode="&#x107;" 
d="M303 690q51 -49 51 -118v-119q0 -11 -8 -19t-19 -8h-88q-11 0 -19 8t-8 19v127q0 23 -25 23t-25 -23v-445q0 -23 25 -23t25 23v122q0 11 8 19t19 8h88q11 0 19 -8t8 -19v-114q0 -67 -51 -118q-39 -39 -116 -39t-116 39q-51 51 -51 118v429q0 69 51 118q39 39 116 39
t116 -39zM244 868l-64 -107q-4 -7 -12 -7h-38q-8 0 -6 8l24 105q2 8 10 8h82q8 0 4 -7z" />
    <glyph glyph-name="Ccircumflex" unicode="&#x108;" 
d="M303 690q51 -49 51 -118v-119q0 -11 -8 -19t-19 -8h-88q-11 0 -19 8t-8 19v127q0 23 -25 23t-25 -23v-445q0 -23 25 -23t25 23v122q0 11 8 19t19 8h88q11 0 19 -8t8 -19v-114q0 -67 -51 -118q-39 -39 -116 -39t-116 39q-51 51 -51 118v429q0 69 51 118q39 39 116 39
t116 -39zM280 813q6 -6 1 -11l-33 -35q-6 -6 -11 -1l-46 37q-6 6 -12 0l-47 -37q-5 -5 -11 1l-32 35q-5 5 1 11l89 68q6 6 12 0z" />
    <glyph glyph-name="ccircumflex" unicode="&#x109;" 
d="M303 690q51 -49 51 -118v-119q0 -11 -8 -19t-19 -8h-88q-11 0 -19 8t-8 19v127q0 23 -25 23t-25 -23v-445q0 -23 25 -23t25 23v122q0 11 8 19t19 8h88q11 0 19 -8t8 -19v-114q0 -67 -51 -118q-39 -39 -116 -39t-116 39q-51 51 -51 118v429q0 69 51 118q39 39 116 39
t116 -39zM280 813q6 -6 1 -11l-33 -35q-6 -6 -11 -1l-46 37q-6 6 -12 0l-47 -37q-5 -5 -11 1l-32 35q-5 5 1 11l89 68q6 6 12 0z" />
    <glyph glyph-name="Cdotaccent" unicode="&#x10a;" 
d="M303 690q51 -49 51 -118v-119q0 -11 -8 -19t-19 -8h-88q-11 0 -19 8t-8 19v127q0 23 -25 23t-25 -23v-445q0 -23 25 -23t25 23v122q0 11 8 19t19 8h88q11 0 19 -8t8 -19v-114q0 -67 -51 -118q-39 -39 -116 -39t-116 39q-51 51 -51 118v429q0 69 51 118q39 39 116 39
t116 -39zM185 837q17 0 29 -12.5t12 -29.5t-12 -29t-29 -12t-29.5 12t-12.5 29t12.5 29.5t29.5 12.5z" />
    <glyph glyph-name="cdotaccent" unicode="&#x10b;" 
d="M303 690q51 -49 51 -118v-119q0 -11 -8 -19t-19 -8h-88q-11 0 -19 8t-8 19v127q0 23 -25 23t-25 -23v-445q0 -23 25 -23t25 23v122q0 11 8 19t19 8h88q11 0 19 -8t8 -19v-114q0 -67 -51 -118q-39 -39 -116 -39t-116 39q-51 51 -51 118v429q0 69 51 118q39 39 116 39
t116 -39zM185 837q17 0 29 -12.5t12 -29.5t-12 -29t-29 -12t-29.5 12t-12.5 29t12.5 29.5t29.5 12.5z" />
    <glyph glyph-name="Ccaron" unicode="&#x10c;" 
d="M303 690q51 -49 51 -118v-119q0 -11 -8 -19t-19 -8h-88q-11 0 -19 8t-8 19v127q0 23 -25 23t-25 -23v-445q0 -23 25 -23t25 23v122q0 11 8 19t19 8h88q11 0 19 -8t8 -19v-114q0 -67 -51 -118q-39 -39 -116 -39t-116 39q-51 51 -51 118v429q0 69 51 118q39 39 116 39
t116 -39zM90 834q-6 6 -1 11l33 35q6 6 11 1l46 -37q6 -6 12 0l47 37q5 5 11 -1l32 -35q5 -5 -1 -11l-89 -68q-6 -6 -12 0z" />
    <glyph glyph-name="ccaron" unicode="&#x10d;" 
d="M303 690q51 -49 51 -118v-119q0 -11 -8 -19t-19 -8h-88q-11 0 -19 8t-8 19v127q0 23 -25 23t-25 -23v-445q0 -23 25 -23t25 23v122q0 11 8 19t19 8h88q11 0 19 -8t8 -19v-114q0 -67 -51 -118q-39 -39 -116 -39t-116 39q-51 51 -51 118v429q0 69 51 118q39 39 116 39
t116 -39zM90 834q-6 6 -1 11l33 35q6 6 11 1l46 -37q6 -6 12 0l47 37q5 5 11 -1l32 -35q5 -5 -1 -11l-89 -68q-6 -6 -12 0z" />
    <glyph glyph-name="Dcaron" unicode="&#x10e;" horiz-adv-x="380" 
d="M311 673q51 -51 51 -126v-374q0 -75 -51 -126q-49 -47 -117 -47h-140q-11 0 -19 8t-8 19v666q0 11 8 19t19 8h140q68 0 117 -47zM219 149v422q0 31 -25 31h-24v-484h24q25 0 25 31zM95 834q-6 6 -1 11l33 35q6 6 11 1l46 -37q6 -6 12 0l47 37q5 5 11 -1l32 -35
q5 -5 -1 -11l-89 -68q-6 -6 -12 0z" />
    <glyph glyph-name="dcaron" unicode="&#x10f;" horiz-adv-x="380" 
d="M311 673q51 -51 51 -126v-374q0 -75 -51 -126q-49 -47 -117 -47h-140q-11 0 -19 8t-8 19v666q0 11 8 19t19 8h140q68 0 117 -47zM219 149v422q0 31 -25 31h-24v-484h24q25 0 25 31zM95 834q-6 6 -1 11l33 35q6 6 11 1l46 -37q6 -6 12 0l47 37q5 5 11 -1l32 -35
q5 -5 -1 -11l-89 -68q-6 -6 -12 0z" />
    <glyph glyph-name="Emacron" unicode="&#x112;" horiz-adv-x="321" 
d="M174 125h105q11 0 19 -8t8 -19v-71q0 -11 -8 -19t-19 -8h-225q-11 0 -19 8t-8 19v666q0 11 8 19t19 8h225q11 0 19 -8t8 -19v-66q0 -11 -8 -19t-19 -8h-105v-194h71q11 0 19 -8t8 -19v-50q0 -11 -8 -19t-19 -8h-71v-177zM285 793q0 -8 -8 -8h-234q-8 0 -8 8v44q0 8 8 8
h234q8 0 8 -8v-44z" />
    <glyph glyph-name="emacron" unicode="&#x113;" horiz-adv-x="321" 
d="M174 125h105q11 0 19 -8t8 -19v-71q0 -11 -8 -19t-19 -8h-225q-11 0 -19 8t-8 19v666q0 11 8 19t19 8h225q11 0 19 -8t8 -19v-66q0 -11 -8 -19t-19 -8h-105v-194h71q11 0 19 -8t8 -19v-50q0 -11 -8 -19t-19 -8h-71v-177zM285 793q0 -8 -8 -8h-234q-8 0 -8 8v44q0 8 8 8
h234q8 0 8 -8v-44z" />
    <glyph glyph-name="Ebreve" unicode="&#x114;" horiz-adv-x="321" 
d="M174 125h105q11 0 19 -8t8 -19v-71q0 -11 -8 -19t-19 -8h-225q-11 0 -19 8t-8 19v666q0 11 8 19t19 8h225q11 0 19 -8t8 -19v-66q0 -11 -8 -19t-19 -8h-105v-194h71q11 0 19 -8t8 -19v-50q0 -11 -8 -19t-19 -8h-71v-177zM199 823h24q7 0 9.5 -3.5t1.5 -6.5
q-3 -24 -21 -42q-21 -21 -53 -21t-53 21q-18 18 -21 43q-3 9 8 9h28q7 0 10 -6q5 -22 28 -22q20 0 27 20q0 8 12 8z" />
    <glyph glyph-name="ebreve" unicode="&#x115;" horiz-adv-x="321" 
d="M174 125h105q11 0 19 -8t8 -19v-71q0 -11 -8 -19t-19 -8h-225q-11 0 -19 8t-8 19v666q0 11 8 19t19 8h225q11 0 19 -8t8 -19v-66q0 -11 -8 -19t-19 -8h-105v-194h71q11 0 19 -8t8 -19v-50q0 -11 -8 -19t-19 -8h-71v-177zM199 823h24q7 0 9.5 -3.5t1.5 -6.5
q-3 -24 -21 -42q-21 -21 -53 -21t-53 21q-18 18 -21 43q-3 9 8 9h28q7 0 10 -6q5 -22 28 -22q20 0 27 20q0 8 12 8z" />
    <glyph glyph-name="Edotaccent" unicode="&#x116;" horiz-adv-x="321" 
d="M174 125h105q11 0 19 -8t8 -19v-71q0 -11 -8 -19t-19 -8h-225q-11 0 -19 8t-8 19v666q0 11 8 19t19 8h225q11 0 19 -8t8 -19v-66q0 -11 -8 -19t-19 -8h-105v-194h71q11 0 19 -8t8 -19v-50q0 -11 -8 -19t-19 -8h-71v-177zM161 837q17 0 29 -12.5t12 -29.5t-12 -29t-29 -12
t-29.5 12t-12.5 29t12.5 29.5t29.5 12.5z" />
    <glyph glyph-name="edotaccent" unicode="&#x117;" horiz-adv-x="321" 
d="M174 125h105q11 0 19 -8t8 -19v-71q0 -11 -8 -19t-19 -8h-225q-11 0 -19 8t-8 19v666q0 11 8 19t19 8h225q11 0 19 -8t8 -19v-66q0 -11 -8 -19t-19 -8h-105v-194h71q11 0 19 -8t8 -19v-50q0 -11 -8 -19t-19 -8h-71v-177zM161 837q17 0 29 -12.5t12 -29.5t-12 -29t-29 -12
t-29.5 12t-12.5 29t12.5 29.5t29.5 12.5z" />
    <glyph glyph-name="Eogonek" unicode="&#x118;" horiz-adv-x="321" 
d="M279 600h-105v-194h71q11 0 19 -8t8 -19v-50q0 -11 -8 -19t-19 -8h-71v-177h105q11 0 19 -8t8 -19v-71q0 -23 -23 -27q-20 -5 -30 -15q-7 -10 -6 -15q2 -16 32 -19q15 -1 17 -14q5 -27 7 -48q1 -9 -4 -13.5t-16 -4.5q-34 0 -64 16q-45 26 -51 70q-5 22 3 43h-117
q-11 0 -19 8t-8 19v666q0 11 8 19t19 8h225q11 0 19 -8t8 -19v-66q0 -11 -8 -19t-19 -8z" />
    <glyph glyph-name="eogonek" unicode="&#x119;" horiz-adv-x="321" 
d="M279 600h-105v-194h71q11 0 19 -8t8 -19v-50q0 -11 -8 -19t-19 -8h-71v-177h105q11 0 19 -8t8 -19v-71q0 -23 -23 -27q-20 -5 -30 -15q-7 -10 -6 -15q2 -16 32 -19q15 -1 17 -14q5 -27 7 -48q1 -9 -4 -13.5t-16 -4.5q-34 0 -64 16q-45 26 -51 70q-5 22 3 43h-117
q-11 0 -19 8t-8 19v666q0 11 8 19t19 8h225q11 0 19 -8t8 -19v-66q0 -11 -8 -19t-19 -8z" />
    <glyph glyph-name="Ecaron" unicode="&#x11a;" horiz-adv-x="321" 
d="M174 125h105q11 0 19 -8t8 -19v-71q0 -11 -8 -19t-19 -8h-225q-11 0 -19 8t-8 19v666q0 11 8 19t19 8h225q11 0 19 -8t8 -19v-66q0 -11 -8 -19t-19 -8h-105v-194h71q11 0 19 -8t8 -19v-50q0 -11 -8 -19t-19 -8h-71v-177zM65 834q-6 6 -1 11l33 35q6 6 11 1l46 -37
q6 -6 12 0l47 37q5 5 11 -1l32 -35q5 -5 -1 -11l-89 -68q-6 -6 -12 0z" />
    <glyph glyph-name="ecaron" unicode="&#x11b;" horiz-adv-x="321" 
d="M174 125h105q11 0 19 -8t8 -19v-71q0 -11 -8 -19t-19 -8h-225q-11 0 -19 8t-8 19v666q0 11 8 19t19 8h225q11 0 19 -8t8 -19v-66q0 -11 -8 -19t-19 -8h-105v-194h71q11 0 19 -8t8 -19v-50q0 -11 -8 -19t-19 -8h-71v-177zM65 834q-6 6 -1 11l33 35q6 6 11 1l46 -37
q6 -6 12 0l47 37q5 5 11 -1l32 -35q5 -5 -1 -11l-89 -68q-6 -6 -12 0z" />
    <glyph glyph-name="Gcircumflex" unicode="&#x11c;" horiz-adv-x="372" 
d="M303 690q51 -49 51 -118v-120q0 -11 -8 -19t-19 -8h-88q-11 0 -19 8t-8 19v128q0 23 -25 23t-25 -23v-445q0 -23 27 -23q23 0 27 23v132q-13 0 -21 8t-8 19v25q0 11 8 19t19 8h113q11 0 19 -8t8 -19v-319h-40q0 1 -0.5 2.5t-1 6t-1 8.5t-1.5 8t-2 6l-1 2
q-25 -25 -50.5 -36t-69.5 -11q-77 0 -116 39q-51 51 -51 118v429q0 69 51 118q39 39 116 39t116 -39zM281 813q6 -6 1 -11l-33 -35q-6 -6 -11 -1l-46 37q-6 6 -12 0l-47 -37q-5 -5 -11 1l-32 35q-5 5 1 11l89 68q6 6 12 0z" />
    <glyph glyph-name="gcircumflex" unicode="&#x11d;" horiz-adv-x="372" 
d="M303 690q51 -49 51 -118v-120q0 -11 -8 -19t-19 -8h-88q-11 0 -19 8t-8 19v128q0 23 -25 23t-25 -23v-445q0 -23 27 -23q23 0 27 23v132q-13 0 -21 8t-8 19v25q0 11 8 19t19 8h113q11 0 19 -8t8 -19v-319h-40q0 1 -0.5 2.5t-1 6t-1 8.5t-1.5 8t-2 6l-1 2
q-25 -25 -50.5 -36t-69.5 -11q-77 0 -116 39q-51 51 -51 118v429q0 69 51 118q39 39 116 39t116 -39zM281 813q6 -6 1 -11l-33 -35q-6 -6 -11 -1l-46 37q-6 6 -12 0l-47 -37q-5 -5 -11 1l-32 35q-5 5 1 11l89 68q6 6 12 0z" />
    <glyph glyph-name="Gbreve" unicode="&#x11e;" horiz-adv-x="372" 
d="M303 690q51 -49 51 -118v-120q0 -11 -8 -19t-19 -8h-88q-11 0 -19 8t-8 19v128q0 23 -25 23t-25 -23v-445q0 -23 27 -23q23 0 27 23v132q-13 0 -21 8t-8 19v25q0 11 8 19t19 8h113q11 0 19 -8t8 -19v-319h-40q0 1 -0.5 2.5t-1 6t-1 8.5t-1.5 8t-2 6l-1 2
q-25 -25 -50.5 -36t-69.5 -11q-77 0 -116 39q-51 51 -51 118v429q0 69 51 118q39 39 116 39t116 -39zM225 823h24q7 0 9.5 -3.5t1.5 -6.5q-3 -24 -21 -42q-21 -21 -53 -21t-53 21q-18 18 -21 43q-3 9 8 9h28q7 0 10 -6q5 -22 28 -22q20 0 27 20q0 8 12 8z" />
    <glyph glyph-name="gbreve" unicode="&#x11f;" horiz-adv-x="372" 
d="M303 690q51 -49 51 -118v-120q0 -11 -8 -19t-19 -8h-88q-11 0 -19 8t-8 19v128q0 23 -25 23t-25 -23v-445q0 -23 27 -23q23 0 27 23v132q-13 0 -21 8t-8 19v25q0 11 8 19t19 8h113q11 0 19 -8t8 -19v-319h-40q0 1 -0.5 2.5t-1 6t-1 8.5t-1.5 8t-2 6l-1 2
q-25 -25 -50.5 -36t-69.5 -11q-77 0 -116 39q-51 51 -51 118v429q0 69 51 118q39 39 116 39t116 -39zM225 823h24q7 0 9.5 -3.5t1.5 -6.5q-3 -24 -21 -42q-21 -21 -53 -21t-53 21q-18 18 -21 43q-3 9 8 9h28q7 0 10 -6q5 -22 28 -22q20 0 27 20q0 8 12 8z" />
    <glyph glyph-name="Gdotaccent" unicode="&#x120;" horiz-adv-x="372" 
d="M303 690q51 -49 51 -118v-120q0 -11 -8 -19t-19 -8h-88q-11 0 -19 8t-8 19v128q0 23 -25 23t-25 -23v-445q0 -23 27 -23q23 0 27 23v132q-13 0 -21 8t-8 19v25q0 11 8 19t19 8h113q11 0 19 -8t8 -19v-319h-40q0 1 -0.5 2.5t-1 6t-1 8.5t-1.5 8t-2 6l-1 2
q-25 -25 -50.5 -36t-69.5 -11q-77 0 -116 39q-51 51 -51 118v429q0 69 51 118q39 39 116 39t116 -39zM186 837q17 0 29 -12.5t12 -29.5t-12.5 -29t-28.5 -12q-17 0 -29.5 12t-12.5 29t12.5 29.5t29.5 12.5z" />
    <glyph glyph-name="gdotaccent" unicode="&#x121;" horiz-adv-x="372" 
d="M303 690q51 -49 51 -118v-120q0 -11 -8 -19t-19 -8h-88q-11 0 -19 8t-8 19v128q0 23 -25 23t-25 -23v-445q0 -23 27 -23q23 0 27 23v132q-13 0 -21 8t-8 19v25q0 11 8 19t19 8h113q11 0 19 -8t8 -19v-319h-40q0 1 -0.5 2.5t-1 6t-1 8.5t-1.5 8t-2 6l-1 2
q-25 -25 -50.5 -36t-69.5 -11q-77 0 -116 39q-51 51 -51 118v429q0 69 51 118q39 39 116 39t116 -39zM186 837q17 0 29 -12.5t12 -29.5t-12.5 -29t-28.5 -12q-17 0 -29.5 12t-12.5 29t12.5 29.5t29.5 12.5z" />
    <glyph glyph-name="Hcircumflex" unicode="&#x124;" horiz-adv-x="400" 
d="M346 720q11 0 19 -8t8 -19v-666q0 -11 -8 -19t-19 -8h-93q-11 0 -19 8t-8 19v275h-52v-275q0 -11 -8 -19t-19 -8h-93q-11 0 -19 8t-8 19v666q0 11 8 19t19 8h93q11 0 19 -8t8 -19v-287h52v287q0 11 8 19t19 8h93zM295 813q6 -6 1 -11l-33 -35q-6 -6 -11 -1l-46 37
q-6 6 -12 0l-47 -37q-5 -5 -11 1l-32 35q-5 5 1 11l89 68q6 6 12 0z" />
    <glyph glyph-name="hcircumflex" unicode="&#x125;" horiz-adv-x="400" 
d="M346 720q11 0 19 -8t8 -19v-666q0 -11 -8 -19t-19 -8h-93q-11 0 -19 8t-8 19v275h-52v-275q0 -11 -8 -19t-19 -8h-93q-11 0 -19 8t-8 19v666q0 11 8 19t19 8h93q11 0 19 -8t8 -19v-287h52v287q0 11 8 19t19 8h93zM295 813q6 -6 1 -11l-33 -35q-6 -6 -11 -1l-46 37
q-6 6 -12 0l-47 -37q-5 -5 -11 1l-32 35q-5 5 1 11l89 68q6 6 12 0z" />
    <glyph glyph-name="Itilde" unicode="&#x128;" horiz-adv-x="212" 
d="M177 27v666q0 11 -8 19t-19 8h-88q-11 0 -19 -8t-8 -19v-666q0 -11 8 -19t19 -8h88q11 0 19 8t8 19zM210 851q11 -7 4 -16l-20 -27q-9 -12 -22 -18q-13 -7 -28 -7q-17 0 -32 9l-30 19q-13 10 -27 -3q-7 -7 -9 -10q-6 -7 -19 -1q-7 3 -25 17q-10 7 -2 19l16 20q9 11 21 17
q16 8 29 8q15 0 32 -10l28 -19q14 -10 29 4q6 6 11 12q7 10 16 4q2 -1 12.5 -7.5t15.5 -10.5z" />
    <glyph glyph-name="itilde" unicode="&#x129;" horiz-adv-x="212" 
d="M51 720h110q16 0 16 -16v-688q0 -16 -16 -16h-110q-16 0 -16 16v688q0 16 16 16zM210 848q11 -7 4 -16l-20 -27q-9 -12 -22 -18q-13 -7 -28 -7q-17 0 -32 9l-30 19q-13 10 -27 -3q-7 -7 -9 -10q-6 -7 -19 -1q-7 4 -25 17q-10 7 -2 19l16 20q9 11 21 17q16 8 29 8
q15 0 32 -10l28 -19q14 -10 29 4q6 6 11 12q7 10 16 4q2 -1 12.5 -7.5t15.5 -10.5z" />
    <glyph glyph-name="imacron" unicode="&#x12b;" horiz-adv-x="212" 
d="M51 720h110q16 0 16 -16v-688q0 -16 -16 -16h-110q-16 0 -16 16v688q0 16 16 16zM231 793q0 -8 -8 -8h-234q-8 0 -8 8v44q0 8 8 8h234q8 0 8 -8v-44z" />
    <glyph glyph-name="Ibreve" unicode="&#x12c;" horiz-adv-x="212" 
d="M177 27q0 -11 -8 -19t-19 -8h-88q-11 0 -19 8t-8 19v666q0 11 8 19t19 8h88q11 0 19 -8t8 -19v-666zM145 823h24q7 0 9.5 -3.5t1.5 -6.5q-3 -24 -21 -42q-21 -21 -53 -21t-53 21q-18 18 -21 43q-3 9 8 9h28q7 0 10 -6q5 -22 28 -22q20 0 27 20q0 8 12 8z" />
    <glyph glyph-name="dotlessi" unicode="&#x131;" horiz-adv-x="212" 
d="M51 720h110q16 0 16 -16v-688q0 -16 -16 -16h-110q-16 0 -16 16v688q0 16 16 16z" />
    <glyph glyph-name="Jcircumflex" unicode="&#x134;" horiz-adv-x="377" 
d="M323 719q11 0 19 -8t8 -19v-549q0 -67 -51 -118q-39 -39 -116 -39t-116 39q-51 51 -51 118v113q0 11 8 19t19 8h88q11 0 19 -8t8 -19v-121q0 -23 25 -23t25 23v557q0 11 8 19t19 8h88zM373 813q6 -6 1 -11l-33 -35q-6 -6 -11 -1l-46 37q-6 6 -12 0l-47 -37q-5 -5 -11 1
l-32 35q-5 5 1 11l89 68q6 6 12 0z" />
    <glyph glyph-name="jcircumflex" unicode="&#x135;" horiz-adv-x="377" 
d="M323 719q11 0 19 -8t8 -19v-549q0 -67 -51 -118q-39 -39 -116 -39t-116 39q-51 51 -51 118v113q0 11 8 19t19 8h88q11 0 19 -8t8 -19v-121q0 -23 25 -23t25 23v557q0 11 8 19t19 8h88zM373 813q6 -6 1 -11l-33 -35q-6 -6 -11 -1l-46 37q-6 6 -12 0l-47 -37q-5 -5 -11 1
l-32 35q-5 5 1 11l89 68q6 6 12 0z" />
    <glyph glyph-name="Lslash" unicode="&#x141;" horiz-adv-x="377" 
d="M340 129q11 0 19 -8t8 -19v-75q0 -11 -8 -19t-19 -8h-225q-11 0 -19 8t-8 19v152l-56 -39q-9 -7 -15.5 -3.5t-6.5 14.5v41q0 26 22 43l56 39v419q0 11 8 19t19 8h93q11 0 19 -8t8 -19v-325l73 56q8 7 14.5 4t6.5 -14v-41q0 -27 -21 -44l-73 -56v-144h105z" />
    <glyph glyph-name="lslash" unicode="&#x142;" horiz-adv-x="377" 
d="M340 129q11 0 19 -8t8 -19v-75q0 -11 -8 -19t-19 -8h-225q-11 0 -19 8t-8 19v152l-56 -39q-9 -7 -15.5 -3.5t-6.5 14.5v41q0 26 22 43l56 39v419q0 11 8 19t19 8h93q11 0 19 -8t8 -19v-325l73 56q8 7 14.5 4t6.5 -14v-41q0 -27 -21 -44l-73 -56v-144h105z" />
    <glyph glyph-name="Nacute" unicode="&#x143;" horiz-adv-x="396" 
d="M342 720q11 0 19 -8t8 -19v-666q0 -11 -8 -19t-19 -8h-75q-11 0 -21 7.5t-12 18.5l-82 364v-363q0 -11 -8 -19t-19 -8h-71q-11 0 -19 8t-8 19v666q0 11 8 19t19 8h79q11 0 20.5 -7.5t11.5 -18.5q73 -353 79 -379v378q0 11 8 19t19 8h71zM301 868l-64 -107q-3 -7 -12 -7
h-38q-8 0 -6 8l24 105q2 8 10 8h82q7 0 4 -7z" />
    <glyph glyph-name="nacute" unicode="&#x144;" horiz-adv-x="396" 
d="M342 720q11 0 19 -8t8 -19v-666q0 -11 -8 -19t-19 -8h-75q-11 0 -21 7.5t-12 18.5l-82 364v-363q0 -11 -8 -19t-19 -8h-71q-11 0 -19 8t-8 19v666q0 11 8 19t19 8h79q11 0 20.5 -7.5t11.5 -18.5q73 -353 79 -379v378q0 11 8 19t19 8h71zM299 868l-64 -107q-3 -7 -12 -7
h-38q-8 0 -6 8l24 105q2 8 10 8h82q7 0 4 -7z" />
    <glyph glyph-name="Ncaron" unicode="&#x147;" horiz-adv-x="396" 
d="M342 720q11 0 19 -8t8 -19v-666q0 -11 -8 -19t-19 -8h-75q-11 0 -21 7.5t-12 18.5l-82 364v-363q0 -11 -8 -19t-19 -8h-71q-11 0 -19 8t-8 19v666q0 11 8 19t19 8h79q11 0 20.5 -7.5t11.5 -18.5q73 -353 79 -379v378q0 11 8 19t19 8h71zM103 834q-6 6 -1 11l33 35
q6 6 11 1l46 -37q6 -6 12 0l47 37q5 5 11 -1l32 -35q5 -5 -1 -11l-89 -68q-6 -6 -12 0z" />
    <glyph glyph-name="ncaron" unicode="&#x148;" horiz-adv-x="396" 
d="M342 720q11 0 19 -8t8 -19v-666q0 -11 -8 -19t-19 -8h-75q-11 0 -21 7.5t-12 18.5l-82 364v-363q0 -11 -8 -19t-19 -8h-71q-11 0 -19 8t-8 19v666q0 11 8 19t19 8h79q11 0 20.5 -7.5t11.5 -18.5q73 -353 79 -379v378q0 11 8 19t19 8h71zM103 834q-6 6 -1 11l33 35
q6 6 11 1l46 -37q6 -6 12 0l47 37q5 5 11 -1l32 -35q5 -5 -1 -11l-89 -68q-6 -6 -12 0z" />
    <glyph glyph-name="Omacron" unicode="&#x14c;" horiz-adv-x="373" 
d="M304 690q51 -49 51 -117v-431q0 -68 -51 -117q-39 -39 -118 -39t-118 39q-50 50 -50 117v431q0 67 50 117q40 39 118 39t118 -39zM213 134v447q0 22 -27 22q-26 0 -26 -22v-447q0 -23 26 -23q27 0 27 23zM311 793q0 -8 -8 -8h-234q-8 0 -8 8v44q0 8 8 8h234q8 0 8 -8v-44
z" />
    <glyph glyph-name="omacron" unicode="&#x14d;" horiz-adv-x="373" 
d="M304 690q51 -49 51 -117v-431q0 -68 -51 -117q-39 -39 -118 -39t-118 39q-50 50 -50 117v431q0 67 50 117q40 39 118 39t118 -39zM213 134v447q0 22 -27 22q-26 0 -26 -22v-447q0 -23 26 -23q27 0 27 23zM311 793q0 -8 -8 -8h-234q-8 0 -8 8v44q0 8 8 8h234q8 0 8 -8v-44
z" />
    <glyph glyph-name="Obreve" unicode="&#x14e;" horiz-adv-x="373" 
d="M304 690q51 -49 51 -117v-431q0 -68 -51 -117q-39 -39 -118 -39t-118 39q-50 50 -50 117v431q0 67 50 117q40 39 118 39t118 -39zM213 134v447q0 22 -27 22q-26 0 -26 -22v-447q0 -23 26 -23q27 0 27 23zM225 823h24q7 0 9.5 -3.5t1.5 -6.5q-3 -24 -21 -42
q-21 -21 -53 -21t-53 21q-18 18 -21 43q-3 9 8 9h28q7 0 10 -6q5 -22 28 -22q20 0 27 20q0 8 12 8z" />
    <glyph glyph-name="obreve" unicode="&#x14f;" horiz-adv-x="373" 
d="M304 690q51 -49 51 -117v-431q0 -68 -51 -117q-39 -39 -118 -39t-118 39q-50 50 -50 117v431q0 67 50 117q40 39 118 39t118 -39zM213 134v447q0 22 -27 22q-26 0 -26 -22v-447q0 -23 26 -23q27 0 27 23zM225 823h24q7 0 9.5 -3.5t1.5 -6.5q-3 -24 -21 -42
q-21 -21 -53 -21t-53 21q-18 18 -21 43q-3 9 8 9h28q7 0 10 -6q5 -22 28 -22q20 0 27 20q0 8 12 8z" />
    <glyph glyph-name="Ohungarumlaut" unicode="&#x150;" horiz-adv-x="374" 
d="M304 690q51 -49 51 -117v-431q0 -68 -51 -117q-39 -39 -118 -39t-118 39q-50 50 -50 117v431q0 67 50 117q40 39 118 39t118 -39zM213 134v447q0 22 -27 22q-26 0 -26 -22v-447q0 -23 26 -23q27 0 27 23zM352 878l-71 -107q-3 -7 -12 -7h-44q-8 0 -6 8l35 105q3 8 11 8
h83q8 0 4 -7zM236 878l-71 -107q-3 -7 -12 -7h-44q-8 0 -6 8l35 105q3 8 11 8h83q8 0 4 -7z" />
    <glyph glyph-name="ohungarumlaut" unicode="&#x151;" horiz-adv-x="374" 
d="M304 690q51 -49 51 -117v-431q0 -68 -51 -117q-39 -39 -118 -39t-118 39q-50 50 -50 117v431q0 67 50 117q40 39 118 39t118 -39zM213 134v447q0 22 -27 22q-26 0 -26 -22v-447q0 -23 26 -23q27 0 27 23zM352 877l-71 -107q-3 -7 -12 -7h-44q-8 0 -6 8l35 105q3 8 11 8
h83q8 0 4 -7zM236 877l-71 -107q-3 -7 -12 -7h-44q-8 0 -6 8l35 105q3 8 11 8h83q8 0 4 -7z" />
    <glyph glyph-name="OE" unicode="&#x152;" horiz-adv-x="447" 
d="M324 600v-194h47q11 0 19 -8t8 -19v-50q0 -11 -8 -19t-19 -8h-47v-177h81q11 0 19 -8t8 -19v-71q0 -11 -8 -19t-19 -8h-115h-3h-90v1q-93 0 -131 37q-48 48 -48 117v411q0 69 48 117q38 37 132 37h89h3h115q11 0 19 -8t8 -19v-66q0 -11 -8 -19t-19 -8h-81zM197 126v469
q-13 0 -20.5 -1t-15 -8t-7.5 -20v-411q0 -13 7.5 -20t14.5 -8t21 -1z" />
    <glyph glyph-name="oe" unicode="&#x153;" horiz-adv-x="447" 
d="M324 600v-194h47q11 0 19 -8t8 -19v-50q0 -11 -8 -19t-19 -8h-47v-177h81q11 0 19 -8t8 -19v-71q0 -11 -8 -19t-19 -8h-115h-3h-90v1q-93 0 -131 37q-48 48 -48 117v411q0 69 48 117q38 37 132 37h89h3h115q11 0 19 -8t8 -19v-66q0 -11 -8 -19t-19 -8h-81zM197 126v469
q-13 0 -20.5 -1t-15 -8t-7.5 -20v-411q0 -13 7.5 -20t14.5 -8t21 -1z" />
    <glyph glyph-name="Racute" unicode="&#x154;" horiz-adv-x="383" 
d="M361 38q0 -5 2 -13.5t2 -13t-6 -8t-20 -3.5h-108q-12 0 -12 36v217q0 30 -25 30h-25v-233v-23q0 -11 -8 -19t-19 -8h-88q-11 0 -19 8t-8 19v666q0 11 8 19t19 8h140q69 0 117 -48q50 -50 50 -125v-92q0 -60 -50 -117q50 -39 50 -117v-183zM219 431v140q0 31 -25 31h-25
v-201h25q25 0 25 30zM274 868l-64 -107q-4 -7 -12 -7h-38q-8 0 -6 8l24 105q2 8 10 8h82q8 0 4 -7z" />
    <glyph glyph-name="racute" unicode="&#x155;" horiz-adv-x="383" 
d="M361 38q0 -5 2 -13.5t2 -13t-6 -8t-20 -3.5h-108q-12 0 -12 36v217q0 30 -25 30h-25v-233v-23q0 -11 -8 -19t-19 -8h-88q-11 0 -19 8t-8 19v666q0 11 8 19t19 8h140q69 0 117 -48q50 -50 50 -125v-92q0 -60 -50 -117q50 -39 50 -117v-183zM219 431v140q0 31 -25 31h-25
v-201h25q25 0 25 30zM274 868l-64 -107q-4 -7 -12 -7h-38q-8 0 -6 8l24 105q2 8 10 8h82q8 0 4 -7z" />
    <glyph glyph-name="Rcaron" unicode="&#x158;" horiz-adv-x="383" 
d="M361 38q0 -5 2 -13.5t2 -13t-6 -8t-20 -3.5h-108q-12 0 -12 36v217q0 30 -25 30h-25v-233v-23q0 -11 -8 -19t-19 -8h-88q-11 0 -19 8t-8 19v666q0 11 8 19t19 8h140q69 0 117 -48q50 -50 50 -125v-92q0 -60 -50 -117q50 -39 50 -117v-183zM219 431v140q0 31 -25 31h-25
v-201h25q25 0 25 30zM96 834q-6 6 -1 11l33 35q6 6 11 1l46 -37q6 -6 12 0l47 37q5 5 11 -1l32 -35q5 -5 -1 -11l-89 -68q-6 -6 -12 0z" />
    <glyph glyph-name="rcaron" unicode="&#x159;" horiz-adv-x="383" 
d="M361 38q0 -5 2 -13.5t2 -13t-6 -8t-20 -3.5h-108q-12 0 -12 36v217q0 30 -25 30h-25v-233v-23q0 -11 -8 -19t-19 -8h-88q-11 0 -19 8t-8 19v666q0 11 8 19t19 8h140q69 0 117 -48q50 -50 50 -125v-92q0 -60 -50 -117q50 -39 50 -117v-183zM219 431v140q0 31 -25 31h-25
v-201h25q25 0 25 30zM96 834q-6 6 -1 11l33 35q6 6 11 1l46 -37q6 -6 12 0l47 37q5 5 11 -1l32 -35q5 -5 -1 -11l-89 -68q-6 -6 -12 0z" />
    <glyph glyph-name="Sacute" unicode="&#x15a;" horiz-adv-x="367" 
d="M311 341q23 -23 30.5 -47t7.5 -67v-84q0 -67 -51 -117q-40 -40 -117 -40q-72 0 -112 40q-51 50 -51 117v88q0 11 8 19t19 8h84q11 0 19 -8t8 -19v-95q0 -22 25 -22q24 0 24 22v88q0 8 -1 14t-2 9.5t-6 9.5t-7.5 8.5t-12 11.5t-14.5 14l-104 94q-40 40 -40 97v90
q0 68 51 118q40 39 113 39q72 0 112 -39q51 -50 51 -118v-77q0 -11 -8 -19t-19 -8h-86q-11 0 -19 8t-8 19v84q0 23 -21 23q-22 0 -22 -22v-84q0 -12 4 -21.5t8 -14t14.5 -13.5t16.5 -15zM278 868l-64 -107q-4 -7 -12 -7h-38q-8 0 -6 8l24 105q2 8 10 8h82q8 0 4 -7z" />
    <glyph glyph-name="sacute" unicode="&#x15b;" horiz-adv-x="367" 
d="M311 341q23 -23 30.5 -47t7.5 -67v-84q0 -67 -51 -117q-40 -40 -117 -40q-72 0 -112 40q-51 50 -51 117v88q0 11 8 19t19 8h84q11 0 19 -8t8 -19v-95q0 -22 25 -22q24 0 24 22v88q0 8 -1 14t-2 9.5t-6 9.5t-7.5 8.5t-12 11.5t-14.5 14l-104 94q-40 40 -40 97v90
q0 68 51 118q40 39 113 39q72 0 112 -39q51 -50 51 -118v-77q0 -11 -8 -19t-19 -8h-86q-11 0 -19 8t-8 19v84q0 23 -21 23q-22 0 -22 -22v-84q0 -12 4 -21.5t8 -14t14.5 -13.5t16.5 -15zM282 868l-64 -107q-4 -7 -12 -7h-38q-8 0 -6 8l24 105q2 8 10 8h82q8 0 4 -7z" />
    <glyph glyph-name="Scircumflex" unicode="&#x15c;" horiz-adv-x="367" 
d="M311 341q23 -23 30.5 -47t7.5 -67v-84q0 -67 -51 -117q-40 -40 -117 -40q-72 0 -112 40q-51 50 -51 117v88q0 11 8 19t19 8h84q11 0 19 -8t8 -19v-95q0 -22 25 -22q24 0 24 22v88q0 8 -1 14t-2 9.5t-6 9.5t-7.5 8.5t-12 11.5t-14.5 14l-104 94q-40 40 -40 97v90
q0 68 51 118q40 39 113 39q72 0 112 -39q51 -50 51 -118v-77q0 -11 -8 -19t-19 -8h-86q-11 0 -19 8t-8 19v84q0 23 -21 23q-22 0 -22 -22v-84q0 -12 4 -21.5t8 -14t14.5 -13.5t16.5 -15zM278 813q6 -6 1 -11l-33 -35q-6 -6 -11 -1l-46 37q-6 6 -12 0l-47 -37q-5 -5 -11 1
l-32 35q-5 5 1 11l89 68q6 6 12 0z" />
    <glyph glyph-name="scircumflex" unicode="&#x15d;" horiz-adv-x="367" 
d="M311 341q23 -23 30.5 -47t7.5 -67v-84q0 -67 -51 -117q-40 -40 -117 -40q-72 0 -112 40q-51 50 -51 117v88q0 11 8 19t19 8h84q11 0 19 -8t8 -19v-95q0 -22 25 -22q24 0 24 22v88q0 8 -1 14t-2 9.5t-6 9.5t-7.5 8.5t-12 11.5t-14.5 14l-104 94q-40 40 -40 97v90
q0 68 51 118q40 39 113 39q72 0 112 -39q51 -50 51 -118v-77q0 -11 -8 -19t-19 -8h-86q-11 0 -19 8t-8 19v84q0 23 -21 23q-22 0 -22 -22v-84q0 -12 4 -21.5t8 -14t14.5 -13.5t16.5 -15zM278 813q6 -6 1 -11l-33 -35q-6 -6 -11 -1l-46 37q-6 6 -12 0l-47 -37q-5 -5 -11 1
l-32 35q-5 5 1 11l89 68q6 6 12 0z" />
    <glyph glyph-name="Scaron" unicode="&#x160;" horiz-adv-x="358" 
d="M306 341q23 -23 30.5 -47t7.5 -67v-84q0 -67 -51 -117q-40 -40 -117 -40q-72 0 -112 40q-51 50 -51 117v88q0 11 8 19t19 8h84q11 0 19 -8t8 -19v-95q0 -22 25 -22q24 0 24 22v88q0 8 -1 14t-2 9.5t-6 9.5t-7.5 8.5t-12 11.5t-14.5 14l-104 94q-40 40 -40 97v90
q0 68 51 118q40 39 113 39q72 0 112 -39q51 -50 51 -118v-77q0 -11 -8 -19t-19 -8h-86q-11 0 -19 8t-8 19v84q0 23 -21 23q-22 0 -22 -22v-84q0 -12 4 -21.5t8 -14t14.5 -13.5t16.5 -15zM86 834q-6 6 -1 11l33 35q6 6 11 1l46 -37q6 -6 12 0l47 37q5 5 11 -1l32 -35
q5 -5 -1 -11l-89 -68q-6 -6 -12 0z" />
    <glyph glyph-name="scaron" unicode="&#x161;" horiz-adv-x="358" 
d="M306 341q23 -23 30.5 -47t7.5 -67v-84q0 -67 -51 -117q-40 -40 -117 -40q-72 0 -112 40q-51 50 -51 117v88q0 11 8 19t19 8h84q11 0 19 -8t8 -19v-95q0 -22 25 -22q24 0 24 22v88q0 8 -1 14t-2 9.5t-6 9.5t-7.5 8.5t-12 11.5t-14.5 14l-104 94q-40 40 -40 97v90
q0 68 51 118q40 39 113 39q72 0 112 -39q51 -50 51 -118v-77q0 -11 -8 -19t-19 -8h-86q-11 0 -19 8t-8 19v84q0 23 -21 23q-22 0 -22 -22v-84q0 -12 4 -21.5t8 -14t14.5 -13.5t16.5 -15zM86 834q-6 6 -1 11l33 35q6 6 11 1l46 -37q6 -6 12 0l47 37q5 5 11 -1l32 -35
q5 -5 -1 -11l-89 -68q-6 -6 -12 0z" />
    <glyph glyph-name="Tcaron" unicode="&#x164;" horiz-adv-x="356" 
d="M250 600v-573q0 -11 -8 -19t-19 -8h-90q-11 0 -19 8t-8 19v573h-68q-11 0 -19 8t-8 19v66q0 11 8 19t19 8h280q11 0 19 -8t8 -19v-66q0 -11 -8 -19t-19 -8h-68zM83 834q-6 6 -1 11l33 35q6 6 11 1l46 -37q6 -6 12 0l47 37q5 5 11 -1l32 -35q5 -5 -1 -11l-89 -68
q-6 -6 -12 0z" />
    <glyph glyph-name="tcaron" unicode="&#x165;" horiz-adv-x="356" 
d="M250 600v-573q0 -11 -8 -19t-19 -8h-90q-11 0 -19 8t-8 19v573h-68q-11 0 -19 8t-8 19v66q0 11 8 19t19 8h280q11 0 19 -8t8 -19v-66q0 -11 -8 -19t-19 -8h-68zM83 834q-6 6 -1 11l33 35q6 6 11 1l46 -37q6 -6 12 0l47 37q5 5 11 -1l32 -35q5 -5 -1 -11l-89 -68
q-6 -6 -12 0z" />
    <glyph glyph-name="Utilde" unicode="&#x168;" 
d="M325 719q11 0 19 -8t8 -19v-546q0 -71 -50 -121q-40 -39 -117 -39q-78 0 -117 39q-50 50 -50 121v546q0 11 8 19t19 8h87q11 0 19 -8t8 -19v-558q0 -22 26 -22t26 22v558q0 11 8 19t19 8h87zM289 849q11 -7 4 -16l-20 -27q-9 -12 -22 -18q-13 -7 -28 -7q-17 0 -32 9
l-30 19q-13 10 -27 -3q-7 -7 -9 -10q-6 -7 -19 -1q-7 4 -25 17q-10 7 -2 19l16 20q9 11 21 17q16 8 29 8q15 0 32 -10l28 -19q14 -10 29 4q6 6 11 12q7 10 16 4q2 -1 12.5 -7.5t15.5 -10.5z" />
    <glyph glyph-name="utilde" unicode="&#x169;" 
d="M325 719q11 0 19 -8t8 -19v-546q0 -71 -50 -121q-40 -39 -117 -39q-78 0 -117 39q-50 50 -50 121v546q0 11 8 19t19 8h87q11 0 19 -8t8 -19v-558q0 -22 26 -22t26 22v558q0 11 8 19t19 8h87zM289 848q11 -7 4 -16l-20 -27q-9 -12 -22 -18q-13 -7 -28 -7q-17 0 -32 9
l-30 19q-13 10 -27 -3q-7 -7 -9 -10q-6 -7 -19 -1q-7 4 -25 17q-10 7 -2 19l16 20q9 11 21 17q16 8 29 8q15 0 32 -10l28 -19q14 -10 29 4q6 6 11 12q7 10 16 4q2 -1 12.5 -7.5t15.5 -10.5z" />
    <glyph glyph-name="Umacron" unicode="&#x16a;" 
d="M325 719q11 0 19 -8t8 -19v-546q0 -71 -50 -121q-40 -39 -117 -39q-78 0 -117 39q-50 50 -50 121v546q0 11 8 19t19 8h87q11 0 19 -8t8 -19v-558q0 -22 26 -22t26 22v558q0 11 8 19t19 8h87zM310 793q0 -8 -8 -8h-234q-8 0 -8 8v44q0 8 8 8h234q8 0 8 -8v-44z" />
    <glyph glyph-name="umacron" unicode="&#x16b;" 
d="M325 719q11 0 19 -8t8 -19v-546q0 -71 -50 -121q-40 -39 -117 -39q-78 0 -117 39q-50 50 -50 121v546q0 11 8 19t19 8h87q11 0 19 -8t8 -19v-558q0 -22 26 -22t26 22v558q0 11 8 19t19 8h87zM310 793q0 -8 -8 -8h-234q-8 0 -8 8v44q0 8 8 8h234q8 0 8 -8v-44z" />
    <glyph glyph-name="Ubreve" unicode="&#x16c;" 
d="M325 719q11 0 19 -8t8 -19v-546q0 -71 -50 -121q-40 -39 -117 -39q-78 0 -117 39q-50 50 -50 121v546q0 11 8 19t19 8h87q11 0 19 -8t8 -19v-558q0 -22 26 -22t26 22v558q0 11 8 19t19 8h87zM224 823h24q7 0 9.5 -3.5t1.5 -6.5q-3 -24 -21 -42q-21 -21 -53 -21t-53 21
q-18 18 -21 43q-3 9 8 9h28q7 0 10 -6q5 -22 28 -22q20 0 27 20q0 8 12 8z" />
    <glyph glyph-name="ubreve" unicode="&#x16d;" 
d="M325 719q11 0 19 -8t8 -19v-546q0 -71 -50 -121q-40 -39 -117 -39q-78 0 -117 39q-50 50 -50 121v546q0 11 8 19t19 8h87q11 0 19 -8t8 -19v-558q0 -22 26 -22t26 22v558q0 11 8 19t19 8h87zM224 823h24q7 0 9.5 -3.5t1.5 -6.5q-3 -24 -21 -42q-21 -21 -53 -21t-53 21
q-18 18 -21 43q-3 9 8 9h28q7 0 10 -6q5 -22 28 -22q20 0 27 20q0 8 12 8z" />
    <glyph glyph-name="Uring" unicode="&#x16e;" 
d="M325 719q11 0 19 -8t8 -19v-546q0 -71 -50 -121q-40 -39 -117 -39q-78 0 -117 39q-50 50 -50 121v546q0 11 8 19t19 8h87q11 0 19 -8t8 -19v-558q0 -22 26 -22t26 22v558q0 11 8 19t19 8h87zM185 750q-32 0 -53 21q-22 22 -22 52q0 31 22 52.5t53 21.5t53 -21.5t22 -52.5
q0 -30 -22 -52q-21 -21 -53 -21zM185 852q-12 0 -20.5 -8.5t-8.5 -20.5q0 -11 9 -19.5t20 -8.5t19.5 8.5t8.5 19.5q0 12 -8.5 20.5t-19.5 8.5z" />
    <glyph glyph-name="uring" unicode="&#x16f;" 
d="M325 719q11 0 19 -8t8 -19v-546q0 -71 -50 -121q-40 -39 -117 -39q-78 0 -117 39q-50 50 -50 121v546q0 11 8 19t19 8h87q11 0 19 -8t8 -19v-558q0 -22 26 -22t26 22v558q0 11 8 19t19 8h87zM185 750q-32 0 -53 21q-22 22 -22 52q0 31 22 52.5t53 21.5t53 -21.5t22 -52.5
q0 -30 -22 -52q-21 -21 -53 -21zM185 852q-12 0 -20.5 -8.5t-8.5 -20.5q0 -11 9 -19.5t20 -8.5t19.5 8.5t8.5 19.5q0 12 -8.5 20.5t-19.5 8.5z" />
    <glyph glyph-name="Uhungarumlaut" unicode="&#x170;" 
d="M325 719q11 0 19 -8t8 -19v-546q0 -71 -50 -121q-40 -39 -117 -39q-78 0 -117 39q-50 50 -50 121v546q0 11 8 19t19 8h87q11 0 19 -8t8 -19v-558q0 -22 26 -22t26 22v558q0 11 8 19t19 8h87zM350 878l-71 -107q-3 -7 -12 -7h-44q-8 0 -6 8l35 105q3 8 11 8h83q8 0 4 -7z
M234 878l-71 -107q-3 -7 -12 -7h-44q-8 0 -6 8l35 105q3 8 11 8h83q8 0 4 -7z" />
    <glyph glyph-name="uhungarumlaut" unicode="&#x171;" 
d="M325 719q11 0 19 -8t8 -19v-546q0 -71 -50 -121q-40 -39 -117 -39q-78 0 -117 39q-50 50 -50 121v546q0 11 8 19t19 8h87q11 0 19 -8t8 -19v-558q0 -22 26 -22t26 22v558q0 11 8 19t19 8h87zM350 877l-71 -107q-3 -7 -12 -7h-44q-8 0 -6 8l35 105q3 8 11 8h83q8 0 4 -7z
M234 877l-71 -107q-3 -7 -12 -7h-44q-8 0 -6 8l35 105q3 8 11 8h83q8 0 4 -7z" />
    <glyph glyph-name="Uogonek" unicode="&#x172;" 
d="M325 719q11 0 19 -8t8 -19v-546q0 -71 -50 -121q-28 -26 -67 -34q-3 -2 -7 -6q-7 -10 -6 -15q2 -16 32 -19q15 -1 17 -14q5 -27 7 -48q1 -9 -4 -13.5t-16 -4.5q-34 0 -64 16q-45 26 -51 70q-3 17 0 32q-47 8 -75 36q-50 50 -50 121v546q0 11 8 19t19 8h87q11 0 19 -8
t8 -19v-558q0 -22 26 -22t26 22v558q0 11 8 19t19 8h87z" />
    <glyph glyph-name="uogonek" unicode="&#x173;" 
d="M325 719q11 0 19 -8t8 -19v-546q0 -71 -50 -121q-28 -26 -67 -34q-3 -2 -7 -6q-7 -10 -6 -15q2 -16 32 -19q15 -1 17 -14q5 -27 7 -48q1 -9 -4 -13.5t-16 -4.5q-34 0 -64 16q-45 26 -51 70q-3 17 0 32q-47 8 -75 36q-50 50 -50 121v546q0 11 8 19t19 8h87q11 0 19 -8
t8 -19v-558q0 -22 26 -22t26 22v558q0 11 8 19t19 8h87z" />
    <glyph glyph-name="Wcircumflex" unicode="&#x174;" horiz-adv-x="597" 
d="M558 720q11 0 18 -8t5 -19l-102 -666q-1 -11 -10.5 -19t-20.5 -8h-76q-11 0 -20.5 8t-10.5 19l-42 312q-4 -27 -43 -312q-1 -11 -10.5 -19t-20.5 -8h-76q-11 0 -20.5 8t-10.5 19l-102 666q-2 11 5 19t18 8h77q11 0 19.5 -8t10.5 -19q40 -403 43 -430l45 430q2 11 10.5 19
t19.5 8h69q11 0 19.5 -8t10.5 -19l45 -430q3 27 43 430q2 11 10.5 19t19.5 8h77zM393 813q6 -6 1 -11l-33 -35q-6 -6 -11 -1l-46 37q-6 6 -12 0l-47 -37q-5 -5 -11 1l-32 35q-5 5 1 11l89 68q6 6 12 0z" />
    <glyph glyph-name="wcircumflex" unicode="&#x175;" horiz-adv-x="597" 
d="M558 720q11 0 18 -8t5 -19l-102 -666q-1 -11 -10.5 -19t-20.5 -8h-76q-11 0 -20.5 8t-10.5 19l-42 312q-4 -27 -43 -312q-1 -11 -10.5 -19t-20.5 -8h-76q-11 0 -20.5 8t-10.5 19l-102 666q-2 11 5 19t18 8h77q11 0 19.5 -8t10.5 -19q40 -403 43 -430l45 430q2 11 10.5 19
t19.5 8h69q11 0 19.5 -8t10.5 -19l45 -430q3 27 43 430q2 11 10.5 19t19.5 8h77zM393 813q6 -6 1 -11l-33 -35q-6 -6 -11 -1l-46 37q-6 6 -12 0l-47 -37q-5 -5 -11 1l-32 35q-5 5 1 11l89 68q6 6 12 0z" />
    <glyph glyph-name="Ycircumflex" unicode="&#x176;" horiz-adv-x="434" 
d="M286 298v-271q0 -11 -8 -19t-19 -8h-85q-11 0 -19 8t-8 19v273l-129 394q-3 11 2.5 18.5t16.5 7.5h86q11 0 21 -7.5t13 -18.5l60 -214l60 214q3 11 13 18.5t21 7.5h86q11 0 16.5 -7.5t2.5 -18.5zM312 813q6 -6 1 -11l-33 -35q-6 -6 -11 -1l-46 37q-6 6 -12 0l-47 -37
q-5 -5 -11 1l-32 35q-5 5 1 11l89 68q6 6 12 0z" />
    <glyph glyph-name="ycircumflex" unicode="&#x177;" horiz-adv-x="434" 
d="M286 298v-271q0 -11 -8 -19t-19 -8h-85q-11 0 -19 8t-8 19v273l-129 394q-3 11 2.5 18.5t16.5 7.5h86q11 0 21 -7.5t13 -18.5l60 -214l60 214q3 11 13 18.5t21 7.5h86q11 0 16.5 -7.5t2.5 -18.5zM312 813q6 -6 1 -11l-33 -35q-6 -6 -11 -1l-46 37q-6 6 -12 0l-47 -37
q-5 -5 -11 1l-32 35q-5 5 1 11l89 68q6 6 12 0z" />
    <glyph glyph-name="Ydieresis" unicode="&#x178;" horiz-adv-x="434" 
d="M286 298v-271q0 -11 -8 -19t-19 -8h-85q-11 0 -19 8t-8 19v273l-129 394q-3 11 2.5 18.5t16.5 7.5h86q11 0 21 -7.5t13 -18.5l60 -214l60 214q3 11 13 18.5t21 7.5h86q11 0 16.5 -7.5t2.5 -18.5zM280 852q18 0 31 -13t13 -31t-13 -31t-31 -13t-31 13t-13 31t13 31t31 13z
M154 852q18 0 31 -13t13 -31t-13 -31t-31 -13t-31 13t-13 31t13 31t31 13z" />
    <glyph glyph-name="Zacute" unicode="&#x179;" horiz-adv-x="342" 
d="M300 131q11 0 19 -8t8 -19v-77q0 -11 -8 -19t-19 -8h-258q-11 0 -19 8t-8 19v67l145 488h-112q-11 0 -19 8t-8 19v84q0 11 8 19t19 8h250q11 0 19 -8t8 -19v-64l-152 -498h127zM274 868l-64 -107q-4 -7 -12 -7h-38q-8 0 -6 8l24 105q2 8 10 8h82q8 0 4 -7z" />
    <glyph glyph-name="zacute" unicode="&#x17a;" horiz-adv-x="342" 
d="M300 131q11 0 19 -8t8 -19v-77q0 -11 -8 -19t-19 -8h-258q-11 0 -19 8t-8 19v67l145 488h-112q-11 0 -19 8t-8 19v84q0 11 8 19t19 8h250q11 0 19 -8t8 -19v-64l-152 -498h127zM274 868l-64 -107q-4 -7 -12 -7h-38q-8 0 -6 8l24 105q2 8 10 8h82q8 0 4 -7z" />
    <glyph glyph-name="Zdotaccent" unicode="&#x17b;" horiz-adv-x="342" 
d="M300 131q11 0 19 -8t8 -19v-77q0 -11 -8 -19t-19 -8h-258q-11 0 -19 8t-8 19v67l145 488h-112q-11 0 -19 8t-8 19v84q0 11 8 19t19 8h250q11 0 19 -8t8 -19v-64l-152 -498h127zM171 837q17 0 29 -12.5t12 -29.5t-12 -29t-29 -12t-29.5 12t-12.5 29t12.5 29.5t29.5 12.5z
" />
    <glyph glyph-name="zdotaccent" unicode="&#x17c;" horiz-adv-x="342" 
d="M300 131q11 0 19 -8t8 -19v-77q0 -11 -8 -19t-19 -8h-258q-11 0 -19 8t-8 19v67l145 488h-112q-11 0 -19 8t-8 19v84q0 11 8 19t19 8h250q11 0 19 -8t8 -19v-64l-152 -498h127zM171 837q17 0 29 -12.5t12 -29.5t-12 -29t-29 -12t-29.5 12t-12.5 29t12.5 29.5t29.5 12.5z
" />
    <glyph glyph-name="Zcaron" unicode="&#x17d;" horiz-adv-x="342" 
d="M300 131q11 0 19 -8t8 -19v-77q0 -11 -8 -19t-19 -8h-258q-11 0 -19 8t-8 19v67l145 488h-112q-11 0 -19 8t-8 19v84q0 11 8 19t19 8h250q11 0 19 -8t8 -19v-64l-152 -498h127zM86 834q-6 6 -1 11l33 35q6 6 11 1l46 -37q6 -6 12 0l47 37q5 5 11 -1l32 -35q5 -5 -1 -11
l-89 -68q-6 -6 -12 0z" />
    <glyph glyph-name="zcaron" unicode="&#x17e;" horiz-adv-x="342" 
d="M300 131q11 0 19 -8t8 -19v-77q0 -11 -8 -19t-19 -8h-258q-11 0 -19 8t-8 19v67l145 488h-112q-11 0 -19 8t-8 19v84q0 11 8 19t19 8h250q11 0 19 -8t8 -19v-64l-152 -498h127zM86 834q-6 6 -1 11l33 35q6 6 11 1l46 -37q6 -6 12 0l47 37q5 5 11 -1l32 -35q5 -5 -1 -11
l-89 -68q-6 -6 -12 0z" />
    <glyph glyph-name="Oogonek" unicode="&#x1ea;" horiz-adv-x="369" 
d="M304 690q51 -49 51 -117v-431q0 -68 -51 -117q-28 -28 -75 -36q-2 -1 -6 -5q-7 -10 -6 -15q2 -16 32 -19q15 -1 17 -14q5 -27 7 -48q1 -9 -4 -13.5t-16 -4.5q-34 0 -64 16q-45 26 -51 70q-3 18 1 34q-44 8 -71 35q-50 50 -50 117v431q0 67 50 117q40 39 118 39t118 -39z
M160 581v-447q0 -23 26 -23q27 0 27 23v447q0 22 -27 22q-26 0 -26 -22z" />
    <glyph glyph-name="AEacute" unicode="&#x1fc;" horiz-adv-x="473" 
d="M353 406h47q11 0 19 -8t8 -19v-50q0 -11 -8 -19t-19 -8h-47v-177h80q11 0 19 -8t8 -19v-71q0 -11 -8 -19t-19 -8h-185q-11 0 -19 8t-8 19v81h-49l-8 -81q-2 -11 -10.5 -19t-19.5 -8h-94q-11 0 -18 8t-5 19l112 666q1 11 10.5 19t20.5 8h273q11 0 19 -8t8 -19v-66
q0 -11 -8 -19t-19 -8h-80v-194zM221 215v383l-38 -383h38zM365 868l-64 -107q-3 -7 -12 -7h-38q-8 0 -6 8l24 105q2 8 10 8h82q7 0 4 -7z" />
    <glyph glyph-name="aeacute" unicode="&#x1fd;" horiz-adv-x="473" 
d="M353 406h47q11 0 19 -8t8 -19v-50q0 -11 -8 -19t-19 -8h-47v-177h80q11 0 19 -8t8 -19v-71q0 -11 -8 -19t-19 -8h-185q-11 0 -19 8t-8 19v81h-49l-8 -81q-2 -11 -10.5 -19t-19.5 -8h-94q-11 0 -18 8t-5 19l112 666q1 11 10.5 19t20.5 8h273q11 0 19 -8t8 -19v-66
q0 -11 -8 -19t-19 -8h-80v-194zM221 215v383l-38 -383h38zM365 868l-64 -107q-3 -7 -12 -7h-38q-8 0 -6 8l24 105q2 8 10 8h82q7 0 4 -7z" />
    <glyph glyph-name="circumflex" unicode="&#x2c6;" horiz-adv-x="216" 
d="M203 813q6 -6 1 -11l-33 -35q-6 -6 -11 -1l-46 37q-6 6 -12 0l-47 -37q-5 -5 -11 1l-32 35q-5 5 1 11l89 68q6 6 12 0z" />
    <glyph glyph-name="caron" unicode="&#x2c7;" horiz-adv-x="216" 
d="M13 834q-6 6 -1 11l33 35q6 6 11 1l46 -37q6 -6 12 0l47 37q5 5 11 -1l32 -35q5 -5 -1 -11l-89 -68q-6 -6 -12 0z" />
    <glyph glyph-name="breve" unicode="&#x2d8;" horiz-adv-x="165" 
d="M122 823h24q7 0 9.5 -3.5t1.5 -6.5q-3 -24 -21 -42q-21 -21 -53 -21t-53 21q-18 18 -21 43q-3 9 8 9h28q7 0 10 -6q5 -22 28 -22q20 0 27 20q0 8 12 8z" />
    <glyph glyph-name="dotaccent" unicode="&#x2d9;" horiz-adv-x="107" 
d="M54 837q17 0 29 -12.5t12 -29.5t-12.5 -29t-28.5 -12q-17 0 -29.5 12t-12.5 29t12.5 29.5t29.5 12.5z" />
    <glyph glyph-name="ring" unicode="&#x2da;" horiz-adv-x="166" 
d="M83 750q-32 0 -53 21q-22 22 -22 52q0 31 22 52.5t53 21.5t53 -21.5t22 -52.5q0 -30 -22 -52q-21 -21 -53 -21zM83 852q-12 0 -20.5 -8.5t-8.5 -20.5q0 -11 9 -19.5t20 -8.5t19.5 8.5t8.5 19.5q0 12 -8.5 20.5t-19.5 8.5z" />
    <glyph glyph-name="ogonek" unicode="&#x2db;" horiz-adv-x="165" 
d="M150 -111q1 -9 -4.5 -13.5t-16.5 -4.5q-34 0 -64 16q-45 26 -51 70q-8 45 27 83q31 32 79 40l12 -79q-22 -5 -33 -16q-7 -10 -6 -15q2 -16 32 -19q16 -2 17 -14q5 -25 8 -48z" />
    <glyph glyph-name="tilde" unicode="&#x2dc;" horiz-adv-x="254" 
d="M232 848q11 -7 4 -16l-20 -27q-9 -12 -22 -18q-13 -7 -28 -7q-17 0 -32 9l-30 19q-13 10 -27 -3q-7 -7 -9 -10q-6 -7 -19 -1q-7 4 -25 17q-10 7 -2 19l16 20q9 11 21 17q16 8 29 8q15 0 32 -10l28 -19q14 -10 29 4q6 6 11 12q7 10 16 4q2 -1 12.5 -7.5t15.5 -10.5z" />
    <glyph glyph-name="hungarumlaut" unicode="&#x2dd;" horiz-adv-x="279" 
d="M263 877l-71 -107q-4 -7 -12 -7h-44q-8 0 -6 8l35 105q3 8 11 8h83q7 0 4 -7zM147 877l-71 -107q-4 -7 -12 -7h-44q-8 0 -6 8l35 105q3 8 11 8h83q7 0 4 -7z" />
    <glyph glyph-name="Wgrave" unicode="&#x1e80;" horiz-adv-x="597" 
d="M558 720q11 0 18 -8t5 -19l-102 -666q-1 -11 -10.5 -19t-20.5 -8h-76q-11 0 -20.5 8t-10.5 19l-42 312q-4 -27 -43 -312q-1 -11 -10.5 -19t-20.5 -8h-76q-11 0 -20.5 8t-10.5 19l-102 666q-2 11 5 19t18 8h77q11 0 19.5 -8t10.5 -19q40 -403 43 -430l45 430q2 11 10.5 19
t19.5 8h69q11 0 19.5 -8t10.5 -19l45 -430q3 27 43 430q2 11 10.5 19t19.5 8h77zM198 868q-4 7 4 7h82q8 0 10 -8l23 -105q2 -8 -6 -8h-38q-9 0 -12 7z" />
    <glyph glyph-name="wgrave" unicode="&#x1e81;" horiz-adv-x="597" 
d="M558 720q11 0 18 -8t5 -19l-102 -666q-1 -11 -10.5 -19t-20.5 -8h-76q-11 0 -20.5 8t-10.5 19l-42 312q-4 -27 -43 -312q-1 -11 -10.5 -19t-20.5 -8h-76q-11 0 -20.5 8t-10.5 19l-102 666q-2 11 5 19t18 8h77q11 0 19.5 -8t10.5 -19q40 -403 43 -430l45 430q2 11 10.5 19
t19.5 8h69q11 0 19.5 -8t10.5 -19l45 -430q3 27 43 430q2 11 10.5 19t19.5 8h77zM198 868q-4 7 4 7h82q8 0 10 -8l23 -105q2 -8 -6 -8h-38q-9 0 -12 7z" />
    <glyph glyph-name="Wacute" unicode="&#x1e82;" horiz-adv-x="597" 
d="M558 720q11 0 18 -8t5 -19l-102 -666q-1 -11 -10.5 -19t-20.5 -8h-76q-11 0 -20.5 8t-10.5 19l-42 312q-4 -27 -43 -312q-1 -11 -10.5 -19t-20.5 -8h-76q-11 0 -20.5 8t-10.5 19l-102 666q-2 11 5 19t18 8h77q11 0 19.5 -8t10.5 -19q40 -403 43 -430l45 430q2 11 10.5 19
t19.5 8h69q11 0 19.5 -8t10.5 -19l45 -430q3 27 43 430q2 11 10.5 19t19.5 8h77zM401 868l-64 -107q-3 -7 -12 -7h-38q-8 0 -6 8l24 105q2 8 10 8h82q7 0 4 -7z" />
    <glyph glyph-name="wacute" unicode="&#x1e83;" horiz-adv-x="597" 
d="M558 720q11 0 18 -8t5 -19l-102 -666q-1 -11 -10.5 -19t-20.5 -8h-76q-11 0 -20.5 8t-10.5 19l-42 312q-4 -27 -43 -312q-1 -11 -10.5 -19t-20.5 -8h-76q-11 0 -20.5 8t-10.5 19l-102 666q-2 11 5 19t18 8h77q11 0 19.5 -8t10.5 -19q40 -403 43 -430l45 430q2 11 10.5 19
t19.5 8h69q11 0 19.5 -8t10.5 -19l45 -430q3 27 43 430q2 11 10.5 19t19.5 8h77zM399 868l-64 -107q-3 -7 -12 -7h-38q-8 0 -6 8l24 105q2 8 10 8h82q7 0 4 -7z" />
    <glyph glyph-name="Wdieresis" unicode="&#x1e84;" horiz-adv-x="597" 
d="M558 720q11 0 18 -8t5 -19l-102 -666q-1 -11 -10.5 -19t-20.5 -8h-76q-11 0 -20.5 8t-10.5 19l-42 312q-4 -27 -43 -312q-1 -11 -10.5 -19t-20.5 -8h-76q-11 0 -20.5 8t-10.5 19l-102 666q-2 11 5 19t18 8h77q11 0 19.5 -8t10.5 -19q40 -403 43 -430l45 430q2 11 10.5 19
t19.5 8h69q11 0 19.5 -8t10.5 -19l45 -430q3 27 43 430q2 11 10.5 19t19.5 8h77zM361 852q18 0 31 -13t13 -31t-13 -31t-31 -13t-31 13t-13 31t13 31t31 13zM235 852q18 0 31 -13t13 -31t-13 -31t-31 -13t-31 13t-13 31t13 31t31 13z" />
    <glyph glyph-name="wdieresis" unicode="&#x1e85;" horiz-adv-x="597" 
d="M558 720q11 0 18 -8t5 -19l-102 -666q-1 -11 -10.5 -19t-20.5 -8h-76q-11 0 -20.5 8t-10.5 19l-42 312q-4 -27 -43 -312q-1 -11 -10.5 -19t-20.5 -8h-76q-11 0 -20.5 8t-10.5 19l-102 666q-2 11 5 19t18 8h77q11 0 19.5 -8t10.5 -19q40 -403 43 -430l45 430q2 11 10.5 19
t19.5 8h69q11 0 19.5 -8t10.5 -19l45 -430q3 27 43 430q2 11 10.5 19t19.5 8h77zM361 852q18 0 31 -13t13 -31t-13 -31t-31 -13t-31 13t-13 31t13 31t31 13zM235 852q18 0 31 -13t13 -31t-13 -31t-31 -13t-31 13t-13 31t13 31t31 13z" />
    <glyph glyph-name="Ygrave" unicode="&#x1ef2;" horiz-adv-x="434" 
d="M286 298v-271q0 -11 -8 -19t-19 -8h-85q-11 0 -19 8t-8 19v273l-129 394q-3 11 2.5 18.5t16.5 7.5h86q11 0 21 -7.5t13 -18.5l60 -214l60 214q3 11 13 18.5t21 7.5h86q11 0 16.5 -7.5t2.5 -18.5zM116 868q-4 7 4 7h82q8 0 10 -8l23 -105q2 -8 -6 -8h-38q-9 0 -12 7z" />
    <glyph glyph-name="ygrave" unicode="&#x1ef3;" horiz-adv-x="434" 
d="M286 298v-271q0 -11 -8 -19t-19 -8h-85q-11 0 -19 8t-8 19v273l-129 394q-3 11 2.5 18.5t16.5 7.5h86q11 0 21 -7.5t13 -18.5l60 -214l60 214q3 11 13 18.5t21 7.5h86q11 0 16.5 -7.5t2.5 -18.5zM116 868q-4 7 4 7h82q8 0 10 -8l23 -105q2 -8 -6 -8h-38q-9 0 -12 7z" />
    <glyph glyph-name="endash" unicode="&#x2013;" horiz-adv-x="371" 
d="M356 317q0 -8 -8 -8h-325q-8 0 -8 8v74q0 8 8 8h325q8 0 8 -8v-74z" />
    <glyph glyph-name="emdash" unicode="&#x2014;" horiz-adv-x="481" 
d="M466 317q0 -8 -8 -8h-435q-8 0 -8 8v74q0 8 8 8h435q8 0 8 -8v-74z" />
    <glyph glyph-name="quoteleft" unicode="&#x2018;" horiz-adv-x="104" 
d="M14 604q0 56 24.5 86t50.5 30v-23q-1 -2 -2.5 -5.5t-6 -12t-6.5 -16.5t-3 -16t2.5 -13t11.5 -5h4v-62q0 -15 -19 -15h-39q-17 0 -17 14v38z" />
    <glyph glyph-name="quoteright" unicode="&#x2019;" horiz-adv-x="105" 
d="M89 668q0 -56 -24.5 -86t-50.5 -30v23q1 2 2.5 5.5t6 12t6.5 16.5t3 16t-2.5 13t-11.5 5h-4v61q0 16 19 16h38q18 0 18 -14v-38z" />
    <glyph glyph-name="quotesinglbase" unicode="&#x201a;" horiz-adv-x="105" 
d="M90 -10q0 -56 -24.5 -86t-50.5 -30v23q1 2 2.5 5.5t6 12t6.5 16.5t3 16t-2.5 13t-11.5 5h-4v62q0 15 19 15h38q18 0 18 -14v-38z" />
    <glyph glyph-name="quotedblleft" unicode="&#x201c;" horiz-adv-x="207" 
d="M14 604q0 56 24.5 86t50.5 30v-23q-1 -2 -2.5 -5.5t-6 -12t-6.5 -16.5t-3 -16t2.5 -13t11.5 -5h4v-62q0 -15 -19 -15h-39q-17 0 -17 14v38zM110 604q0 56 24.5 86t50.5 30v-23q-1 -2 -2.5 -5.5t-6 -12t-6.5 -16.5t-3 -16t2.5 -13t11.5 -5h4v-62q0 -15 -19 -15h-39
q-17 0 -17 14v38z" />
    <glyph glyph-name="quotedblright" unicode="&#x201d;" horiz-adv-x="208" 
d="M189 668q0 -56 -24.5 -86t-50.5 -30v23q1 2 2.5 5.5t6 12t6.5 16.5t3 16t-2.5 13t-11.5 5h-4v61q0 16 19 16h38q18 0 18 -14v-38zM93 668q0 -56 -24.5 -86t-50.5 -30v23q1 2 2.5 5.5t6 12t6.5 16.5t3 16t-2.5 13t-11.5 5h-4v61q0 16 19 16h38q18 0 18 -14v-38z" />
    <glyph glyph-name="quotedblbase" unicode="&#x201e;" horiz-adv-x="208" 
d="M90 -10q0 -56 -24.5 -86t-50.5 -30v23q1 2 2.5 5.5t6 12t6.5 16.5t3 16t-2.5 13t-11.5 5h-4v62q0 15 19 15h38q18 0 18 -14v-38zM187 -10q0 -56 -24.5 -86t-50.5 -30v23q1 2 2.5 5.5t6 12t6.5 16.5t3 16t-2.5 13t-11.5 5h-4v62q0 15 18 15h39q18 0 18 -14v-38z" />
    <glyph glyph-name="dagger" unicode="&#x2020;" horiz-adv-x="258" 
d="M174 309v-8v-233q0 -8 -8 -8h-74q-8 0 -8 8v233v8h-8h-59q-8 0 -8 8v74q0 8 8 8h59h8v8v64q0 8 8 8h74q8 0 8 -8v-64v-8h8h59q8 0 8 -8v-74q0 -8 -8 -8h-59h-8z" />
    <glyph glyph-name="daggerdbl" unicode="&#x2021;" horiz-adv-x="260" 
d="M242 309h-67v-79h67q8 0 8 -8v-74q0 -8 -8 -8h-67v-72q0 -8 -8 -8h-74q-8 0 -8 8v72h-67q-8 0 -8 8v74q0 8 8 8h67v79h-67q-8 0 -8 8v74q0 8 8 8h67v72q0 8 8 8h74q8 0 8 -8v-72h67q8 0 8 -8v-74q0 -8 -8 -8z" />
    <glyph glyph-name="bullet" unicode="&#x2022;" horiz-adv-x="199" 
d="M187 352q0 -37 -25.5 -62.5t-62.5 -25.5q-36 0 -61.5 25.5t-25.5 62.5q0 36 25.5 61.5t61.5 25.5q37 0 62.5 -25.5t25.5 -61.5z" />
    <glyph glyph-name="ellipsis" unicode="&#x2026;" horiz-adv-x="492" 
d="M147 54q0 -25 -18 -43t-43 -18t-43 18t-18 43q0 26 18 44t43 18t43 -18.5t18 -43.5zM307 54q0 -25 -18 -43t-43 -18t-43 18t-18 43q0 26 18 44t43 18t43 -18.5t18 -43.5zM467 54q0 -25 -18 -43t-43 -18t-43 18t-18 43q0 26 18 44t43 18t43 -18.5t18 -43.5z" />
    <glyph glyph-name="perthousand" unicode="&#x2030;" horiz-adv-x="571" 
d="M172 533q0 -28 -23 -47t-58 -19q-34 0 -57 19t-23 47v134q0 28 23 47t57 19q35 0 58 -19t23 -47v-134zM79 537q0 -10 12 -10q13 0 13 10v126q0 10 -13 10q-12 0 -12 -10v-126zM294 253q34 0 57.5 -19t23.5 -48v-133q0 -29 -23.5 -48t-57.5 -19t-57 19.5t-23 47.5v133
q0 28 23 47.5t57 19.5zM307 57v125q0 11 -13 11q-12 0 -12 -11v-125q0 -11 12 -11q13 0 13 11zM479 253q34 0 57.5 -19t23.5 -48v-133q0 -29 -23.5 -48t-57.5 -19t-57 19t-23 48v133q0 29 23 48t57 19zM492 57v125q0 11 -13 11q-12 0 -12 -11v-125q0 -11 12 -11q13 0 13 11z
M327 720q8 0 6 -8l-209 -705q-2 -8 -10 -8h-61q-8 0 -6 8l209 705q2 8 10 8h61z" />
    <glyph glyph-name="Euro" unicode="&#x20ac;" horiz-adv-x="421" 
d="M290 506q-11 0 -19 8t-8 19v47q0 23 -25 23t-25 -23v-131h100q11 0 19 -8t8 -19v-22q0 -11 -8 -19t-19 -8h-100v-38h100q11 0 19 -8t8 -19v-22q0 -11 -8 -19t-19 -8h-100v-124q0 -23 25 -23t25 23v42q0 11 8 19t19 8h88q11 0 19 -8t8 -19v-34q0 -67 -51 -118
q-39 -39 -116 -39t-116 39q-51 51 -51 118v116h-36q-11 0 -19 8t-8 19v22q0 11 8 19t19 8h36v38h-36q-11 0 -19 8t-8 19v22q0 11 8 19t19 8h36v123q0 69 51 118q39 39 116 39t116 -39q51 -49 51 -118v-39q0 -11 -8 -19t-19 -8h-88z" />
    <glyph glyph-name="trademark" unicode="&#x2122;" horiz-adv-x="278" 
d="M85 586h-37v96h-34v34h105v-34h-34v-96zM217 716h47v-130h-32v80l-22 -80h-20l-22 80v-80h-33v130h47l18 -79z" />
    <glyph glyph-name="minus" unicode="&#x2212;" horiz-adv-x="0" 
 />
    <glyph glyph-name="CR" horiz-adv-x="169" 
 />
    <glyph glyph-name="Imacron" horiz-adv-x="212" 
d="M177 27q0 -11 -8 -19t-19 -8h-88q-11 0 -19 8t-8 19v666q0 11 8 19t19 8h88q11 0 19 -8t8 -19v-666zM231 793q0 -8 -8 -8h-234q-8 0 -8 8v44q0 8 8 8h234q8 0 8 -8v-44z" />
    <glyph glyph-name="ibreve" horiz-adv-x="212" 
d="M51 720h110q16 0 16 -16v-688q0 -16 -16 -16h-110q-16 0 -16 16v688q0 16 16 16zM145 823h24q7 0 9.5 -3.5t1.5 -6.5q-3 -24 -21 -42q-21 -21 -53 -21t-53 21q-18 18 -21 43q-3 9 8 9h28q7 0 10 -6q5 -22 28 -22q20 0 27 20q0 8 12 8z" />
    </font>
</defs>
</svg>
